<?xml version="1.0" encoding="utf-8"?>
<!DOCTYPE svg PUBLIC "-//W3C//DTD SVG 1.1//EN" "http://www.w3.org/Graphics/SVG/1.1/DTD/svg11.dtd">
<svg version="1.1" id="Layer_1" xmlns="http://www.w3.org/2000/svg" xmlns:xlink="http://www.w3.org/1999/xlink" x="0px" y="0px"
	 width="441px" height="397px" viewBox="0 0 441 397" enable-background="new 0 0 441 397" xml:space="preserve">
<filter id="dropShadow">
	<feGaussianBlur in="SourceAlpha" stdDeviation="1" />
	<feOffset dx="2" dy="2" />
	<feComponentTransfer xmlns="http://www.w3.org/2000/svg">
        <feFuncA type="linear" slope="0.3"/>
      </feComponentTransfer>
	<feMerge>
		<feMergeNode />
		<feMergeNode in="SourceGraphic" />
	</feMerge>
</filter>
<circle fill="#2F3174" enable-background="new    " cx="318" cy="121" r="117.5"/>
<circle fill="#4692CD" enable-background="new    " cx="196" cy="205" r="189.5"/>
<g filter="url(#dropShadow)">
	<g>
		<g>
			<path fill="#FFFFFF" d="M119.313,159.846c0,1.676-0.603,2.996-1.809,3.961s-2.884,1.447-5.034,1.447
				c-1.98,0-3.732-0.373-5.256-1.117v-3.656c1.252,0.559,2.312,0.952,3.18,1.181s1.661,0.343,2.38,0.343
				c0.863,0,1.525-0.165,1.987-0.495s0.692-0.821,0.692-1.473c0-0.364-0.102-0.688-0.305-0.971s-0.501-0.557-0.895-0.819
				s-1.195-0.681-2.406-1.257c-1.134-0.533-1.985-1.045-2.552-1.536s-1.02-1.062-1.358-1.714s-0.508-1.414-0.508-2.285
				c0-1.642,0.557-2.933,1.669-3.872s2.651-1.409,4.615-1.409c0.965,0,1.885,0.114,2.761,0.343s1.792,0.55,2.749,0.965l-1.27,3.06
				c-0.99-0.406-1.809-0.69-2.457-0.851s-1.284-0.241-1.911-0.241c-0.745,0-1.316,0.173-1.714,0.521s-0.597,0.8-0.597,1.358
				c0,0.347,0.081,0.649,0.241,0.908s0.417,0.508,0.768,0.749s1.183,0.675,2.495,1.301c1.735,0.83,2.924,1.661,3.567,2.495
				S119.313,158.635,119.313,159.846z"/>
			<path fill="#FFFFFF" d="M131.387,165l-0.749-1.93h-0.102c-0.652,0.821-1.322,1.39-2.012,1.708s-1.589,0.476-2.698,0.476
				c-1.363,0-2.436-0.389-3.218-1.168s-1.174-1.887-1.174-3.326c0-1.506,0.527-2.617,1.581-3.333s2.643-1.111,4.767-1.187
				l2.463-0.076v-0.622c0-1.439-0.736-2.158-2.209-2.158c-1.134,0-2.467,0.343-3.999,1.028l-1.282-2.615
				c1.633-0.855,3.445-1.282,5.434-1.282c1.904,0,3.364,0.415,4.38,1.244s1.523,2.09,1.523,3.783V165H131.387z M130.244,158.424
				l-1.498,0.051c-1.125,0.034-1.963,0.237-2.514,0.609s-0.825,0.939-0.825,1.701c0,1.092,0.626,1.638,1.879,1.638
				c0.897,0,1.614-0.258,2.152-0.774s0.806-1.202,0.806-2.057V158.424z"/>
			<path fill="#FFFFFF" d="M141.454,165l-5.408-14.193h4.05l2.742,8.087c0.305,1.024,0.495,1.993,0.571,2.907h0.076
				c0.042-0.812,0.233-1.782,0.571-2.907l2.729-8.087h4.05L145.428,165H141.454z"/>
			<path fill="#FFFFFF" d="M152.702,147.138c0-1.261,0.703-1.892,2.107-1.892s2.107,0.63,2.107,1.892
				c0,0.601-0.176,1.068-0.527,1.403s-0.878,0.501-1.581,0.501C153.405,149.042,152.702,148.407,152.702,147.138z M156.739,165
				h-3.872v-14.193h3.872V165z"/>
			<path fill="#FFFFFF" d="M167.226,165.254c-2.285,0-4.071-0.63-5.357-1.892s-1.93-3.047-1.93-5.357
				c0-2.378,0.595-4.217,1.784-5.516s2.833-1.949,4.932-1.949c2.006,0,3.567,0.571,4.685,1.714s1.676,2.721,1.676,4.735v1.879
				h-9.153c0.042,1.1,0.368,1.959,0.978,2.577s1.464,0.927,2.564,0.927c0.855,0,1.663-0.089,2.425-0.267s1.557-0.461,2.387-0.851
				v2.996c-0.677,0.338-1.401,0.59-2.171,0.755S168.334,165.254,167.226,165.254z M166.68,153.295c-0.821,0-1.464,0.26-1.93,0.781
				s-0.732,1.259-0.8,2.215h5.434c-0.017-0.957-0.267-1.695-0.749-2.215S167.5,153.295,166.68,153.295z"/>
			<path fill="#FFFFFF" d="M186.04,165h-11.21v-2.285l6.576-8.95h-6.183v-2.958h10.588v2.514l-6.398,8.722h6.627V165z"/>
			<path fill="#FFFFFF" d="M187.589,159.617v-3.174h6.817v3.174H187.589z"/>
			<path fill="#FFFFFF" d="M200.589,165l-5.408-14.193h4.05l2.742,8.087c0.305,1.024,0.495,1.993,0.571,2.907h0.076
				c0.042-0.812,0.233-1.782,0.571-2.907l2.729-8.087h4.05L204.562,165H200.589z"/>
			<path fill="#FFFFFF" d="M224.9,157.878c0,2.311-0.609,4.118-1.828,5.421s-2.916,1.955-5.091,1.955
				c-1.363,0-2.564-0.298-3.605-0.895s-1.841-1.454-2.399-2.571s-0.838-2.42-0.838-3.91c0-2.319,0.605-4.122,1.815-5.408
				s2.912-1.93,5.104-1.93c1.363,0,2.564,0.296,3.605,0.889s1.841,1.443,2.399,2.552S224.9,156.388,224.9,157.878z M215.087,157.878
				c0,1.405,0.23,2.467,0.692,3.187s1.212,1.079,2.253,1.079c1.033,0,1.775-0.357,2.228-1.073s0.679-1.779,0.679-3.193
				c0-1.405-0.229-2.458-0.686-3.161s-1.206-1.054-2.247-1.054c-1.033,0-1.777,0.349-2.234,1.047S215.087,156.464,215.087,157.878z"
				/>
			<path fill="#FFFFFF" d="M238.154,165l-0.521-1.815h-0.203c-0.415,0.66-1.003,1.17-1.765,1.53s-1.629,0.54-2.603,0.54
				c-1.667,0-2.925-0.446-3.771-1.339s-1.27-2.177-1.27-3.853v-9.255h3.872v8.29c0,1.024,0.183,1.792,0.546,2.304
				s0.943,0.768,1.739,0.768c1.083,0,1.866-0.362,2.349-1.085s0.724-1.923,0.724-3.599v-6.678h3.872V165H238.154z"/>
			<path fill="#FFFFFF" d="M255.09,160.785c0,1.456-0.506,2.564-1.518,3.326c-1.011,0.762-2.523,1.143-4.538,1.143
				c-1.032,0-1.913-0.07-2.641-0.209s-1.409-0.345-2.044-0.616v-3.199c0.719,0.338,1.529,0.622,2.432,0.851
				c0.9,0.229,1.694,0.343,2.38,0.343c1.405,0,2.107-0.406,2.107-1.219c0-0.305-0.093-0.552-0.279-0.743s-0.508-0.406-0.965-0.647
				s-1.066-0.522-1.828-0.844c-1.092-0.457-1.894-0.88-2.405-1.27c-0.513-0.389-0.885-0.836-1.117-1.339
				c-0.233-0.503-0.35-1.124-0.35-1.86c0-1.261,0.488-2.236,1.467-2.926c0.977-0.69,2.363-1.035,4.157-1.035
				c1.71,0,3.372,0.373,4.989,1.117l-1.168,2.793c-0.711-0.305-1.375-0.554-1.993-0.749s-1.249-0.292-1.892-0.292
				c-1.143,0-1.714,0.309-1.714,0.927c0,0.347,0.185,0.647,0.552,0.901c0.369,0.254,1.175,0.63,2.419,1.13
				c1.108,0.449,1.921,0.868,2.438,1.257s0.897,0.838,1.143,1.346S255.09,160.083,255.09,160.785z"/>
			<path fill="#FFFFFF" d="M264.682,165.156c-1.115,0-1.979-0.37-2.594-1.109c-0.615-0.739-0.922-1.807-0.922-3.203
				c0-1.432,0.307-2.54,0.922-3.324c0.614-0.784,1.494-1.176,2.641-1.176c1.229,0,2.148,0.453,2.758,1.359h0.047l0.141-1.195h0.656
				v12.336h-0.766v-3.234c0-0.635,0.016-1.281,0.047-1.938h-0.047C266.949,164.662,265.988,165.156,264.682,165.156z
				 M264.697,164.469c1.031,0,1.767-0.284,2.207-0.852c0.439-0.567,0.66-1.521,0.66-2.859v-0.094c0-1.276-0.222-2.198-0.664-2.766
				c-0.443-0.567-1.148-0.852-2.117-0.852c-0.917,0-1.613,0.323-2.09,0.969c-0.477,0.646-0.715,1.594-0.715,2.844
				c0,1.193,0.232,2.093,0.699,2.699C263.144,164.166,263.816,164.469,264.697,164.469z"/>
			<path fill="#FFFFFF" d="M271.854,156.508v5.5c0,0.854,0.18,1.476,0.539,1.863c0.359,0.388,0.916,0.582,1.672,0.582
				c1.01,0,1.754-0.255,2.23-0.766c0.477-0.51,0.715-1.341,0.715-2.492v-4.688h0.766V165h-0.656l-0.141-1.172h-0.047
				c-0.553,0.886-1.534,1.328-2.945,1.328c-1.933,0-2.898-1.034-2.898-3.102v-5.547H271.854z"/>
			<path fill="#FFFFFF" d="M284.049,165.156c-1.234,0-2.197-0.38-2.887-1.141c-0.69-0.76-1.035-1.825-1.035-3.195
				c0-1.354,0.333-2.438,1-3.254c0.666-0.815,1.564-1.223,2.695-1.223c1,0,1.789,0.349,2.367,1.047
				c0.578,0.698,0.867,1.646,0.867,2.844v0.625h-6.117c0.01,1.167,0.282,2.058,0.816,2.672c0.533,0.615,1.298,0.922,2.293,0.922
				c0.484,0,0.91-0.034,1.277-0.102c0.367-0.067,0.832-0.213,1.395-0.438v0.703c-0.479,0.208-0.922,0.351-1.328,0.426
				S284.538,165.156,284.049,165.156z M283.822,157.031c-0.818,0-1.475,0.27-1.969,0.809c-0.495,0.539-0.784,1.316-0.867,2.332h5.25
				c0-0.984-0.214-1.754-0.641-2.309C285.168,157.309,284.577,157.031,283.822,157.031z"/>
			<path fill="#FFFFFF" d="M88.444,216H62.541v-6.348l8.716-8.813c2.49-2.604,4.118-4.382,4.883-5.334
				c0.765-0.952,1.298-1.77,1.599-2.454c0.301-0.684,0.452-1.399,0.452-2.148c0-0.928-0.301-1.66-0.903-2.197
				c-0.603-0.537-1.449-0.806-2.539-0.806c-1.123,0-2.258,0.322-3.406,0.964c-1.147,0.643-2.446,1.591-3.894,2.844l-5.298-6.201
				c1.839-1.644,3.385-2.82,4.639-3.528c1.253-0.708,2.616-1.249,4.089-1.624c1.473-0.374,3.129-0.562,4.968-0.562
				c2.311,0,4.374,0.407,6.189,1.221c1.814,0.814,3.223,1.974,4.224,3.479c1.001,1.506,1.501,3.194,1.501,5.066
				c0,1.4-0.175,2.694-0.525,3.882c-0.35,1.188-0.891,2.356-1.624,3.503s-1.705,2.356-2.917,3.625
				c-1.213,1.27-3.796,3.679-7.751,7.227v0.244h13.501V216z"/>
			<path fill="#FFFFFF" d="M100.507,208.7l0.342,0.562c-1.579,6.201-3.011,10.767-4.297,13.696H89.74
				c0.472-2.246,0.948-4.765,1.428-7.556c0.48-2.791,0.81-5.025,0.989-6.702H100.507z"/>
			<path fill="#FFFFFF" d="M130.343,209.091h-3.931V216h-9.521v-6.909h-14.233v-7.08l14.844-21.704h8.911v21.582h3.931V209.091z
				 M116.891,201.889v-4.15c0-0.781,0.028-1.835,0.085-3.162c0.057-1.326,0.102-2.022,0.134-2.087h-0.269
				c-0.554,1.253-1.18,2.425-1.88,3.516l-3.955,5.884H116.891z"/>
			<path fill="#FFFFFF" d="M177.344,216v-15.039c0-1.871-0.256-3.275-0.769-4.211c-0.513-0.936-1.323-1.404-2.429-1.404
				c-1.465,0-2.539,0.627-3.223,1.88c-0.684,1.253-1.025,3.215-1.025,5.884V216h-9.57v-15.039c0-1.871-0.244-3.275-0.732-4.211
				c-0.488-0.936-1.278-1.404-2.368-1.404c-1.498,0-2.588,0.667-3.271,2.002c-0.684,1.335-1.025,3.516-1.025,6.543V216h-9.546
				v-27.661h7.202l1.196,3.418h0.562c0.732-1.27,1.794-2.238,3.186-2.905c1.392-0.667,2.974-1.001,4.749-1.001
				c3.987,0,6.787,1.213,8.398,3.638h0.757c0.781-1.139,1.868-2.03,3.259-2.673c1.392-0.643,2.925-0.964,4.602-0.964
				c3.271,0,5.688,0.838,7.251,2.515c1.562,1.677,2.344,4.224,2.344,7.642V216H177.344z"/>
			<path fill="#FFFFFF" d="M191.188,181.454c0-1.432,0.398-2.498,1.196-3.198c0.797-0.7,2.083-1.05,3.857-1.05
				c1.774,0,3.068,0.358,3.882,1.074c0.813,0.716,1.221,1.774,1.221,3.174c0,2.8-1.701,4.199-5.103,4.199
				C192.873,185.653,191.188,184.254,191.188,181.454z M200.979,216h-9.546v-27.661h9.546V216z"/>
			<path fill="#FFFFFF" d="M215.189,216h-9.546v-37.988h9.546V216z"/>
			<path fill="#FFFFFF" d="M229.352,216h-9.546v-37.988h9.546V216z"/>
			<path fill="#FFFFFF" d="M233.772,181.454c0-1.432,0.398-2.498,1.196-3.198c0.797-0.7,2.083-1.05,3.857-1.05
				c1.773,0,3.068,0.358,3.882,1.074c0.813,0.716,1.221,1.774,1.221,3.174c0,2.8-1.701,4.199-5.103,4.199
				C235.457,185.653,233.772,184.254,233.772,181.454z M243.562,216h-9.546v-27.661h9.546V216z"/>
			<path fill="#FFFFFF" d="M274.644,202.108c0,4.524-1.217,8.053-3.649,10.583c-2.434,2.531-5.84,3.797-10.218,3.797
				c-4.199,0-7.54-1.294-10.022-3.882s-3.723-6.087-3.723-10.498c0-4.508,1.217-8.012,3.65-10.51
				c2.433-2.498,5.847-3.748,10.241-3.748c2.718,0,5.118,0.578,7.202,1.733c2.083,1.156,3.69,2.812,4.822,4.968
				C274.078,196.709,274.644,199.228,274.644,202.108z M256.724,202.108c0,2.376,0.317,4.187,0.952,5.433
				c0.635,1.244,1.701,1.867,3.198,1.867c1.481,0,2.526-0.623,3.138-1.867c0.609-1.246,0.915-3.057,0.915-5.433
				c0-2.36-0.31-4.142-0.928-5.347c-0.618-1.204-1.677-1.807-3.174-1.807c-1.465,0-2.515,0.598-3.149,1.794
				S256.724,199.732,256.724,202.108z"/>
			<path fill="#FFFFFF" d="M295.544,216v-15.088c0-1.839-0.265-3.227-0.794-4.163c-0.529-0.936-1.379-1.404-2.551-1.404
				c-1.611,0-2.775,0.643-3.491,1.929c-0.716,1.286-1.074,3.491-1.074,6.616V216h-9.546v-27.661h7.202l1.196,3.418h0.562
				c0.813-1.302,1.94-2.278,3.382-2.93c1.439-0.651,3.096-0.977,4.968-0.977c3.06,0,5.44,0.887,7.142,2.661
				c1.7,1.774,2.551,4.272,2.551,7.495V216H295.544z"/>
			<path fill="#FFFFFF" d="M330.946,207.504c0,2.963-1.009,5.2-3.027,6.714s-4.915,2.271-8.691,2.271
				c-2.051,0-3.833-0.109-5.347-0.33c-1.514-0.219-3.061-0.622-4.639-1.208v-7.642c1.48,0.651,3.104,1.188,4.871,1.611
				c1.766,0.424,3.34,0.635,4.724,0.635c2.067,0,3.101-0.472,3.101-1.416c0-0.488-0.289-0.924-0.867-1.307
				c-0.578-0.382-2.258-1.127-5.041-2.233c-2.539-1.042-4.313-2.226-5.322-3.552c-1.01-1.326-1.514-3.007-1.514-5.042
				c0-2.571,0.992-4.573,2.979-6.006c1.985-1.432,4.793-2.148,8.423-2.148c1.823,0,3.536,0.2,5.14,0.598
				c1.603,0.399,3.267,0.981,4.992,1.746l-2.588,6.152c-1.27-0.569-2.612-1.054-4.028-1.453c-1.416-0.398-2.571-0.598-3.467-0.598
				c-1.562,0-2.344,0.383-2.344,1.147c0,0.472,0.272,0.875,0.817,1.208c0.545,0.334,2.12,1.013,4.725,2.039
				c1.937,0.798,3.381,1.579,4.334,2.344c0.951,0.765,1.651,1.665,2.1,2.698C330.723,204.766,330.946,206.023,330.946,207.504z"/>
			<path fill="#FFFFFF" d="M94.609,231.344c0.614,0,1.146,0.112,1.594,0.336c0.448,0.224,0.849,0.606,1.203,1.148h0.047
				c-0.031-0.656-0.047-1.3-0.047-1.93v-3.055h0.766V240h-0.508l-0.195-1.297h-0.062c-0.646,0.969-1.573,1.453-2.781,1.453
				c-1.172,0-2.068-0.364-2.688-1.094c-0.62-0.729-0.93-1.792-0.93-3.188c0-1.469,0.307-2.591,0.922-3.367
				C92.544,231.731,93.438,231.344,94.609,231.344z M94.609,232.047c-0.927,0-1.624,0.325-2.09,0.977
				c-0.466,0.651-0.699,1.597-0.699,2.836c0,2.406,0.935,3.609,2.805,3.609c0.958,0,1.661-0.278,2.109-0.836
				c0.448-0.558,0.672-1.477,0.672-2.758v-0.133c0-1.312-0.22-2.257-0.66-2.832C96.306,232.335,95.594,232.047,94.609,232.047z"/>
			<path fill="#FFFFFF" d="M104.453,240.156c-1.234,0-2.197-0.38-2.887-1.141c-0.69-0.761-1.035-1.825-1.035-3.195
				c0-1.354,0.333-2.438,1-3.254c0.667-0.815,1.565-1.223,2.695-1.223c1,0,1.789,0.349,2.367,1.047s0.867,1.646,0.867,2.844v0.625
				h-6.117c0.01,1.167,0.282,2.058,0.816,2.672c0.534,0.614,1.298,0.922,2.293,0.922c0.484,0,0.91-0.034,1.277-0.102
				s0.832-0.214,1.395-0.438v0.703c-0.479,0.208-0.922,0.351-1.328,0.426S104.942,240.156,104.453,240.156z M104.227,232.031
				c-0.818,0-1.474,0.27-1.969,0.809c-0.495,0.539-0.784,1.316-0.867,2.332h5.25c0-0.984-0.214-1.754-0.641-2.309
				C105.573,232.309,104.981,232.031,104.227,232.031z"/>
			<path fill="#FFFFFF" d="M119.031,229.133c-1.433,0-2.56,0.458-3.383,1.375c-0.823,0.917-1.234,2.172-1.234,3.766
				c0,1.63,0.388,2.896,1.164,3.797c0.776,0.901,1.885,1.352,3.328,1.352c0.958,0,1.838-0.122,2.641-0.367v0.703
				c-0.755,0.266-1.698,0.398-2.828,0.398c-1.604,0-2.867-0.519-3.789-1.555s-1.383-2.484-1.383-4.344c0-1.161,0.22-2.185,0.66-3.07
				c0.44-0.886,1.073-1.569,1.898-2.051c0.825-0.481,1.785-0.723,2.879-0.723c1.114,0,2.112,0.208,2.992,0.625l-0.32,0.719
				C120.823,229.341,119.948,229.133,119.031,229.133z"/>
			<path fill="#FFFFFF" d="M129.055,240l-0.195-1.344h-0.062c-0.427,0.547-0.866,0.934-1.316,1.16
				c-0.451,0.227-0.983,0.34-1.598,0.34c-0.833,0-1.482-0.214-1.945-0.641c-0.464-0.427-0.695-1.019-0.695-1.773
				c0-0.828,0.345-1.472,1.035-1.93c0.69-0.458,1.688-0.7,2.996-0.727l1.617-0.047v-0.562c0-0.808-0.164-1.417-0.492-1.828
				s-0.857-0.617-1.586-0.617c-0.787,0-1.602,0.219-2.445,0.656l-0.289-0.672c0.932-0.438,1.854-0.656,2.766-0.656
				c0.932,0,1.629,0.242,2.09,0.727s0.691,1.239,0.691,2.266V240H129.055z M125.93,239.453c0.906,0,1.621-0.259,2.145-0.777
				s0.785-1.238,0.785-2.16v-0.836l-1.484,0.062c-1.193,0.058-2.043,0.243-2.551,0.559s-0.762,0.806-0.762,1.473
				c0,0.531,0.163,0.944,0.488,1.238C124.876,239.306,125.336,239.453,125.93,239.453z"/>
			<path fill="#FFFFFF" d="M138.297,240v-5.508c0-0.854-0.18-1.476-0.539-1.863s-0.917-0.582-1.672-0.582
				c-1.016,0-1.759,0.257-2.23,0.77c-0.472,0.513-0.707,1.345-0.707,2.496V240h-0.773v-8.492h0.656l0.148,1.164h0.047
				c0.552-0.886,1.534-1.328,2.945-1.328c1.927,0,2.891,1.034,2.891,3.102V240H138.297z"/>
			<path fill="#FFFFFF" d="M146.969,240l-0.195-1.344h-0.062c-0.427,0.547-0.866,0.934-1.316,1.16
				c-0.451,0.227-0.983,0.34-1.598,0.34c-0.833,0-1.482-0.214-1.945-0.641c-0.464-0.427-0.695-1.019-0.695-1.773
				c0-0.828,0.345-1.472,1.035-1.93c0.69-0.458,1.688-0.7,2.996-0.727l1.617-0.047v-0.562c0-0.808-0.164-1.417-0.492-1.828
				s-0.857-0.617-1.586-0.617c-0.787,0-1.602,0.219-2.445,0.656l-0.289-0.672c0.932-0.438,1.854-0.656,2.766-0.656
				c0.932,0,1.629,0.242,2.09,0.727s0.691,1.239,0.691,2.266V240H146.969z M143.844,239.453c0.906,0,1.621-0.259,2.145-0.777
				s0.785-1.238,0.785-2.16v-0.836l-1.484,0.062c-1.193,0.058-2.043,0.243-2.551,0.559s-0.762,0.806-0.762,1.473
				c0,0.531,0.163,0.944,0.488,1.238C142.79,239.306,143.25,239.453,143.844,239.453z"/>
			<path fill="#FFFFFF" d="M153.398,231.344c0.614,0,1.146,0.112,1.594,0.336c0.448,0.224,0.849,0.606,1.203,1.148h0.047
				c-0.031-0.656-0.047-1.3-0.047-1.93v-3.055h0.766V240h-0.508l-0.195-1.297h-0.062c-0.646,0.969-1.573,1.453-2.781,1.453
				c-1.172,0-2.068-0.364-2.688-1.094c-0.62-0.729-0.93-1.792-0.93-3.188c0-1.469,0.307-2.591,0.922-3.367
				C151.333,231.731,152.227,231.344,153.398,231.344z M153.398,232.047c-0.927,0-1.624,0.325-2.09,0.977
				c-0.466,0.651-0.699,1.597-0.699,2.836c0,2.406,0.935,3.609,2.805,3.609c0.958,0,1.661-0.278,2.109-0.836
				c0.448-0.558,0.672-1.477,0.672-2.758v-0.133c0-1.312-0.22-2.257-0.66-2.832C155.095,232.335,154.383,232.047,153.398,232.047z"
				/>
			<path fill="#FFFFFF" d="M159.703,229.148c0-0.5,0.164-0.75,0.492-0.75c0.161,0,0.288,0.065,0.379,0.195
				c0.091,0.13,0.137,0.315,0.137,0.555c0,0.234-0.046,0.419-0.137,0.555c-0.091,0.136-0.218,0.203-0.379,0.203
				C159.867,229.906,159.703,229.653,159.703,229.148z M160.586,240h-0.773v-8.492h0.773V240z"/>
			<path fill="#FFFFFF" d="M166.859,240.156c-1.234,0-2.197-0.38-2.887-1.141c-0.69-0.761-1.035-1.825-1.035-3.195
				c0-1.354,0.333-2.438,1-3.254c0.667-0.815,1.565-1.223,2.695-1.223c1,0,1.789,0.349,2.367,1.047s0.867,1.646,0.867,2.844v0.625
				h-6.117c0.01,1.167,0.282,2.058,0.816,2.672c0.534,0.614,1.298,0.922,2.293,0.922c0.484,0,0.91-0.034,1.277-0.102
				s0.832-0.214,1.395-0.438v0.703c-0.479,0.208-0.922,0.351-1.328,0.426S167.349,240.156,166.859,240.156z M166.633,232.031
				c-0.818,0-1.474,0.27-1.969,0.809c-0.495,0.539-0.784,1.316-0.867,2.332h5.25c0-0.984-0.214-1.754-0.641-2.309
				C167.979,232.309,167.388,232.031,166.633,232.031z"/>
			<path fill="#FFFFFF" d="M178.133,240v-5.508c0-0.854-0.18-1.476-0.539-1.863s-0.917-0.582-1.672-0.582
				c-1.016,0-1.759,0.257-2.23,0.77c-0.472,0.513-0.707,1.345-0.707,2.496V240h-0.773v-8.492h0.656l0.148,1.164h0.047
				c0.552-0.886,1.534-1.328,2.945-1.328c1.927,0,2.891,1.034,2.891,3.102V240H178.133z"/>
			<path fill="#FFFFFF" d="M186.914,237.789c0,0.761-0.289,1.345-0.867,1.754s-1.398,0.613-2.461,0.613
				c-1.136,0-2.037-0.175-2.703-0.523v-0.836c0.854,0.427,1.755,0.641,2.703,0.641c0.838,0,1.475-0.14,1.91-0.418
				c0.435-0.278,0.652-0.649,0.652-1.113c0-0.427-0.173-0.786-0.52-1.078c-0.347-0.292-0.916-0.578-1.707-0.859
				c-0.849-0.308-1.445-0.571-1.789-0.793s-0.603-0.472-0.777-0.75c-0.175-0.278-0.262-0.618-0.262-1.02
				c0-0.636,0.267-1.138,0.801-1.508c0.534-0.37,1.28-0.555,2.238-0.555c0.917,0,1.786,0.172,2.609,0.516l-0.289,0.703
				c-0.833-0.344-1.607-0.516-2.32-0.516c-0.693,0-1.242,0.114-1.648,0.344s-0.609,0.547-0.609,0.953
				c0,0.442,0.157,0.797,0.473,1.062c0.315,0.266,0.931,0.562,1.848,0.891c0.766,0.276,1.323,0.524,1.672,0.746
				c0.349,0.222,0.61,0.473,0.785,0.754C186.827,237.078,186.914,237.409,186.914,237.789z"/>
			<path fill="#FFFFFF" d="M198.523,237.789c0,0.761-0.289,1.345-0.867,1.754s-1.398,0.613-2.461,0.613
				c-1.136,0-2.037-0.175-2.703-0.523v-0.836c0.854,0.427,1.755,0.641,2.703,0.641c0.838,0,1.475-0.14,1.91-0.418
				c0.435-0.278,0.652-0.649,0.652-1.113c0-0.427-0.173-0.786-0.52-1.078c-0.347-0.292-0.916-0.578-1.707-0.859
				c-0.849-0.308-1.445-0.571-1.789-0.793s-0.603-0.472-0.777-0.75c-0.175-0.278-0.262-0.618-0.262-1.02
				c0-0.636,0.267-1.138,0.801-1.508c0.534-0.37,1.28-0.555,2.238-0.555c0.917,0,1.786,0.172,2.609,0.516l-0.289,0.703
				c-0.833-0.344-1.607-0.516-2.32-0.516c-0.693,0-1.242,0.114-1.648,0.344s-0.609,0.547-0.609,0.953
				c0,0.442,0.157,0.797,0.473,1.062c0.315,0.266,0.931,0.562,1.848,0.891c0.766,0.276,1.323,0.524,1.672,0.746
				c0.349,0.222,0.61,0.473,0.785,0.754C198.436,237.078,198.523,237.409,198.523,237.789z"/>
			<path fill="#FFFFFF" d="M207.734,235.742c0,1.386-0.336,2.468-1.008,3.246s-1.599,1.168-2.781,1.168
				c-0.745,0-1.401-0.18-1.969-0.539c-0.568-0.359-1.003-0.875-1.305-1.547c-0.302-0.672-0.453-1.448-0.453-2.328
				c0-1.386,0.336-2.465,1.008-3.238s1.594-1.16,2.766-1.16c1.167,0,2.082,0.392,2.746,1.176S207.734,234.378,207.734,235.742z
				 M201.031,235.742c0,1.167,0.256,2.077,0.77,2.73c0.513,0.653,1.238,0.98,2.176,0.98s1.663-0.327,2.176-0.98
				c0.513-0.653,0.77-1.563,0.77-2.73c0-1.172-0.259-2.081-0.777-2.727c-0.519-0.646-1.246-0.969-2.184-0.969
				s-1.66,0.321-2.168,0.965S201.031,234.565,201.031,235.742z"/>
			<path fill="#FFFFFF" d="M216.008,240v-5.508c0-0.854-0.18-1.476-0.539-1.863s-0.917-0.582-1.672-0.582
				c-1.016,0-1.759,0.257-2.23,0.77c-0.472,0.513-0.707,1.345-0.707,2.496V240h-0.773v-8.492h0.656l0.148,1.164h0.047
				c0.552-0.886,1.534-1.328,2.945-1.328c1.927,0,2.891,1.034,2.891,3.102V240H216.008z"/>
			<path fill="#FFFFFF" d="M221.766,239.469c0.489,0,0.916-0.042,1.281-0.125v0.625c-0.375,0.125-0.808,0.188-1.297,0.188
				c-0.75,0-1.304-0.2-1.66-0.602c-0.357-0.401-0.535-1.031-0.535-1.891v-5.484h-1.258v-0.453l1.258-0.352l0.391-1.922h0.398v2.055
				h2.492v0.672h-2.492v5.375c0,0.651,0.114,1.133,0.344,1.445C220.917,239.312,221.275,239.469,221.766,239.469z"/>
			<path fill="#FFFFFF" d="M234.195,240L234,238.656h-0.062c-0.428,0.547-0.866,0.934-1.316,1.16
				c-0.451,0.227-0.983,0.34-1.598,0.34c-0.834,0-1.482-0.214-1.945-0.641c-0.464-0.427-0.695-1.019-0.695-1.773
				c0-0.828,0.345-1.472,1.035-1.93c0.689-0.458,1.688-0.7,2.996-0.727l1.617-0.047v-0.562c0-0.808-0.164-1.417-0.492-1.828
				s-0.857-0.617-1.586-0.617c-0.787,0-1.602,0.219-2.445,0.656l-0.289-0.672c0.932-0.438,1.854-0.656,2.766-0.656
				c0.932,0,1.629,0.242,2.09,0.727s0.691,1.239,0.691,2.266V240H234.195z M231.07,239.453c0.906,0,1.621-0.259,2.145-0.777
				s0.785-1.238,0.785-2.16v-0.836l-1.484,0.062c-1.193,0.058-2.043,0.243-2.551,0.559s-0.762,0.806-0.762,1.473
				c0,0.531,0.162,0.944,0.488,1.238C230.017,239.306,230.477,239.453,231.07,239.453z"/>
			<path fill="#FFFFFF" d="M239.758,239.469c0.489,0,0.916-0.042,1.281-0.125v0.625c-0.375,0.125-0.808,0.188-1.297,0.188
				c-0.75,0-1.304-0.2-1.66-0.602c-0.357-0.401-0.535-1.031-0.535-1.891v-5.484h-1.258v-0.453l1.258-0.352l0.391-1.922h0.398v2.055
				h2.492v0.672h-2.492v5.375c0,0.651,0.114,1.133,0.344,1.445C238.908,239.312,239.268,239.469,239.758,239.469z"/>
			<path fill="#FFFFFF" d="M245.117,239.469c0.489,0,0.916-0.042,1.281-0.125v0.625c-0.375,0.125-0.808,0.188-1.297,0.188
				c-0.75,0-1.304-0.2-1.66-0.602c-0.357-0.401-0.535-1.031-0.535-1.891v-5.484h-1.258v-0.453l1.258-0.352l0.391-1.922h0.398v2.055
				h2.492v0.672h-2.492v5.375c0,0.651,0.114,1.133,0.344,1.445C244.268,239.312,244.627,239.469,245.117,239.469z"/>
			<path fill="#FFFFFF" d="M251.664,240.156c-1.234,0-2.197-0.38-2.887-1.141c-0.69-0.761-1.035-1.825-1.035-3.195
				c0-1.354,0.333-2.438,1-3.254c0.666-0.815,1.564-1.223,2.695-1.223c1,0,1.789,0.349,2.367,1.047s0.867,1.646,0.867,2.844v0.625
				h-6.117c0.01,1.167,0.282,2.058,0.816,2.672c0.533,0.614,1.298,0.922,2.293,0.922c0.484,0,0.91-0.034,1.277-0.102
				s0.832-0.214,1.395-0.438v0.703c-0.479,0.208-0.922,0.351-1.328,0.426S252.153,240.156,251.664,240.156z M251.438,232.031
				c-0.818,0-1.475,0.27-1.969,0.809c-0.495,0.539-0.784,1.316-0.867,2.332h5.25c0-0.984-0.214-1.754-0.641-2.309
				C252.783,232.309,252.192,232.031,251.438,232.031z"/>
			<path fill="#FFFFFF" d="M256.906,229.148c0-0.5,0.164-0.75,0.492-0.75c0.161,0,0.287,0.065,0.379,0.195
				c0.091,0.13,0.137,0.315,0.137,0.555c0,0.234-0.046,0.419-0.137,0.555c-0.092,0.136-0.218,0.203-0.379,0.203
				C257.07,229.906,256.906,229.653,256.906,229.148z M257.789,240h-0.773v-8.492h0.773V240z"/>
			<path fill="#FFFFFF" d="M266.555,240v-5.508c0-0.854-0.18-1.476-0.539-1.863s-0.917-0.582-1.672-0.582
				c-1.016,0-1.76,0.257-2.23,0.77c-0.472,0.513-0.707,1.345-0.707,2.496V240h-0.773v-8.492h0.656l0.148,1.164h0.047
				c0.552-0.886,1.533-1.328,2.945-1.328c1.927,0,2.891,1.034,2.891,3.102V240H266.555z"/>
			<path fill="#FFFFFF" d="M272.312,239.469c0.489,0,0.916-0.042,1.281-0.125v0.625c-0.375,0.125-0.808,0.188-1.297,0.188
				c-0.75,0-1.304-0.2-1.66-0.602c-0.357-0.401-0.535-1.031-0.535-1.891v-5.484h-1.258v-0.453l1.258-0.352l0.391-1.922h0.398v2.055
				h2.492v0.672h-2.492v5.375c0,0.651,0.114,1.133,0.344,1.445C271.463,239.312,271.822,239.469,272.312,239.469z"/>
			<path fill="#FFFFFF" d="M280.695,237.789c0,0.761-0.289,1.345-0.867,1.754s-1.398,0.613-2.461,0.613
				c-1.136,0-2.037-0.175-2.703-0.523v-0.836c0.854,0.427,1.755,0.641,2.703,0.641c0.838,0,1.475-0.14,1.91-0.418
				c0.435-0.278,0.652-0.649,0.652-1.113c0-0.427-0.174-0.786-0.52-1.078c-0.347-0.292-0.916-0.578-1.707-0.859
				c-0.85-0.308-1.445-0.571-1.789-0.793s-0.604-0.472-0.777-0.75c-0.175-0.278-0.262-0.618-0.262-1.02
				c0-0.636,0.267-1.138,0.801-1.508c0.533-0.37,1.279-0.555,2.238-0.555c0.916,0,1.786,0.172,2.609,0.516l-0.289,0.703
				c-0.834-0.344-1.607-0.516-2.32-0.516c-0.693,0-1.242,0.114-1.648,0.344s-0.609,0.547-0.609,0.953
				c0,0.442,0.157,0.797,0.473,1.062c0.314,0.266,0.931,0.562,1.848,0.891c0.766,0.276,1.322,0.524,1.672,0.746
				c0.349,0.222,0.61,0.473,0.785,0.754C280.607,237.078,280.695,237.409,280.695,237.789z"/>
			<path fill="#FFFFFF" d="M290.148,231.344c0.614,0,1.146,0.112,1.594,0.336c0.447,0.224,0.849,0.606,1.203,1.148h0.047
				c-0.031-0.656-0.047-1.3-0.047-1.93v-3.055h0.766V240h-0.508l-0.195-1.297h-0.062c-0.646,0.969-1.573,1.453-2.781,1.453
				c-1.172,0-2.068-0.364-2.688-1.094c-0.62-0.729-0.93-1.792-0.93-3.188c0-1.469,0.307-2.591,0.922-3.367
				C288.083,231.731,288.977,231.344,290.148,231.344z M290.148,232.047c-0.928,0-1.624,0.325-2.09,0.977
				c-0.467,0.651-0.699,1.597-0.699,2.836c0,2.406,0.935,3.609,2.805,3.609c0.958,0,1.661-0.278,2.109-0.836
				c0.447-0.558,0.672-1.477,0.672-2.758v-0.133c0-1.312-0.221-2.257-0.66-2.832C291.845,232.335,291.133,232.047,290.148,232.047z"
				/>
			<path fill="#FFFFFF" d="M299.992,240.156c-1.234,0-2.197-0.38-2.887-1.141c-0.69-0.761-1.035-1.825-1.035-3.195
				c0-1.354,0.333-2.438,1-3.254c0.666-0.815,1.564-1.223,2.695-1.223c1,0,1.789,0.349,2.367,1.047s0.867,1.646,0.867,2.844v0.625
				h-6.117c0.01,1.167,0.282,2.058,0.816,2.672c0.533,0.614,1.298,0.922,2.293,0.922c0.484,0,0.91-0.034,1.277-0.102
				s0.832-0.214,1.395-0.438v0.703c-0.479,0.208-0.922,0.351-1.328,0.426S300.481,240.156,299.992,240.156z M299.766,232.031
				c-0.818,0-1.475,0.27-1.969,0.809c-0.495,0.539-0.784,1.316-0.867,2.332h5.25c0-0.984-0.214-1.754-0.641-2.309
				C301.111,232.309,300.521,232.031,299.766,232.031z"/>
			<path fill="#FFFFFF" d="M89.785,264h-2.383v-5.102c0-0.63-0.105-1.103-0.316-1.418s-0.543-0.473-0.996-0.473
				c-0.609,0-1.052,0.224-1.328,0.672c-0.276,0.448-0.414,1.185-0.414,2.211V264h-2.383v-8.734h1.82l0.32,1.117h0.133
				c0.234-0.401,0.573-0.715,1.016-0.941c0.442-0.227,0.95-0.34,1.523-0.34c1.307,0,2.192,0.427,2.656,1.281h0.211
				c0.234-0.406,0.579-0.722,1.035-0.945c0.456-0.224,0.97-0.336,1.543-0.336c0.989,0,1.738,0.254,2.246,0.762
				s0.762,1.321,0.762,2.441V264H92.84v-5.102c0-0.63-0.105-1.103-0.316-1.418s-0.543-0.473-0.996-0.473
				c-0.583,0-1.02,0.208-1.309,0.625s-0.434,1.078-0.434,1.984V264z"/>
			<path fill="#FFFFFF" d="M96.426,255.266h2.609l1.648,4.914c0.141,0.427,0.237,0.933,0.289,1.516h0.047
				c0.057-0.536,0.169-1.042,0.336-1.516l1.617-4.914h2.555l-3.695,9.852c-0.339,0.911-0.822,1.594-1.449,2.047
				c-0.628,0.453-1.361,0.68-2.199,0.68c-0.412,0-0.815-0.044-1.211-0.133v-1.891c0.286,0.067,0.599,0.102,0.938,0.102
				c0.422,0,0.79-0.129,1.105-0.387c0.315-0.258,0.561-0.647,0.738-1.168l0.141-0.43L96.426,255.266z"/>
			<path fill="#FFFFFF" d="M110.324,264.156c-2.719,0-4.078-1.492-4.078-4.477c0-1.484,0.37-2.618,1.109-3.402
				c0.739-0.784,1.799-1.176,3.18-1.176c1.01,0,1.917,0.198,2.719,0.594l-0.703,1.844c-0.375-0.151-0.724-0.274-1.047-0.371
				c-0.323-0.097-0.646-0.145-0.969-0.145c-1.24,0-1.859,0.88-1.859,2.641c0,1.708,0.62,2.562,1.859,2.562
				c0.458,0,0.883-0.062,1.273-0.184s0.781-0.313,1.172-0.574v2.039c-0.386,0.245-0.775,0.414-1.168,0.508
				C111.419,264.109,110.923,264.156,110.324,264.156z"/>
			<path fill="#FFFFFF" d="M122.941,259.617c0,1.422-0.375,2.534-1.125,3.336s-1.794,1.203-3.133,1.203
				c-0.839,0-1.578-0.184-2.219-0.551s-1.133-0.895-1.477-1.582s-0.516-1.489-0.516-2.406c0-1.427,0.372-2.536,1.117-3.328
				c0.745-0.792,1.792-1.188,3.141-1.188c0.838,0,1.578,0.183,2.219,0.547s1.133,0.888,1.477,1.57S122.941,258.7,122.941,259.617z
				 M116.902,259.617c0,0.864,0.142,1.519,0.426,1.961c0.284,0.442,0.746,0.664,1.387,0.664c0.635,0,1.092-0.22,1.371-0.66
				c0.278-0.44,0.418-1.095,0.418-1.965c0-0.864-0.141-1.513-0.422-1.945s-0.742-0.648-1.383-0.648
				c-0.636,0-1.094,0.215-1.375,0.645S116.902,258.747,116.902,259.617z"/>
			<path fill="#FFFFFF" d="M131.004,261.406c0,0.896-0.312,1.578-0.934,2.047c-0.623,0.469-1.554,0.703-2.793,0.703
				c-0.636,0-1.177-0.043-1.625-0.129c-0.448-0.086-0.867-0.212-1.258-0.379v-1.969c0.442,0.208,0.941,0.383,1.496,0.523
				s1.043,0.211,1.465,0.211c0.864,0,1.297-0.25,1.297-0.75c0-0.188-0.058-0.34-0.172-0.457c-0.115-0.117-0.312-0.25-0.594-0.398
				s-0.656-0.321-1.125-0.52c-0.672-0.281-1.166-0.542-1.48-0.781c-0.315-0.239-0.544-0.515-0.688-0.824
				c-0.144-0.31-0.215-0.691-0.215-1.145c0-0.776,0.301-1.376,0.902-1.801s1.454-0.637,2.559-0.637c1.052,0,2.075,0.229,3.07,0.688
				l-0.719,1.719c-0.438-0.188-0.847-0.341-1.227-0.461c-0.38-0.12-0.769-0.18-1.164-0.18c-0.703,0-1.055,0.19-1.055,0.57
				c0,0.214,0.113,0.398,0.34,0.555s0.723,0.388,1.488,0.695c0.682,0.276,1.182,0.534,1.5,0.773
				c0.317,0.239,0.552,0.516,0.703,0.828C130.928,260.602,131.004,260.974,131.004,261.406z"/>
			<path fill="#FFFFFF" d="M136.816,264.156c-1.406,0-2.505-0.388-3.297-1.164c-0.792-0.776-1.188-1.875-1.188-3.297
				c0-1.464,0.366-2.595,1.098-3.395c0.731-0.8,1.743-1.199,3.035-1.199c1.234,0,2.195,0.352,2.883,1.055s1.031,1.675,1.031,2.914
				v1.156h-5.633c0.026,0.677,0.227,1.206,0.602,1.586s0.901,0.57,1.578,0.57c0.526,0,1.023-0.055,1.492-0.164
				s0.958-0.284,1.469-0.523v1.844c-0.417,0.208-0.862,0.363-1.336,0.465C138.077,264.105,137.499,264.156,136.816,264.156z
				 M136.48,256.797c-0.505,0-0.901,0.16-1.188,0.48c-0.287,0.32-0.451,0.774-0.492,1.363h3.344
				c-0.011-0.589-0.164-1.043-0.461-1.363S136.985,256.797,136.48,256.797z"/>
			<path fill="#FFFFFF" d="M148.41,261.406c0,0.896-0.312,1.578-0.934,2.047c-0.623,0.469-1.554,0.703-2.793,0.703
				c-0.636,0-1.177-0.043-1.625-0.129c-0.448-0.086-0.867-0.212-1.258-0.379v-1.969c0.442,0.208,0.941,0.383,1.496,0.523
				s1.043,0.211,1.465,0.211c0.864,0,1.297-0.25,1.297-0.75c0-0.188-0.058-0.34-0.172-0.457c-0.115-0.117-0.312-0.25-0.594-0.398
				s-0.656-0.321-1.125-0.52c-0.672-0.281-1.166-0.542-1.48-0.781c-0.315-0.239-0.544-0.515-0.688-0.824
				c-0.144-0.31-0.215-0.691-0.215-1.145c0-0.776,0.301-1.376,0.902-1.801s1.454-0.637,2.559-0.637c1.052,0,2.075,0.229,3.07,0.688
				l-0.719,1.719c-0.438-0.188-0.847-0.341-1.227-0.461c-0.38-0.12-0.769-0.18-1.164-0.18c-0.703,0-1.055,0.19-1.055,0.57
				c0,0.214,0.113,0.398,0.34,0.555s0.723,0.388,1.488,0.695c0.682,0.276,1.182,0.534,1.5,0.773
				c0.317,0.239,0.552,0.516,0.703,0.828C148.334,260.602,148.41,260.974,148.41,261.406z"/>
			<path fill="#FFFFFF" d="M157.191,264.156c-1.026,0-1.832-0.398-2.418-1.195s-0.879-1.901-0.879-3.312
				c0-1.433,0.298-2.548,0.895-3.348c0.596-0.8,1.418-1.199,2.465-1.199c1.099,0,1.938,0.427,2.516,1.281h0.078
				c-0.12-0.651-0.18-1.231-0.18-1.742v-2.797h2.391V264h-1.828l-0.461-1.133h-0.102
				C159.126,263.727,158.301,264.156,157.191,264.156z M158.027,262.258c0.609,0,1.056-0.177,1.34-0.531
				c0.284-0.354,0.438-0.956,0.465-1.805v-0.258c0-0.938-0.145-1.609-0.434-2.016s-0.759-0.609-1.41-0.609
				c-0.531,0-0.944,0.226-1.238,0.676c-0.294,0.45-0.441,1.105-0.441,1.965s0.148,1.504,0.445,1.934
				S157.475,262.258,158.027,262.258z"/>
			<path fill="#FFFFFF" d="M168.504,264.156c-1.406,0-2.505-0.388-3.297-1.164c-0.792-0.776-1.188-1.875-1.188-3.297
				c0-1.464,0.366-2.595,1.098-3.395c0.731-0.8,1.743-1.199,3.035-1.199c1.234,0,2.195,0.352,2.883,1.055s1.031,1.675,1.031,2.914
				v1.156h-5.633c0.026,0.677,0.227,1.206,0.602,1.586s0.901,0.57,1.578,0.57c0.526,0,1.023-0.055,1.492-0.164
				s0.958-0.284,1.469-0.523v1.844c-0.417,0.208-0.862,0.363-1.336,0.465C169.764,264.105,169.186,264.156,168.504,264.156z
				 M168.168,256.797c-0.505,0-0.901,0.16-1.188,0.48c-0.287,0.32-0.451,0.774-0.492,1.363h3.344
				c-0.011-0.589-0.164-1.043-0.461-1.363S168.673,256.797,168.168,256.797z"/>
			<path fill="#FFFFFF" d="M180.098,261.406c0,0.896-0.312,1.578-0.934,2.047c-0.623,0.469-1.554,0.703-2.793,0.703
				c-0.636,0-1.177-0.043-1.625-0.129c-0.448-0.086-0.867-0.212-1.258-0.379v-1.969c0.442,0.208,0.941,0.383,1.496,0.523
				s1.043,0.211,1.465,0.211c0.864,0,1.297-0.25,1.297-0.75c0-0.188-0.058-0.34-0.172-0.457c-0.115-0.117-0.312-0.25-0.594-0.398
				s-0.656-0.321-1.125-0.52c-0.672-0.281-1.166-0.542-1.48-0.781c-0.315-0.239-0.544-0.515-0.688-0.824
				c-0.144-0.31-0.215-0.691-0.215-1.145c0-0.776,0.301-1.376,0.902-1.801s1.454-0.637,2.559-0.637c1.052,0,2.075,0.229,3.07,0.688
				l-0.719,1.719c-0.438-0.188-0.847-0.341-1.227-0.461c-0.38-0.12-0.769-0.18-1.164-0.18c-0.703,0-1.055,0.19-1.055,0.57
				c0,0.214,0.113,0.398,0.34,0.555s0.723,0.388,1.488,0.695c0.682,0.276,1.182,0.534,1.5,0.773
				c0.317,0.239,0.552,0.516,0.703,0.828C180.022,260.602,180.098,260.974,180.098,261.406z"/>
			<path fill="#FFFFFF" d="M194.051,259.617c0,1.422-0.375,2.534-1.125,3.336s-1.794,1.203-3.133,1.203
				c-0.839,0-1.578-0.184-2.219-0.551s-1.133-0.895-1.477-1.582s-0.516-1.489-0.516-2.406c0-1.427,0.372-2.536,1.117-3.328
				c0.745-0.792,1.792-1.188,3.141-1.188c0.838,0,1.578,0.183,2.219,0.547s1.133,0.888,1.477,1.57S194.051,258.7,194.051,259.617z
				 M188.012,259.617c0,0.864,0.142,1.519,0.426,1.961c0.284,0.442,0.746,0.664,1.387,0.664c0.635,0,1.092-0.22,1.371-0.66
				c0.278-0.44,0.418-1.095,0.418-1.965c0-0.864-0.141-1.513-0.422-1.945s-0.742-0.648-1.383-0.648
				c-0.636,0-1.094,0.215-1.375,0.645S188.012,258.747,188.012,259.617z"/>
			<path fill="#FFFFFF" d="M204.082,264h-2.383v-5.102c0-0.63-0.112-1.103-0.336-1.418c-0.224-0.315-0.581-0.473-1.07-0.473
				c-0.667,0-1.148,0.223-1.445,0.668s-0.445,1.184-0.445,2.215V264h-2.383v-8.734h1.82l0.32,1.117h0.133
				c0.266-0.422,0.631-0.741,1.098-0.957c0.466-0.216,0.996-0.324,1.59-0.324c1.016,0,1.786,0.274,2.312,0.824
				c0.526,0.55,0.789,1.343,0.789,2.379V264z"/>
			<path fill="#FFFFFF" d="M214.137,255.266v1.211l-1.367,0.352c0.25,0.391,0.375,0.828,0.375,1.312c0,0.938-0.327,1.668-0.98,2.191
				c-0.654,0.523-1.562,0.785-2.723,0.785l-0.43-0.023l-0.352-0.039c-0.245,0.188-0.367,0.396-0.367,0.625
				c0,0.344,0.438,0.516,1.312,0.516h1.484c0.958,0,1.688,0.206,2.191,0.617c0.502,0.411,0.754,1.016,0.754,1.812
				c0,1.021-0.426,1.812-1.277,2.375s-2.074,0.844-3.668,0.844c-1.219,0-2.15-0.212-2.793-0.637
				c-0.644-0.425-0.965-1.02-0.965-1.785c0-0.526,0.164-0.966,0.492-1.32s0.81-0.606,1.445-0.758
				c-0.245-0.104-0.458-0.274-0.641-0.512c-0.183-0.237-0.273-0.488-0.273-0.754c0-0.333,0.096-0.61,0.289-0.832
				c0.192-0.222,0.471-0.438,0.836-0.652c-0.458-0.198-0.822-0.516-1.09-0.953c-0.269-0.438-0.402-0.953-0.402-1.547
				c0-0.953,0.31-1.69,0.93-2.211c0.62-0.521,1.505-0.781,2.656-0.781c0.245,0,0.535,0.022,0.871,0.066s0.551,0.077,0.645,0.098
				H214.137z M207.395,265.234c0,0.328,0.157,0.586,0.473,0.773c0.315,0.188,0.756,0.281,1.324,0.281
				c0.854,0,1.523-0.117,2.008-0.352s0.727-0.555,0.727-0.961c0-0.328-0.144-0.555-0.43-0.68c-0.287-0.125-0.729-0.188-1.328-0.188
				h-1.234c-0.438,0-0.804,0.103-1.098,0.309C207.542,264.624,207.395,264.896,207.395,265.234z M208.262,258.125
				c0,0.474,0.108,0.849,0.324,1.125c0.216,0.276,0.545,0.414,0.988,0.414c0.448,0,0.776-0.138,0.984-0.414
				c0.208-0.276,0.312-0.651,0.312-1.125c0-1.052-0.433-1.578-1.297-1.578C208.699,256.547,208.262,257.073,208.262,258.125z"/>
			<path fill="#FFFFFF" d="M217.957,264h-2.383v-12.156h2.383V264z"/>
			<path fill="#FFFFFF" d="M224.41,264.156c-1.406,0-2.506-0.388-3.297-1.164c-0.792-0.776-1.188-1.875-1.188-3.297
				c0-1.464,0.366-2.595,1.098-3.395c0.731-0.8,1.743-1.199,3.035-1.199c1.234,0,2.195,0.352,2.883,1.055s1.031,1.675,1.031,2.914
				v1.156h-5.633c0.025,0.677,0.227,1.206,0.602,1.586s0.9,0.57,1.578,0.57c0.525,0,1.023-0.055,1.492-0.164
				s0.958-0.284,1.469-0.523v1.844c-0.417,0.208-0.862,0.363-1.336,0.465C225.67,264.105,225.092,264.156,224.41,264.156z
				 M224.074,256.797c-0.506,0-0.901,0.16-1.188,0.48c-0.287,0.32-0.451,0.774-0.492,1.363h3.344
				c-0.011-0.589-0.164-1.043-0.461-1.363S224.579,256.797,224.074,256.797z"/>
			<path fill="#FFFFFF" d="M236.004,261.406c0,0.896-0.312,1.578-0.934,2.047c-0.623,0.469-1.554,0.703-2.793,0.703
				c-0.636,0-1.178-0.043-1.625-0.129c-0.448-0.086-0.867-0.212-1.258-0.379v-1.969c0.442,0.208,0.941,0.383,1.496,0.523
				s1.043,0.211,1.465,0.211c0.864,0,1.297-0.25,1.297-0.75c0-0.188-0.058-0.34-0.172-0.457c-0.115-0.117-0.312-0.25-0.594-0.398
				s-0.656-0.321-1.125-0.52c-0.672-0.281-1.166-0.542-1.48-0.781c-0.315-0.239-0.545-0.515-0.688-0.824
				c-0.144-0.31-0.215-0.691-0.215-1.145c0-0.776,0.301-1.376,0.902-1.801s1.454-0.637,2.559-0.637c1.052,0,2.075,0.229,3.07,0.688
				l-0.719,1.719c-0.438-0.188-0.847-0.341-1.227-0.461c-0.381-0.12-0.769-0.18-1.164-0.18c-0.703,0-1.055,0.19-1.055,0.57
				c0,0.214,0.113,0.398,0.34,0.555s0.723,0.388,1.488,0.695c0.682,0.276,1.182,0.534,1.5,0.773
				c0.317,0.239,0.552,0.516,0.703,0.828C235.928,260.602,236.004,260.974,236.004,261.406z"/>
			<path fill="#FFFFFF" d="M244.785,264.156c-1.026,0-1.832-0.398-2.418-1.195s-0.879-1.901-0.879-3.312
				c0-1.433,0.298-2.548,0.895-3.348c0.596-0.8,1.418-1.199,2.465-1.199c1.099,0,1.938,0.427,2.516,1.281h0.078
				c-0.12-0.651-0.18-1.231-0.18-1.742v-2.797h2.391V264h-1.828l-0.461-1.133h-0.102
				C246.72,263.727,245.895,264.156,244.785,264.156z M245.621,262.258c0.609,0,1.056-0.177,1.34-0.531
				c0.283-0.354,0.438-0.956,0.465-1.805v-0.258c0-0.938-0.145-1.609-0.434-2.016s-0.76-0.609-1.41-0.609
				c-0.531,0-0.944,0.226-1.238,0.676c-0.295,0.45-0.441,1.105-0.441,1.965s0.148,1.504,0.445,1.934
				S245.068,262.258,245.621,262.258z"/>
			<path fill="#FFFFFF" d="M254.066,252.578l0.109,0.172c-0.261,1.026-0.719,2.273-1.375,3.742h-1.711
				c0.359-1.542,0.619-2.847,0.781-3.914H254.066z"/>
			<path fill="#FFFFFF" d="M263.551,259.617c0,1.422-0.375,2.534-1.125,3.336s-1.795,1.203-3.133,1.203
				c-0.839,0-1.578-0.184-2.219-0.551s-1.133-0.895-1.477-1.582s-0.516-1.489-0.516-2.406c0-1.427,0.372-2.536,1.117-3.328
				c0.744-0.792,1.791-1.188,3.141-1.188c0.838,0,1.578,0.183,2.219,0.547s1.133,0.888,1.477,1.57S263.551,258.7,263.551,259.617z
				 M257.512,259.617c0,0.864,0.142,1.519,0.426,1.961c0.283,0.442,0.746,0.664,1.387,0.664c0.635,0,1.092-0.22,1.371-0.66
				c0.278-0.44,0.418-1.095,0.418-1.965c0-0.864-0.141-1.513-0.422-1.945s-0.742-0.648-1.383-0.648
				c-0.636,0-1.094,0.215-1.375,0.645S257.512,258.747,257.512,259.617z"/>
			<path fill="#FFFFFF" d="M270.395,255.102c0.322,0,0.591,0.023,0.805,0.07l-0.18,2.234c-0.193-0.052-0.428-0.078-0.703-0.078
				c-0.761,0-1.354,0.195-1.777,0.586c-0.425,0.391-0.637,0.938-0.637,1.641V264h-2.383v-8.734h1.805l0.352,1.469h0.117
				c0.271-0.489,0.637-0.884,1.098-1.184S269.853,255.102,270.395,255.102z"/>
			<path fill="#FFFFFF" d="M276.465,262.258c0.416,0,0.916-0.091,1.5-0.273v1.773c-0.594,0.266-1.323,0.398-2.188,0.398
				c-0.953,0-1.647-0.241-2.082-0.723c-0.436-0.481-0.652-1.204-0.652-2.168v-4.211h-1.141v-1.008l1.312-0.797l0.688-1.844h1.523
				v1.859h2.445v1.789h-2.445v4.211c0,0.339,0.095,0.589,0.285,0.75C275.9,262.177,276.152,262.258,276.465,262.258z"/>
			<path fill="#FFFFFF" d="M283.684,264.156c-1.406,0-2.506-0.388-3.297-1.164c-0.792-0.776-1.188-1.875-1.188-3.297
				c0-1.464,0.365-2.595,1.098-3.395c0.731-0.8,1.743-1.199,3.035-1.199c1.234,0,2.195,0.352,2.883,1.055s1.031,1.675,1.031,2.914
				v1.156h-5.633c0.025,0.677,0.227,1.206,0.602,1.586s0.9,0.57,1.578,0.57c0.525,0,1.023-0.055,1.492-0.164
				s0.958-0.284,1.469-0.523v1.844c-0.417,0.208-0.862,0.363-1.336,0.465C284.943,264.105,284.365,264.156,283.684,264.156z
				 M283.348,256.797c-0.506,0-0.901,0.16-1.188,0.48c-0.287,0.32-0.451,0.774-0.492,1.363h3.344
				c-0.011-0.589-0.164-1.043-0.461-1.363S283.853,256.797,283.348,256.797z"/>
			<path fill="#FFFFFF" d="M289.082,253.008c0-0.776,0.432-1.164,1.297-1.164c0.864,0,1.297,0.388,1.297,1.164
				c0,0.37-0.108,0.657-0.324,0.863c-0.217,0.206-0.541,0.309-0.973,0.309C289.514,254.18,289.082,253.789,289.082,253.008z
				 M291.566,264h-2.383v-8.734h2.383V264z"/>
			<path fill="#FFFFFF" d="M296.449,264h-2.383v-12.156h2.383V264z"/>
			<path fill="#FFFFFF" d="M305.043,261.406c0,0.896-0.312,1.578-0.934,2.047c-0.623,0.469-1.554,0.703-2.793,0.703
				c-0.636,0-1.178-0.043-1.625-0.129c-0.448-0.086-0.867-0.212-1.258-0.379v-1.969c0.442,0.208,0.941,0.383,1.496,0.523
				s1.043,0.211,1.465,0.211c0.864,0,1.297-0.25,1.297-0.75c0-0.188-0.058-0.34-0.172-0.457c-0.115-0.117-0.312-0.25-0.594-0.398
				s-0.656-0.321-1.125-0.52c-0.672-0.281-1.166-0.542-1.48-0.781c-0.315-0.239-0.545-0.515-0.688-0.824
				c-0.144-0.31-0.215-0.691-0.215-1.145c0-0.776,0.301-1.376,0.902-1.801s1.454-0.637,2.559-0.637c1.052,0,2.075,0.229,3.07,0.688
				l-0.719,1.719c-0.438-0.188-0.847-0.341-1.227-0.461c-0.381-0.12-0.769-0.18-1.164-0.18c-0.703,0-1.055,0.19-1.055,0.57
				c0,0.214,0.113,0.398,0.34,0.555s0.723,0.388,1.488,0.695c0.682,0.276,1.182,0.534,1.5,0.773
				c0.317,0.239,0.552,0.516,0.703,0.828C304.967,260.602,305.043,260.974,305.043,261.406z"/>
			<path fill="#FFFFFF" d="M307.809,260.211v-0.578c0-0.5,0.106-0.935,0.32-1.305c0.213-0.37,0.604-0.763,1.172-1.18
				c0.547-0.391,0.907-0.708,1.082-0.953c0.174-0.245,0.262-0.519,0.262-0.82c0-0.339-0.125-0.597-0.375-0.773
				s-0.6-0.266-1.047-0.266c-0.781,0-1.672,0.255-2.672,0.766l-0.852-1.711c1.161-0.651,2.393-0.977,3.695-0.977
				c1.072,0,1.926,0.258,2.559,0.773s0.949,1.203,0.949,2.062c0,0.573-0.131,1.067-0.391,1.484
				c-0.261,0.417-0.756,0.886-1.484,1.406c-0.5,0.37-0.816,0.651-0.949,0.844s-0.199,0.445-0.199,0.758v0.469H307.809z
				 M307.559,262.883c0-0.438,0.117-0.769,0.352-0.992s0.575-0.336,1.023-0.336c0.432,0,0.767,0.114,1.004,0.344
				c0.236,0.229,0.355,0.558,0.355,0.984c0,0.411-0.12,0.735-0.359,0.973c-0.24,0.237-0.573,0.355-1,0.355
				c-0.438,0-0.776-0.116-1.016-0.348C307.678,263.632,307.559,263.305,307.559,262.883z"/>
		</g>
	</g>
</g>
</svg>
