<?xml version="1.0" encoding="utf-8"?>
<!DOCTYPE svg PUBLIC "-//W3C//DTD SVG 1.1//EN" "http://www.w3.org/Graphics/SVG/1.1/DTD/svg11.dtd">
<svg version="1.1" id="Layer_1" xmlns="http://www.w3.org/2000/svg" xmlns:xlink="http://www.w3.org/1999/xlink" x="0px" y="0px"
	 width="434px" height="398px" viewBox="0 0 434 398" enable-background="new 0 0 434 398" xml:space="preserve">
<filter id="dropShadow">
	<feGaussianBlur in="SourceAlpha" stdDeviation="1" />
	<feOffset dx="2" dy="2" />
	<feComponentTransfer xmlns="http://www.w3.org/2000/svg">
        <feFuncA type="linear" slope="0.3"/>
      </feComponentTransfer>
	<feMerge>
		<feMergeNode />
		<feMergeNode in="SourceGraphic" />
	</feMerge>
</filter>
<circle fill="#2F3174" enable-background="new    " cx="314" cy="120" r="117.5"/>
<circle fill="#4692CD" enable-background="new    " cx="192" cy="204" r="189.5"/>
<g filter="url(#dropShadow)">
	<path fill="#FFFFFF" d="M106.476,154.802c0,3.055-0.87,5.396-2.609,7.021s-4.251,2.438-7.535,2.438h-5.256v-18.561h5.827
		c3.03,0,5.383,0.8,7.059,2.399S106.476,151.933,106.476,154.802z M102.388,154.903c0-3.986-1.76-5.979-5.281-5.979h-2.095v12.086
		H96.7C100.492,161.01,102.388,158.974,102.388,154.903z"/>
	<path fill="#FFFFFF" d="M109.853,146.397c0-1.261,0.703-1.892,2.107-1.892s2.107,0.63,2.107,1.892
		c0,0.601-0.176,1.068-0.527,1.403s-0.878,0.501-1.581,0.501C110.555,148.302,109.853,147.667,109.853,146.397z M113.89,164.26
		h-3.872v-14.193h3.872V164.26z"/>
	<path fill="#FFFFFF" d="M122.446,164.514c-1.667,0-2.977-0.647-3.929-1.942s-1.428-3.089-1.428-5.383
		c0-2.328,0.484-4.141,1.454-5.44s2.304-1.949,4.005-1.949c1.786,0,3.148,0.694,4.088,2.082h0.127
		c-0.195-1.058-0.292-2.001-0.292-2.831v-4.545h3.885v19.754h-2.971l-0.749-1.841h-0.165
		C125.59,163.815,124.249,164.514,122.446,164.514z M123.805,161.429c0.99,0,1.716-0.288,2.177-0.863s0.713-1.553,0.755-2.933
		v-0.419c0-1.523-0.235-2.615-0.705-3.275s-1.233-0.99-2.292-0.99c-0.863,0-1.534,0.366-2.012,1.098s-0.717,1.796-0.717,3.193
		s0.241,2.444,0.724,3.142S122.908,161.429,123.805,161.429z"/>
	<path fill="#FFFFFF" d="M139.128,150.066h4.24l2.679,7.985c0.229,0.694,0.385,1.515,0.47,2.463h0.076
		c0.093-0.872,0.275-1.693,0.546-2.463l2.628-7.985h4.151l-6.005,16.009c-0.55,1.481-1.335,2.59-2.355,3.326
		s-2.211,1.104-3.574,1.104c-0.668,0-1.325-0.072-1.968-0.216v-3.072c0.465,0.11,0.973,0.165,1.523,0.165
		c0.686,0,1.284-0.209,1.796-0.628s0.912-1.052,1.2-1.898l0.229-0.698L139.128,150.066z"/>
	<path fill="#FFFFFF" d="M168.848,157.138c0,2.311-0.609,4.118-1.828,5.421s-2.916,1.955-5.091,1.955
		c-1.363,0-2.564-0.298-3.605-0.895s-1.841-1.454-2.399-2.571s-0.838-2.42-0.838-3.91c0-2.319,0.605-4.122,1.815-5.408
		s2.912-1.93,5.104-1.93c1.363,0,2.564,0.296,3.605,0.889s1.841,1.443,2.399,2.552S168.848,155.648,168.848,157.138z
		 M159.034,157.138c0,1.405,0.23,2.467,0.692,3.187s1.212,1.079,2.253,1.079c1.033,0,1.775-0.357,2.228-1.073
		s0.679-1.779,0.679-3.193c0-1.405-0.229-2.458-0.686-3.161s-1.206-1.054-2.247-1.054c-1.033,0-1.777,0.349-2.234,1.047
		S159.034,155.724,159.034,157.138z"/>
	<path fill="#FFFFFF" d="M182.102,164.26l-0.521-1.815h-0.203c-0.415,0.66-1.003,1.17-1.765,1.53s-1.629,0.54-2.603,0.54
		c-1.667,0-2.924-0.446-3.771-1.339s-1.27-2.177-1.27-3.853v-9.255h3.872v8.29c0,1.024,0.182,1.792,0.546,2.304
		s0.944,0.768,1.739,0.768c1.083,0,1.866-0.362,2.349-1.085s0.724-1.923,0.724-3.599v-6.678h3.872v14.193H182.102z"/>
	<path fill="#FFFFFF" d="M199.609,156.541l1.688-2.158l3.974-4.316h4.367l-5.637,6.157l5.979,8.036h-4.469l-4.088-5.751
		l-1.663,1.333v4.418h-3.872v-19.754h3.872v8.811l-0.203,3.225H199.609z"/>
	<path fill="#FFFFFF" d="M225.114,164.26h-3.872v-8.29c0-1.024-0.182-1.792-0.546-2.304s-0.943-0.768-1.739-0.768
		c-1.083,0-1.867,0.362-2.349,1.085s-0.724,1.923-0.724,3.599v6.678h-3.872v-14.193h2.958l0.521,1.815h0.216
		c0.432-0.686,1.026-1.204,1.784-1.555c0.757-0.351,1.619-0.527,2.583-0.527c1.65,0,2.903,0.446,3.758,1.339
		s1.282,2.182,1.282,3.866V164.26z"/>
	<path fill="#FFFFFF" d="M241.999,157.138c0,2.311-0.609,4.118-1.828,5.421s-2.916,1.955-5.091,1.955
		c-1.362,0-2.564-0.298-3.605-0.895s-1.841-1.454-2.399-2.571s-0.838-2.42-0.838-3.91c0-2.319,0.605-4.122,1.815-5.408
		s2.911-1.93,5.104-1.93c1.362,0,2.564,0.296,3.605,0.889s1.841,1.443,2.399,2.552S241.999,155.648,241.999,157.138z
		 M232.186,157.138c0,1.405,0.23,2.467,0.692,3.187c0.461,0.719,1.212,1.079,2.253,1.079c1.032,0,1.775-0.357,2.228-1.073
		c0.453-0.715,0.68-1.779,0.68-3.193c0-1.405-0.229-2.458-0.686-3.161s-1.206-1.054-2.247-1.054c-1.032,0-1.777,0.349-2.234,1.047
		S232.186,155.724,232.186,157.138z"/>
	<path fill="#FFFFFF" d="M256.865,164.26l-1.092-4.964l-1.473-6.271h-0.089l-2.59,11.235h-4.164l-4.037-14.193h3.859l1.638,6.284
		c0.263,1.125,0.529,2.679,0.8,4.659h0.076c0.034-0.643,0.182-1.663,0.444-3.06l0.203-1.079l1.752-6.805h4.266l1.663,6.805
		c0.034,0.186,0.087,0.461,0.158,0.825c0.072,0.364,0.143,0.751,0.21,1.162s0.129,0.812,0.185,1.206
		c0.055,0.394,0.086,0.709,0.095,0.946h0.076c0.076-0.609,0.212-1.445,0.406-2.507s0.334-1.779,0.419-2.152l1.701-6.284h3.796
		l-4.088,14.193H256.865z"/>
	<path fill="#FFFFFF" d="M273.242,163.729c0.489,0,0.917-0.042,1.281-0.125v0.625c-0.375,0.125-0.808,0.188-1.297,0.188
		c-0.75,0-1.304-0.2-1.66-0.602c-0.356-0.401-0.535-1.031-0.535-1.891v-5.484h-1.258v-0.453l1.258-0.352l0.391-1.922h0.398v2.055
		h2.492v0.672h-2.492v5.375c0,0.651,0.114,1.133,0.344,1.445S272.753,163.729,273.242,163.729z"/>
	<path fill="#FFFFFF" d="M282.281,164.26v-5.508c0-0.854-0.18-1.475-0.539-1.863c-0.359-0.388-0.917-0.582-1.672-0.582
		c-1.016,0-1.759,0.257-2.23,0.77c-0.472,0.513-0.707,1.345-0.707,2.496v4.688h-0.773v-12.156h0.773v3.867l-0.039,1.086h0.055
		c0.317-0.51,0.719-0.88,1.203-1.109c0.484-0.229,1.086-0.344,1.805-0.344c1.927,0,2.891,1.034,2.891,3.102v5.555H282.281z"/>
	<path fill="#FFFFFF" d="M290.953,164.26l-0.195-1.344h-0.062c-0.427,0.547-0.866,0.934-1.316,1.16s-0.983,0.34-1.598,0.34
		c-0.833,0-1.481-0.213-1.945-0.641c-0.464-0.427-0.695-1.018-0.695-1.773c0-0.828,0.345-1.471,1.035-1.93
		c0.69-0.458,1.688-0.7,2.996-0.727l1.617-0.047v-0.562c0-0.807-0.164-1.417-0.492-1.828c-0.328-0.411-0.856-0.617-1.586-0.617
		c-0.786,0-1.602,0.219-2.445,0.656l-0.289-0.672c0.933-0.438,1.854-0.656,2.766-0.656c0.933,0,1.629,0.242,2.09,0.727
		s0.691,1.24,0.691,2.266v5.648H290.953z M287.828,163.713c0.906,0,1.621-0.259,2.145-0.777c0.523-0.518,0.785-1.238,0.785-2.16
		v-0.836l-1.484,0.062c-1.192,0.058-2.043,0.244-2.551,0.559c-0.508,0.315-0.762,0.806-0.762,1.473
		c0,0.531,0.163,0.944,0.488,1.238C286.774,163.566,287.234,163.713,287.828,163.713z"/>
	<path fill="#FFFFFF" d="M296.516,163.729c0.489,0,0.917-0.042,1.281-0.125v0.625c-0.375,0.125-0.808,0.188-1.297,0.188
		c-0.75,0-1.304-0.2-1.66-0.602c-0.356-0.401-0.535-1.031-0.535-1.891v-5.484h-1.258v-0.453l1.258-0.352l0.391-1.922h0.398v2.055
		h2.492v0.672h-2.492v5.375c0,0.651,0.114,1.133,0.344,1.445S296.026,163.729,296.516,163.729z"/>
	<path fill="#FFFFFF" d="M97.75,215.26H71.847v-6.348l8.716-8.813c2.49-2.604,4.118-4.382,4.883-5.334
		c0.765-0.952,1.298-1.77,1.599-2.454c0.301-0.684,0.452-1.399,0.452-2.148c0-0.928-0.301-1.66-0.903-2.197
		c-0.603-0.537-1.449-0.806-2.539-0.806c-1.123,0-2.258,0.322-3.406,0.964c-1.147,0.643-2.446,1.591-3.894,2.844l-5.298-6.201
		c1.839-1.644,3.385-2.82,4.639-3.528c1.253-0.708,2.616-1.249,4.089-1.624c1.473-0.374,3.129-0.562,4.968-0.562
		c2.311,0,4.374,0.407,6.189,1.221c1.814,0.814,3.223,1.974,4.224,3.479c1.001,1.506,1.501,3.194,1.501,5.066
		c0,1.4-0.175,2.694-0.525,3.882c-0.35,1.188-0.891,2.356-1.624,3.503s-1.705,2.356-2.917,3.625
		c-1.213,1.27-3.796,3.679-7.751,7.227v0.244H97.75V215.26z"/>
	<path fill="#FFFFFF" d="M99.754,211.207c0-1.497,0.443-2.652,1.331-3.467c0.887-0.813,2.177-1.221,3.87-1.221
		c1.611,0,2.848,0.407,3.711,1.221c0.862,0.814,1.294,1.97,1.294,3.467c0,1.465-0.444,2.608-1.331,3.43
		c-0.887,0.822-2.112,1.233-3.674,1.233c-1.611,0-2.881-0.407-3.809-1.221S99.754,212.688,99.754,211.207z"/>
	<path fill="#FFFFFF" d="M138.647,208.351h-3.931v6.909h-9.521v-6.909h-14.233v-7.08l14.844-21.704h8.911v21.582h3.931V208.351z
		 M125.195,201.148v-4.15c0-0.781,0.028-1.835,0.085-3.162c0.057-1.326,0.102-2.022,0.134-2.087h-0.269
		c-0.554,1.253-1.18,2.425-1.88,3.516l-3.955,5.884H125.195z"/>
	<path fill="#FFFFFF" d="M185.648,215.26v-15.039c0-1.872-0.256-3.275-0.769-4.211c-0.513-0.936-1.323-1.404-2.429-1.404
		c-1.465,0-2.539,0.627-3.223,1.88c-0.684,1.253-1.025,3.215-1.025,5.884v12.891h-9.57v-15.039c0-1.872-0.244-3.275-0.732-4.211
		c-0.488-0.936-1.278-1.404-2.368-1.404c-1.498,0-2.588,0.667-3.271,2.002c-0.684,1.335-1.025,3.516-1.025,6.543v12.109h-9.546
		v-27.661h7.202l1.196,3.418h0.562c0.732-1.27,1.794-2.238,3.186-2.905c1.392-0.667,2.974-1.001,4.749-1.001
		c3.987,0,6.787,1.213,8.398,3.638h0.757c0.781-1.139,1.868-2.03,3.259-2.673c1.392-0.643,2.925-0.964,4.602-0.964
		c3.272,0,5.688,0.838,7.25,2.515c1.562,1.677,2.344,4.224,2.344,7.642v17.993H185.648z"/>
	<path fill="#FFFFFF" d="M199.494,180.714c0-1.432,0.398-2.498,1.196-3.198c0.797-0.7,2.083-1.05,3.857-1.05
		c1.773,0,3.067,0.358,3.882,1.074c0.813,0.716,1.221,1.774,1.221,3.174c0,2.8-1.701,4.199-5.103,4.199
		C201.178,184.913,199.494,183.514,199.494,180.714z M209.284,215.26h-9.546v-27.661h9.546V215.26z"/>
	<path fill="#FFFFFF" d="M223.495,215.26h-9.546v-37.988h9.546V215.26z"/>
	<path fill="#FFFFFF" d="M237.657,215.26h-9.546v-37.988h9.546V215.26z"/>
	<path fill="#FFFFFF" d="M242.078,180.714c0-1.432,0.398-2.498,1.196-3.198c0.797-0.7,2.083-1.05,3.857-1.05
		c1.773,0,3.067,0.358,3.882,1.074c0.813,0.716,1.221,1.774,1.221,3.174c0,2.8-1.701,4.199-5.103,4.199
		C243.763,184.913,242.078,183.514,242.078,180.714z M251.868,215.26h-9.546v-27.661h9.546V215.26z"/>
	<path fill="#FFFFFF" d="M282.949,201.368c0,4.525-1.217,8.053-3.649,10.583c-2.434,2.531-5.84,3.797-10.218,3.797
		c-4.199,0-7.54-1.294-10.022-3.882c-2.481-2.588-3.723-6.087-3.723-10.498c0-4.508,1.217-8.012,3.65-10.51
		c2.433-2.498,5.847-3.748,10.241-3.748c2.718,0,5.118,0.578,7.202,1.733c2.083,1.156,3.69,2.812,4.822,4.968
		C282.384,195.969,282.949,198.487,282.949,201.368z M265.029,201.368c0,2.377,0.317,4.187,0.952,5.433
		c0.635,1.244,1.7,1.867,3.198,1.867c1.48,0,2.526-0.623,3.138-1.867c0.609-1.246,0.915-3.056,0.915-5.433
		c0-2.36-0.31-4.142-0.928-5.347c-0.619-1.204-1.677-1.807-3.174-1.807c-1.465,0-2.515,0.598-3.149,1.794
		S265.029,198.992,265.029,201.368z"/>
	<path fill="#FFFFFF" d="M303.85,215.26v-15.088c0-1.839-0.265-3.227-0.793-4.163c-0.529-0.936-1.38-1.404-2.552-1.404
		c-1.611,0-2.775,0.643-3.491,1.929c-0.717,1.286-1.074,3.491-1.074,6.616v12.109h-9.546v-27.661h7.202l1.196,3.418h0.562
		c0.813-1.302,1.941-2.278,3.381-2.93c1.441-0.651,3.097-0.977,4.969-0.977c3.06,0,5.44,0.887,7.141,2.661
		c1.701,1.774,2.552,4.272,2.552,7.495v17.993H303.85z"/>
	<path fill="#FFFFFF" d="M120.381,228.393c-1.433,0-2.56,0.458-3.383,1.375c-0.823,0.917-1.234,2.172-1.234,3.766
		c0,1.63,0.388,2.896,1.164,3.797c0.776,0.901,1.885,1.352,3.328,1.352c0.958,0,1.838-0.122,2.641-0.367v0.703
		c-0.755,0.266-1.698,0.398-2.828,0.398c-1.604,0-2.867-0.519-3.789-1.555s-1.383-2.484-1.383-4.344c0-1.161,0.22-2.185,0.66-3.07
		c0.44-0.886,1.073-1.569,1.898-2.051c0.825-0.481,1.785-0.723,2.879-0.723c1.114,0,2.112,0.208,2.992,0.625l-0.32,0.719
		C122.173,228.601,121.298,228.393,120.381,228.393z"/>
	<path fill="#FFFFFF" d="M130.405,239.26l-0.195-1.344h-0.062c-0.427,0.547-0.866,0.934-1.316,1.16
		c-0.451,0.227-0.983,0.34-1.598,0.34c-0.833,0-1.482-0.214-1.945-0.641c-0.464-0.427-0.695-1.019-0.695-1.773
		c0-0.828,0.345-1.472,1.035-1.93c0.69-0.458,1.688-0.7,2.996-0.727l1.617-0.047v-0.562c0-0.808-0.164-1.417-0.492-1.828
		s-0.857-0.617-1.586-0.617c-0.787,0-1.602,0.219-2.445,0.656l-0.289-0.672c0.932-0.438,1.854-0.656,2.766-0.656
		c0.932,0,1.629,0.242,2.09,0.727s0.691,1.239,0.691,2.266v5.648H130.405z M127.28,238.713c0.906,0,1.621-0.259,2.145-0.777
		s0.785-1.238,0.785-2.16v-0.836l-1.484,0.062c-1.193,0.058-2.043,0.243-2.551,0.559s-0.762,0.806-0.762,1.473
		c0,0.531,0.163,0.944,0.488,1.238C126.226,238.565,126.686,238.713,127.28,238.713z"/>
	<path fill="#FFFFFF" d="M139.647,239.26v-5.508c0-0.854-0.18-1.476-0.539-1.863s-0.917-0.582-1.672-0.582
		c-1.016,0-1.759,0.257-2.23,0.77c-0.472,0.513-0.707,1.345-0.707,2.496v4.688h-0.773v-8.492h0.656l0.148,1.164h0.047
		c0.552-0.886,1.534-1.328,2.945-1.328c1.927,0,2.891,1.034,2.891,3.102v5.555H139.647z"/>
	<path fill="#FFFFFF" d="M148.319,239.26l-0.195-1.344h-0.062c-0.427,0.547-0.866,0.934-1.316,1.16
		c-0.451,0.227-0.983,0.34-1.598,0.34c-0.833,0-1.482-0.214-1.945-0.641c-0.464-0.427-0.695-1.019-0.695-1.773
		c0-0.828,0.345-1.472,1.035-1.93c0.69-0.458,1.688-0.7,2.996-0.727l1.617-0.047v-0.562c0-0.808-0.164-1.417-0.492-1.828
		s-0.857-0.617-1.586-0.617c-0.787,0-1.602,0.219-2.445,0.656l-0.289-0.672c0.932-0.438,1.854-0.656,2.766-0.656
		c0.932,0,1.629,0.242,2.09,0.727s0.691,1.239,0.691,2.266v5.648H148.319z M145.194,238.713c0.906,0,1.621-0.259,2.145-0.777
		s0.785-1.238,0.785-2.16v-0.836l-1.484,0.062c-1.193,0.058-2.043,0.243-2.551,0.559s-0.762,0.806-0.762,1.473
		c0,0.531,0.163,0.944,0.488,1.238C144.14,238.565,144.6,238.713,145.194,238.713z"/>
	<path fill="#FFFFFF" d="M154.749,230.604c0.614,0,1.146,0.112,1.594,0.336c0.448,0.224,0.849,0.606,1.203,1.148h0.047
		c-0.031-0.656-0.047-1.3-0.047-1.93v-3.055h0.766v12.156h-0.508l-0.195-1.297h-0.062c-0.646,0.969-1.573,1.453-2.781,1.453
		c-1.172,0-2.068-0.364-2.688-1.094c-0.62-0.729-0.93-1.792-0.93-3.188c0-1.469,0.307-2.591,0.922-3.367
		C152.683,230.991,153.577,230.604,154.749,230.604z M154.749,231.307c-0.927,0-1.624,0.325-2.09,0.977
		c-0.466,0.651-0.699,1.597-0.699,2.836c0,2.406,0.935,3.609,2.805,3.609c0.958,0,1.661-0.278,2.109-0.836
		c0.448-0.558,0.672-1.477,0.672-2.758v-0.133c0-1.312-0.22-2.257-0.66-2.832C156.445,231.595,155.733,231.307,154.749,231.307z"
		/>
	<path fill="#FFFFFF" d="M161.053,228.408c0-0.5,0.164-0.75,0.492-0.75c0.161,0,0.288,0.065,0.379,0.195
		c0.091,0.13,0.137,0.315,0.137,0.555c0,0.234-0.046,0.419-0.137,0.555c-0.091,0.136-0.218,0.203-0.379,0.203
		C161.217,229.166,161.053,228.913,161.053,228.408z M161.936,239.26h-0.773v-8.492h0.773V239.26z"/>
	<path fill="#FFFFFF" d="M169.936,239.26l-0.195-1.344h-0.062c-0.427,0.547-0.866,0.934-1.316,1.16
		c-0.451,0.227-0.983,0.34-1.598,0.34c-0.833,0-1.482-0.214-1.945-0.641c-0.464-0.427-0.695-1.019-0.695-1.773
		c0-0.828,0.345-1.472,1.035-1.93c0.69-0.458,1.688-0.7,2.996-0.727l1.617-0.047v-0.562c0-0.808-0.164-1.417-0.492-1.828
		s-0.857-0.617-1.586-0.617c-0.787,0-1.602,0.219-2.445,0.656l-0.289-0.672c0.932-0.438,1.854-0.656,2.766-0.656
		c0.932,0,1.629,0.242,2.09,0.727s0.691,1.239,0.691,2.266v5.648H169.936z M166.811,238.713c0.906,0,1.621-0.259,2.145-0.777
		s0.785-1.238,0.785-2.16v-0.836l-1.484,0.062c-1.193,0.058-2.043,0.243-2.551,0.559s-0.762,0.806-0.762,1.473
		c0,0.531,0.163,0.944,0.488,1.238C165.757,238.565,166.217,238.713,166.811,238.713z"/>
	<path fill="#FFFFFF" d="M179.178,239.26v-5.508c0-0.854-0.18-1.476-0.539-1.863s-0.917-0.582-1.672-0.582
		c-1.016,0-1.759,0.257-2.23,0.77c-0.472,0.513-0.707,1.345-0.707,2.496v4.688h-0.773v-8.492h0.656l0.148,1.164h0.047
		c0.552-0.886,1.534-1.328,2.945-1.328c1.927,0,2.891,1.034,2.891,3.102v5.555H179.178z"/>
	<path fill="#FFFFFF" d="M187.959,237.049c0,0.761-0.289,1.345-0.867,1.754s-1.398,0.613-2.461,0.613
		c-1.136,0-2.037-0.175-2.703-0.523v-0.836c0.854,0.427,1.755,0.641,2.703,0.641c0.838,0,1.475-0.14,1.91-0.418
		c0.435-0.278,0.652-0.649,0.652-1.113c0-0.427-0.174-0.786-0.52-1.078c-0.347-0.292-0.916-0.578-1.707-0.859
		c-0.849-0.308-1.445-0.571-1.789-0.793s-0.603-0.472-0.777-0.75c-0.175-0.278-0.262-0.618-0.262-1.02
		c0-0.636,0.267-1.138,0.801-1.508c0.534-0.37,1.28-0.555,2.238-0.555c0.917,0,1.786,0.172,2.609,0.516l-0.289,0.703
		c-0.834-0.344-1.607-0.516-2.32-0.516c-0.693,0-1.242,0.114-1.648,0.344s-0.609,0.547-0.609,0.953
		c0,0.442,0.157,0.797,0.473,1.062c0.315,0.266,0.931,0.562,1.848,0.891c0.766,0.276,1.322,0.524,1.672,0.746
		c0.349,0.222,0.61,0.473,0.785,0.754S187.959,236.669,187.959,237.049z"/>
	<path fill="#FFFFFF" d="M199.569,237.049c0,0.761-0.289,1.345-0.867,1.754s-1.398,0.613-2.461,0.613
		c-1.136,0-2.036-0.175-2.703-0.523v-0.836c0.854,0.427,1.755,0.641,2.703,0.641c0.839,0,1.476-0.14,1.91-0.418
		s0.652-0.649,0.652-1.113c0-0.427-0.173-0.786-0.52-1.078s-0.915-0.578-1.707-0.859c-0.849-0.308-1.445-0.571-1.789-0.793
		s-0.603-0.472-0.777-0.75s-0.262-0.618-0.262-1.02c0-0.636,0.267-1.138,0.801-1.508s1.28-0.555,2.238-0.555
		c0.917,0,1.786,0.172,2.609,0.516l-0.289,0.703c-0.833-0.344-1.606-0.516-2.32-0.516c-0.692,0-1.242,0.114-1.648,0.344
		s-0.609,0.547-0.609,0.953c0,0.442,0.157,0.797,0.473,1.062s0.931,0.562,1.848,0.891c0.766,0.276,1.323,0.524,1.672,0.746
		s0.61,0.473,0.785,0.754S199.569,236.669,199.569,237.049z"/>
	<path fill="#FFFFFF" d="M202.428,230.768v5.5c0,0.854,0.18,1.476,0.539,1.863s0.917,0.582,1.672,0.582
		c1.011,0,1.754-0.255,2.23-0.766s0.715-1.341,0.715-2.492v-4.688h0.766v8.492h-0.656l-0.141-1.172h-0.047
		c-0.552,0.886-1.534,1.328-2.945,1.328c-1.933,0-2.898-1.034-2.898-3.102v-5.547H202.428z"/>
	<path fill="#FFFFFF" d="M214.35,231.439h-2v7.82h-0.773v-7.82h-1.578v-0.453l1.578-0.289v-0.656c0-1.042,0.191-1.806,0.574-2.293
		s1.009-0.73,1.879-0.73c0.469,0,0.938,0.07,1.406,0.211l-0.18,0.672c-0.417-0.13-0.831-0.195-1.242-0.195
		c-0.604,0-1.032,0.179-1.285,0.535s-0.379,0.937-0.379,1.738v0.789h2V231.439z M219.147,231.439h-2v7.82h-0.773v-7.82h-1.578
		v-0.453l1.578-0.289v-0.656c0-1.042,0.191-1.806,0.574-2.293s1.009-0.73,1.879-0.73c0.469,0,0.938,0.07,1.406,0.211l-0.18,0.672
		c-0.417-0.13-0.831-0.195-1.242-0.195c-0.604,0-1.032,0.179-1.285,0.535c-0.253,0.356-0.379,0.937-0.379,1.738v0.789h2V231.439z"
		/>
	<path fill="#FFFFFF" d="M224.226,239.416c-1.234,0-2.196-0.38-2.887-1.141s-1.035-1.825-1.035-3.195c0-1.354,0.333-2.438,1-3.254
		s1.565-1.223,2.695-1.223c1,0,1.789,0.349,2.367,1.047s0.867,1.646,0.867,2.844v0.625h-6.117
		c0.011,1.167,0.282,2.058,0.816,2.672s1.298,0.922,2.293,0.922c0.484,0,0.91-0.034,1.277-0.102s0.832-0.214,1.395-0.438v0.703
		c-0.479,0.208-0.922,0.351-1.328,0.426S224.715,239.416,224.226,239.416z M223.999,231.291c-0.817,0-1.474,0.27-1.969,0.809
		s-0.784,1.316-0.867,2.332h5.25c0-0.984-0.214-1.754-0.641-2.309S224.754,231.291,223.999,231.291z"/>
	<path fill="#FFFFFF" d="M232.921,230.604c0.359,0,0.745,0.036,1.156,0.109l-0.148,0.742c-0.354-0.089-0.722-0.133-1.102-0.133
		c-0.724,0-1.317,0.308-1.781,0.922s-0.695,1.391-0.695,2.328v4.688h-0.773v-8.492h0.656l0.078,1.531h0.055
		c0.349-0.625,0.722-1.063,1.117-1.316S232.358,230.604,232.921,230.604z"/>
	<path fill="#FFFFFF" d="M243.116,231.439h-2v7.82h-0.773v-7.82h-1.578v-0.453l1.578-0.289v-0.656
		c0-1.042,0.191-1.806,0.574-2.293s1.009-0.73,1.879-0.73c0.469,0,0.938,0.07,1.406,0.211l-0.18,0.672
		c-0.417-0.13-0.831-0.195-1.242-0.195c-0.604,0-1.032,0.179-1.285,0.535s-0.379,0.937-0.379,1.738v0.789h2V231.439z"/>
	<path fill="#FFFFFF" d="M248.101,230.604c0.359,0,0.745,0.036,1.156,0.109l-0.148,0.742c-0.354-0.089-0.722-0.133-1.102-0.133
		c-0.724,0-1.317,0.308-1.781,0.922s-0.695,1.391-0.695,2.328v4.688h-0.773v-8.492h0.656l0.078,1.531h0.055
		c0.349-0.625,0.722-1.063,1.117-1.316S247.538,230.604,248.101,230.604z"/>
	<path fill="#FFFFFF" d="M258.007,235.002c0,1.386-0.336,2.468-1.008,3.246s-1.599,1.168-2.781,1.168
		c-0.745,0-1.401-0.18-1.969-0.539s-1.003-0.875-1.305-1.547s-0.453-1.448-0.453-2.328c0-1.386,0.336-2.465,1.008-3.238
		s1.594-1.16,2.766-1.16c1.167,0,2.082,0.392,2.746,1.176S258.007,233.638,258.007,235.002z M251.304,235.002
		c0,1.167,0.257,2.077,0.77,2.73s1.238,0.98,2.176,0.98s1.663-0.327,2.176-0.98s0.77-1.563,0.77-2.73
		c0-1.172-0.259-2.081-0.777-2.727s-1.246-0.969-2.184-0.969s-1.66,0.321-2.168,0.965S251.304,233.825,251.304,235.002z"/>
	<path fill="#FFFFFF" d="M270.968,239.26v-5.57c0-0.828-0.161-1.433-0.484-1.812s-0.817-0.57-1.484-0.57
		c-0.87,0-1.513,0.239-1.93,0.719s-0.625,1.231-0.625,2.258v4.977h-0.789v-5.805c0-1.433-0.656-2.148-1.969-2.148
		c-0.891,0-1.539,0.259-1.945,0.777s-0.609,1.348-0.609,2.488v4.688h-0.773v-8.492h0.641l0.164,1.164h0.047
		c0.234-0.422,0.567-0.749,1-0.98s0.909-0.348,1.43-0.348c1.339,0,2.198,0.503,2.578,1.508h0.031
		c0.276-0.484,0.647-0.856,1.113-1.117s0.996-0.391,1.59-0.391c0.927,0,1.622,0.247,2.086,0.742s0.695,1.281,0.695,2.359v5.555
		H270.968z"/>
	<path fill="#FFFFFF" d="M95.202,261.518c0.417,0,0.917-0.091,1.5-0.273v1.773c-0.594,0.266-1.323,0.398-2.188,0.398
		c-0.953,0-1.647-0.241-2.082-0.723c-0.435-0.481-0.652-1.204-0.652-2.168v-4.211h-1.141v-1.008l1.312-0.797l0.688-1.844h1.523
		v1.859h2.445v1.789h-2.445v4.211c0,0.339,0.095,0.589,0.285,0.75C94.638,261.437,94.889,261.518,95.202,261.518z"/>
	<path fill="#FFFFFF" d="M106.405,258.877c0,1.422-0.375,2.534-1.125,3.336s-1.794,1.203-3.133,1.203
		c-0.839,0-1.578-0.184-2.219-0.551s-1.133-0.895-1.477-1.582s-0.516-1.489-0.516-2.406c0-1.427,0.372-2.536,1.117-3.328
		c0.745-0.792,1.792-1.188,3.141-1.188c0.838,0,1.578,0.183,2.219,0.547s1.133,0.888,1.477,1.57S106.405,257.96,106.405,258.877z
		 M100.366,258.877c0,0.864,0.142,1.519,0.426,1.961c0.284,0.442,0.746,0.664,1.387,0.664c0.635,0,1.092-0.22,1.371-0.66
		c0.278-0.44,0.418-1.095,0.418-1.965c0-0.864-0.141-1.513-0.422-1.945s-0.742-0.648-1.383-0.648
		c-0.636,0-1.094,0.215-1.375,0.645S100.366,258.007,100.366,258.877z"/>
	<path fill="#FFFFFF" d="M112.327,263.416c-1.406,0-2.505-0.388-3.297-1.164c-0.792-0.776-1.188-1.875-1.188-3.297
		c0-1.464,0.366-2.595,1.098-3.395c0.731-0.8,1.743-1.199,3.035-1.199c1.234,0,2.195,0.352,2.883,1.055s1.031,1.675,1.031,2.914
		v1.156h-5.633c0.026,0.677,0.227,1.206,0.602,1.586s0.901,0.57,1.578,0.57c0.526,0,1.023-0.055,1.492-0.164
		s0.958-0.284,1.469-0.523v1.844c-0.417,0.208-0.862,0.363-1.336,0.465C113.587,263.365,113.009,263.416,112.327,263.416z
		 M111.991,256.057c-0.505,0-0.901,0.16-1.188,0.48c-0.287,0.32-0.451,0.774-0.492,1.363h3.344
		c-0.011-0.589-0.164-1.043-0.461-1.363S112.496,256.057,111.991,256.057z"/>
	<path fill="#FFFFFF" d="M125.889,263.26h-2.383v-5.102c0-0.63-0.112-1.103-0.336-1.418c-0.224-0.315-0.581-0.473-1.07-0.473
		c-0.667,0-1.148,0.223-1.445,0.668s-0.445,1.184-0.445,2.215v4.109h-2.383v-8.734h1.82l0.32,1.117h0.133
		c0.266-0.422,0.631-0.741,1.098-0.957c0.466-0.216,0.996-0.324,1.59-0.324c1.016,0,1.786,0.274,2.312,0.824
		c0.526,0.55,0.789,1.343,0.789,2.379V263.26z"/>
	<path fill="#FFFFFF" d="M133.889,263.26l-0.461-1.188h-0.062c-0.401,0.505-0.814,0.855-1.238,1.051
		c-0.425,0.195-0.978,0.293-1.66,0.293c-0.839,0-1.499-0.239-1.98-0.719c-0.482-0.479-0.723-1.161-0.723-2.047
		c0-0.927,0.324-1.61,0.973-2.051s1.626-0.684,2.934-0.73l1.516-0.047v-0.383c0-0.886-0.453-1.328-1.359-1.328
		c-0.698,0-1.519,0.211-2.461,0.633l-0.789-1.609c1.005-0.526,2.12-0.789,3.344-0.789c1.172,0,2.07,0.255,2.695,0.766
		s0.938,1.286,0.938,2.328v5.82H133.889z M133.186,259.213l-0.922,0.031c-0.693,0.021-1.208,0.146-1.547,0.375
		c-0.339,0.229-0.508,0.578-0.508,1.047c0,0.672,0.385,1.008,1.156,1.008c0.552,0,0.993-0.159,1.324-0.477
		c0.331-0.317,0.496-0.739,0.496-1.266V259.213z"/>
	<path fill="#FFFFFF" d="M137.905,252.268c0-0.776,0.432-1.164,1.297-1.164c0.864,0,1.297,0.388,1.297,1.164
		c0,0.37-0.108,0.657-0.324,0.863c-0.216,0.206-0.541,0.309-0.973,0.309C138.337,253.439,137.905,253.049,137.905,252.268z
		 M140.389,263.26h-2.383v-8.734h2.383V263.26z"/>
	<path fill="#FFFFFF" d="M145.272,263.26h-2.383v-12.156h2.383V263.26z"/>
	<path fill="#FFFFFF" d="M156.756,256.314h-2.062v6.945h-2.383v-6.945h-1.312v-1.148l1.312-0.641v-0.641
		c0-0.995,0.245-1.722,0.734-2.18c0.489-0.458,1.273-0.688,2.352-0.688c0.823,0,1.555,0.122,2.195,0.367l-0.609,1.75
		c-0.479-0.151-0.922-0.227-1.328-0.227c-0.339,0-0.583,0.101-0.734,0.301c-0.151,0.2-0.227,0.457-0.227,0.77v0.547h2.062V256.314
		z"/>
	<path fill="#FFFFFF" d="M164.311,263.26l-0.32-1.117h-0.125c-0.255,0.406-0.617,0.72-1.086,0.941s-1.003,0.332-1.602,0.332
		c-1.026,0-1.8-0.274-2.32-0.824c-0.521-0.55-0.781-1.34-0.781-2.371v-5.695h2.383v5.102c0,0.63,0.112,1.103,0.336,1.418
		c0.224,0.315,0.581,0.473,1.07,0.473c0.667,0,1.148-0.223,1.445-0.668s0.445-1.184,0.445-2.215v-4.109h2.383v8.734H164.311z"/>
	<path fill="#FFFFFF" d="M176.702,263.26h-2.383v-5.102c0-0.63-0.112-1.103-0.336-1.418c-0.224-0.315-0.581-0.473-1.07-0.473
		c-0.667,0-1.148,0.223-1.445,0.668s-0.445,1.184-0.445,2.215v4.109h-2.383v-8.734h1.82l0.32,1.117h0.133
		c0.266-0.422,0.631-0.741,1.098-0.957c0.466-0.216,0.996-0.324,1.59-0.324c1.016,0,1.786,0.274,2.312,0.824
		c0.526,0.55,0.789,1.343,0.789,2.379V263.26z"/>
	<path fill="#FFFFFF" d="M186.756,254.525v1.211l-1.367,0.352c0.25,0.391,0.375,0.828,0.375,1.312c0,0.938-0.327,1.668-0.98,2.191
		c-0.654,0.523-1.562,0.785-2.723,0.785l-0.43-0.023l-0.352-0.039c-0.245,0.188-0.367,0.396-0.367,0.625
		c0,0.344,0.438,0.516,1.312,0.516h1.484c0.958,0,1.688,0.206,2.191,0.617c0.502,0.411,0.754,1.016,0.754,1.812
		c0,1.021-0.426,1.812-1.277,2.375s-2.074,0.844-3.668,0.844c-1.219,0-2.15-0.212-2.793-0.637
		c-0.644-0.425-0.965-1.02-0.965-1.785c0-0.526,0.164-0.966,0.492-1.32s0.81-0.606,1.445-0.758
		c-0.245-0.104-0.458-0.274-0.641-0.512c-0.183-0.237-0.273-0.488-0.273-0.754c0-0.333,0.096-0.61,0.289-0.832
		c0.192-0.222,0.471-0.438,0.836-0.652c-0.458-0.198-0.822-0.516-1.09-0.953c-0.269-0.438-0.402-0.953-0.402-1.547
		c0-0.953,0.31-1.69,0.93-2.211c0.62-0.521,1.505-0.781,2.656-0.781c0.245,0,0.535,0.022,0.871,0.066s0.551,0.077,0.645,0.098
		H186.756z M180.014,264.494c0,0.328,0.157,0.586,0.473,0.773c0.315,0.188,0.756,0.281,1.324,0.281
		c0.854,0,1.523-0.117,2.008-0.352s0.727-0.555,0.727-0.961c0-0.328-0.144-0.555-0.43-0.68c-0.287-0.125-0.729-0.188-1.328-0.188
		h-1.234c-0.438,0-0.804,0.103-1.098,0.309C180.161,263.884,180.014,264.155,180.014,264.494z M180.881,257.385
		c0,0.474,0.108,0.849,0.324,1.125c0.216,0.276,0.545,0.414,0.988,0.414c0.448,0,0.776-0.138,0.984-0.414
		c0.208-0.276,0.312-0.651,0.312-1.125c0-1.052-0.433-1.578-1.297-1.578C181.319,255.807,180.881,256.333,180.881,257.385z"/>
	<path fill="#FFFFFF" d="M194.381,263.26l-0.32-1.117h-0.125c-0.255,0.406-0.617,0.72-1.086,0.941s-1.003,0.332-1.602,0.332
		c-1.026,0-1.8-0.274-2.32-0.824s-0.781-1.34-0.781-2.371v-5.695h2.383v5.102c0,0.63,0.112,1.103,0.336,1.418
		s0.581,0.473,1.07,0.473c0.667,0,1.148-0.223,1.445-0.668s0.445-1.184,0.445-2.215v-4.109h2.383v8.734H194.381z"/>
	<path fill="#FFFFFF" d="M204.803,260.666c0,0.896-0.312,1.578-0.934,2.047s-1.554,0.703-2.793,0.703
		c-0.636,0-1.177-0.043-1.625-0.129s-0.867-0.212-1.258-0.379v-1.969c0.442,0.208,0.941,0.383,1.496,0.523
		s1.043,0.211,1.465,0.211c0.864,0,1.297-0.25,1.297-0.75c0-0.188-0.058-0.34-0.172-0.457s-0.312-0.25-0.594-0.398
		s-0.656-0.321-1.125-0.52c-0.672-0.281-1.165-0.542-1.48-0.781s-0.544-0.515-0.688-0.824s-0.215-0.691-0.215-1.145
		c0-0.776,0.301-1.376,0.902-1.801s1.454-0.637,2.559-0.637c1.052,0,2.075,0.229,3.07,0.688l-0.719,1.719
		c-0.438-0.188-0.847-0.341-1.227-0.461s-0.769-0.18-1.164-0.18c-0.703,0-1.055,0.19-1.055,0.57c0,0.214,0.113,0.398,0.34,0.555
		s0.723,0.388,1.488,0.695c0.683,0.276,1.183,0.534,1.5,0.773s0.552,0.516,0.703,0.828S204.803,260.233,204.803,260.666z"/>
	<path fill="#FFFFFF" d="M210.717,252.268c0-0.776,0.433-1.164,1.297-1.164s1.297,0.388,1.297,1.164
		c0,0.37-0.108,0.657-0.324,0.863s-0.54,0.309-0.973,0.309C211.15,253.439,210.717,253.049,210.717,252.268z M213.202,263.26
		h-2.383v-8.734h2.383V263.26z"/>
	<path fill="#FFFFFF" d="M223.765,263.26h-2.383v-5.102c0-0.63-0.112-1.103-0.336-1.418s-0.581-0.473-1.07-0.473
		c-0.667,0-1.148,0.223-1.445,0.668s-0.445,1.184-0.445,2.215v4.109h-2.383v-8.734h1.821l0.32,1.117h0.133
		c0.266-0.422,0.632-0.741,1.098-0.957s0.996-0.324,1.59-0.324c1.016,0,1.786,0.274,2.312,0.824s0.789,1.343,0.789,2.379V263.26z"
		/>
	<path fill="#FFFFFF" d="M231.046,256.314h-2.062v6.945h-2.383v-6.945h-1.312v-1.148l1.312-0.641v-0.641
		c0-0.995,0.245-1.722,0.734-2.18s1.273-0.688,2.352-0.688c0.823,0,1.555,0.122,2.195,0.367l-0.609,1.75
		c-0.479-0.151-0.922-0.227-1.328-0.227c-0.339,0-0.583,0.101-0.734,0.301s-0.227,0.457-0.227,0.77v0.547h2.062V256.314z"/>
	<path fill="#FFFFFF" d="M236.366,263.416c-1.406,0-2.505-0.388-3.297-1.164s-1.188-1.875-1.188-3.297
		c0-1.464,0.366-2.595,1.098-3.395s1.743-1.199,3.035-1.199c1.234,0,2.195,0.352,2.883,1.055s1.031,1.675,1.031,2.914v1.156
		h-5.633c0.026,0.677,0.227,1.206,0.602,1.586s0.901,0.57,1.578,0.57c0.526,0,1.023-0.055,1.492-0.164s0.958-0.284,1.469-0.523
		v1.844c-0.417,0.208-0.862,0.363-1.336,0.465S237.049,263.416,236.366,263.416z M236.03,256.057c-0.505,0-0.901,0.16-1.188,0.48
		s-0.45,0.774-0.492,1.363h3.344c-0.011-0.589-0.164-1.043-0.461-1.363S236.535,256.057,236.03,256.057z"/>
	<path fill="#FFFFFF" d="M245.413,263.416c-2.719,0-4.078-1.492-4.078-4.477c0-1.484,0.37-2.618,1.109-3.402s1.8-1.176,3.18-1.176
		c1.011,0,1.917,0.198,2.719,0.594l-0.703,1.844c-0.375-0.151-0.724-0.274-1.047-0.371s-0.646-0.145-0.969-0.145
		c-1.239,0-1.859,0.88-1.859,2.641c0,1.708,0.62,2.562,1.859,2.562c0.458,0,0.883-0.062,1.273-0.184s0.781-0.313,1.172-0.574
		v2.039c-0.386,0.245-0.774,0.414-1.168,0.508S246.012,263.416,245.413,263.416z"/>
	<path fill="#FFFFFF" d="M253.772,261.518c0.417,0,0.917-0.091,1.5-0.273v1.773c-0.594,0.266-1.323,0.398-2.188,0.398
		c-0.953,0-1.647-0.241-2.082-0.723s-0.652-1.204-0.652-2.168v-4.211h-1.141v-1.008l1.312-0.797l0.688-1.844h1.523v1.859h2.445
		v1.789h-2.445v4.211c0,0.339,0.095,0.589,0.285,0.75S253.46,261.518,253.772,261.518z"/>
	<path fill="#FFFFFF" d="M256.937,252.268c0-0.776,0.433-1.164,1.297-1.164s1.297,0.388,1.297,1.164
		c0,0.37-0.108,0.657-0.324,0.863s-0.54,0.309-0.973,0.309C257.369,253.439,256.937,253.049,256.937,252.268z M259.421,263.26
		h-2.383v-8.734h2.383V263.26z"/>
	<path fill="#FFFFFF" d="M269.858,258.877c0,1.422-0.375,2.534-1.125,3.336s-1.794,1.203-3.133,1.203
		c-0.839,0-1.578-0.184-2.219-0.551s-1.133-0.895-1.477-1.582s-0.516-1.489-0.516-2.406c0-1.427,0.372-2.536,1.117-3.328
		s1.792-1.188,3.141-1.188c0.839,0,1.578,0.183,2.219,0.547s1.133,0.888,1.477,1.57S269.858,257.96,269.858,258.877z
		 M263.819,258.877c0,0.864,0.142,1.519,0.426,1.961s0.746,0.664,1.387,0.664c0.636,0,1.093-0.22,1.371-0.66
		s0.418-1.095,0.418-1.965c0-0.864-0.141-1.513-0.422-1.945s-0.742-0.648-1.383-0.648c-0.636,0-1.094,0.215-1.375,0.645
		S263.819,258.007,263.819,258.877z"/>
	<path fill="#FFFFFF" d="M279.89,263.26h-2.383v-5.102c0-0.63-0.112-1.103-0.336-1.418s-0.581-0.473-1.07-0.473
		c-0.667,0-1.148,0.223-1.445,0.668s-0.445,1.184-0.445,2.215v4.109h-2.383v-8.734h1.82l0.32,1.117h0.133
		c0.266-0.422,0.632-0.741,1.098-0.957s0.996-0.324,1.59-0.324c1.016,0,1.786,0.274,2.312,0.824s0.789,1.343,0.789,2.379V263.26z"
		/>
	<path fill="#FFFFFF" d="M288.437,260.666c0,0.896-0.312,1.578-0.934,2.047s-1.554,0.703-2.793,0.703
		c-0.636,0-1.177-0.043-1.625-0.129s-0.867-0.212-1.258-0.379v-1.969c0.442,0.208,0.941,0.383,1.496,0.523
		s1.043,0.211,1.465,0.211c0.864,0,1.297-0.25,1.297-0.75c0-0.188-0.058-0.34-0.172-0.457s-0.312-0.25-0.594-0.398
		s-0.656-0.321-1.125-0.52c-0.672-0.281-1.165-0.542-1.48-0.781s-0.544-0.515-0.688-0.824s-0.215-0.691-0.215-1.145
		c0-0.776,0.301-1.376,0.902-1.801s1.454-0.637,2.559-0.637c1.052,0,2.075,0.229,3.07,0.688l-0.719,1.719
		c-0.438-0.188-0.847-0.341-1.227-0.461s-0.769-0.18-1.164-0.18c-0.703,0-1.055,0.19-1.055,0.57c0,0.214,0.113,0.398,0.34,0.555
		s0.723,0.388,1.488,0.695c0.683,0.276,1.183,0.534,1.5,0.773s0.552,0.516,0.703,0.828S288.437,260.233,288.437,260.666z"/>
	<path fill="#FFFFFF" d="M291.202,259.471v-0.578c0-0.5,0.106-0.935,0.32-1.305s0.604-0.763,1.172-1.18
		c0.547-0.391,0.907-0.708,1.082-0.953s0.262-0.519,0.262-0.82c0-0.339-0.125-0.597-0.375-0.773s-0.599-0.266-1.047-0.266
		c-0.781,0-1.672,0.255-2.672,0.766l-0.852-1.711c1.161-0.651,2.394-0.977,3.695-0.977c1.073,0,1.926,0.258,2.559,0.773
		s0.949,1.203,0.949,2.062c0,0.573-0.13,1.067-0.391,1.484s-0.755,0.886-1.484,1.406c-0.5,0.37-0.816,0.651-0.949,0.844
		s-0.199,0.445-0.199,0.758v0.469H291.202z M290.952,262.143c0-0.438,0.117-0.769,0.352-0.992s0.575-0.336,1.023-0.336
		c0.433,0,0.767,0.114,1.004,0.344s0.355,0.558,0.355,0.984c0,0.411-0.12,0.735-0.359,0.973s-0.573,0.355-1,0.355
		c-0.438,0-0.776-0.116-1.016-0.348S290.952,262.564,290.952,262.143z"/>
</g>
</svg>
