<?xml version="1.0" encoding="utf-8"?>
<!DOCTYPE svg PUBLIC "-//W3C//DTD SVG 1.1//EN" "http://www.w3.org/Graphics/SVG/1.1/DTD/svg11.dtd">
<svg version="1.1" id="Layer_1" xmlns="http://www.w3.org/2000/svg" xmlns:xlink="http://www.w3.org/1999/xlink" x="0px" y="0px"
	 width="456px" height="258px" viewBox="0 0 456 258" enable-background="new 0 0 456 258" xml:space="preserve">
<g>
	<path fill="#2F2E72" d="M13.922,162.359h-0.805l-6.766-10.141H6.289c0.062,1.208,0.094,2.12,0.094,2.734v7.406H5.617v-11.422h0.797
		l6.758,10.125h0.047c-0.047-0.938-0.07-1.828-0.07-2.672v-7.453h0.773V162.359z"/>
	<path fill="#2F2E72" d="M20.391,162.516c-1.234,0-2.197-0.38-2.887-1.141c-0.69-0.761-1.035-1.825-1.035-3.195
		c0-1.354,0.333-2.438,1-3.254c0.667-0.815,1.565-1.223,2.695-1.223c1,0,1.789,0.349,2.367,1.047s0.867,1.646,0.867,2.844v0.625
		h-6.117c0.01,1.167,0.282,2.058,0.816,2.672c0.534,0.614,1.298,0.922,2.293,0.922c0.484,0,0.91-0.034,1.277-0.102
		s0.832-0.214,1.395-0.438v0.703c-0.479,0.208-0.922,0.351-1.328,0.426S20.88,162.516,20.391,162.516z M20.164,154.391
		c-0.818,0-1.474,0.27-1.969,0.809c-0.495,0.539-0.784,1.316-0.867,2.332h5.25c0-0.984-0.214-1.754-0.641-2.309
		C21.51,154.668,20.919,154.391,20.164,154.391z"/>
	<path fill="#2F2E72" d="M30.898,162.359l-0.195-1.344h-0.062c-0.427,0.547-0.866,0.934-1.316,1.16
		c-0.451,0.227-0.983,0.34-1.598,0.34c-0.833,0-1.482-0.214-1.945-0.641c-0.464-0.427-0.695-1.019-0.695-1.773
		c0-0.828,0.345-1.472,1.035-1.93c0.69-0.458,1.688-0.7,2.996-0.727l1.617-0.047v-0.562c0-0.808-0.164-1.417-0.492-1.828
		s-0.857-0.617-1.586-0.617c-0.787,0-1.602,0.219-2.445,0.656l-0.289-0.672c0.932-0.438,1.854-0.656,2.766-0.656
		c0.932,0,1.629,0.242,2.09,0.727s0.691,1.239,0.691,2.266v5.648H30.898z M27.773,161.812c0.906,0,1.621-0.259,2.145-0.777
		s0.785-1.238,0.785-2.16v-0.836l-1.484,0.062c-1.193,0.058-2.043,0.243-2.551,0.559s-0.762,0.806-0.762,1.473
		c0,0.531,0.163,0.944,0.488,1.238C26.72,161.665,27.18,161.812,27.773,161.812z"/>
	<path fill="#2F2E72" d="M37.562,153.703c0.359,0,0.745,0.036,1.156,0.109l-0.148,0.742c-0.354-0.089-0.722-0.133-1.102-0.133
		c-0.724,0-1.318,0.308-1.781,0.922c-0.464,0.614-0.695,1.391-0.695,2.328v4.688h-0.773v-8.492h0.656l0.078,1.531h0.055
		c0.349-0.625,0.721-1.063,1.117-1.316C36.521,153.829,37,153.703,37.562,153.703z"/>
	<path fill="#2F2E72" d="M41.219,162.359h-0.773v-12.156h0.773V162.359z"/>
	<path fill="#2F2E72" d="M42.641,153.867h0.797l1.797,4.766c0.547,1.464,0.893,2.45,1.039,2.961h0.047
		c0.219-0.672,0.575-1.675,1.07-3.008l1.797-4.719h0.797l-3.805,9.867c-0.308,0.802-0.565,1.344-0.773,1.625
		c-0.208,0.281-0.452,0.492-0.73,0.633c-0.279,0.141-0.616,0.211-1.012,0.211c-0.297,0-0.628-0.055-0.992-0.164v-0.672
		c0.302,0.083,0.627,0.125,0.977,0.125c0.266,0,0.5-0.062,0.703-0.188s0.387-0.319,0.551-0.582s0.354-0.68,0.57-1.25
		c0.216-0.57,0.355-0.941,0.418-1.113L42.641,153.867z"/>
	<path fill="#2F2E72" d="M66.27,157.279c0.926,0,2.033-0.229,3.322-0.686v5.01c-0.926,0.398-1.808,0.683-2.646,0.853
		s-1.819,0.255-2.944,0.255c-2.309,0-3.973-0.565-4.992-1.696s-1.529-2.868-1.529-5.212v-8.209h-2.408v-2.795l3.059-2.162
		l1.775-4.184h4.5v3.99h4.887v5.15h-4.887v7.752C64.406,156.635,65.027,157.279,66.27,157.279z"/>
	<path fill="#2F2E72" d="M90.211,162.359l-2.25-9.492l-0.527-2.865l-0.352-2.303h-0.105c-0.574,3.281-0.961,5.35-1.16,6.205
		l-2.021,8.455H76.57l-5.432-19.916h6.768l1.617,7.646c0.516,2.625,0.814,4.805,0.896,6.539h0.105
		c0.035-1.078,0.357-3.129,0.967-6.152l1.846-8.033h7.594l1.688,8.139c0.539,2.59,0.879,4.605,1.02,6.047h0.105
		c0.07-0.891,0.188-2.001,0.352-3.331s0.346-2.399,0.545-3.208l1.758-7.646h6.627l-5.467,19.916H90.211z"/>
	<path fill="#2F2E72" d="M124.857,152.357c0,3.258-0.876,5.798-2.628,7.62s-4.204,2.733-7.356,2.733
		c-3.023,0-5.429-0.932-7.216-2.795s-2.681-4.383-2.681-7.559c0-3.246,0.876-5.769,2.628-7.567s4.21-2.698,7.374-2.698
		c1.957,0,3.686,0.416,5.186,1.248s2.657,2.024,3.472,3.577S124.857,150.283,124.857,152.357z M111.955,152.357
		c0,1.711,0.229,3.015,0.686,3.911s1.225,1.345,2.303,1.345c1.066,0,1.819-0.448,2.259-1.345s0.659-2.2,0.659-3.911
		c0-1.699-0.223-2.982-0.668-3.85s-1.207-1.301-2.285-1.301c-1.055,0-1.811,0.431-2.268,1.292S111.955,150.646,111.955,152.357z"/>
	<path fill="#2F2E72" d="M127.16,155.451v-5.484h9.932v5.484H127.16z"/>
	<path fill="#2F2E72" d="M149.977,157.279c0.926,0,2.033-0.229,3.322-0.686v5.01c-0.926,0.398-1.808,0.683-2.646,0.853
		s-1.819,0.255-2.944,0.255c-2.309,0-3.973-0.565-4.992-1.696s-1.529-2.868-1.529-5.212v-8.209h-2.408v-2.795l3.059-2.162
		l1.775-4.184h4.5v3.99H153v5.15h-4.887v7.752C148.113,156.635,148.734,157.279,149.977,157.279z"/>
	<path fill="#2F2E72" d="M169.312,162.359v-10.863c0-2.672-0.791-4.008-2.373-4.008c-1.125,0-1.954,0.472-2.487,1.415
		s-0.8,2.511-0.8,4.702v8.754h-6.873v-27.352h6.873v3.885c0,1.758-0.094,3.762-0.281,6.012h0.316
		c0.656-1.031,1.436-1.758,2.338-2.18s1.951-0.633,3.146-0.633c2.227,0,3.958,0.642,5.194,1.925s1.854,3.079,1.854,5.388v12.955
		H169.312z"/>
	<path fill="#2F2E72" d="M180.756,137.486c0-1.031,0.287-1.799,0.861-2.303s1.5-0.756,2.777-0.756s2.209,0.258,2.795,0.773
		s0.879,1.277,0.879,2.285c0,2.016-1.225,3.023-3.674,3.023C181.969,140.51,180.756,139.502,180.756,137.486z M187.805,162.359
		h-6.873v-19.916h6.873V162.359z"/>
	<path fill="#2F2E72" d="M204.627,142.092c0.598,0,1.166,0.047,1.705,0.141l0.387,0.07l-0.615,6.486
		c-0.562-0.141-1.342-0.211-2.338-0.211c-1.5,0-2.59,0.343-3.27,1.028s-1.02,1.673-1.02,2.962v9.791h-6.873v-19.916h5.115
		l1.072,3.182h0.334c0.574-1.055,1.374-1.907,2.399-2.558S203.584,142.092,204.627,142.092z"/>
	<path fill="#2F2E72" d="M215.684,162.711c-1.418,0-2.657-0.404-3.718-1.213s-1.881-1.998-2.461-3.568s-0.87-3.404-0.87-5.502
		c0-3.234,0.65-5.766,1.951-7.594s3.088-2.742,5.361-2.742c1.113,0,2.089,0.223,2.927,0.668s1.603,1.195,2.294,2.25h0.141
		c-0.223-1.559-0.334-3.117-0.334-4.676v-5.326h6.926v27.352h-5.186l-1.477-2.514h-0.264
		C219.791,161.756,218.027,162.711,215.684,162.711z M218.496,157.279c1.102,0,1.878-0.346,2.329-1.037s0.694-1.758,0.729-3.199
		v-0.545c0-1.758-0.252-3.009-0.756-3.753s-1.295-1.116-2.373-1.116c-0.902,0-1.603,0.425-2.101,1.274s-0.747,2.06-0.747,3.63
		c0,1.547,0.252,2.725,0.756,3.533S217.559,157.279,218.496,157.279z"/>
	<path fill="#2F2E72" d="M248.027,156.242c0,2.133-0.727,3.744-2.18,4.834s-3.539,1.635-6.258,1.635c-1.477,0-2.76-0.079-3.85-0.237
		s-2.203-0.448-3.34-0.87v-5.502c1.066,0.469,2.235,0.855,3.507,1.16s2.405,0.457,3.401,0.457c1.488,0,2.232-0.34,2.232-1.02
		c0-0.352-0.208-0.665-0.624-0.94s-1.626-0.812-3.63-1.608c-1.828-0.75-3.105-1.603-3.832-2.558s-1.09-2.165-1.09-3.63
		c0-1.852,0.715-3.293,2.145-4.324s3.451-1.547,6.064-1.547c1.312,0,2.546,0.144,3.7,0.431s2.353,0.706,3.595,1.257l-1.863,4.43
		c-0.914-0.41-1.881-0.759-2.9-1.046s-1.852-0.431-2.496-0.431c-1.125,0-1.688,0.275-1.688,0.826c0,0.34,0.196,0.63,0.589,0.87
		s1.526,0.729,3.401,1.468c1.395,0.574,2.435,1.137,3.12,1.688s1.189,1.198,1.512,1.942S248.027,155.176,248.027,156.242z"/>
	<path fill="#2F2E72" d="M262.07,158.102c0,1.386-0.336,2.468-1.008,3.246s-1.599,1.168-2.781,1.168
		c-0.745,0-1.401-0.18-1.969-0.539s-1.003-0.875-1.305-1.547s-0.453-1.448-0.453-2.328c0-1.386,0.336-2.465,1.008-3.238
		s1.594-1.16,2.766-1.16c1.167,0,2.082,0.392,2.746,1.176S262.07,156.737,262.07,158.102z M255.367,158.102
		c0,1.167,0.257,2.077,0.77,2.73s1.238,0.98,2.176,0.98s1.663-0.327,2.176-0.98s0.77-1.563,0.77-2.73
		c0-1.172-0.259-2.081-0.777-2.727s-1.246-0.969-2.184-0.969s-1.66,0.321-2.168,0.965S255.367,156.925,255.367,158.102z"/>
	<path fill="#2F2E72" d="M267.578,154.539h-2v7.82h-0.773v-7.82h-1.578v-0.453l1.578-0.289v-0.656c0-1.042,0.191-1.806,0.574-2.293
		s1.009-0.73,1.879-0.73c0.469,0,0.938,0.07,1.406,0.211l-0.18,0.672c-0.417-0.13-0.831-0.195-1.242-0.195
		c-0.604,0-1.032,0.179-1.285,0.535s-0.379,0.937-0.379,1.738v0.789h2V154.539z"/>
	<path fill="#2F2E72" d="M278.445,151.492c-1.433,0-2.56,0.458-3.383,1.375s-1.234,2.172-1.234,3.766
		c0,1.63,0.388,2.896,1.164,3.797s1.886,1.352,3.328,1.352c0.958,0,1.839-0.122,2.641-0.367v0.703
		c-0.755,0.266-1.698,0.398-2.828,0.398c-1.604,0-2.867-0.519-3.789-1.555s-1.383-2.484-1.383-4.344c0-1.161,0.22-2.185,0.66-3.07
		s1.073-1.569,1.898-2.051s1.785-0.723,2.879-0.723c1.114,0,2.112,0.208,2.992,0.625l-0.32,0.719
		C280.237,151.7,279.362,151.492,278.445,151.492z"/>
	<path fill="#2F2E72" d="M288.469,162.359l-0.195-1.344h-0.062c-0.427,0.547-0.866,0.934-1.316,1.16s-0.983,0.34-1.598,0.34
		c-0.833,0-1.481-0.214-1.945-0.641s-0.695-1.019-0.695-1.773c0-0.828,0.345-1.472,1.035-1.93s1.688-0.7,2.996-0.727l1.617-0.047
		v-0.562c0-0.808-0.164-1.417-0.492-1.828s-0.856-0.617-1.586-0.617c-0.786,0-1.602,0.219-2.445,0.656l-0.289-0.672
		c0.933-0.438,1.854-0.656,2.766-0.656c0.933,0,1.629,0.242,2.09,0.727s0.691,1.239,0.691,2.266v5.648H288.469z M285.344,161.812
		c0.906,0,1.621-0.259,2.145-0.777s0.785-1.238,0.785-2.16v-0.836l-1.484,0.062c-1.192,0.058-2.043,0.243-2.551,0.559
		s-0.762,0.806-0.762,1.473c0,0.531,0.163,0.944,0.488,1.238S284.75,161.812,285.344,161.812z"/>
	<path fill="#2F2E72" d="M297.711,162.359v-5.508c0-0.854-0.18-1.476-0.539-1.863s-0.917-0.582-1.672-0.582
		c-1.016,0-1.759,0.257-2.23,0.77s-0.707,1.345-0.707,2.496v4.688h-0.773v-8.492h0.656l0.148,1.164h0.047
		c0.552-0.886,1.534-1.328,2.945-1.328c1.927,0,2.891,1.034,2.891,3.102v5.555H297.711z"/>
	<path fill="#2F2E72" d="M306.383,162.359l-0.195-1.344h-0.062c-0.427,0.547-0.866,0.934-1.316,1.16s-0.983,0.34-1.598,0.34
		c-0.833,0-1.481-0.214-1.945-0.641s-0.695-1.019-0.695-1.773c0-0.828,0.345-1.472,1.035-1.93s1.688-0.7,2.996-0.727l1.617-0.047
		v-0.562c0-0.808-0.164-1.417-0.492-1.828s-0.856-0.617-1.586-0.617c-0.786,0-1.602,0.219-2.445,0.656l-0.289-0.672
		c0.933-0.438,1.854-0.656,2.766-0.656c0.933,0,1.629,0.242,2.09,0.727s0.691,1.239,0.691,2.266v5.648H306.383z M303.258,161.812
		c0.906,0,1.621-0.259,2.145-0.777s0.785-1.238,0.785-2.16v-0.836l-1.484,0.062c-1.192,0.058-2.043,0.243-2.551,0.559
		s-0.762,0.806-0.762,1.473c0,0.531,0.163,0.944,0.488,1.238S302.664,161.812,303.258,161.812z"/>
	<path fill="#2F2E72" d="M312.812,153.703c0.614,0,1.146,0.112,1.594,0.336s0.849,0.606,1.203,1.148h0.047
		c-0.031-0.656-0.047-1.3-0.047-1.93v-3.055h0.766v12.156h-0.508l-0.195-1.297h-0.062c-0.646,0.969-1.573,1.453-2.781,1.453
		c-1.172,0-2.067-0.364-2.688-1.094s-0.93-1.792-0.93-3.188c0-1.469,0.308-2.591,0.922-3.367S311.641,153.703,312.812,153.703z
		 M312.812,154.406c-0.927,0-1.624,0.325-2.09,0.977s-0.699,1.597-0.699,2.836c0,2.406,0.935,3.609,2.805,3.609
		c0.958,0,1.661-0.278,2.109-0.836s0.672-1.477,0.672-2.758v-0.133c0-1.312-0.22-2.257-0.66-2.832S313.797,154.406,312.812,154.406z
		"/>
	<path fill="#2F2E72" d="M319.117,151.508c0-0.5,0.164-0.75,0.492-0.75c0.161,0,0.288,0.065,0.379,0.195s0.137,0.315,0.137,0.555
		c0,0.234-0.046,0.419-0.137,0.555s-0.218,0.203-0.379,0.203C319.281,152.266,319.117,152.013,319.117,151.508z M320,162.359h-0.773
		v-8.492H320V162.359z"/>
	<path fill="#2F2E72" d="M328,162.359l-0.195-1.344h-0.062c-0.427,0.547-0.866,0.934-1.316,1.16s-0.983,0.34-1.598,0.34
		c-0.833,0-1.481-0.214-1.945-0.641s-0.695-1.019-0.695-1.773c0-0.828,0.345-1.472,1.035-1.93s1.688-0.7,2.996-0.727l1.617-0.047
		v-0.562c0-0.808-0.164-1.417-0.492-1.828s-0.856-0.617-1.586-0.617c-0.786,0-1.602,0.219-2.445,0.656l-0.289-0.672
		c0.933-0.438,1.854-0.656,2.766-0.656c0.933,0,1.629,0.242,2.09,0.727s0.691,1.239,0.691,2.266v5.648H328z M324.875,161.812
		c0.906,0,1.621-0.259,2.145-0.777s0.785-1.238,0.785-2.16v-0.836l-1.484,0.062c-1.192,0.058-2.043,0.243-2.551,0.559
		s-0.762,0.806-0.762,1.473c0,0.531,0.163,0.944,0.488,1.238S324.281,161.812,324.875,161.812z"/>
	<path fill="#2F2E72" d="M337.242,162.359v-5.508c0-0.854-0.18-1.476-0.539-1.863s-0.917-0.582-1.672-0.582
		c-1.016,0-1.759,0.257-2.23,0.77s-0.707,1.345-0.707,2.496v4.688h-0.773v-8.492h0.656l0.148,1.164h0.047
		c0.552-0.886,1.534-1.328,2.945-1.328c1.927,0,2.891,1.034,2.891,3.102v5.555H337.242z"/>
	<path fill="#2F2E72" d="M346.023,160.148c0,0.761-0.289,1.345-0.867,1.754s-1.398,0.613-2.461,0.613
		c-1.136,0-2.036-0.175-2.703-0.523v-0.836c0.854,0.427,1.755,0.641,2.703,0.641c0.839,0,1.476-0.14,1.91-0.418
		s0.652-0.649,0.652-1.113c0-0.427-0.173-0.786-0.52-1.078s-0.915-0.578-1.707-0.859c-0.849-0.308-1.445-0.571-1.789-0.793
		s-0.603-0.472-0.777-0.75s-0.262-0.618-0.262-1.02c0-0.636,0.267-1.138,0.801-1.508s1.28-0.555,2.238-0.555
		c0.917,0,1.786,0.172,2.609,0.516l-0.289,0.703c-0.833-0.344-1.606-0.516-2.32-0.516c-0.692,0-1.242,0.114-1.648,0.344
		s-0.609,0.547-0.609,0.953c0,0.442,0.157,0.797,0.473,1.062s0.931,0.562,1.848,0.891c0.766,0.276,1.323,0.524,1.672,0.746
		s0.61,0.473,0.785,0.754S346.023,159.769,346.023,160.148z"/>
	<path fill="#2F2E72" d="M12.211,184.359l-1.859-5.68c-0.12-0.386-0.273-0.95-0.461-1.695H9.844l-0.164,0.578l-0.352,1.133
		l-1.891,5.664H6.672l-2.43-8.492H5.07l1.359,4.922c0.317,1.219,0.526,2.114,0.625,2.688h0.047c0.307-1.219,0.531-2.028,0.672-2.43
		l1.75-5.18h0.703l1.664,5.164c0.375,1.224,0.604,2.034,0.688,2.43h0.047c0.042-0.339,0.25-1.245,0.625-2.719l1.297-4.875h0.781
		l-2.305,8.492H12.211z"/>
	<path fill="#2F2E72" d="M22.914,184.359v-5.508c0-0.854-0.18-1.476-0.539-1.863s-0.917-0.582-1.672-0.582
		c-1.016,0-1.759,0.257-2.23,0.77c-0.472,0.513-0.707,1.345-0.707,2.496v4.688h-0.773v-12.156h0.773v3.867l-0.039,1.086h0.055
		c0.317-0.511,0.719-0.88,1.203-1.109s1.086-0.344,1.805-0.344c1.927,0,2.891,1.034,2.891,3.102v5.555H22.914z"/>
	<path fill="#2F2E72" d="M33.453,180.102c0,1.386-0.336,2.468-1.008,3.246s-1.599,1.168-2.781,1.168
		c-0.745,0-1.401-0.18-1.969-0.539c-0.568-0.359-1.003-0.875-1.305-1.547c-0.302-0.672-0.453-1.448-0.453-2.328
		c0-1.386,0.336-2.465,1.008-3.238s1.594-1.16,2.766-1.16c1.167,0,2.082,0.392,2.746,1.176S33.453,178.737,33.453,180.102z
		 M26.75,180.102c0,1.167,0.256,2.077,0.77,2.73c0.513,0.653,1.238,0.98,2.176,0.98s1.663-0.327,2.176-0.98
		c0.513-0.653,0.77-1.563,0.77-2.73c0-1.172-0.259-2.081-0.777-2.727c-0.519-0.646-1.246-0.969-2.184-0.969s-1.66,0.321-2.168,0.965
		S26.75,178.925,26.75,180.102z"/>
	<path fill="#2F2E72" d="M45.227,182.148c0,0.761-0.289,1.345-0.867,1.754s-1.398,0.613-2.461,0.613
		c-1.136,0-2.037-0.175-2.703-0.523v-0.836c0.854,0.427,1.755,0.641,2.703,0.641c0.838,0,1.475-0.14,1.91-0.418
		c0.435-0.278,0.652-0.649,0.652-1.113c0-0.427-0.173-0.786-0.52-1.078c-0.347-0.292-0.916-0.578-1.707-0.859
		c-0.849-0.308-1.445-0.571-1.789-0.793s-0.603-0.472-0.777-0.75c-0.175-0.278-0.262-0.618-0.262-1.02
		c0-0.636,0.267-1.138,0.801-1.508c0.534-0.37,1.28-0.555,2.238-0.555c0.917,0,1.786,0.172,2.609,0.516l-0.289,0.703
		c-0.833-0.344-1.607-0.516-2.32-0.516c-0.693,0-1.242,0.114-1.648,0.344s-0.609,0.547-0.609,0.953c0,0.442,0.157,0.797,0.473,1.062
		c0.315,0.266,0.931,0.562,1.848,0.891c0.766,0.276,1.323,0.524,1.672,0.746c0.349,0.222,0.61,0.473,0.785,0.754
		C45.139,181.438,45.227,181.769,45.227,182.148z"/>
	<path fill="#2F2E72" d="M48.086,175.867v5.5c0,0.854,0.18,1.476,0.539,1.863s0.917,0.582,1.672,0.582
		c1.01,0,1.754-0.255,2.23-0.766s0.715-1.341,0.715-2.492v-4.688h0.766v8.492h-0.656l-0.141-1.172h-0.047
		c-0.552,0.886-1.534,1.328-2.945,1.328c-1.933,0-2.898-1.034-2.898-3.102v-5.547H48.086z"/>
	<path fill="#2F2E72" d="M60.008,176.539h-2v7.82h-0.773v-7.82h-1.578v-0.453l1.578-0.289v-0.656c0-1.042,0.191-1.806,0.574-2.293
		s1.009-0.73,1.879-0.73c0.469,0,0.938,0.07,1.406,0.211L60.914,173c-0.417-0.13-0.831-0.195-1.242-0.195
		c-0.604,0-1.033,0.179-1.285,0.535c-0.253,0.356-0.379,0.937-0.379,1.738v0.789h2V176.539z M64.805,176.539h-2v7.82h-0.773v-7.82
		h-1.578v-0.453l1.578-0.289v-0.656c0-1.042,0.191-1.806,0.574-2.293s1.009-0.73,1.879-0.73c0.469,0,0.938,0.07,1.406,0.211
		L65.711,173c-0.417-0.13-0.831-0.195-1.242-0.195c-0.604,0-1.033,0.179-1.285,0.535c-0.253,0.356-0.379,0.937-0.379,1.738v0.789h2
		V176.539z"/>
	<path fill="#2F2E72" d="M69.883,184.516c-1.234,0-2.197-0.38-2.887-1.141c-0.69-0.761-1.035-1.825-1.035-3.195
		c0-1.354,0.333-2.438,1-3.254c0.667-0.815,1.565-1.223,2.695-1.223c1,0,1.789,0.349,2.367,1.047s0.867,1.646,0.867,2.844v0.625
		h-6.117c0.01,1.167,0.282,2.058,0.816,2.672c0.534,0.614,1.298,0.922,2.293,0.922c0.484,0,0.91-0.034,1.277-0.102
		s0.832-0.214,1.395-0.438v0.703c-0.479,0.208-0.922,0.351-1.328,0.426S70.372,184.516,69.883,184.516z M69.656,176.391
		c-0.818,0-1.474,0.27-1.969,0.809c-0.495,0.539-0.784,1.316-0.867,2.332h5.25c0-0.984-0.214-1.754-0.641-2.309
		C71.002,176.668,70.411,176.391,69.656,176.391z"/>
	<path fill="#2F2E72" d="M78.578,175.703c0.359,0,0.745,0.036,1.156,0.109l-0.148,0.742c-0.354-0.089-0.722-0.133-1.102-0.133
		c-0.724,0-1.318,0.308-1.781,0.922c-0.464,0.614-0.695,1.391-0.695,2.328v4.688h-0.773v-8.492h0.656l0.078,1.531h0.055
		c0.349-0.625,0.721-1.063,1.117-1.316C77.536,175.829,78.016,175.703,78.578,175.703z"/>
	<path fill="#2F2E72" d="M82.344,182.5l0.094,0.164c-0.391,1.38-0.844,2.633-1.359,3.758H80.57c0.401-1.433,0.688-2.739,0.859-3.922
		H82.344z"/>
	<path fill="#2F2E72" d="M96.078,180.102c0,1.386-0.336,2.468-1.008,3.246s-1.599,1.168-2.781,1.168
		c-0.745,0-1.401-0.18-1.969-0.539c-0.568-0.359-1.003-0.875-1.305-1.547c-0.302-0.672-0.453-1.448-0.453-2.328
		c0-1.386,0.336-2.465,1.008-3.238s1.594-1.16,2.766-1.16c1.167,0,2.082,0.392,2.746,1.176S96.078,178.737,96.078,180.102z
		 M89.375,180.102c0,1.167,0.256,2.077,0.77,2.73c0.513,0.653,1.238,0.98,2.176,0.98s1.663-0.327,2.176-0.98
		c0.513-0.653,0.77-1.563,0.77-2.73c0-1.172-0.259-2.081-0.777-2.727c-0.519-0.646-1.246-0.969-2.184-0.969s-1.66,0.321-2.168,0.965
		S89.375,178.925,89.375,180.102z"/>
	<path fill="#2F2E72" d="M101.773,175.703c0.359,0,0.745,0.036,1.156,0.109l-0.148,0.742c-0.354-0.089-0.722-0.133-1.102-0.133
		c-0.724,0-1.318,0.308-1.781,0.922c-0.464,0.614-0.695,1.391-0.695,2.328v4.688H98.43v-8.492h0.656l0.078,1.531h0.055
		c0.349-0.625,0.721-1.063,1.117-1.316C100.731,175.829,101.211,175.703,101.773,175.703z"/>
	<path fill="#2F2E72" d="M114.734,184.359v-5.508c0-0.854-0.18-1.476-0.539-1.863s-0.917-0.582-1.672-0.582
		c-1.016,0-1.759,0.257-2.23,0.77c-0.472,0.513-0.707,1.345-0.707,2.496v4.688h-0.773v-12.156h0.773v3.867l-0.039,1.086h0.055
		c0.317-0.511,0.719-0.88,1.203-1.109s1.086-0.344,1.805-0.344c1.927,0,2.891,1.034,2.891,3.102v5.555H114.734z"/>
	<path fill="#2F2E72" d="M123.406,184.359l-0.195-1.344h-0.062c-0.427,0.547-0.866,0.934-1.316,1.16
		c-0.451,0.227-0.983,0.34-1.598,0.34c-0.833,0-1.482-0.214-1.945-0.641c-0.464-0.427-0.695-1.019-0.695-1.773
		c0-0.828,0.345-1.472,1.035-1.93c0.69-0.458,1.688-0.7,2.996-0.727l1.617-0.047v-0.562c0-0.808-0.164-1.417-0.492-1.828
		s-0.857-0.617-1.586-0.617c-0.787,0-1.602,0.219-2.445,0.656l-0.289-0.672c0.932-0.438,1.854-0.656,2.766-0.656
		c0.932,0,1.629,0.242,2.09,0.727s0.691,1.239,0.691,2.266v5.648H123.406z M120.281,183.812c0.906,0,1.621-0.259,2.145-0.777
		s0.785-1.238,0.785-2.16v-0.836l-1.484,0.062c-1.193,0.058-2.043,0.243-2.551,0.559s-0.762,0.806-0.762,1.473
		c0,0.531,0.163,0.944,0.488,1.238C119.228,183.665,119.688,183.812,120.281,183.812z"/>
	<path fill="#2F2E72" d="M128.586,184.359l-3.281-8.492h0.797l2.195,5.773c0.292,0.739,0.51,1.386,0.656,1.938H129
		c0.213-0.708,0.432-1.359,0.656-1.953l2.195-5.758h0.797l-3.281,8.492H128.586z"/>
	<path fill="#2F2E72" d="M137.5,184.516c-1.234,0-2.197-0.38-2.887-1.141c-0.69-0.761-1.035-1.825-1.035-3.195
		c0-1.354,0.333-2.438,1-3.254c0.667-0.815,1.565-1.223,2.695-1.223c1,0,1.789,0.349,2.367,1.047s0.867,1.646,0.867,2.844v0.625
		h-6.117c0.01,1.167,0.282,2.058,0.816,2.672c0.534,0.614,1.298,0.922,2.293,0.922c0.484,0,0.91-0.034,1.277-0.102
		s0.832-0.214,1.395-0.438v0.703c-0.479,0.208-0.922,0.351-1.328,0.426S137.989,184.516,137.5,184.516z M137.273,176.391
		c-0.818,0-1.474,0.27-1.969,0.809c-0.495,0.539-0.784,1.316-0.867,2.332h5.25c0-0.984-0.214-1.754-0.641-2.309
		C138.62,176.668,138.028,176.391,137.273,176.391z"/>
	<path fill="#2F2E72" d="M152.273,182.148c0,0.761-0.289,1.345-0.867,1.754s-1.398,0.613-2.461,0.613
		c-1.136,0-2.037-0.175-2.703-0.523v-0.836c0.854,0.427,1.755,0.641,2.703,0.641c0.838,0,1.475-0.14,1.91-0.418
		c0.435-0.278,0.652-0.649,0.652-1.113c0-0.427-0.173-0.786-0.52-1.078c-0.347-0.292-0.916-0.578-1.707-0.859
		c-0.849-0.308-1.445-0.571-1.789-0.793s-0.603-0.472-0.777-0.75c-0.175-0.278-0.262-0.618-0.262-1.02
		c0-0.636,0.267-1.138,0.801-1.508c0.534-0.37,1.28-0.555,2.238-0.555c0.917,0,1.786,0.172,2.609,0.516l-0.289,0.703
		c-0.833-0.344-1.607-0.516-2.32-0.516c-0.693,0-1.242,0.114-1.648,0.344s-0.609,0.547-0.609,0.953c0,0.442,0.157,0.797,0.473,1.062
		c0.315,0.266,0.931,0.562,1.848,0.891c0.766,0.276,1.323,0.524,1.672,0.746c0.349,0.222,0.61,0.473,0.785,0.754
		C152.186,181.438,152.273,181.769,152.273,182.148z"/>
	<path fill="#2F2E72" d="M155.133,175.867v5.5c0,0.854,0.18,1.476,0.539,1.863s0.917,0.582,1.672,0.582
		c1.01,0,1.754-0.255,2.23-0.766s0.715-1.341,0.715-2.492v-4.688h0.766v8.492h-0.656l-0.141-1.172h-0.047
		c-0.552,0.886-1.534,1.328-2.945,1.328c-1.933,0-2.898-1.034-2.898-3.102v-5.547H155.133z"/>
	<path fill="#2F2E72" d="M167.055,176.539h-2v7.82h-0.773v-7.82h-1.578v-0.453l1.578-0.289v-0.656c0-1.042,0.191-1.806,0.574-2.293
		s1.009-0.73,1.879-0.73c0.469,0,0.938,0.07,1.406,0.211l-0.18,0.672c-0.417-0.13-0.831-0.195-1.242-0.195
		c-0.604,0-1.033,0.179-1.285,0.535c-0.253,0.356-0.379,0.937-0.379,1.738v0.789h2V176.539z M171.852,176.539h-2v7.82h-0.773v-7.82
		H167.5v-0.453l1.578-0.289v-0.656c0-1.042,0.191-1.806,0.574-2.293s1.009-0.73,1.879-0.73c0.469,0,0.938,0.07,1.406,0.211
		l-0.18,0.672c-0.417-0.13-0.831-0.195-1.242-0.195c-0.604,0-1.033,0.179-1.285,0.535c-0.253,0.356-0.379,0.937-0.379,1.738v0.789h2
		V176.539z"/>
	<path fill="#2F2E72" d="M176.93,184.516c-1.234,0-2.197-0.38-2.887-1.141c-0.69-0.761-1.035-1.825-1.035-3.195
		c0-1.354,0.333-2.438,1-3.254c0.667-0.815,1.565-1.223,2.695-1.223c1,0,1.789,0.349,2.367,1.047s0.867,1.646,0.867,2.844v0.625
		h-6.117c0.01,1.167,0.282,2.058,0.816,2.672c0.534,0.614,1.298,0.922,2.293,0.922c0.484,0,0.91-0.034,1.277-0.102
		s0.832-0.214,1.395-0.438v0.703c-0.479,0.208-0.922,0.351-1.328,0.426S177.419,184.516,176.93,184.516z M176.703,176.391
		c-0.818,0-1.474,0.27-1.969,0.809c-0.495,0.539-0.784,1.316-0.867,2.332h5.25c0-0.984-0.214-1.754-0.641-2.309
		C178.049,176.668,177.458,176.391,176.703,176.391z"/>
	<path fill="#2F2E72" d="M185.625,175.703c0.359,0,0.745,0.036,1.156,0.109l-0.148,0.742c-0.354-0.089-0.722-0.133-1.102-0.133
		c-0.724,0-1.318,0.308-1.781,0.922c-0.464,0.614-0.695,1.391-0.695,2.328v4.688h-0.773v-8.492h0.656l0.078,1.531h0.055
		c0.349-0.625,0.721-1.063,1.117-1.316C184.583,175.829,185.062,175.703,185.625,175.703z"/>
	<path fill="#2F2E72" d="M191.938,184.516c-1.234,0-2.197-0.38-2.887-1.141c-0.69-0.761-1.035-1.825-1.035-3.195
		c0-1.354,0.333-2.438,1-3.254c0.667-0.815,1.565-1.223,2.695-1.223c1,0,1.789,0.349,2.367,1.047s0.867,1.646,0.867,2.844v0.625
		h-6.117c0.01,1.167,0.282,2.058,0.816,2.672c0.534,0.614,1.298,0.922,2.293,0.922c0.484,0,0.91-0.034,1.277-0.102
		s0.832-0.214,1.395-0.438v0.703c-0.479,0.208-0.922,0.351-1.328,0.426S192.427,184.516,191.938,184.516z M191.711,176.391
		c-0.818,0-1.474,0.27-1.969,0.809c-0.495,0.539-0.784,1.316-0.867,2.332h5.25c0-0.984-0.214-1.754-0.641-2.309
		C193.057,176.668,192.466,176.391,191.711,176.391z"/>
	<path fill="#2F2E72" d="M200.398,175.703c0.614,0,1.146,0.112,1.594,0.336c0.448,0.224,0.849,0.606,1.203,1.148h0.047
		c-0.031-0.656-0.047-1.3-0.047-1.93v-3.055h0.766v12.156h-0.508l-0.195-1.297h-0.062c-0.646,0.969-1.573,1.453-2.781,1.453
		c-1.172,0-2.068-0.364-2.688-1.094c-0.62-0.729-0.93-1.792-0.93-3.188c0-1.469,0.307-2.591,0.922-3.367
		C198.333,176.091,199.227,175.703,200.398,175.703z M200.398,176.406c-0.927,0-1.624,0.325-2.09,0.977
		c-0.466,0.651-0.699,1.597-0.699,2.836c0,2.406,0.935,3.609,2.805,3.609c0.958,0,1.661-0.278,2.109-0.836
		c0.448-0.558,0.672-1.477,0.672-2.758v-0.133c0-1.312-0.22-2.257-0.66-2.832C202.095,176.694,201.383,176.406,200.398,176.406z"/>
	<path fill="#2F2E72" d="M214.125,176.539h-2v7.82h-0.773v-7.82h-1.578v-0.453l1.578-0.289v-0.656c0-1.042,0.191-1.806,0.574-2.293
		s1.009-0.73,1.879-0.73c0.469,0,0.938,0.07,1.406,0.211l-0.18,0.672c-0.417-0.13-0.831-0.195-1.242-0.195
		c-0.604,0-1.033,0.179-1.285,0.535c-0.253,0.356-0.379,0.937-0.379,1.738v0.789h2V176.539z"/>
	<path fill="#2F2E72" d="M219.109,175.703c0.359,0,0.745,0.036,1.156,0.109l-0.148,0.742c-0.354-0.089-0.722-0.133-1.102-0.133
		c-0.724,0-1.318,0.308-1.781,0.922c-0.464,0.614-0.695,1.391-0.695,2.328v4.688h-0.773v-8.492h0.656l0.078,1.531h0.055
		c0.349-0.625,0.721-1.063,1.117-1.316C218.067,175.829,218.547,175.703,219.109,175.703z"/>
	<path fill="#2F2E72" d="M229.016,180.102c0,1.386-0.336,2.468-1.008,3.246s-1.599,1.168-2.781,1.168
		c-0.745,0-1.401-0.18-1.969-0.539c-0.568-0.359-1.003-0.875-1.305-1.547c-0.302-0.672-0.453-1.448-0.453-2.328
		c0-1.386,0.336-2.465,1.008-3.238s1.594-1.16,2.766-1.16c1.167,0,2.082,0.392,2.746,1.176S229.016,178.737,229.016,180.102z
		 M222.312,180.102c0,1.167,0.256,2.077,0.77,2.73c0.513,0.653,1.238,0.98,2.176,0.98s1.663-0.327,2.176-0.98
		c0.513-0.653,0.77-1.563,0.77-2.73c0-1.172-0.259-2.081-0.777-2.727c-0.519-0.646-1.246-0.969-2.184-0.969s-1.66,0.321-2.168,0.965
		S222.312,178.925,222.312,180.102z"/>
	<path fill="#2F2E72" d="M241.977,184.359v-5.57c0-0.828-0.161-1.433-0.484-1.812s-0.817-0.57-1.484-0.57
		c-0.87,0-1.513,0.239-1.93,0.719s-0.625,1.231-0.625,2.258v4.977h-0.789v-5.805c0-1.433-0.656-2.148-1.969-2.148
		c-0.891,0-1.539,0.259-1.945,0.777s-0.609,1.348-0.609,2.488v4.688h-0.773v-8.492h0.641l0.164,1.164h0.047
		c0.234-0.422,0.567-0.749,1-0.98s0.909-0.348,1.43-0.348c1.339,0,2.198,0.503,2.578,1.508h0.031
		c0.276-0.484,0.647-0.856,1.113-1.117s0.996-0.391,1.59-0.391c0.927,0,1.622,0.247,2.086,0.742s0.695,1.281,0.695,2.359v5.555
		H241.977z"/>
	<path fill="#2F2E72" d="M251.891,183.828c0.489,0,0.917-0.042,1.281-0.125v0.625c-0.375,0.125-0.808,0.188-1.297,0.188
		c-0.75,0-1.304-0.2-1.66-0.602s-0.535-1.031-0.535-1.891v-5.484h-1.258v-0.453l1.258-0.352l0.391-1.922h0.398v2.055h2.492v0.672
		h-2.492v5.375c0,0.651,0.114,1.133,0.344,1.445S251.401,183.828,251.891,183.828z"/>
	<path fill="#2F2E72" d="M262.031,180.102c0,1.386-0.336,2.468-1.008,3.246s-1.599,1.168-2.781,1.168
		c-0.745,0-1.401-0.18-1.969-0.539s-1.003-0.875-1.305-1.547s-0.453-1.448-0.453-2.328c0-1.386,0.336-2.465,1.008-3.238
		s1.594-1.16,2.766-1.16c1.167,0,2.082,0.392,2.746,1.176S262.031,178.737,262.031,180.102z M255.328,180.102
		c0,1.167,0.257,2.077,0.77,2.73s1.238,0.98,2.176,0.98s1.663-0.327,2.176-0.98s0.77-1.563,0.77-2.73
		c0-1.172-0.259-2.081-0.777-2.727s-1.246-0.969-2.184-0.969s-1.66,0.321-2.168,0.965S255.328,178.925,255.328,180.102z"/>
	<path fill="#2F2E72" d="M267.812,184.516c-1.234,0-2.196-0.38-2.887-1.141s-1.035-1.825-1.035-3.195c0-1.354,0.333-2.438,1-3.254
		s1.565-1.223,2.695-1.223c1,0,1.789,0.349,2.367,1.047s0.867,1.646,0.867,2.844v0.625h-6.117c0.011,1.167,0.282,2.058,0.816,2.672
		s1.298,0.922,2.293,0.922c0.484,0,0.91-0.034,1.277-0.102s0.832-0.214,1.395-0.438v0.703c-0.479,0.208-0.922,0.351-1.328,0.426
		S268.302,184.516,267.812,184.516z M267.586,176.391c-0.817,0-1.474,0.27-1.969,0.809s-0.784,1.316-0.867,2.332H270
		c0-0.984-0.214-1.754-0.641-2.309S268.341,176.391,267.586,176.391z"/>
	<path fill="#2F2E72" d="M279.086,184.359v-5.508c0-0.854-0.18-1.476-0.539-1.863s-0.917-0.582-1.672-0.582
		c-1.016,0-1.759,0.257-2.23,0.77s-0.707,1.345-0.707,2.496v4.688h-0.773v-8.492h0.656l0.148,1.164h0.047
		c0.552-0.886,1.534-1.328,2.945-1.328c1.927,0,2.891,1.034,2.891,3.102v5.555H279.086z"/>
	<path fill="#2F2E72" d="M287.758,184.359l-0.195-1.344H287.5c-0.427,0.547-0.866,0.934-1.316,1.16s-0.983,0.34-1.598,0.34
		c-0.833,0-1.481-0.214-1.945-0.641s-0.695-1.019-0.695-1.773c0-0.828,0.345-1.472,1.035-1.93s1.688-0.7,2.996-0.727l1.617-0.047
		v-0.562c0-0.808-0.164-1.417-0.492-1.828s-0.856-0.617-1.586-0.617c-0.786,0-1.602,0.219-2.445,0.656l-0.289-0.672
		c0.933-0.438,1.854-0.656,2.766-0.656c0.933,0,1.629,0.242,2.09,0.727s0.691,1.239,0.691,2.266v5.648H287.758z M284.633,183.812
		c0.906,0,1.621-0.259,2.145-0.777s0.785-1.238,0.785-2.16v-0.836l-1.484,0.062c-1.192,0.058-2.043,0.243-2.551,0.559
		s-0.762,0.806-0.762,1.473c0,0.531,0.163,0.944,0.488,1.238S284.039,183.812,284.633,183.812z"/>
	<path fill="#2F2E72" d="M290.969,173.508c0-0.5,0.164-0.75,0.492-0.75c0.161,0,0.288,0.065,0.379,0.195s0.137,0.315,0.137,0.555
		c0,0.234-0.046,0.419-0.137,0.555s-0.218,0.203-0.379,0.203C291.133,174.266,290.969,174.013,290.969,173.508z M291.852,184.359
		h-0.773v-8.492h0.773V184.359z"/>
	<path fill="#2F2E72" d="M295.469,184.359h-0.773v-12.156h0.773V184.359z"/>
	<path fill="#2F2E72" d="M305.625,176.539h-2v7.82h-0.773v-7.82h-1.578v-0.453l1.578-0.289v-0.656c0-1.042,0.191-1.806,0.574-2.293
		s1.009-0.73,1.879-0.73c0.469,0,0.938,0.07,1.406,0.211l-0.18,0.672c-0.417-0.13-0.831-0.195-1.242-0.195
		c-0.604,0-1.032,0.179-1.285,0.535s-0.379,0.937-0.379,1.738v0.789h2V176.539z"/>
	<path fill="#2F2E72" d="M307.938,175.867v5.5c0,0.854,0.18,1.476,0.539,1.863s0.917,0.582,1.672,0.582
		c1.011,0,1.754-0.255,2.23-0.766s0.715-1.341,0.715-2.492v-4.688h0.766v8.492h-0.656l-0.141-1.172h-0.047
		c-0.552,0.886-1.534,1.328-2.945,1.328c-1.933,0-2.898-1.034-2.898-3.102v-5.547H307.938z"/>
	<path fill="#2F2E72" d="M322.625,184.359v-5.508c0-0.854-0.18-1.476-0.539-1.863s-0.917-0.582-1.672-0.582
		c-1.016,0-1.759,0.257-2.23,0.77s-0.707,1.345-0.707,2.496v4.688h-0.773v-8.492h0.656l0.148,1.164h0.047
		c0.552-0.886,1.534-1.328,2.945-1.328c1.927,0,2.891,1.034,2.891,3.102v5.555H322.625z"/>
	<path fill="#2F2E72" d="M332.766,175.867v0.539l-1.758,0.109c0.469,0.583,0.703,1.224,0.703,1.922c0,0.817-0.272,1.48-0.816,1.988
		s-1.274,0.762-2.191,0.762c-0.386,0-0.656-0.016-0.812-0.047c-0.308,0.161-0.542,0.352-0.703,0.57s-0.242,0.45-0.242,0.695
		c0,0.271,0.103,0.469,0.309,0.594s0.551,0.188,1.035,0.188h1.484c0.922,0,1.628,0.187,2.117,0.559s0.734,0.923,0.734,1.652
		c0,0.896-0.363,1.587-1.09,2.074s-1.762,0.73-3.105,0.73c-1.067,0-1.895-0.206-2.48-0.617s-0.879-0.984-0.879-1.719
		c0-0.583,0.181-1.067,0.543-1.453s0.853-0.648,1.473-0.789c-0.255-0.109-0.46-0.265-0.613-0.465s-0.23-0.431-0.23-0.691
		c0-0.567,0.362-1.067,1.086-1.5c-0.495-0.203-0.88-0.522-1.156-0.957s-0.414-0.934-0.414-1.496c0-0.849,0.27-1.53,0.809-2.043
		s1.267-0.77,2.184-0.77c0.558,0,0.989,0.055,1.297,0.164H332.766z M325.891,185.797c0,1.167,0.867,1.75,2.602,1.75
		c2.229,0,3.344-0.711,3.344-2.133c0-0.511-0.175-0.88-0.523-1.109s-0.914-0.344-1.695-0.344h-1.391
		C326.669,183.961,325.891,184.573,325.891,185.797z M326.539,178.516c0,0.656,0.199,1.165,0.598,1.527s0.931,0.543,1.598,0.543
		c0.708,0,1.251-0.18,1.629-0.539s0.566-0.88,0.566-1.562c0-0.724-0.194-1.267-0.582-1.629s-0.931-0.543-1.629-0.543
		c-0.677,0-1.21,0.194-1.598,0.582S326.539,177.823,326.539,178.516z"/>
	<path fill="#2F2E72" d="M335.18,175.867v5.5c0,0.854,0.18,1.476,0.539,1.863s0.917,0.582,1.672,0.582
		c1.011,0,1.754-0.255,2.23-0.766s0.715-1.341,0.715-2.492v-4.688h0.766v8.492h-0.656l-0.141-1.172h-0.047
		c-0.552,0.886-1.534,1.328-2.945,1.328c-1.933,0-2.898-1.034-2.898-3.102v-5.547H335.18z"/>
	<path fill="#2F2E72" d="M349.211,182.148c0,0.761-0.289,1.345-0.867,1.754s-1.398,0.613-2.461,0.613
		c-1.136,0-2.036-0.175-2.703-0.523v-0.836c0.854,0.427,1.755,0.641,2.703,0.641c0.839,0,1.476-0.14,1.91-0.418
		s0.652-0.649,0.652-1.113c0-0.427-0.173-0.786-0.52-1.078s-0.915-0.578-1.707-0.859c-0.849-0.308-1.445-0.571-1.789-0.793
		s-0.603-0.472-0.777-0.75s-0.262-0.618-0.262-1.02c0-0.636,0.267-1.138,0.801-1.508s1.28-0.555,2.238-0.555
		c0.917,0,1.786,0.172,2.609,0.516l-0.289,0.703c-0.833-0.344-1.606-0.516-2.32-0.516c-0.692,0-1.242,0.114-1.648,0.344
		s-0.609,0.547-0.609,0.953c0,0.442,0.157,0.797,0.473,1.062s0.931,0.562,1.848,0.891c0.766,0.276,1.323,0.524,1.672,0.746
		s0.61,0.473,0.785,0.754S349.211,181.769,349.211,182.148z"/>
	<path fill="#2F2E72" d="M352.281,182.5l0.094,0.164c-0.391,1.38-0.844,2.633-1.359,3.758h-0.508
		c0.401-1.433,0.688-2.739,0.859-3.922H352.281z"/>
	<path fill="#4591CE" d="M24.19,210.852h-5.884v20.508H8.761v-20.508H5.099v-4.688l3.857-2.344v-0.464
		c0-3.646,0.745-6.266,2.234-7.861c1.489-1.595,3.877-2.393,7.166-2.393c1.27,0,2.47,0.098,3.601,0.293
		c1.131,0.195,2.445,0.537,3.943,1.025l-2.051,6.177c-1.172-0.325-2.319-0.488-3.442-0.488c-0.732,0-1.266,0.224-1.599,0.672
		c-0.334,0.447-0.5,1.176-0.5,2.185v0.732h5.884V210.852z"/>
	<path fill="#4591CE" d="M41.305,231.848c-4.606,0-8.183-1.225-10.73-3.674c-2.547-2.45-3.821-5.937-3.821-10.462
		c0-4.671,1.18-8.256,3.54-10.755c2.36-2.498,5.729-3.747,10.107-3.747c4.167,0,7.385,1.087,9.656,3.259
		c2.271,2.174,3.406,5.303,3.406,9.388v4.248H36.397c0.065,1.547,0.63,2.759,1.697,3.638c1.066,0.879,2.519,1.318,4.358,1.318
		c1.676,0,3.218-0.158,4.626-0.477c1.408-0.316,2.934-0.857,4.578-1.623v6.86c-1.498,0.766-3.044,1.294-4.639,1.587
		C45.422,231.701,43.518,231.848,41.305,231.848z M40.743,209.704c-1.123,0-2.063,0.354-2.82,1.062
		c-0.757,0.709-1.201,1.819-1.331,3.333h8.203c-0.033-1.334-0.411-2.4-1.135-3.198C42.936,210.104,41.964,209.704,40.743,209.704z"
		/>
	<path fill="#4591CE" d="M72.213,231.848c-4.606,0-8.183-1.225-10.73-3.674c-2.547-2.45-3.821-5.937-3.821-10.462
		c0-4.671,1.18-8.256,3.54-10.755c2.36-2.498,5.729-3.747,10.107-3.747c4.167,0,7.385,1.087,9.656,3.259
		c2.271,2.174,3.406,5.303,3.406,9.388v4.248H67.306c0.065,1.547,0.63,2.759,1.697,3.638c1.066,0.879,2.519,1.318,4.358,1.318
		c1.676,0,3.218-0.158,4.626-0.477c1.408-0.316,2.934-0.857,4.578-1.623v6.86c-1.498,0.766-3.044,1.294-4.639,1.587
		C76.331,231.701,74.426,231.848,72.213,231.848z M71.651,209.704c-1.123,0-2.063,0.354-2.82,1.062
		c-0.757,0.709-1.201,1.819-1.331,3.333h8.203c-0.033-1.334-0.411-2.4-1.135-3.198C73.844,210.104,72.872,209.704,71.651,209.704z"
		/>
	<path fill="#4591CE" d="M99.312,231.359h-9.546v-37.988h9.546V231.359z"/>
	<path fill="#4591CE" d="M132.271,231.848c-4.606,0-8.183-1.225-10.73-3.674c-2.547-2.45-3.821-5.937-3.821-10.462
		c0-4.671,1.18-8.256,3.54-10.755c2.36-2.498,5.729-3.747,10.107-3.747c4.167,0,7.385,1.087,9.656,3.259
		c2.271,2.174,3.406,5.303,3.406,9.388v4.248h-17.065c0.065,1.547,0.63,2.759,1.697,3.638c1.066,0.879,2.519,1.318,4.358,1.318
		c1.676,0,3.218-0.158,4.626-0.477c1.408-0.316,2.934-0.857,4.578-1.623v6.86c-1.498,0.766-3.044,1.294-4.639,1.587
		C136.389,231.701,134.485,231.848,132.271,231.848z M131.71,209.704c-1.123,0-2.063,0.354-2.82,1.062
		c-0.757,0.709-1.201,1.819-1.331,3.333h8.203c-0.033-1.334-0.411-2.4-1.135-3.198C133.903,210.104,132.931,209.704,131.71,209.704z
		"/>
	<path fill="#4591CE" d="M183.785,231.359V216.32c0-1.871-0.256-3.275-0.769-4.211c-0.513-0.937-1.323-1.404-2.429-1.404
		c-1.465,0-2.539,0.627-3.223,1.88c-0.684,1.254-1.025,3.215-1.025,5.884v12.891h-9.57V216.32c0-1.871-0.244-3.275-0.732-4.211
		c-0.488-0.937-1.278-1.404-2.368-1.404c-1.498,0-2.588,0.668-3.271,2.002c-0.684,1.335-1.025,3.516-1.025,6.543v12.109h-9.546
		v-27.661h7.202l1.196,3.418h0.562c0.732-1.27,1.794-2.237,3.186-2.905c1.392-0.667,2.974-1.001,4.749-1.001
		c3.987,0,6.787,1.213,8.398,3.638h0.757c0.781-1.139,1.868-2.03,3.259-2.674c1.392-0.643,2.925-0.964,4.602-0.964
		c3.271,0,5.688,0.839,7.251,2.515c1.562,1.677,2.344,4.224,2.344,7.642v17.993H183.785z"/>
	<path fill="#4591CE" d="M216.72,203.21c3.011,0,5.399,1.262,7.166,3.784c1.766,2.523,2.649,6.015,2.649,10.474
		c0,4.492-0.891,8.012-2.673,10.56c-1.782,2.547-4.26,3.82-7.434,3.82c-1.025,0-1.937-0.109-2.734-0.33
		c-0.798-0.219-1.51-0.524-2.136-0.915c-0.627-0.391-1.355-1.041-2.185-1.953h-0.586l-1.514,2.71h-7.446v-37.988h9.546v8.594
		c0,1.025-0.114,2.792-0.342,5.298h0.342c0.928-1.432,1.998-2.466,3.21-3.101C213.794,203.527,215.173,203.21,216.72,203.21z
		 M213.229,210.705c-1.335,0-2.312,0.464-2.93,1.392c-0.619,0.928-0.928,2.385-0.928,4.37v1.343c0,2.263,0.309,3.886,0.928,4.87
		c0.618,0.985,1.627,1.478,3.027,1.478c1.123,0,1.985-0.573,2.588-1.722c0.602-1.146,0.903-2.835,0.903-5.065
		C216.817,212.927,215.621,210.705,213.229,210.705z"/>
	<path fill="#4591CE" d="M250.021,231.359l-1.831-3.662h-0.195c-1.286,1.596-2.597,2.686-3.931,3.271
		c-1.335,0.586-3.061,0.879-5.176,0.879c-2.604,0-4.655-0.781-6.152-2.344c-1.498-1.562-2.246-3.76-2.246-6.592
		c0-2.945,1.025-5.139,3.076-6.58c2.051-1.439,5.021-2.249,8.911-2.429l4.614-0.146v-0.391c0-2.278-1.123-3.418-3.369-3.418
		c-2.019,0-4.582,0.684-7.69,2.051l-2.759-6.299c3.223-1.66,7.291-2.49,12.207-2.49c3.548,0,6.295,0.879,8.24,2.637
		c1.944,1.758,2.917,4.216,2.917,7.373v18.14H250.021z M242.94,225.109c1.155,0,2.145-0.366,2.967-1.099
		c0.821-0.732,1.232-1.685,1.232-2.856v-2.148l-2.197,0.098c-3.142,0.114-4.712,1.27-4.712,3.467
		C240.23,224.264,241.134,225.109,242.94,225.109z"/>
	<path fill="#4591CE" d="M279.83,203.21c0.83,0,1.619,0.065,2.368,0.195l0.537,0.098l-0.854,9.009
		c-0.781-0.195-1.864-0.293-3.247-0.293c-2.084,0-3.598,0.477-4.541,1.428c-0.944,0.953-1.416,2.324-1.416,4.114v13.599h-9.546
		v-27.661h7.104l1.489,4.419h0.464c0.797-1.465,1.908-2.648,3.332-3.553C276.945,203.662,278.381,203.21,279.83,203.21z"/>
	<path fill="#4591CE" d="M303.292,203.21c0.83,0,1.619,0.065,2.368,0.195l0.537,0.098l-0.854,9.009
		c-0.781-0.195-1.864-0.293-3.247-0.293c-2.084,0-3.598,0.477-4.541,1.428c-0.944,0.953-1.416,2.324-1.416,4.114v13.599h-9.546
		v-27.661h7.104l1.489,4.419h0.464c0.797-1.465,1.908-2.648,3.332-3.553C300.407,203.662,301.843,203.21,303.292,203.21z"/>
	<path fill="#4591CE" d="M328.097,231.359l-1.831-3.662h-0.195c-1.286,1.596-2.597,2.686-3.931,3.271
		c-1.335,0.586-3.061,0.879-5.176,0.879c-2.604,0-4.655-0.781-6.152-2.344c-1.498-1.562-2.246-3.76-2.246-6.592
		c0-2.945,1.025-5.139,3.076-6.58c2.051-1.439,5.021-2.249,8.911-2.429l4.614-0.146v-0.391c0-2.278-1.123-3.418-3.369-3.418
		c-2.019,0-4.582,0.684-7.69,2.051l-2.759-6.299c3.223-1.66,7.291-2.49,12.207-2.49c3.548,0,6.295,0.879,8.24,2.637
		c1.944,1.758,2.917,4.216,2.917,7.373v18.14H328.097z M321.017,225.109c1.155,0,2.145-0.366,2.967-1.099
		c0.821-0.732,1.232-1.685,1.232-2.856v-2.148l-2.197,0.098c-3.142,0.114-4.712,1.27-4.712,3.467
		C318.307,224.264,319.21,225.109,321.017,225.109z"/>
	<path fill="#4591CE" d="M362.569,222.863c0,2.963-1.01,5.2-3.027,6.714c-2.019,1.514-4.916,2.271-8.691,2.271
		c-2.051,0-3.833-0.109-5.347-0.33c-1.514-0.219-3.061-0.622-4.639-1.208v-7.642c1.48,0.651,3.104,1.188,4.87,1.611
		c1.767,0.424,3.341,0.635,4.725,0.635c2.066,0,3.101-0.472,3.101-1.416c0-0.488-0.289-0.924-0.866-1.307
		c-0.578-0.382-2.259-1.126-5.042-2.233c-2.539-1.041-4.313-2.226-5.322-3.552c-1.01-1.327-1.514-3.007-1.514-5.042
		c0-2.571,0.992-4.573,2.979-6.006c1.985-1.432,4.793-2.148,8.423-2.148c1.822,0,3.536,0.199,5.139,0.599
		c1.604,0.398,3.268,0.98,4.993,1.745l-2.588,6.152c-1.27-0.569-2.612-1.054-4.028-1.452c-1.416-0.399-2.572-0.599-3.467-0.599
		c-1.562,0-2.344,0.383-2.344,1.147c0,0.473,0.272,0.875,0.818,1.209c0.545,0.333,2.119,1.013,4.724,2.038
		c1.937,0.798,3.382,1.579,4.333,2.344c0.953,0.766,1.652,1.664,2.1,2.698C362.346,220.125,362.569,221.383,362.569,222.863z"/>
	<path fill="#4591CE" d="M389.229,222.863c0,2.963-1.01,5.2-3.027,6.714c-2.019,1.514-4.916,2.271-8.691,2.271
		c-2.051,0-3.833-0.109-5.347-0.33c-1.514-0.219-3.061-0.622-4.639-1.208v-7.642c1.48,0.651,3.104,1.188,4.87,1.611
		c1.767,0.424,3.341,0.635,4.725,0.635c2.066,0,3.101-0.472,3.101-1.416c0-0.488-0.289-0.924-0.866-1.307
		c-0.578-0.382-2.259-1.126-5.042-2.233c-2.539-1.041-4.313-2.226-5.322-3.552c-1.01-1.327-1.514-3.007-1.514-5.042
		c0-2.571,0.992-4.573,2.979-6.006c1.985-1.432,4.793-2.148,8.423-2.148c1.822,0,3.536,0.199,5.139,0.599
		c1.604,0.398,3.268,0.98,4.993,1.745l-2.588,6.152c-1.27-0.569-2.612-1.054-4.028-1.452c-1.416-0.399-2.572-0.599-3.467-0.599
		c-1.562,0-2.344,0.383-2.344,1.147c0,0.473,0.272,0.875,0.818,1.209c0.545,0.333,2.119,1.013,4.724,2.038
		c1.937,0.798,3.382,1.579,4.333,2.344c0.953,0.766,1.652,1.664,2.1,2.698C389.006,220.125,389.229,221.383,389.229,222.863z"/>
	<path fill="#4591CE" d="M407.882,231.848c-4.606,0-8.183-1.225-10.73-3.674c-2.547-2.45-3.82-5.937-3.82-10.462
		c0-4.671,1.18-8.256,3.54-10.755c2.359-2.498,5.729-3.747,10.107-3.747c4.166,0,7.386,1.087,9.655,3.259
		c2.271,2.174,3.406,5.303,3.406,9.388v4.248h-17.065c0.064,1.547,0.631,2.759,1.696,3.638c1.066,0.879,2.519,1.318,4.358,1.318
		c1.676,0,3.219-0.158,4.626-0.477c1.408-0.316,2.934-0.857,4.578-1.623v6.86c-1.498,0.766-3.044,1.294-4.639,1.587
		C411.999,231.701,410.095,231.848,407.882,231.848z M407.32,209.704c-1.123,0-2.063,0.354-2.819,1.062
		c-0.758,0.709-1.201,1.819-1.331,3.333h8.203c-0.033-1.334-0.411-2.4-1.136-3.198C409.514,210.104,408.541,209.704,407.32,209.704z
		"/>
	<path fill="#4591CE" d="M434.029,231.848c-1.97,0-3.69-0.562-5.163-1.685c-1.474-1.123-2.613-2.774-3.418-4.956
		c-0.807-2.181-1.209-4.728-1.209-7.642c0-4.492,0.903-8.008,2.71-10.547s4.288-3.809,7.446-3.809c1.546,0,2.901,0.31,4.064,0.928
		c1.164,0.619,2.226,1.66,3.187,3.125h0.195c-0.31-2.164-0.464-4.329-0.464-6.494v-7.397h9.619v37.988h-7.202l-2.051-3.491h-0.366
		C439.733,230.521,437.284,231.848,434.029,231.848z M437.936,224.304c1.529,0,2.608-0.479,3.235-1.44
		c0.626-0.96,0.964-2.441,1.013-4.443v-0.757c0-2.441-0.351-4.179-1.05-5.212c-0.7-1.034-1.799-1.551-3.296-1.551
		c-1.254,0-2.226,0.59-2.917,1.77c-0.692,1.181-1.038,2.861-1.038,5.042c0,2.148,0.35,3.784,1.05,4.907
		C435.632,223.742,436.633,224.304,437.936,224.304z"/>
	<path fill="#2F2E72" d="M10.578,253.359l-0.195-1.344H10.32c-0.427,0.547-0.866,0.934-1.316,1.16
		c-0.451,0.227-0.983,0.34-1.598,0.34c-0.833,0-1.482-0.214-1.945-0.641c-0.464-0.427-0.695-1.019-0.695-1.773
		c0-0.828,0.345-1.472,1.035-1.93c0.69-0.458,1.688-0.7,2.996-0.727l1.617-0.047v-0.562c0-0.808-0.164-1.417-0.492-1.828
		s-0.857-0.617-1.586-0.617c-0.787,0-1.602,0.219-2.445,0.656l-0.289-0.672c0.932-0.438,1.854-0.656,2.766-0.656
		c0.932,0,1.629,0.242,2.09,0.727s0.691,1.239,0.691,2.266v5.648H10.578z M7.453,252.812c0.906,0,1.621-0.259,2.145-0.777
		s0.785-1.238,0.785-2.16v-0.836l-1.484,0.062c-1.193,0.058-2.043,0.243-2.551,0.559s-0.762,0.806-0.762,1.473
		c0,0.531,0.163,0.944,0.488,1.238C6.399,252.665,6.859,252.812,7.453,252.812z"/>
	<path fill="#2F2E72" d="M17.484,244.703c1.188,0,2.082,0.374,2.684,1.121s0.902,1.84,0.902,3.277c0,1.411-0.316,2.5-0.949,3.266
		s-1.522,1.148-2.668,1.148c-0.604,0-1.148-0.125-1.633-0.375s-0.867-0.604-1.148-1.062h-0.07l-0.219,1.281h-0.484v-12.156h0.773
		v3.055c0,0.458-0.011,0.88-0.031,1.266l-0.023,0.664h0.055c0.323-0.511,0.712-0.886,1.168-1.125
		C16.295,244.823,16.844,244.703,17.484,244.703z M17.469,245.406c-1,0-1.716,0.286-2.148,0.859
		c-0.433,0.573-0.648,1.519-0.648,2.836v0.133c0,1.281,0.225,2.2,0.676,2.758c0.45,0.558,1.152,0.836,2.105,0.836
		c0.927,0,1.625-0.324,2.094-0.973s0.703-1.571,0.703-2.77C20.25,246.633,19.323,245.406,17.469,245.406z"/>
	<path fill="#2F2E72" d="M30.445,249.102c0,1.386-0.336,2.468-1.008,3.246s-1.599,1.168-2.781,1.168
		c-0.745,0-1.401-0.18-1.969-0.539c-0.568-0.359-1.003-0.875-1.305-1.547c-0.302-0.672-0.453-1.448-0.453-2.328
		c0-1.386,0.336-2.465,1.008-3.238s1.594-1.16,2.766-1.16c1.167,0,2.082,0.392,2.746,1.176S30.445,247.737,30.445,249.102z
		 M23.742,249.102c0,1.167,0.256,2.077,0.77,2.73c0.513,0.653,1.238,0.98,2.176,0.98s1.663-0.327,2.176-0.98
		c0.513-0.653,0.77-1.563,0.77-2.73c0-1.172-0.259-2.081-0.777-2.727c-0.519-0.646-1.246-0.969-2.184-0.969s-1.66,0.321-2.168,0.965
		S23.742,247.925,23.742,249.102z"/>
	<path fill="#2F2E72" d="M33.469,244.867v5.5c0,0.854,0.18,1.476,0.539,1.863s0.917,0.582,1.672,0.582
		c1.01,0,1.754-0.255,2.23-0.766s0.715-1.341,0.715-2.492v-4.688h0.766v8.492h-0.656l-0.141-1.172h-0.047
		c-0.552,0.886-1.534,1.328-2.945,1.328c-1.933,0-2.898-1.034-2.898-3.102v-5.547H33.469z"/>
	<path fill="#2F2E72" d="M44.477,252.828c0.489,0,0.917-0.042,1.281-0.125v0.625c-0.375,0.125-0.808,0.188-1.297,0.188
		c-0.75,0-1.304-0.2-1.66-0.602c-0.357-0.401-0.535-1.031-0.535-1.891v-5.484h-1.258v-0.453l1.258-0.352l0.391-1.922h0.398v2.055
		h2.492v0.672h-2.492v5.375c0,0.651,0.114,1.133,0.344,1.445C43.627,252.672,43.987,252.828,44.477,252.828z"/>
	<path fill="#2F2E72" d="M53.992,252.828c0.489,0,0.917-0.042,1.281-0.125v0.625c-0.375,0.125-0.808,0.188-1.297,0.188
		c-0.75,0-1.304-0.2-1.66-0.602c-0.357-0.401-0.535-1.031-0.535-1.891v-5.484h-1.258v-0.453l1.258-0.352l0.391-1.922h0.398v2.055
		h2.492v0.672H52.57v5.375c0,0.651,0.114,1.133,0.344,1.445C53.143,252.672,53.502,252.828,53.992,252.828z"/>
	<path fill="#2F2E72" d="M63.031,253.359v-5.508c0-0.854-0.18-1.476-0.539-1.863s-0.917-0.582-1.672-0.582
		c-1.016,0-1.759,0.257-2.23,0.77c-0.472,0.513-0.707,1.345-0.707,2.496v4.688h-0.773v-12.156h0.773v3.867l-0.039,1.086h0.055
		c0.317-0.511,0.719-0.88,1.203-1.109s1.086-0.344,1.805-0.344c1.927,0,2.891,1.034,2.891,3.102v5.555H63.031z"/>
	<path fill="#2F2E72" d="M69.977,253.516c-1.234,0-2.197-0.38-2.887-1.141c-0.69-0.761-1.035-1.825-1.035-3.195
		c0-1.354,0.333-2.438,1-3.254c0.667-0.815,1.565-1.223,2.695-1.223c1,0,1.789,0.349,2.367,1.047s0.867,1.646,0.867,2.844v0.625
		h-6.117c0.01,1.167,0.282,2.058,0.816,2.672c0.534,0.614,1.298,0.922,2.293,0.922c0.484,0,0.91-0.034,1.277-0.102
		s0.832-0.214,1.395-0.438v0.703c-0.479,0.208-0.922,0.351-1.328,0.426S70.466,253.516,69.977,253.516z M69.75,245.391
		c-0.818,0-1.474,0.27-1.969,0.809c-0.495,0.539-0.784,1.316-0.867,2.332h5.25c0-0.984-0.214-1.754-0.641-2.309
		C71.096,245.668,70.505,245.391,69.75,245.391z"/>
	<path fill="#2F2E72" d="M75.219,242.508c0-0.5,0.164-0.75,0.492-0.75c0.161,0,0.288,0.065,0.379,0.195
		c0.091,0.13,0.137,0.315,0.137,0.555c0,0.234-0.046,0.419-0.137,0.555c-0.091,0.136-0.218,0.203-0.379,0.203
		C75.383,243.266,75.219,243.013,75.219,242.508z M76.102,253.359h-0.773v-8.492h0.773V253.359z"/>
	<path fill="#2F2E72" d="M82.289,244.703c0.359,0,0.745,0.036,1.156,0.109l-0.148,0.742c-0.354-0.089-0.722-0.133-1.102-0.133
		c-0.724,0-1.318,0.308-1.781,0.922c-0.464,0.614-0.695,1.391-0.695,2.328v4.688h-0.773v-8.492h0.656l0.078,1.531h0.055
		c0.349-0.625,0.721-1.063,1.117-1.316C81.247,244.829,81.727,244.703,82.289,244.703z"/>
	<path fill="#2F2E72" d="M92.719,253.516c-1.214,0-2.164-0.383-2.852-1.148s-1.031-1.833-1.031-3.203
		c0-1.406,0.356-2.501,1.07-3.285c0.713-0.784,1.69-1.176,2.93-1.176c0.734,0,1.438,0.128,2.109,0.383l-0.211,0.688
		c-0.734-0.245-1.373-0.367-1.914-0.367c-1.042,0-1.831,0.321-2.367,0.965c-0.537,0.644-0.805,1.569-0.805,2.777
		c0,1.146,0.268,2.043,0.805,2.691c0.536,0.648,1.286,0.973,2.25,0.973c0.771,0,1.487-0.138,2.148-0.414v0.719
		C94.31,253.383,93.599,253.516,92.719,253.516z"/>
	<path fill="#2F2E72" d="M103.953,249.102c0,1.386-0.336,2.468-1.008,3.246s-1.599,1.168-2.781,1.168
		c-0.745,0-1.401-0.18-1.969-0.539c-0.568-0.359-1.003-0.875-1.305-1.547c-0.302-0.672-0.453-1.448-0.453-2.328
		c0-1.386,0.336-2.465,1.008-3.238s1.594-1.16,2.766-1.16c1.167,0,2.082,0.392,2.746,1.176S103.953,247.737,103.953,249.102z
		 M97.25,249.102c0,1.167,0.256,2.077,0.77,2.73c0.513,0.653,1.238,0.98,2.176,0.98s1.663-0.327,2.176-0.98
		c0.513-0.653,0.77-1.563,0.77-2.73c0-1.172-0.259-2.081-0.777-2.727c-0.519-0.646-1.246-0.969-2.184-0.969s-1.66,0.321-2.168,0.965
		S97.25,247.925,97.25,249.102z"/>
	<path fill="#2F2E72" d="M112.227,253.359v-5.508c0-0.854-0.18-1.476-0.539-1.863s-0.917-0.582-1.672-0.582
		c-1.016,0-1.759,0.257-2.23,0.77c-0.472,0.513-0.707,1.345-0.707,2.496v4.688h-0.773v-8.492h0.656l0.148,1.164h0.047
		c0.552-0.886,1.534-1.328,2.945-1.328c1.927,0,2.891,1.034,2.891,3.102v5.555H112.227z"/>
	<path fill="#2F2E72" d="M118.852,244.703c0.614,0,1.146,0.112,1.594,0.336c0.448,0.224,0.849,0.606,1.203,1.148h0.047
		c-0.031-0.656-0.047-1.3-0.047-1.93v-3.055h0.766v12.156h-0.508l-0.195-1.297h-0.062c-0.646,0.969-1.573,1.453-2.781,1.453
		c-1.172,0-2.068-0.364-2.688-1.094c-0.62-0.729-0.93-1.792-0.93-3.188c0-1.469,0.307-2.591,0.922-3.367
		C116.786,245.091,117.68,244.703,118.852,244.703z M118.852,245.406c-0.927,0-1.624,0.325-2.09,0.977
		c-0.466,0.651-0.699,1.597-0.699,2.836c0,2.406,0.935,3.609,2.805,3.609c0.958,0,1.661-0.278,2.109-0.836
		c0.448-0.558,0.672-1.477,0.672-2.758v-0.133c0-1.312-0.22-2.257-0.66-2.832C120.548,245.694,119.836,245.406,118.852,245.406z"/>
	<path fill="#2F2E72" d="M125.156,242.508c0-0.5,0.164-0.75,0.492-0.75c0.161,0,0.288,0.065,0.379,0.195
		c0.091,0.13,0.137,0.315,0.137,0.555c0,0.234-0.046,0.419-0.137,0.555c-0.091,0.136-0.218,0.203-0.379,0.203
		C125.32,243.266,125.156,243.013,125.156,242.508z M126.039,253.359h-0.773v-8.492h0.773V253.359z"/>
	<path fill="#2F2E72" d="M131.125,252.828c0.489,0,0.917-0.042,1.281-0.125v0.625c-0.375,0.125-0.808,0.188-1.297,0.188
		c-0.75,0-1.304-0.2-1.66-0.602c-0.357-0.401-0.535-1.031-0.535-1.891v-5.484h-1.258v-0.453l1.258-0.352l0.391-1.922h0.398v2.055
		h2.492v0.672h-2.492v5.375c0,0.651,0.114,1.133,0.344,1.445C130.276,252.672,130.635,252.828,131.125,252.828z"/>
	<path fill="#2F2E72" d="M134.133,242.508c0-0.5,0.164-0.75,0.492-0.75c0.161,0,0.288,0.065,0.379,0.195
		c0.091,0.13,0.137,0.315,0.137,0.555c0,0.234-0.046,0.419-0.137,0.555c-0.091,0.136-0.218,0.203-0.379,0.203
		C134.297,243.266,134.133,243.013,134.133,242.508z M135.016,253.359h-0.773v-8.492h0.773V253.359z"/>
	<path fill="#2F2E72" d="M144.883,249.102c0,1.386-0.336,2.468-1.008,3.246s-1.599,1.168-2.781,1.168
		c-0.745,0-1.401-0.18-1.969-0.539c-0.568-0.359-1.003-0.875-1.305-1.547c-0.302-0.672-0.453-1.448-0.453-2.328
		c0-1.386,0.336-2.465,1.008-3.238s1.594-1.16,2.766-1.16c1.167,0,2.082,0.392,2.746,1.176S144.883,247.737,144.883,249.102z
		 M138.18,249.102c0,1.167,0.256,2.077,0.77,2.73c0.513,0.653,1.238,0.98,2.176,0.98s1.663-0.327,2.176-0.98
		c0.513-0.653,0.77-1.563,0.77-2.73c0-1.172-0.259-2.081-0.777-2.727c-0.519-0.646-1.246-0.969-2.184-0.969s-1.66,0.321-2.168,0.965
		S138.18,247.925,138.18,249.102z"/>
	<path fill="#2F2E72" d="M153.156,253.359v-5.508c0-0.854-0.18-1.476-0.539-1.863s-0.917-0.582-1.672-0.582
		c-1.016,0-1.759,0.257-2.23,0.77c-0.472,0.513-0.707,1.345-0.707,2.496v4.688h-0.773v-8.492h0.656l0.148,1.164h0.047
		c0.552-0.886,1.534-1.328,2.945-1.328c1.927,0,2.891,1.034,2.891,3.102v5.555H153.156z"/>
</g>
<path fill="#4591CD" d="M18.795,104.515c-0.458,0-0.917,0-1.376,0c-0.397-0.139-0.818-0.234-1.189-0.425
	c-1.76-0.905-2.564-2.372-2.563-4.341c0.008-18.448,0.005-36.895,0.005-55.342c0-0.186,0-0.372,0-0.558
	c-0.166,0.162-0.231,0.339-0.288,0.518c-0.979,3.074-1.483,6.237-1.643,9.447c-0.099,1.991-0.059,3.99-0.029,5.984
	c0.028,1.896-1.307,3.483-3.137,3.64c-1.83,0.158-3.43-1.186-3.652-3.084c-0.059-0.502-0.062-1.012-0.091-1.518
	c-0.001-1.051-0.002-2.103-0.003-3.155c0.096-3.292,0.409-6.562,1.098-9.788c0.747-3.493,1.863-6.849,3.838-9.861
	c2.514-3.833,5.919-6.366,10.522-7.121c0.203-0.033,0.405-0.08,0.607-0.12c-0.125-0.113-0.232-0.147-0.342-0.176
	c-4.81-1.279-8.131-5.087-8.757-10.042c-0.756-5.996,3.179-11.601,9.073-12.923c0.359-0.081,0.714-0.176,1.071-0.265
	c0.851,0,1.703,0,2.554,0c0.393,0.084,0.786,0.166,1.177,0.253c5.755,1.287,9.643,6.565,9.165,12.444
	c-0.417,5.13-3.829,9.215-8.797,10.532c-0.127,0.033-0.249,0.083-0.473,0.159c0.176,0.047,0.234,0.071,0.295,0.079
	c3.473,0.452,6.409,1.966,8.83,4.486c2.229,2.322,3.69,5.099,4.739,8.111c1.258,3.607,1.867,7.341,2.165,11.136
	c0.048,0.609,0.126,1.216,0.19,1.824c0,0.262,0,0.524,0,0.786c-0.035,0.171-0.098,0.342-0.099,0.514
	c-0.008,0.868-0.006,1.735,0.005,2.603c0.002,0.173,0.062,0.345,0.094,0.518c0,0.394,0,0.787,0,1.179
	c-0.035,0.102-0.087,0.201-0.101,0.305c-0.248,1.919-1.796,3.254-3.632,3.126c-1.849-0.128-3.172-1.692-3.165-3.651
	c0.007-2.175,0.023-4.354-0.095-6.524c-0.165-3.03-0.686-6.011-1.603-8.912c-0.049-0.155-0.118-0.305-0.178-0.457
	c-0.028,0.009-0.056,0.017-0.083,0.026c0,0.211,0,0.423,0,0.634c0,18.271,0,36.542,0,54.812c0,0.23,0.004,0.458-0.003,0.688
	c-0.072,2.169-1.404,3.821-3.509,4.359c-0.072,0.019-0.138,0.065-0.206,0.099c-0.491,0-0.982,0-1.473,0
	c-0.242-0.087-0.482-0.175-0.724-0.262c-1.83-0.655-2.943-2.323-2.944-4.427c-0.001-8.542,0-17.083,0-25.625
	c0-0.224,0-0.446,0-0.672c-0.558,0-1.037,0-1.543,0c0,0.254,0,0.466,0,0.678c0,8.574,0.002,17.148-0.001,25.724
	c-0.001,2.225-1.367,3.955-3.521,4.488C18.93,104.436,18.864,104.481,18.795,104.515z"/>
<path fill="#4591CD" d="M56.962,104.515c-0.458,0-0.917,0-1.376,0c-0.397-0.139-0.818-0.234-1.189-0.425
	c-1.76-0.905-2.564-2.372-2.563-4.341c0.008-18.448,0.005-36.895,0.005-55.342c0-0.186,0-0.372,0-0.558
	c-0.166,0.162-0.231,0.339-0.288,0.518c-0.979,3.074-1.483,6.237-1.643,9.447c-0.099,1.991-0.059,3.99-0.029,5.984
	c0.028,1.896-1.307,3.483-3.137,3.64c-1.83,0.158-3.43-1.186-3.652-3.084c-0.059-0.502-0.062-1.012-0.091-1.518
	c-0.001-1.051-0.002-2.103-0.003-3.155c0.096-3.292,0.409-6.562,1.098-9.788c0.747-3.493,1.863-6.849,3.838-9.861
	c2.514-3.833,5.919-6.366,10.522-7.121c0.203-0.033,0.405-0.08,0.607-0.12c-0.125-0.113-0.232-0.147-0.342-0.176
	c-4.81-1.279-8.131-5.087-8.757-10.042C49.205,12.577,53.14,6.973,59.034,5.65c0.359-0.081,0.714-0.176,1.071-0.265
	c0.851,0,1.703,0,2.554,0c0.393,0.084,0.786,0.166,1.177,0.253c5.755,1.287,9.643,6.565,9.165,12.444
	c-0.417,5.13-3.829,9.215-8.797,10.532c-0.127,0.033-0.249,0.083-0.473,0.159c0.176,0.047,0.234,0.071,0.295,0.079
	c3.473,0.452,6.409,1.966,8.83,4.486c2.229,2.322,3.69,5.099,4.739,8.111c1.258,3.607,1.867,7.341,2.165,11.136
	c0.048,0.609,0.126,1.216,0.19,1.824c0,0.262,0,0.524,0,0.786c-0.035,0.171-0.098,0.342-0.099,0.514
	c-0.008,0.868-0.006,1.735,0.005,2.603c0.002,0.173,0.062,0.345,0.094,0.518c0,0.394,0,0.787,0,1.179
	c-0.035,0.102-0.087,0.201-0.101,0.305c-0.248,1.919-1.796,3.254-3.632,3.126c-1.849-0.128-3.172-1.692-3.165-3.651
	c0.007-2.175,0.023-4.354-0.095-6.524c-0.165-3.03-0.686-6.011-1.603-8.912c-0.049-0.155-0.118-0.305-0.178-0.457
	c-0.028,0.009-0.056,0.017-0.083,0.026c0,0.211,0,0.423,0,0.634c0,18.271,0,36.542,0,54.812c0,0.23,0.004,0.458-0.003,0.688
	c-0.072,2.169-1.404,3.821-3.509,4.359c-0.072,0.019-0.138,0.065-0.206,0.099c-0.491,0-0.982,0-1.473,0
	c-0.242-0.087-0.482-0.175-0.724-0.262c-1.83-0.655-2.943-2.323-2.944-4.427c-0.001-8.542,0-17.083,0-25.625
	c0-0.224,0-0.446,0-0.672c-0.558,0-1.037,0-1.543,0c0,0.254,0,0.466,0,0.678c0,8.574,0.002,17.148-0.001,25.724
	c-0.001,2.225-1.367,3.955-3.521,4.488C57.096,104.436,57.03,104.481,56.962,104.515z"/>
<path fill="#4591CD" d="M95.129,104.515c-0.458,0-0.917,0-1.376,0c-0.397-0.139-0.818-0.234-1.189-0.425
	c-1.76-0.905-2.564-2.372-2.563-4.341c0.008-18.448,0.005-36.895,0.005-55.342c0-0.186,0-0.372,0-0.558
	c-0.166,0.162-0.231,0.339-0.288,0.518c-0.979,3.074-1.483,6.237-1.643,9.447c-0.099,1.991-0.059,3.99-0.029,5.984
	c0.028,1.896-1.307,3.483-3.137,3.64c-1.83,0.158-3.43-1.186-3.652-3.084c-0.059-0.502-0.062-1.012-0.091-1.518
	c-0.001-1.051-0.002-2.103-0.003-3.155c0.096-3.292,0.409-6.562,1.098-9.788c0.747-3.493,1.863-6.849,3.838-9.861
	c2.514-3.833,5.919-6.366,10.522-7.121c0.203-0.033,0.405-0.08,0.607-0.12c-0.125-0.113-0.232-0.147-0.342-0.176
	c-4.81-1.279-8.131-5.087-8.757-10.042c-0.756-5.996,3.179-11.601,9.073-12.923c0.359-0.081,0.714-0.176,1.071-0.265
	c0.851,0,1.703,0,2.554,0c0.393,0.084,0.786,0.166,1.177,0.253c5.755,1.287,9.643,6.565,9.165,12.444
	c-0.417,5.13-3.829,9.215-8.797,10.532c-0.127,0.033-0.249,0.083-0.473,0.159c0.176,0.047,0.234,0.071,0.295,0.079
	c3.473,0.452,6.409,1.966,8.83,4.486c2.229,2.322,3.69,5.099,4.739,8.111c1.258,3.607,1.867,7.341,2.165,11.136
	c0.048,0.609,0.126,1.216,0.19,1.824c0,0.262,0,0.524,0,0.786c-0.035,0.171-0.098,0.342-0.099,0.514
	c-0.008,0.868-0.006,1.735,0.005,2.603c0.002,0.173,0.062,0.345,0.094,0.518c0,0.394,0,0.787,0,1.179
	c-0.035,0.102-0.087,0.201-0.101,0.305c-0.248,1.919-1.796,3.254-3.632,3.126c-1.849-0.128-3.172-1.692-3.165-3.651
	c0.007-2.175,0.023-4.354-0.095-6.524c-0.165-3.03-0.686-6.011-1.603-8.912c-0.049-0.155-0.118-0.305-0.178-0.457
	c-0.028,0.009-0.056,0.017-0.083,0.026c0,0.211,0,0.423,0,0.634c0,18.271,0,36.542,0,54.812c0,0.23,0.004,0.458-0.003,0.688
	c-0.072,2.169-1.404,3.821-3.509,4.359c-0.072,0.019-0.138,0.065-0.206,0.099c-0.491,0-0.982,0-1.473,0
	c-0.242-0.087-0.482-0.175-0.724-0.262c-1.83-0.655-2.943-2.323-2.944-4.427c-0.001-8.542,0-17.083,0-25.625
	c0-0.224,0-0.446,0-0.672c-0.558,0-1.037,0-1.543,0c0,0.254,0,0.466,0,0.678c0,8.574,0.002,17.148-0.001,25.724
	c-0.001,2.225-1.367,3.955-3.521,4.488C95.263,104.436,95.197,104.481,95.129,104.515z"/>
<path fill="#4591CD" d="M133.295,104.515c-0.458,0-0.917,0-1.376,0c-0.397-0.139-0.818-0.234-1.189-0.425
	c-1.76-0.905-2.564-2.372-2.563-4.341c0.008-18.448,0.005-36.895,0.005-55.342c0-0.186,0-0.372,0-0.558
	c-0.166,0.162-0.231,0.339-0.288,0.518c-0.979,3.074-1.483,6.237-1.643,9.447c-0.099,1.991-0.059,3.99-0.029,5.984
	c0.028,1.896-1.307,3.483-3.137,3.64c-1.83,0.158-3.43-1.186-3.652-3.084c-0.059-0.502-0.062-1.012-0.091-1.518
	c-0.001-1.051-0.002-2.103-0.003-3.155c0.096-3.292,0.409-6.562,1.098-9.788c0.747-3.493,1.863-6.849,3.838-9.861
	c2.514-3.833,5.919-6.366,10.522-7.121c0.203-0.033,0.405-0.08,0.607-0.12c-0.125-0.113-0.232-0.147-0.342-0.176
	c-4.81-1.279-8.131-5.087-8.757-10.042c-0.756-5.996,3.179-11.601,9.073-12.923c0.359-0.081,0.714-0.176,1.071-0.265
	c0.851,0,1.703,0,2.554,0c0.393,0.084,0.786,0.166,1.177,0.253c5.755,1.287,9.643,6.565,9.165,12.444
	c-0.417,5.13-3.829,9.215-8.797,10.532c-0.127,0.033-0.249,0.083-0.473,0.159c0.176,0.047,0.234,0.071,0.295,0.079
	c3.473,0.452,6.409,1.966,8.83,4.486c2.229,2.322,3.69,5.099,4.739,8.111c1.258,3.607,1.867,7.341,2.165,11.136
	c0.048,0.609,0.126,1.216,0.19,1.824c0,0.262,0,0.524,0,0.786c-0.035,0.171-0.098,0.342-0.099,0.514
	c-0.008,0.868-0.006,1.735,0.005,2.603c0.002,0.173,0.062,0.345,0.094,0.518c0,0.394,0,0.787,0,1.179
	c-0.035,0.102-0.087,0.201-0.101,0.305c-0.248,1.919-1.796,3.254-3.632,3.126c-1.849-0.128-3.172-1.692-3.165-3.651
	c0.007-2.175,0.023-4.354-0.095-6.524c-0.165-3.03-0.686-6.011-1.603-8.912c-0.049-0.155-0.118-0.305-0.178-0.457
	c-0.028,0.009-0.056,0.017-0.083,0.026c0,0.211,0,0.423,0,0.634c0,18.271,0,36.542,0,54.812c0,0.23,0.004,0.458-0.003,0.688
	c-0.072,2.169-1.404,3.821-3.509,4.359c-0.072,0.019-0.138,0.065-0.206,0.099c-0.491,0-0.982,0-1.473,0
	c-0.242-0.087-0.482-0.175-0.724-0.262c-1.83-0.655-2.943-2.323-2.944-4.427c-0.001-8.542,0-17.083,0-25.625
	c0-0.224,0-0.446,0-0.672c-0.558,0-1.037,0-1.543,0c0,0.254,0,0.466,0,0.678c0,8.574,0.002,17.148-0.001,25.724
	c-0.001,2.225-1.367,3.955-3.521,4.488C133.43,104.436,133.364,104.481,133.295,104.515z"/>
<path fill="#4591CD" d="M171.462,104.515c-0.458,0-0.917,0-1.376,0c-0.397-0.139-0.818-0.234-1.189-0.425
	c-1.76-0.905-2.564-2.372-2.563-4.341c0.008-18.448,0.005-36.895,0.005-55.342c0-0.186,0-0.372,0-0.558
	c-0.166,0.162-0.231,0.339-0.288,0.518c-0.979,3.074-1.483,6.237-1.643,9.447c-0.099,1.991-0.059,3.99-0.029,5.984
	c0.028,1.896-1.307,3.483-3.137,3.64c-1.83,0.158-3.43-1.186-3.652-3.084c-0.059-0.502-0.062-1.012-0.091-1.518
	c-0.001-1.051-0.002-2.103-0.003-3.155c0.096-3.292,0.409-6.562,1.098-9.788c0.747-3.493,1.863-6.849,3.838-9.861
	c2.514-3.833,5.919-6.366,10.522-7.121c0.203-0.033,0.405-0.08,0.607-0.12c-0.125-0.113-0.232-0.147-0.342-0.176
	c-4.81-1.279-8.131-5.087-8.757-10.042c-0.756-5.996,3.179-11.601,9.073-12.923c0.359-0.081,0.714-0.176,1.071-0.265
	c0.851,0,1.703,0,2.554,0c0.393,0.084,0.786,0.166,1.177,0.253c5.755,1.287,9.643,6.565,9.165,12.444
	c-0.417,5.13-3.829,9.215-8.797,10.532c-0.127,0.033-0.249,0.083-0.473,0.159c0.176,0.047,0.234,0.071,0.295,0.079
	c3.473,0.452,6.409,1.966,8.83,4.486c2.229,2.322,3.69,5.099,4.739,8.111c1.258,3.607,1.867,7.341,2.165,11.136
	c0.048,0.609,0.126,1.216,0.19,1.824c0,0.262,0,0.524,0,0.786c-0.035,0.171-0.098,0.342-0.099,0.514
	c-0.008,0.868-0.006,1.735,0.005,2.603c0.002,0.173,0.062,0.345,0.094,0.518c0,0.394,0,0.787,0,1.179
	c-0.035,0.102-0.087,0.201-0.101,0.305c-0.248,1.919-1.796,3.254-3.632,3.126c-1.849-0.128-3.172-1.692-3.165-3.651
	c0.007-2.175,0.023-4.354-0.095-6.524c-0.165-3.03-0.686-6.011-1.603-8.912c-0.049-0.155-0.118-0.305-0.178-0.457
	c-0.028,0.009-0.056,0.017-0.083,0.026c0,0.211,0,0.423,0,0.634c0,18.271,0,36.542,0,54.812c0,0.23,0.004,0.458-0.003,0.688
	c-0.072,2.169-1.404,3.821-3.509,4.359c-0.072,0.019-0.138,0.065-0.206,0.099c-0.491,0-0.982,0-1.473,0
	c-0.242-0.087-0.482-0.175-0.724-0.262c-1.83-0.655-2.943-2.323-2.944-4.427c-0.001-8.542,0-17.083,0-25.625
	c0-0.224,0-0.446,0-0.672c-0.558,0-1.037,0-1.543,0c0,0.254,0,0.466,0,0.678c0,8.574,0.002,17.148-0.001,25.724
	c-0.001,2.225-1.367,3.955-3.521,4.488C171.596,104.436,171.53,104.481,171.462,104.515z"/>
<path fill="#4591CD" d="M209.629,104.515c-0.458,0-0.917,0-1.376,0c-0.397-0.139-0.818-0.234-1.189-0.425
	c-1.76-0.905-2.564-2.372-2.563-4.341c0.008-18.448,0.005-36.895,0.005-55.342c0-0.186,0-0.372,0-0.558
	c-0.166,0.162-0.231,0.339-0.288,0.518c-0.979,3.074-1.483,6.237-1.643,9.447c-0.099,1.991-0.059,3.99-0.029,5.984
	c0.028,1.896-1.307,3.483-3.137,3.64c-1.83,0.158-3.43-1.186-3.652-3.084c-0.059-0.502-0.062-1.012-0.091-1.518
	c-0.001-1.051-0.002-2.103-0.003-3.155c0.096-3.292,0.409-6.562,1.098-9.788c0.747-3.493,1.863-6.849,3.838-9.861
	c2.514-3.833,5.919-6.366,10.522-7.121c0.203-0.033,0.405-0.08,0.607-0.12c-0.125-0.113-0.232-0.147-0.342-0.176
	c-4.81-1.279-8.131-5.087-8.757-10.042c-0.756-5.996,3.179-11.601,9.073-12.923c0.359-0.081,0.714-0.176,1.071-0.265
	c0.851,0,1.703,0,2.554,0c0.393,0.084,0.786,0.166,1.177,0.253c5.755,1.287,9.643,6.565,9.165,12.444
	c-0.417,5.13-3.829,9.215-8.797,10.532c-0.127,0.033-0.249,0.083-0.473,0.159c0.176,0.047,0.234,0.071,0.295,0.079
	c3.473,0.452,6.409,1.966,8.83,4.486c2.229,2.322,3.689,5.099,4.739,8.111c1.259,3.607,1.867,7.341,2.165,11.136
	c0.048,0.609,0.127,1.216,0.19,1.824c0,0.262,0,0.524,0,0.786c-0.034,0.171-0.098,0.342-0.099,0.514
	c-0.009,0.868-0.006,1.735,0.005,2.603c0.002,0.173,0.062,0.345,0.094,0.518c0,0.394,0,0.787,0,1.179
	c-0.034,0.102-0.087,0.201-0.101,0.305c-0.248,1.919-1.796,3.254-3.632,3.126c-1.848-0.128-3.171-1.692-3.165-3.651
	c0.007-2.175,0.023-4.354-0.095-6.524c-0.165-3.03-0.686-6.011-1.603-8.912c-0.049-0.155-0.118-0.305-0.178-0.457
	c-0.028,0.009-0.056,0.017-0.083,0.026c0,0.211,0,0.423,0,0.634c0,18.271,0,36.542,0,54.812c0,0.23,0.004,0.458-0.003,0.688
	c-0.072,2.169-1.404,3.821-3.509,4.359c-0.072,0.019-0.138,0.065-0.206,0.099c-0.491,0-0.982,0-1.473,0
	c-0.242-0.087-0.482-0.175-0.724-0.262c-1.83-0.655-2.943-2.323-2.944-4.427c-0.001-8.542,0-17.083,0-25.625
	c0-0.224,0-0.446,0-0.672c-0.558,0-1.037,0-1.543,0c0,0.254,0,0.466,0,0.678c0,8.574,0.002,17.148-0.001,25.724
	c-0.001,2.225-1.367,3.955-3.521,4.488C209.763,104.436,209.697,104.481,209.629,104.515z"/>
<path fill="#2F2E72" d="M247.795,104.515c-0.458,0-0.917,0-1.375,0c-0.398-0.139-0.818-0.234-1.189-0.425
	c-1.76-0.905-2.564-2.372-2.564-4.341c0.008-18.448,0.006-36.895,0.006-55.342c0-0.186,0-0.372,0-0.558
	c-0.166,0.162-0.231,0.339-0.289,0.518c-0.979,3.074-1.482,6.237-1.643,9.447c-0.099,1.991-0.059,3.99-0.029,5.984
	c0.028,1.896-1.307,3.483-3.137,3.64c-1.829,0.158-3.43-1.186-3.652-3.084c-0.059-0.502-0.062-1.012-0.091-1.518
	c-0.001-1.051-0.002-2.103-0.003-3.155c0.096-3.292,0.408-6.562,1.098-9.788c0.747-3.493,1.863-6.849,3.839-9.861
	c2.514-3.833,5.919-6.366,10.522-7.121c0.203-0.033,0.404-0.08,0.606-0.12c-0.124-0.113-0.232-0.147-0.342-0.176
	c-4.81-1.279-8.132-5.087-8.757-10.042c-0.756-5.996,3.179-11.601,9.072-12.923c0.359-0.081,0.715-0.176,1.072-0.265
	c0.851,0,1.703,0,2.553,0c0.393,0.084,0.786,0.166,1.178,0.253c5.755,1.287,9.643,6.565,9.164,12.444
	c-0.416,5.13-3.828,9.215-8.797,10.532c-0.127,0.033-0.248,0.083-0.473,0.159c0.176,0.047,0.234,0.071,0.295,0.079
	c3.474,0.452,6.409,1.966,8.83,4.486c2.229,2.322,3.689,5.099,4.739,8.111c1.259,3.607,1.867,7.341,2.165,11.136
	c0.048,0.609,0.127,1.216,0.19,1.824c0,0.262,0,0.524,0,0.786c-0.034,0.171-0.098,0.342-0.099,0.514
	c-0.009,0.868-0.006,1.735,0.005,2.603c0.002,0.173,0.062,0.345,0.094,0.518c0,0.394,0,0.787,0,1.179
	c-0.034,0.102-0.087,0.201-0.101,0.305c-0.248,1.919-1.796,3.254-3.632,3.126c-1.849-0.128-3.172-1.692-3.165-3.651
	c0.007-2.175,0.023-4.354-0.095-6.524c-0.165-3.03-0.686-6.011-1.603-8.912c-0.049-0.155-0.119-0.305-0.179-0.457
	c-0.028,0.009-0.056,0.017-0.083,0.026c0,0.211,0,0.423,0,0.634c0,18.271,0,36.542-0.001,54.812c0,0.23,0.005,0.458-0.003,0.688
	c-0.072,2.169-1.404,3.821-3.51,4.359c-0.072,0.019-0.137,0.065-0.205,0.099c-0.491,0-0.982,0-1.473,0
	c-0.242-0.087-0.482-0.175-0.725-0.262c-1.829-0.655-2.943-2.323-2.943-4.427c-0.002-8.542,0-17.083,0-25.625
	c0-0.224,0-0.446,0-0.672c-0.559,0-1.037,0-1.544,0c0,0.254,0,0.466,0,0.678c0,8.574,0.003,17.148-0.001,25.724
	c-0.002,2.225-1.367,3.955-3.521,4.488C247.93,104.436,247.863,104.481,247.795,104.515z"/>
<path fill="#2F2E72" d="M285.962,104.515c-0.458,0-0.917,0-1.375,0c-0.398-0.139-0.818-0.234-1.189-0.425
	c-1.76-0.905-2.564-2.372-2.564-4.341c0.008-18.448,0.006-36.895,0.006-55.342c0-0.186,0-0.372,0-0.558
	c-0.166,0.162-0.231,0.339-0.289,0.518c-0.979,3.074-1.482,6.237-1.643,9.447c-0.099,1.991-0.059,3.99-0.029,5.984
	c0.028,1.896-1.307,3.483-3.137,3.64c-1.829,0.158-3.43-1.186-3.652-3.084c-0.059-0.502-0.062-1.012-0.091-1.518
	c-0.001-1.051-0.002-2.103-0.003-3.155c0.096-3.292,0.408-6.562,1.098-9.788c0.747-3.493,1.863-6.849,3.839-9.861
	c2.514-3.833,5.919-6.366,10.522-7.121c0.203-0.033,0.404-0.08,0.606-0.12c-0.124-0.113-0.232-0.147-0.342-0.176
	c-4.81-1.279-8.132-5.087-8.757-10.042c-0.756-5.996,3.179-11.601,9.072-12.923c0.359-0.081,0.715-0.176,1.072-0.265
	c0.851,0,1.703,0,2.553,0c0.393,0.084,0.786,0.166,1.178,0.253c5.755,1.287,9.643,6.565,9.164,12.444
	c-0.416,5.13-3.828,9.215-8.797,10.532c-0.127,0.033-0.248,0.083-0.473,0.159c0.176,0.047,0.234,0.071,0.295,0.079
	c3.474,0.452,6.409,1.966,8.83,4.486c2.229,2.322,3.689,5.099,4.739,8.111c1.259,3.607,1.867,7.341,2.165,11.136
	c0.048,0.609,0.127,1.216,0.19,1.824c0,0.262,0,0.524,0,0.786c-0.034,0.171-0.098,0.342-0.099,0.514
	c-0.009,0.868-0.006,1.735,0.005,2.603c0.002,0.173,0.062,0.345,0.094,0.518c0,0.394,0,0.787,0,1.179
	c-0.034,0.102-0.087,0.201-0.101,0.305c-0.248,1.919-1.796,3.254-3.632,3.126c-1.849-0.128-3.172-1.692-3.165-3.651
	c0.007-2.175,0.023-4.354-0.095-6.524c-0.165-3.03-0.686-6.011-1.603-8.912c-0.049-0.155-0.119-0.305-0.179-0.457
	c-0.028,0.009-0.056,0.017-0.083,0.026c0,0.211,0,0.423,0,0.634c0,18.271,0,36.542-0.001,54.812c0,0.23,0.005,0.458-0.003,0.688
	c-0.072,2.169-1.404,3.821-3.51,4.359c-0.072,0.019-0.137,0.065-0.205,0.099c-0.491,0-0.982,0-1.473,0
	c-0.242-0.087-0.482-0.175-0.725-0.262c-1.829-0.655-2.943-2.323-2.943-4.427c-0.002-8.542,0-17.083,0-25.625
	c0-0.224,0-0.446,0-0.672c-0.559,0-1.037,0-1.544,0c0,0.254,0,0.466,0,0.678c0,8.574,0.003,17.148-0.001,25.724
	c-0.002,2.225-1.367,3.955-3.521,4.488C286.097,104.436,286.03,104.481,285.962,104.515z"/>
<path fill="#2F2E72" d="M324.128,104.515c-0.458,0-0.917,0-1.375,0c-0.398-0.139-0.818-0.234-1.189-0.425
	c-1.76-0.905-2.564-2.372-2.564-4.341c0.008-18.448,0.006-36.895,0.006-55.342c0-0.186,0-0.372,0-0.558
	c-0.166,0.162-0.231,0.339-0.289,0.518c-0.979,3.074-1.482,6.237-1.643,9.447c-0.099,1.991-0.059,3.99-0.029,5.984
	c0.028,1.896-1.307,3.483-3.137,3.64c-1.829,0.158-3.43-1.186-3.652-3.084c-0.059-0.502-0.062-1.012-0.091-1.518
	c-0.001-1.051-0.002-2.103-0.003-3.155c0.096-3.292,0.408-6.562,1.098-9.788c0.747-3.493,1.863-6.849,3.839-9.861
	c2.514-3.833,5.919-6.366,10.522-7.121c0.203-0.033,0.404-0.08,0.606-0.12c-0.124-0.113-0.232-0.147-0.342-0.176
	c-4.81-1.279-8.132-5.087-8.757-10.042c-0.756-5.996,3.179-11.601,9.072-12.923c0.359-0.081,0.715-0.176,1.072-0.265
	c0.851,0,1.703,0,2.553,0c0.393,0.084,0.786,0.166,1.178,0.253c5.755,1.287,9.643,6.565,9.164,12.444
	c-0.416,5.13-3.828,9.215-8.797,10.532c-0.127,0.033-0.248,0.083-0.473,0.159c0.176,0.047,0.234,0.071,0.295,0.079
	c3.474,0.452,6.409,1.966,8.83,4.486c2.229,2.322,3.689,5.099,4.739,8.111c1.259,3.607,1.867,7.341,2.165,11.136
	c0.048,0.609,0.127,1.216,0.19,1.824c0,0.262,0,0.524,0,0.786c-0.034,0.171-0.098,0.342-0.099,0.514
	c-0.009,0.868-0.006,1.735,0.005,2.603c0.002,0.173,0.062,0.345,0.094,0.518c0,0.394,0,0.787,0,1.179
	c-0.034,0.102-0.087,0.201-0.101,0.305c-0.248,1.919-1.796,3.254-3.632,3.126c-1.849-0.128-3.172-1.692-3.165-3.651
	c0.007-2.175,0.023-4.354-0.095-6.524c-0.165-3.03-0.686-6.011-1.603-8.912c-0.049-0.155-0.119-0.305-0.179-0.457
	c-0.028,0.009-0.056,0.017-0.083,0.026c0,0.211,0,0.423,0,0.634c0,18.271,0,36.542-0.001,54.812c0,0.23,0.005,0.458-0.003,0.688
	c-0.072,2.169-1.404,3.821-3.51,4.359c-0.072,0.019-0.137,0.065-0.205,0.099c-0.491,0-0.982,0-1.473,0
	c-0.242-0.087-0.482-0.175-0.725-0.262c-1.829-0.655-2.943-2.323-2.943-4.427c-0.002-8.542,0-17.083,0-25.625
	c0-0.224,0-0.446,0-0.672c-0.559,0-1.037,0-1.544,0c0,0.254,0,0.466,0,0.678c0,8.574,0.003,17.148-0.001,25.724
	c-0.002,2.225-1.367,3.955-3.521,4.488C324.263,104.436,324.196,104.481,324.128,104.515z"/>
<path fill="#2F2E72" d="M362.295,104.515c-0.458,0-0.917,0-1.375,0c-0.398-0.139-0.818-0.234-1.189-0.425
	c-1.76-0.905-2.564-2.372-2.564-4.341c0.008-18.448,0.006-36.895,0.006-55.342c0-0.186,0-0.372,0-0.558
	c-0.166,0.162-0.231,0.339-0.289,0.518c-0.979,3.074-1.482,6.237-1.643,9.447c-0.099,1.991-0.059,3.99-0.029,5.984
	c0.028,1.896-1.307,3.483-3.137,3.64c-1.829,0.158-3.43-1.186-3.652-3.084c-0.059-0.502-0.062-1.012-0.091-1.518
	c-0.001-1.051-0.002-2.103-0.003-3.155c0.096-3.292,0.408-6.562,1.098-9.788c0.747-3.493,1.863-6.849,3.839-9.861
	c2.514-3.833,5.919-6.366,10.522-7.121c0.203-0.033,0.404-0.08,0.606-0.12c-0.124-0.113-0.232-0.147-0.342-0.176
	c-4.81-1.279-8.132-5.087-8.757-10.042c-0.756-5.996,3.179-11.601,9.072-12.923c0.359-0.081,0.715-0.176,1.072-0.265
	c0.851,0,1.703,0,2.553,0c0.393,0.084,0.786,0.166,1.178,0.253c5.755,1.287,9.643,6.565,9.164,12.444
	c-0.416,5.13-3.828,9.215-8.797,10.532c-0.127,0.033-0.248,0.083-0.473,0.159c0.176,0.047,0.234,0.071,0.295,0.079
	c3.474,0.452,6.409,1.966,8.83,4.486c2.229,2.322,3.689,5.099,4.739,8.111c1.259,3.607,1.867,7.341,2.165,11.136
	c0.048,0.609,0.127,1.216,0.19,1.824c0,0.262,0,0.524,0,0.786c-0.034,0.171-0.098,0.342-0.099,0.514
	c-0.009,0.868-0.006,1.735,0.005,2.603c0.002,0.173,0.062,0.345,0.094,0.518c0,0.394,0,0.787,0,1.179
	c-0.034,0.102-0.087,0.201-0.101,0.305c-0.248,1.919-1.796,3.254-3.632,3.126c-1.849-0.128-3.172-1.692-3.165-3.651
	c0.007-2.175,0.023-4.354-0.095-6.524c-0.165-3.03-0.686-6.011-1.603-8.912c-0.049-0.155-0.119-0.305-0.179-0.457
	c-0.028,0.009-0.056,0.017-0.083,0.026c0,0.211,0,0.423,0,0.634c0,18.271,0,36.542-0.001,54.812c0,0.23,0.005,0.458-0.003,0.688
	c-0.072,2.169-1.404,3.821-3.51,4.359c-0.072,0.019-0.137,0.065-0.205,0.099c-0.491,0-0.982,0-1.473,0
	c-0.242-0.087-0.482-0.175-0.725-0.262c-1.829-0.655-2.943-2.323-2.943-4.427c-0.002-8.542,0-17.083,0-25.625
	c0-0.224,0-0.446,0-0.672c-0.559,0-1.037,0-1.544,0c0,0.254,0,0.466,0,0.678c0,8.574,0.003,17.148-0.001,25.724
	c-0.002,2.225-1.367,3.955-3.521,4.488C362.43,104.436,362.363,104.481,362.295,104.515z"/>
</svg>
