<?xml version="1.0" encoding="utf-8"?>
<!DOCTYPE svg PUBLIC "-//W3C//DTD SVG 1.1//EN" "http://www.w3.org/Graphics/SVG/1.1/DTD/svg11.dtd">
<svg version="1.1" id="Layer_1" xmlns="http://www.w3.org/2000/svg" xmlns:xlink="http://www.w3.org/1999/xlink" x="0px" y="0px"
	 width="463px" height="254px" viewBox="0 0 463 254" enable-background="new 0 0 463 254" xml:space="preserve">
<path fill="#4591CD" d="M18.795,101.515c-0.458,0-0.917,0-1.376,0c-0.397-0.139-0.818-0.234-1.189-0.425
	c-1.76-0.904-2.564-2.372-2.563-4.342c0.008-18.447,0.005-36.895,0.005-55.341c0-0.186,0-0.372,0-0.558
	c-0.166,0.162-0.231,0.339-0.288,0.518c-0.979,3.074-1.483,6.237-1.643,9.447c-0.099,1.991-0.059,3.99-0.029,5.984
	c0.028,1.896-1.307,3.483-3.137,3.64c-1.83,0.158-3.43-1.186-3.652-3.084c-0.059-0.502-0.062-1.012-0.091-1.518
	c-0.001-1.052-0.002-2.104-0.003-3.155c0.096-3.292,0.409-6.562,1.098-9.788c0.747-3.493,1.863-6.849,3.838-9.861
	c2.514-3.833,5.919-6.366,10.522-7.121c0.203-0.033,0.405-0.08,0.607-0.12c-0.125-0.113-0.232-0.147-0.342-0.176
	c-4.81-1.279-8.131-5.087-8.757-10.042C11.039,9.577,14.974,3.973,20.868,2.65c0.359-0.081,0.714-0.176,1.071-0.265
	c0.851,0,1.703,0,2.554,0c0.393,0.084,0.786,0.166,1.177,0.253c5.755,1.287,9.643,6.565,9.165,12.444
	c-0.417,5.13-3.829,9.215-8.797,10.532c-0.127,0.033-0.249,0.083-0.473,0.159c0.176,0.047,0.234,0.071,0.295,0.079
	c3.473,0.452,6.409,1.966,8.83,4.486c2.229,2.322,3.69,5.099,4.739,8.111c1.258,3.607,1.867,7.341,2.165,11.136
	c0.048,0.609,0.126,1.216,0.19,1.824c0,0.262,0,0.524,0,0.786c-0.035,0.171-0.098,0.342-0.099,0.513
	c-0.008,0.868-0.006,1.736,0.005,2.604c0.002,0.173,0.062,0.346,0.094,0.518c0,0.395,0,0.787,0,1.18
	c-0.035,0.102-0.087,0.2-0.101,0.305c-0.248,1.919-1.796,3.254-3.632,3.127c-1.849-0.129-3.172-1.693-3.165-3.652
	c0.007-2.174,0.023-4.354-0.095-6.523c-0.165-3.03-0.686-6.011-1.603-8.912c-0.049-0.155-0.118-0.305-0.178-0.457
	c-0.028,0.009-0.056,0.017-0.083,0.026c0,0.211,0,0.423,0,0.634c0,18.271,0,36.542,0,54.812c0,0.23,0.004,0.459-0.003,0.688
	c-0.072,2.169-1.404,3.82-3.509,4.359c-0.072,0.018-0.138,0.064-0.206,0.099c-0.491,0-0.982,0-1.473,0
	c-0.242-0.087-0.482-0.175-0.724-0.263c-1.83-0.654-2.943-2.322-2.944-4.427c-0.001-8.542,0-17.083,0-25.624
	c0-0.225,0-0.447,0-0.673c-0.558,0-1.037,0-1.543,0c0,0.255,0,0.466,0,0.678c0,8.574,0.002,17.148-0.001,25.724
	c-0.001,2.225-1.367,3.955-3.521,4.488C18.93,101.436,18.864,101.481,18.795,101.515z"/>
<path fill="#4591CD" d="M56.962,101.515c-0.458,0-0.917,0-1.376,0c-0.397-0.139-0.818-0.234-1.189-0.425
	c-1.76-0.904-2.564-2.372-2.563-4.342c0.008-18.447,0.005-36.895,0.005-55.341c0-0.186,0-0.372,0-0.558
	c-0.166,0.162-0.231,0.339-0.288,0.518c-0.979,3.074-1.483,6.237-1.643,9.447c-0.099,1.991-0.059,3.99-0.029,5.984
	c0.028,1.896-1.307,3.483-3.137,3.64c-1.83,0.158-3.43-1.186-3.652-3.084c-0.059-0.502-0.062-1.012-0.091-1.518
	c-0.001-1.052-0.002-2.104-0.003-3.155c0.096-3.292,0.409-6.562,1.098-9.788c0.747-3.493,1.863-6.849,3.838-9.861
	c2.514-3.833,5.919-6.366,10.522-7.121c0.203-0.033,0.405-0.08,0.607-0.12c-0.125-0.113-0.232-0.147-0.342-0.176
	c-4.81-1.279-8.131-5.087-8.757-10.042C49.205,9.577,53.14,3.973,59.034,2.65c0.359-0.081,0.714-0.176,1.071-0.265
	c0.851,0,1.703,0,2.554,0c0.393,0.084,0.786,0.166,1.177,0.253c5.755,1.287,9.643,6.565,9.165,12.444
	c-0.417,5.13-3.829,9.215-8.797,10.532c-0.127,0.033-0.249,0.083-0.473,0.159c0.176,0.047,0.234,0.071,0.295,0.079
	c3.473,0.452,6.409,1.966,8.83,4.486c2.229,2.322,3.69,5.099,4.739,8.111c1.258,3.607,1.867,7.341,2.165,11.136
	c0.048,0.609,0.126,1.216,0.19,1.824c0,0.262,0,0.524,0,0.786c-0.035,0.171-0.098,0.342-0.099,0.513
	c-0.008,0.868-0.006,1.736,0.005,2.604c0.002,0.173,0.062,0.346,0.094,0.518c0,0.395,0,0.787,0,1.18
	c-0.035,0.102-0.087,0.2-0.101,0.305c-0.248,1.919-1.796,3.254-3.632,3.127c-1.849-0.129-3.172-1.693-3.165-3.652
	c0.007-2.174,0.023-4.354-0.095-6.523c-0.165-3.03-0.686-6.011-1.603-8.912c-0.049-0.155-0.118-0.305-0.178-0.457
	c-0.028,0.009-0.056,0.017-0.083,0.026c0,0.211,0,0.423,0,0.634c0,18.271,0,36.542,0,54.812c0,0.23,0.004,0.459-0.003,0.688
	c-0.072,2.169-1.404,3.82-3.509,4.359c-0.072,0.018-0.138,0.064-0.206,0.099c-0.491,0-0.982,0-1.473,0
	c-0.242-0.087-0.482-0.175-0.724-0.263c-1.83-0.654-2.943-2.322-2.944-4.427c-0.001-8.542,0-17.083,0-25.624
	c0-0.225,0-0.447,0-0.673c-0.558,0-1.037,0-1.543,0c0,0.255,0,0.466,0,0.678c0,8.574,0.002,17.148-0.001,25.724
	c-0.001,2.225-1.367,3.955-3.521,4.488C57.096,101.436,57.03,101.481,56.962,101.515z"/>
<path fill="#4591CD" d="M95.129,101.515c-0.458,0-0.917,0-1.376,0c-0.397-0.139-0.818-0.234-1.189-0.425
	C90.804,100.186,90,98.718,90,96.748c0.008-18.447,0.005-36.895,0.005-55.341c0-0.186,0-0.372,0-0.558
	c-0.166,0.162-0.231,0.339-0.288,0.518c-0.979,3.074-1.483,6.237-1.643,9.447c-0.099,1.991-0.059,3.99-0.029,5.984
	c0.028,1.896-1.307,3.483-3.137,3.64c-1.83,0.158-3.43-1.186-3.652-3.084c-0.059-0.502-0.062-1.012-0.091-1.518
	c-0.001-1.052-0.002-2.104-0.003-3.155c0.096-3.292,0.409-6.562,1.098-9.788c0.747-3.493,1.863-6.849,3.838-9.861
	c2.514-3.833,5.919-6.366,10.522-7.121c0.203-0.033,0.405-0.08,0.607-0.12c-0.125-0.113-0.232-0.147-0.342-0.176
	c-4.81-1.279-8.131-5.087-8.757-10.042C87.372,9.577,91.307,3.973,97.201,2.65c0.359-0.081,0.714-0.176,1.071-0.265
	c0.851,0,1.703,0,2.554,0c0.393,0.084,0.786,0.166,1.177,0.253c5.755,1.287,9.643,6.565,9.165,12.444
	c-0.417,5.13-3.829,9.215-8.797,10.532c-0.127,0.033-0.249,0.083-0.473,0.159c0.176,0.047,0.234,0.071,0.295,0.079
	c3.473,0.452,6.409,1.966,8.83,4.486c2.229,2.322,3.69,5.099,4.739,8.111c1.258,3.607,1.867,7.341,2.165,11.136
	c0.048,0.609,0.126,1.216,0.19,1.824c0,0.262,0,0.524,0,0.786c-0.035,0.171-0.098,0.342-0.099,0.513
	c-0.008,0.868-0.006,1.736,0.005,2.604c0.002,0.173,0.062,0.346,0.094,0.518c0,0.395,0,0.787,0,1.18
	c-0.035,0.102-0.087,0.2-0.101,0.305c-0.248,1.919-1.796,3.254-3.632,3.127c-1.849-0.129-3.172-1.693-3.165-3.652
	c0.007-2.174,0.023-4.354-0.095-6.523c-0.165-3.03-0.686-6.011-1.603-8.912c-0.049-0.155-0.118-0.305-0.178-0.457
	c-0.028,0.009-0.056,0.017-0.083,0.026c0,0.211,0,0.423,0,0.634c0,18.271,0,36.542,0,54.812c0,0.23,0.004,0.459-0.003,0.688
	c-0.072,2.169-1.404,3.82-3.509,4.359c-0.072,0.018-0.138,0.064-0.206,0.099c-0.491,0-0.982,0-1.473,0
	c-0.242-0.087-0.482-0.175-0.724-0.263c-1.83-0.654-2.943-2.322-2.944-4.427c-0.001-8.542,0-17.083,0-25.624
	c0-0.225,0-0.447,0-0.673c-0.558,0-1.037,0-1.543,0c0,0.255,0,0.466,0,0.678c0,8.574,0.002,17.148-0.001,25.724
	c-0.001,2.225-1.367,3.955-3.521,4.488C95.263,101.436,95.197,101.481,95.129,101.515z"/>
<path fill="#4591CD" d="M133.295,101.515c-0.458,0-0.917,0-1.376,0c-0.397-0.139-0.818-0.234-1.189-0.425
	c-1.76-0.904-2.564-2.372-2.563-4.342c0.008-18.447,0.005-36.895,0.005-55.341c0-0.186,0-0.372,0-0.558
	c-0.166,0.162-0.231,0.339-0.288,0.518c-0.979,3.074-1.483,6.237-1.643,9.447c-0.099,1.991-0.059,3.99-0.029,5.984
	c0.028,1.896-1.307,3.483-3.137,3.64c-1.83,0.158-3.43-1.186-3.652-3.084c-0.059-0.502-0.062-1.012-0.091-1.518
	c-0.001-1.052-0.002-2.104-0.003-3.155c0.096-3.292,0.409-6.562,1.098-9.788c0.747-3.493,1.863-6.849,3.838-9.861
	c2.514-3.833,5.919-6.366,10.522-7.121c0.203-0.033,0.405-0.08,0.607-0.12c-0.125-0.113-0.232-0.147-0.342-0.176
	c-4.81-1.279-8.131-5.087-8.757-10.042c-0.756-5.996,3.179-11.601,9.073-12.923c0.359-0.081,0.714-0.176,1.071-0.265
	c0.851,0,1.703,0,2.554,0c0.393,0.084,0.786,0.166,1.177,0.253c5.755,1.287,9.643,6.565,9.165,12.444
	c-0.417,5.13-3.829,9.215-8.797,10.532c-0.127,0.033-0.249,0.083-0.473,0.159c0.176,0.047,0.234,0.071,0.295,0.079
	c3.473,0.452,6.409,1.966,8.83,4.486c2.229,2.322,3.69,5.099,4.739,8.111c1.258,3.607,1.867,7.341,2.165,11.136
	c0.048,0.609,0.126,1.216,0.19,1.824c0,0.262,0,0.524,0,0.786c-0.035,0.171-0.098,0.342-0.099,0.513
	c-0.008,0.868-0.006,1.736,0.005,2.604c0.002,0.173,0.062,0.346,0.094,0.518c0,0.395,0,0.787,0,1.18
	c-0.035,0.102-0.087,0.2-0.101,0.305c-0.248,1.919-1.796,3.254-3.632,3.127c-1.849-0.129-3.172-1.693-3.165-3.652
	c0.007-2.174,0.023-4.354-0.095-6.523c-0.165-3.03-0.686-6.011-1.603-8.912c-0.049-0.155-0.118-0.305-0.178-0.457
	c-0.028,0.009-0.056,0.017-0.083,0.026c0,0.211,0,0.423,0,0.634c0,18.271,0,36.542,0,54.812c0,0.23,0.004,0.459-0.003,0.688
	c-0.072,2.169-1.404,3.82-3.509,4.359c-0.072,0.018-0.138,0.064-0.206,0.099c-0.491,0-0.982,0-1.473,0
	c-0.242-0.087-0.482-0.175-0.724-0.263c-1.83-0.654-2.943-2.322-2.944-4.427c-0.001-8.542,0-17.083,0-25.624
	c0-0.225,0-0.447,0-0.673c-0.558,0-1.037,0-1.543,0c0,0.255,0,0.466,0,0.678c0,8.574,0.002,17.148-0.001,25.724
	c-0.001,2.225-1.367,3.955-3.521,4.488C133.43,101.436,133.364,101.481,133.295,101.515z"/>
<path fill="#4591CD" d="M171.462,101.515c-0.458,0-0.917,0-1.376,0c-0.397-0.139-0.818-0.234-1.189-0.425
	c-1.76-0.904-2.564-2.372-2.563-4.342c0.008-18.447,0.005-36.895,0.005-55.341c0-0.186,0-0.372,0-0.558
	c-0.166,0.162-0.231,0.339-0.288,0.518c-0.979,3.074-1.483,6.237-1.643,9.447c-0.099,1.991-0.059,3.99-0.029,5.984
	c0.028,1.896-1.307,3.483-3.137,3.64c-1.83,0.158-3.43-1.186-3.652-3.084c-0.059-0.502-0.062-1.012-0.091-1.518
	c-0.001-1.052-0.002-2.104-0.003-3.155c0.096-3.292,0.409-6.562,1.098-9.788c0.747-3.493,1.863-6.849,3.838-9.861
	c2.514-3.833,5.919-6.366,10.522-7.121c0.203-0.033,0.405-0.08,0.607-0.12c-0.125-0.113-0.232-0.147-0.342-0.176
	c-4.81-1.279-8.131-5.087-8.757-10.042c-0.756-5.996,3.179-11.601,9.073-12.923c0.359-0.081,0.714-0.176,1.071-0.265
	c0.851,0,1.703,0,2.554,0c0.393,0.084,0.786,0.166,1.177,0.253c5.755,1.287,9.643,6.565,9.165,12.444
	c-0.417,5.13-3.829,9.215-8.797,10.532c-0.127,0.033-0.249,0.083-0.473,0.159c0.176,0.047,0.234,0.071,0.295,0.079
	c3.473,0.452,6.409,1.966,8.83,4.486c2.229,2.322,3.69,5.099,4.739,8.111c1.258,3.607,1.867,7.341,2.165,11.136
	c0.048,0.609,0.126,1.216,0.19,1.824c0,0.262,0,0.524,0,0.786c-0.035,0.171-0.098,0.342-0.099,0.513
	c-0.008,0.868-0.006,1.736,0.005,2.604c0.002,0.173,0.062,0.346,0.094,0.518c0,0.395,0,0.787,0,1.18
	c-0.035,0.102-0.087,0.2-0.101,0.305c-0.248,1.919-1.796,3.254-3.632,3.127c-1.849-0.129-3.172-1.693-3.165-3.652
	c0.007-2.174,0.023-4.354-0.095-6.523c-0.165-3.03-0.686-6.011-1.603-8.912c-0.049-0.155-0.118-0.305-0.178-0.457
	c-0.028,0.009-0.056,0.017-0.083,0.026c0,0.211,0,0.423,0,0.634c0,18.271,0,36.542,0,54.812c0,0.23,0.004,0.459-0.003,0.688
	c-0.072,2.169-1.404,3.82-3.509,4.359c-0.072,0.018-0.138,0.064-0.206,0.099c-0.491,0-0.982,0-1.473,0
	c-0.242-0.087-0.482-0.175-0.724-0.263c-1.83-0.654-2.943-2.322-2.944-4.427c-0.001-8.542,0-17.083,0-25.624
	c0-0.225,0-0.447,0-0.673c-0.558,0-1.037,0-1.543,0c0,0.255,0,0.466,0,0.678c0,8.574,0.002,17.148-0.001,25.724
	c-0.001,2.225-1.367,3.955-3.521,4.488C171.596,101.436,171.53,101.481,171.462,101.515z"/>
<path fill="#4591CD" d="M209.629,101.515c-0.459,0-0.918,0-1.376,0c-0.397-0.139-0.818-0.234-1.189-0.425
	c-1.76-0.904-2.563-2.372-2.563-4.342c0.008-18.447,0.005-36.895,0.005-55.341c0-0.186,0-0.372,0-0.558
	c-0.166,0.162-0.231,0.339-0.288,0.518c-0.979,3.074-1.482,6.237-1.643,9.447c-0.1,1.991-0.059,3.99-0.029,5.984
	c0.027,1.896-1.307,3.483-3.137,3.64c-1.83,0.158-3.43-1.186-3.652-3.084c-0.059-0.502-0.062-1.012-0.092-1.518
	c0-1.052-0.002-2.104-0.002-3.155c0.096-3.292,0.408-6.562,1.098-9.788c0.746-3.493,1.863-6.849,3.838-9.861
	c2.514-3.833,5.92-6.366,10.522-7.121c0.203-0.033,0.405-0.08,0.606-0.12c-0.124-0.113-0.232-0.147-0.342-0.176
	c-4.81-1.279-8.131-5.087-8.756-10.042c-0.757-5.996,3.178-11.601,9.072-12.923c0.359-0.081,0.715-0.176,1.071-0.265
	c0.851,0,1.703,0,2.554,0c0.393,0.084,0.785,0.166,1.177,0.253c5.755,1.287,9.643,6.565,9.165,12.444
	c-0.417,5.13-3.829,9.215-8.797,10.532c-0.127,0.033-0.249,0.083-0.473,0.159c0.176,0.047,0.233,0.071,0.295,0.079
	c3.473,0.452,6.408,1.966,8.83,4.486c2.229,2.322,3.688,5.099,4.738,8.111c1.259,3.607,1.867,7.341,2.165,11.136
	c0.048,0.609,0.127,1.216,0.19,1.824c0,0.262,0,0.524,0,0.786c-0.034,0.171-0.098,0.342-0.099,0.513
	c-0.009,0.868-0.006,1.736,0.005,2.604c0.002,0.173,0.062,0.346,0.094,0.518c0,0.395,0,0.787,0,1.18
	c-0.034,0.102-0.087,0.2-0.101,0.305c-0.248,1.919-1.796,3.254-3.632,3.127c-1.848-0.129-3.172-1.693-3.164-3.652
	c0.006-2.174,0.022-4.354-0.096-6.523c-0.164-3.03-0.686-6.011-1.603-8.912c-0.049-0.155-0.118-0.305-0.179-0.457
	c-0.027,0.009-0.056,0.017-0.083,0.026c0,0.211,0,0.423,0,0.634c0,18.271,0,36.542-0.001,54.812c0,0.23,0.005,0.459-0.002,0.688
	c-0.072,2.169-1.404,3.82-3.51,4.359c-0.072,0.018-0.138,0.064-0.205,0.099c-0.492,0-0.982,0-1.474,0
	c-0.241-0.087-0.482-0.175-0.724-0.263c-1.83-0.654-2.943-2.322-2.943-4.427c-0.002-8.542-0.001-17.083-0.001-25.624
	c0-0.225,0-0.447,0-0.673c-0.558,0-1.037,0-1.544,0c0,0.255,0,0.466,0,0.678c0,8.574,0.003,17.148-0.001,25.724
	c-0.001,2.225-1.366,3.955-3.521,4.488C209.764,101.436,209.697,101.481,209.629,101.515z"/>
<path fill="#2F2E72" d="M247.795,101.515c-0.458,0-0.917,0-1.375,0c-0.398-0.139-0.818-0.234-1.189-0.425
	c-1.76-0.904-2.564-2.372-2.564-4.342c0.008-18.447,0.006-36.895,0.006-55.341c0-0.186,0-0.372,0-0.558
	c-0.166,0.162-0.231,0.339-0.289,0.518c-0.979,3.074-1.482,6.237-1.643,9.447c-0.099,1.991-0.059,3.99-0.029,5.984
	c0.028,1.896-1.307,3.483-3.137,3.64c-1.829,0.158-3.43-1.186-3.652-3.084c-0.059-0.502-0.062-1.012-0.091-1.518
	c-0.001-1.052-0.002-2.104-0.003-3.155c0.096-3.292,0.408-6.562,1.098-9.788c0.747-3.493,1.863-6.849,3.839-9.861
	c2.514-3.833,5.919-6.366,10.522-7.121c0.203-0.033,0.404-0.08,0.606-0.12c-0.124-0.113-0.232-0.147-0.342-0.176
	c-4.81-1.279-8.132-5.087-8.757-10.042c-0.756-5.996,3.179-11.601,9.072-12.923c0.359-0.081,0.715-0.176,1.072-0.265
	c0.851,0,1.703,0,2.553,0c0.393,0.084,0.786,0.166,1.178,0.253c5.755,1.287,9.643,6.565,9.164,12.444
	c-0.416,5.13-3.828,9.215-8.797,10.532c-0.127,0.033-0.248,0.083-0.473,0.159c0.176,0.047,0.234,0.071,0.295,0.079
	c3.474,0.452,6.409,1.966,8.83,4.486c2.229,2.322,3.689,5.099,4.739,8.111c1.259,3.607,1.867,7.341,2.165,11.136
	c0.048,0.609,0.127,1.216,0.19,1.824c0,0.262,0,0.524,0,0.786c-0.034,0.171-0.098,0.342-0.099,0.513
	c-0.009,0.868-0.006,1.736,0.005,2.604c0.002,0.173,0.062,0.346,0.094,0.518c0,0.395,0,0.787,0,1.18
	c-0.034,0.102-0.087,0.2-0.101,0.305c-0.248,1.919-1.796,3.254-3.632,3.127c-1.849-0.129-3.172-1.693-3.165-3.652
	c0.007-2.174,0.023-4.354-0.095-6.523c-0.165-3.03-0.686-6.011-1.603-8.912c-0.049-0.155-0.119-0.305-0.179-0.457
	c-0.028,0.009-0.056,0.017-0.083,0.026c0,0.211,0,0.423,0,0.634c0,18.271,0,36.542-0.001,54.812c0,0.23,0.005,0.459-0.003,0.688
	c-0.072,2.169-1.404,3.82-3.51,4.359c-0.072,0.018-0.137,0.064-0.205,0.099c-0.491,0-0.982,0-1.473,0
	c-0.242-0.087-0.482-0.175-0.725-0.263c-1.829-0.654-2.943-2.322-2.943-4.427c-0.002-8.542,0-17.083,0-25.624
	c0-0.225,0-0.447,0-0.673c-0.559,0-1.037,0-1.544,0c0,0.255,0,0.466,0,0.678c0,8.574,0.003,17.148-0.001,25.724
	c-0.002,2.225-1.367,3.955-3.521,4.488C247.93,101.436,247.863,101.481,247.795,101.515z"/>
<path fill="#2F2E72" d="M285.962,101.515c-0.458,0-0.917,0-1.375,0c-0.398-0.139-0.818-0.234-1.189-0.425
	c-1.76-0.904-2.564-2.372-2.564-4.342c0.008-18.447,0.006-36.895,0.006-55.341c0-0.186,0-0.372,0-0.558
	c-0.166,0.162-0.231,0.339-0.289,0.518c-0.979,3.074-1.482,6.237-1.643,9.447c-0.099,1.991-0.059,3.99-0.029,5.984
	c0.028,1.896-1.307,3.483-3.137,3.64c-1.829,0.158-3.43-1.186-3.652-3.084c-0.059-0.502-0.062-1.012-0.091-1.518
	c-0.001-1.052-0.002-2.104-0.003-3.155c0.096-3.292,0.408-6.562,1.098-9.788c0.747-3.493,1.863-6.849,3.839-9.861
	c2.514-3.833,5.919-6.366,10.522-7.121c0.203-0.033,0.404-0.08,0.606-0.12c-0.124-0.113-0.232-0.147-0.342-0.176
	c-4.81-1.279-8.132-5.087-8.757-10.042c-0.756-5.996,3.179-11.601,9.072-12.923c0.359-0.081,0.715-0.176,1.072-0.265
	c0.851,0,1.703,0,2.553,0c0.393,0.084,0.786,0.166,1.178,0.253c5.755,1.287,9.643,6.565,9.164,12.444
	c-0.416,5.13-3.828,9.215-8.797,10.532c-0.127,0.033-0.248,0.083-0.473,0.159c0.176,0.047,0.234,0.071,0.295,0.079
	c3.474,0.452,6.409,1.966,8.83,4.486c2.229,2.322,3.689,5.099,4.739,8.111c1.259,3.607,1.867,7.341,2.165,11.136
	c0.048,0.609,0.127,1.216,0.19,1.824c0,0.262,0,0.524,0,0.786c-0.034,0.171-0.098,0.342-0.099,0.513
	c-0.009,0.868-0.006,1.736,0.005,2.604c0.002,0.173,0.062,0.346,0.094,0.518c0,0.395,0,0.787,0,1.18
	c-0.034,0.102-0.087,0.2-0.101,0.305c-0.248,1.919-1.796,3.254-3.632,3.127c-1.849-0.129-3.172-1.693-3.165-3.652
	c0.007-2.174,0.023-4.354-0.095-6.523c-0.165-3.03-0.686-6.011-1.603-8.912c-0.049-0.155-0.119-0.305-0.179-0.457
	c-0.028,0.009-0.056,0.017-0.083,0.026c0,0.211,0,0.423,0,0.634c0,18.271,0,36.542-0.001,54.812c0,0.23,0.005,0.459-0.003,0.688
	c-0.072,2.169-1.404,3.82-3.51,4.359c-0.072,0.018-0.137,0.064-0.205,0.099c-0.491,0-0.982,0-1.473,0
	c-0.242-0.087-0.482-0.175-0.725-0.263c-1.829-0.654-2.943-2.322-2.943-4.427c-0.002-8.542,0-17.083,0-25.624
	c0-0.225,0-0.447,0-0.673c-0.559,0-1.037,0-1.544,0c0,0.255,0,0.466,0,0.678c0,8.574,0.003,17.148-0.001,25.724
	c-0.002,2.225-1.367,3.955-3.521,4.488C286.097,101.436,286.03,101.481,285.962,101.515z"/>
<path fill="#2F2E72" d="M324.128,101.515c-0.458,0-0.917,0-1.375,0c-0.398-0.139-0.818-0.234-1.189-0.425
	c-1.76-0.904-2.564-2.372-2.564-4.342c0.008-18.447,0.006-36.895,0.006-55.341c0-0.186,0-0.372,0-0.558
	c-0.166,0.162-0.231,0.339-0.289,0.518c-0.979,3.074-1.482,6.237-1.643,9.447c-0.099,1.991-0.059,3.99-0.029,5.984
	c0.028,1.896-1.307,3.483-3.137,3.64c-1.829,0.158-3.43-1.186-3.652-3.084c-0.059-0.502-0.062-1.012-0.091-1.518
	c-0.001-1.052-0.002-2.104-0.003-3.155c0.096-3.292,0.408-6.562,1.098-9.788c0.747-3.493,1.863-6.849,3.839-9.861
	c2.514-3.833,5.919-6.366,10.522-7.121c0.203-0.033,0.404-0.08,0.606-0.12c-0.124-0.113-0.232-0.147-0.342-0.176
	c-4.81-1.279-8.132-5.087-8.757-10.042c-0.756-5.996,3.179-11.601,9.072-12.923c0.359-0.081,0.715-0.176,1.072-0.265
	c0.851,0,1.703,0,2.553,0c0.393,0.084,0.786,0.166,1.178,0.253c5.755,1.287,9.643,6.565,9.164,12.444
	c-0.416,5.13-3.828,9.215-8.797,10.532c-0.127,0.033-0.248,0.083-0.473,0.159c0.176,0.047,0.234,0.071,0.295,0.079
	c3.474,0.452,6.409,1.966,8.83,4.486c2.229,2.322,3.689,5.099,4.739,8.111c1.259,3.607,1.867,7.341,2.165,11.136
	c0.048,0.609,0.127,1.216,0.19,1.824c0,0.262,0,0.524,0,0.786c-0.034,0.171-0.098,0.342-0.099,0.513
	c-0.009,0.868-0.006,1.736,0.005,2.604c0.002,0.173,0.062,0.346,0.094,0.518c0,0.395,0,0.787,0,1.18
	c-0.034,0.102-0.087,0.2-0.101,0.305c-0.248,1.919-1.796,3.254-3.632,3.127c-1.849-0.129-3.172-1.693-3.165-3.652
	c0.007-2.174,0.023-4.354-0.095-6.523c-0.165-3.03-0.686-6.011-1.603-8.912c-0.049-0.155-0.119-0.305-0.179-0.457
	c-0.028,0.009-0.056,0.017-0.083,0.026c0,0.211,0,0.423,0,0.634c0,18.271,0,36.542-0.001,54.812c0,0.23,0.005,0.459-0.003,0.688
	c-0.072,2.169-1.404,3.82-3.51,4.359c-0.072,0.018-0.137,0.064-0.205,0.099c-0.491,0-0.982,0-1.473,0
	c-0.242-0.087-0.482-0.175-0.725-0.263c-1.829-0.654-2.943-2.322-2.943-4.427c-0.002-8.542,0-17.083,0-25.624
	c0-0.225,0-0.447,0-0.673c-0.559,0-1.037,0-1.544,0c0,0.255,0,0.466,0,0.678c0,8.574,0.003,17.148-0.001,25.724
	c-0.002,2.225-1.367,3.955-3.521,4.488C324.263,101.436,324.196,101.481,324.128,101.515z"/>
<path fill="#2F2E72" d="M362.295,101.515c-0.458,0-0.917,0-1.375,0c-0.398-0.139-0.818-0.234-1.189-0.425
	c-1.76-0.904-2.564-2.372-2.564-4.342c0.008-18.447,0.006-36.895,0.006-55.341c0-0.186,0-0.372,0-0.558
	c-0.166,0.162-0.231,0.339-0.289,0.518c-0.979,3.074-1.482,6.237-1.643,9.447c-0.099,1.991-0.059,3.99-0.029,5.984
	c0.028,1.896-1.307,3.483-3.137,3.64c-1.829,0.158-3.43-1.186-3.652-3.084c-0.059-0.502-0.062-1.012-0.091-1.518
	c-0.001-1.052-0.002-2.104-0.003-3.155c0.096-3.292,0.408-6.562,1.098-9.788c0.747-3.493,1.863-6.849,3.839-9.861
	c2.514-3.833,5.919-6.366,10.522-7.121c0.203-0.033,0.404-0.08,0.606-0.12c-0.124-0.113-0.232-0.147-0.342-0.176
	c-4.81-1.279-8.132-5.087-8.757-10.042c-0.756-5.996,3.179-11.601,9.072-12.923c0.359-0.081,0.715-0.176,1.072-0.265
	c0.851,0,1.703,0,2.553,0c0.393,0.084,0.786,0.166,1.178,0.253c5.755,1.287,9.643,6.565,9.164,12.444
	c-0.416,5.13-3.828,9.215-8.797,10.532c-0.127,0.033-0.248,0.083-0.473,0.159c0.176,0.047,0.234,0.071,0.295,0.079
	c3.474,0.452,6.409,1.966,8.83,4.486c2.229,2.322,3.689,5.099,4.739,8.111c1.259,3.607,1.867,7.341,2.165,11.136
	c0.048,0.609,0.127,1.216,0.19,1.824c0,0.262,0,0.524,0,0.786c-0.034,0.171-0.098,0.342-0.099,0.513
	c-0.009,0.868-0.006,1.736,0.005,2.604c0.002,0.173,0.062,0.346,0.094,0.518c0,0.395,0,0.787,0,1.18
	c-0.034,0.102-0.087,0.2-0.101,0.305c-0.248,1.919-1.796,3.254-3.632,3.127c-1.849-0.129-3.172-1.693-3.165-3.652
	c0.007-2.174,0.023-4.354-0.095-6.523c-0.165-3.03-0.686-6.011-1.603-8.912c-0.049-0.155-0.119-0.305-0.179-0.457
	c-0.028,0.009-0.056,0.017-0.083,0.026c0,0.211,0,0.423,0,0.634c0,18.271,0,36.542-0.001,54.812c0,0.23,0.005,0.459-0.003,0.688
	c-0.072,2.169-1.404,3.82-3.51,4.359c-0.072,0.018-0.137,0.064-0.205,0.099c-0.491,0-0.982,0-1.473,0
	c-0.242-0.087-0.482-0.175-0.725-0.263c-1.829-0.654-2.943-2.322-2.943-4.427c-0.002-8.542,0-17.083,0-25.624
	c0-0.225,0-0.447,0-0.673c-0.559,0-1.037,0-1.544,0c0,0.255,0,0.466,0,0.678c0,8.574,0.003,17.148-0.001,25.724
	c-0.002,2.225-1.367,3.955-3.521,4.488C362.43,101.436,362.363,101.481,362.295,101.515z"/>
<g>
	<path fill="#2F2E72" d="M12.492,152.359c0,1.104-0.375,1.95-1.125,2.539s-1.812,0.883-3.188,0.883H6.414v4.719H5.617v-11.422h2.797
		C11.133,149.078,12.492,150.172,12.492,152.359z M6.414,155.094h1.57c1.286,0,2.216-0.212,2.789-0.637
		c0.573-0.425,0.859-1.113,0.859-2.066c0-0.88-0.271-1.532-0.812-1.957c-0.542-0.425-1.38-0.637-2.516-0.637H6.414V155.094z"/>
	<path fill="#2F2E72" d="M18.125,151.844c0.359,0,0.745,0.036,1.156,0.109l-0.148,0.742c-0.354-0.089-0.722-0.133-1.102-0.133
		c-0.724,0-1.318,0.308-1.781,0.922c-0.464,0.614-0.695,1.391-0.695,2.328v4.688h-0.773v-8.492h0.656l0.078,1.531h0.055
		c0.349-0.625,0.721-1.063,1.117-1.316C17.083,151.97,17.562,151.844,18.125,151.844z"/>
	<path fill="#2F2E72" d="M24.438,160.656c-1.234,0-2.197-0.38-2.887-1.141c-0.69-0.761-1.035-1.825-1.035-3.195
		c0-1.354,0.333-2.438,1-3.254c0.667-0.815,1.565-1.223,2.695-1.223c1,0,1.789,0.349,2.367,1.047s0.867,1.646,0.867,2.844v0.625
		h-6.117c0.01,1.167,0.282,2.058,0.816,2.672c0.534,0.614,1.298,0.922,2.293,0.922c0.484,0,0.91-0.034,1.277-0.102
		s0.832-0.214,1.395-0.438v0.703c-0.479,0.208-0.922,0.351-1.328,0.426S24.927,160.656,24.438,160.656z M24.211,152.531
		c-0.818,0-1.474,0.27-1.969,0.809c-0.495,0.539-0.784,1.316-0.867,2.332h5.25c0-0.984-0.214-1.754-0.641-2.309
		C25.557,152.809,24.966,152.531,24.211,152.531z M24.938,150.805h-0.539c-0.5-0.411-0.991-0.858-1.473-1.34
		c-0.482-0.481-0.809-0.845-0.98-1.09v-0.133h1.109c0.135,0.25,0.392,0.62,0.77,1.109c0.377,0.489,0.749,0.933,1.113,1.328V150.805z
		"/>
	<path fill="#2F2E72" d="M35.055,158.289c0,0.761-0.289,1.345-0.867,1.754s-1.398,0.613-2.461,0.613
		c-1.136,0-2.037-0.175-2.703-0.523v-0.836c0.854,0.427,1.755,0.641,2.703,0.641c0.838,0,1.475-0.14,1.91-0.418
		c0.435-0.278,0.652-0.649,0.652-1.113c0-0.427-0.173-0.786-0.52-1.078c-0.347-0.292-0.916-0.578-1.707-0.859
		c-0.849-0.308-1.445-0.571-1.789-0.793s-0.603-0.472-0.777-0.75c-0.175-0.278-0.262-0.618-0.262-1.02
		c0-0.636,0.267-1.138,0.801-1.508c0.534-0.37,1.28-0.555,2.238-0.555c0.917,0,1.786,0.172,2.609,0.516l-0.289,0.703
		c-0.833-0.344-1.607-0.516-2.32-0.516c-0.693,0-1.242,0.114-1.648,0.344s-0.609,0.547-0.609,0.953c0,0.442,0.157,0.797,0.473,1.062
		c0.315,0.266,0.931,0.562,1.848,0.891c0.766,0.276,1.323,0.524,1.672,0.746c0.349,0.222,0.61,0.473,0.785,0.754
		C34.967,157.578,35.055,157.909,35.055,158.289z"/>
	<path fill="#2F2E72" d="M44.508,151.844c0.614,0,1.146,0.112,1.594,0.336c0.448,0.224,0.849,0.606,1.203,1.148h0.047
		c-0.031-0.656-0.047-1.3-0.047-1.93v-3.055h0.766V160.5h-0.508l-0.195-1.297h-0.062c-0.646,0.969-1.573,1.453-2.781,1.453
		c-1.172,0-2.068-0.364-2.688-1.094c-0.62-0.729-0.93-1.792-0.93-3.188c0-1.469,0.307-2.591,0.922-3.367
		C42.442,152.231,43.336,151.844,44.508,151.844z M44.508,152.547c-0.927,0-1.624,0.325-2.09,0.977
		c-0.466,0.651-0.699,1.597-0.699,2.836c0,2.406,0.935,3.609,2.805,3.609c0.958,0,1.661-0.278,2.109-0.836
		c0.448-0.558,0.672-1.477,0.672-2.758v-0.133c0-1.312-0.22-2.257-0.66-2.832C46.204,152.835,45.492,152.547,44.508,152.547z"/>
	<path fill="#2F2E72" d="M54.352,160.656c-1.234,0-2.197-0.38-2.887-1.141c-0.69-0.761-1.035-1.825-1.035-3.195
		c0-1.354,0.333-2.438,1-3.254c0.667-0.815,1.565-1.223,2.695-1.223c1,0,1.789,0.349,2.367,1.047s0.867,1.646,0.867,2.844v0.625
		h-6.117c0.01,1.167,0.282,2.058,0.816,2.672c0.534,0.614,1.298,0.922,2.293,0.922c0.484,0,0.91-0.034,1.277-0.102
		s0.832-0.214,1.395-0.438v0.703c-0.479,0.208-0.922,0.351-1.328,0.426S54.841,160.656,54.352,160.656z M54.125,152.531
		c-0.818,0-1.474,0.27-1.969,0.809c-0.495,0.539-0.784,1.316-0.867,2.332h5.25c0-0.984-0.214-1.754-0.641-2.309
		C55.471,152.809,54.88,152.531,54.125,152.531z"/>
	<path fill="#2F2E72" d="M64.969,158.289c0,0.761-0.289,1.345-0.867,1.754s-1.398,0.613-2.461,0.613
		c-1.136,0-2.037-0.175-2.703-0.523v-0.836c0.854,0.427,1.755,0.641,2.703,0.641c0.838,0,1.475-0.14,1.91-0.418
		c0.435-0.278,0.652-0.649,0.652-1.113c0-0.427-0.173-0.786-0.52-1.078c-0.347-0.292-0.916-0.578-1.707-0.859
		c-0.849-0.308-1.445-0.571-1.789-0.793s-0.603-0.472-0.777-0.75c-0.175-0.278-0.262-0.618-0.262-1.02
		c0-0.636,0.267-1.138,0.801-1.508c0.534-0.37,1.28-0.555,2.238-0.555c0.917,0,1.786,0.172,2.609,0.516l-0.289,0.703
		c-0.833-0.344-1.607-0.516-2.32-0.516c-0.693,0-1.242,0.114-1.648,0.344s-0.609,0.547-0.609,0.953c0,0.442,0.157,0.797,0.473,1.062
		c0.315,0.266,0.931,0.562,1.848,0.891c0.766,0.276,1.323,0.524,1.672,0.746c0.349,0.222,0.61,0.473,0.785,0.754
		C64.881,157.578,64.969,157.909,64.969,158.289z"/>
	<path fill="#2F2E72" d="M78.451,160.852c-1.418,0-2.657-0.404-3.718-1.213s-1.881-1.998-2.461-3.568s-0.87-3.404-0.87-5.502
		c0-3.234,0.65-5.766,1.951-7.594s3.088-2.742,5.361-2.742c1.113,0,2.089,0.223,2.927,0.668s1.603,1.195,2.294,2.25h0.141
		c-0.223-1.559-0.334-3.117-0.334-4.676v-5.326h6.926V160.5h-5.186l-1.477-2.514h-0.264
		C82.559,159.896,80.795,160.852,78.451,160.852z M81.264,155.42c1.102,0,1.878-0.346,2.329-1.037s0.694-1.758,0.729-3.199v-0.545
		c0-1.758-0.252-3.009-0.756-3.753s-1.295-1.116-2.373-1.116c-0.902,0-1.603,0.425-2.101,1.274s-0.747,2.06-0.747,3.63
		c0,1.547,0.252,2.725,0.756,3.533S80.326,155.42,81.264,155.42z"/>
	<path fill="#2F2E72" d="M105.029,160.852c-3.316,0-5.892-0.882-7.726-2.646s-2.751-4.274-2.751-7.532
		c0-3.363,0.85-5.944,2.549-7.743s4.125-2.698,7.277-2.698c3,0,5.317,0.782,6.952,2.347s2.452,3.817,2.452,6.759v3.059h-12.287
		c0.047,1.113,0.454,1.986,1.222,2.619s1.813,0.949,3.138,0.949c1.207,0,2.317-0.114,3.331-0.343s2.112-0.618,3.296-1.169v4.939
		c-1.078,0.551-2.191,0.932-3.34,1.143S106.623,160.852,105.029,160.852z M104.625,144.908c-0.809,0-1.485,0.255-2.03,0.765
		s-0.864,1.31-0.958,2.399h5.906c-0.023-0.961-0.296-1.729-0.817-2.303S105.504,144.908,104.625,144.908z"/>
	<path fill="#2F2E72" d="M131.854,160.5l-0.861-2.479h-0.404c-0.574,0.914-1.374,1.614-2.399,2.101s-2.229,0.729-3.612,0.729
		c-2.191,0-3.896-0.636-5.115-1.907s-1.828-3.067-1.828-5.388v-12.973h6.873v10.881c0,1.301,0.185,2.285,0.554,2.953
		s0.976,1.002,1.819,1.002c1.184,0,2.027-0.466,2.531-1.397s0.756-2.505,0.756-4.72v-8.719h6.873V160.5H131.854z"/>
	<path fill="#2F2E72" d="M146.004,150.34l-6.082-9.756h7.805l3.023,5.59l3.094-5.59h7.822l-6.24,9.756l6.486,10.16h-7.805
		l-3.357-6.047l-3.34,6.047h-7.822L146.004,150.34z"/>
	<path fill="#2F2E72" d="M183.568,155.42c0.926,0,2.033-0.229,3.322-0.686v5.01c-0.926,0.398-1.808,0.683-2.646,0.853
		s-1.819,0.255-2.944,0.255c-2.309,0-3.973-0.565-4.992-1.696s-1.529-2.868-1.529-5.212v-8.209h-2.408v-2.795l3.059-2.162
		l1.775-4.184h4.5v3.99h4.887v5.15h-4.887v7.752C181.705,154.775,182.326,155.42,183.568,155.42z"/>
	<path fill="#2F2E72" d="M190.23,135.627c0-1.031,0.287-1.799,0.861-2.303s1.5-0.756,2.777-0.756s2.209,0.258,2.795,0.773
		s0.879,1.277,0.879,2.285c0,2.016-1.225,3.023-3.674,3.023C191.443,138.65,190.23,137.643,190.23,135.627z M197.279,160.5h-6.873
		v-19.916h6.873V160.5z"/>
	<path fill="#2F2E72" d="M211.693,160.852c-3.316,0-5.892-0.882-7.726-2.646s-2.751-4.274-2.751-7.532
		c0-3.363,0.85-5.944,2.549-7.743s4.125-2.698,7.277-2.698c3,0,5.317,0.782,6.952,2.347s2.452,3.817,2.452,6.759v3.059H208.16
		c0.047,1.113,0.454,1.986,1.222,2.619s1.813,0.949,3.138,0.949c1.207,0,2.317-0.114,3.331-0.343s2.112-0.618,3.296-1.169v4.939
		c-1.078,0.551-2.191,0.932-3.34,1.143S213.287,160.852,211.693,160.852z M211.289,144.908c-0.809,0-1.485,0.255-2.03,0.765
		s-0.864,1.31-0.958,2.399h5.906c-0.023-0.961-0.296-1.729-0.817-2.303S212.168,144.908,211.289,144.908z"/>
	<path fill="#2F2E72" d="M236.355,140.232c0.598,0,1.166,0.047,1.705,0.141l0.387,0.07l-0.615,6.486
		c-0.562-0.141-1.342-0.211-2.338-0.211c-1.5,0-2.59,0.343-3.27,1.028s-1.02,1.673-1.02,2.962v9.791h-6.873v-19.916h5.115
		l1.072,3.182h0.334c0.574-1.055,1.374-1.907,2.399-2.558S235.312,140.232,236.355,140.232z"/>
	<path fill="#2F2E72" d="M256.605,154.383c0,2.133-0.727,3.744-2.18,4.834s-3.539,1.635-6.258,1.635c-1.477,0-2.76-0.079-3.85-0.237
		s-2.203-0.448-3.34-0.87v-5.502c1.066,0.469,2.235,0.855,3.507,1.16s2.405,0.457,3.401,0.457c1.488,0,2.232-0.34,2.232-1.02
		c0-0.352-0.208-0.665-0.624-0.94s-1.626-0.812-3.63-1.608c-1.828-0.75-3.105-1.603-3.832-2.558s-1.09-2.165-1.09-3.63
		c0-1.852,0.715-3.293,2.145-4.324s3.451-1.547,6.064-1.547c1.312,0,2.546,0.144,3.7,0.431s2.353,0.706,3.595,1.257l-1.863,4.43
		c-0.914-0.41-1.881-0.759-2.9-1.046s-1.852-0.431-2.496-0.431c-1.125,0-1.688,0.275-1.688,0.826c0,0.34,0.196,0.63,0.589,0.87
		s1.526,0.729,3.401,1.468c1.395,0.574,2.435,1.137,3.12,1.688s1.189,1.198,1.512,1.942S256.605,153.316,256.605,154.383z"/>
	<path fill="#2F2E72" d="M266.734,151.844c0.614,0,1.146,0.112,1.594,0.336c0.447,0.224,0.849,0.606,1.203,1.148h0.047
		c-0.031-0.656-0.047-1.3-0.047-1.93v-3.055h0.766V160.5h-0.508l-0.195-1.297h-0.062c-0.646,0.969-1.573,1.453-2.781,1.453
		c-1.172,0-2.068-0.364-2.688-1.094c-0.62-0.729-0.93-1.792-0.93-3.188c0-1.469,0.307-2.591,0.922-3.367
		C264.669,152.231,265.562,151.844,266.734,151.844z M266.734,152.547c-0.928,0-1.624,0.325-2.09,0.977
		c-0.467,0.651-0.699,1.597-0.699,2.836c0,2.406,0.935,3.609,2.805,3.609c0.958,0,1.661-0.278,2.109-0.836
		c0.447-0.558,0.672-1.477,0.672-2.758v-0.133c0-1.312-0.221-2.257-0.66-2.832C268.431,152.835,267.719,152.547,266.734,152.547z"/>
	<path fill="#2F2E72" d="M276.578,160.656c-1.234,0-2.197-0.38-2.887-1.141c-0.69-0.761-1.035-1.825-1.035-3.195
		c0-1.354,0.333-2.438,1-3.254c0.666-0.815,1.564-1.223,2.695-1.223c1,0,1.789,0.349,2.367,1.047s0.867,1.646,0.867,2.844v0.625
		h-6.117c0.01,1.167,0.282,2.058,0.816,2.672c0.533,0.614,1.298,0.922,2.293,0.922c0.484,0,0.91-0.034,1.277-0.102
		s0.832-0.214,1.395-0.438v0.703c-0.479,0.208-0.922,0.351-1.328,0.426S277.067,160.656,276.578,160.656z M276.352,152.531
		c-0.818,0-1.475,0.27-1.969,0.809c-0.495,0.539-0.784,1.316-0.867,2.332h5.25c0-0.984-0.214-1.754-0.641-2.309
		C277.697,152.809,277.106,152.531,276.352,152.531z"/>
	<path fill="#2F2E72" d="M287.195,158.289c0,0.761-0.289,1.345-0.867,1.754s-1.398,0.613-2.461,0.613
		c-1.136,0-2.036-0.175-2.703-0.523v-0.836c0.854,0.427,1.755,0.641,2.703,0.641c0.839,0,1.476-0.14,1.91-0.418
		s0.652-0.649,0.652-1.113c0-0.427-0.173-0.786-0.52-1.078s-0.915-0.578-1.707-0.859c-0.849-0.308-1.445-0.571-1.789-0.793
		s-0.603-0.472-0.777-0.75s-0.262-0.618-0.262-1.02c0-0.636,0.267-1.138,0.801-1.508s1.28-0.555,2.238-0.555
		c0.917,0,1.786,0.172,2.609,0.516l-0.289,0.703c-0.833-0.344-1.606-0.516-2.32-0.516c-0.692,0-1.242,0.114-1.648,0.344
		s-0.609,0.547-0.609,0.953c0,0.442,0.157,0.797,0.473,1.062s0.931,0.562,1.848,0.891c0.766,0.276,1.323,0.524,1.672,0.746
		s0.61,0.473,0.785,0.754S287.195,157.909,287.195,158.289z"/>
	<path fill="#2F2E72" d="M298.609,149.633c-1.433,0-2.56,0.458-3.383,1.375s-1.234,2.172-1.234,3.766
		c0,1.63,0.388,2.896,1.164,3.797s1.886,1.352,3.328,1.352c0.958,0,1.839-0.122,2.641-0.367v0.703
		c-0.755,0.266-1.698,0.398-2.828,0.398c-1.604,0-2.867-0.519-3.789-1.555s-1.383-2.484-1.383-4.344c0-1.161,0.22-2.185,0.66-3.07
		s1.073-1.569,1.898-2.051s1.785-0.723,2.879-0.723c1.114,0,2.112,0.208,2.992,0.625l-0.32,0.719
		C300.401,149.841,299.526,149.633,298.609,149.633z"/>
	<path fill="#2F2E72" d="M308.633,160.5l-0.195-1.344h-0.062c-0.427,0.547-0.866,0.934-1.316,1.16s-0.983,0.34-1.598,0.34
		c-0.833,0-1.481-0.214-1.945-0.641s-0.695-1.019-0.695-1.773c0-0.828,0.345-1.472,1.035-1.93s1.688-0.7,2.996-0.727l1.617-0.047
		v-0.562c0-0.808-0.164-1.417-0.492-1.828s-0.856-0.617-1.586-0.617c-0.786,0-1.602,0.219-2.445,0.656l-0.289-0.672
		c0.933-0.438,1.854-0.656,2.766-0.656c0.933,0,1.629,0.242,2.09,0.727s0.691,1.239,0.691,2.266v5.648H308.633z M305.508,159.953
		c0.906,0,1.621-0.259,2.145-0.777s0.785-1.238,0.785-2.16v-0.836l-1.484,0.062c-1.192,0.058-2.043,0.243-2.551,0.559
		s-0.762,0.806-0.762,1.473c0,0.531,0.163,0.944,0.488,1.238S304.914,159.953,305.508,159.953z"/>
	<path fill="#2F2E72" d="M317.875,160.5v-5.508c0-0.854-0.18-1.476-0.539-1.863s-0.917-0.582-1.672-0.582
		c-1.016,0-1.759,0.257-2.23,0.77s-0.707,1.345-0.707,2.496v4.688h-0.773v-8.492h0.656l0.148,1.164h0.047
		c0.552-0.886,1.534-1.328,2.945-1.328c1.927,0,2.891,1.034,2.891,3.102v5.555H317.875z"/>
	<path fill="#2F2E72" d="M326.547,160.5l-0.195-1.344h-0.062c-0.427,0.547-0.866,0.934-1.316,1.16s-0.983,0.34-1.598,0.34
		c-0.833,0-1.481-0.214-1.945-0.641s-0.695-1.019-0.695-1.773c0-0.828,0.345-1.472,1.035-1.93s1.688-0.7,2.996-0.727l1.617-0.047
		v-0.562c0-0.808-0.164-1.417-0.492-1.828s-0.856-0.617-1.586-0.617c-0.786,0-1.602,0.219-2.445,0.656l-0.289-0.672
		c0.933-0.438,1.854-0.656,2.766-0.656c0.933,0,1.629,0.242,2.09,0.727s0.691,1.239,0.691,2.266v5.648H326.547z M323.422,159.953
		c0.906,0,1.621-0.259,2.145-0.777s0.785-1.238,0.785-2.16v-0.836l-1.484,0.062c-1.192,0.058-2.043,0.243-2.551,0.559
		s-0.762,0.806-0.762,1.473c0,0.531,0.163,0.944,0.488,1.238S322.828,159.953,323.422,159.953z"/>
	<path fill="#2F2E72" d="M332.977,151.844c0.614,0,1.146,0.112,1.594,0.336s0.849,0.606,1.203,1.148h0.047
		c-0.031-0.656-0.047-1.3-0.047-1.93v-3.055h0.766V160.5h-0.508l-0.195-1.297h-0.062c-0.646,0.969-1.573,1.453-2.781,1.453
		c-1.172,0-2.067-0.364-2.688-1.094s-0.93-1.792-0.93-3.188c0-1.469,0.308-2.591,0.922-3.367S331.805,151.844,332.977,151.844z
		 M332.977,152.547c-0.927,0-1.624,0.325-2.09,0.977s-0.699,1.597-0.699,2.836c0,2.406,0.935,3.609,2.805,3.609
		c0.958,0,1.661-0.278,2.109-0.836s0.672-1.477,0.672-2.758v-0.133c0-1.312-0.22-2.257-0.66-2.832S333.961,152.547,332.977,152.547z
		"/>
	<path fill="#2F2E72" d="M339.281,149.648c0-0.5,0.164-0.75,0.492-0.75c0.161,0,0.288,0.065,0.379,0.195s0.137,0.315,0.137,0.555
		c0,0.234-0.046,0.419-0.137,0.555s-0.218,0.203-0.379,0.203C339.445,150.406,339.281,150.153,339.281,149.648z M340.164,160.5
		h-0.773v-8.492h0.773V160.5z"/>
	<path fill="#2F2E72" d="M346.438,160.656c-1.234,0-2.196-0.38-2.887-1.141s-1.035-1.825-1.035-3.195c0-1.354,0.333-2.438,1-3.254
		s1.565-1.223,2.695-1.223c1,0,1.789,0.349,2.367,1.047s0.867,1.646,0.867,2.844v0.625h-6.117c0.011,1.167,0.282,2.058,0.816,2.672
		s1.298,0.922,2.293,0.922c0.484,0,0.91-0.034,1.277-0.102s0.832-0.214,1.395-0.438v0.703c-0.479,0.208-0.922,0.351-1.328,0.426
		S346.927,160.656,346.438,160.656z M346.211,152.531c-0.817,0-1.474,0.27-1.969,0.809s-0.784,1.316-0.867,2.332h5.25
		c0-0.984-0.214-1.754-0.641-2.309S346.966,152.531,346.211,152.531z"/>
	<path fill="#2F2E72" d="M357.711,160.5v-5.508c0-0.854-0.18-1.476-0.539-1.863s-0.917-0.582-1.672-0.582
		c-1.016,0-1.759,0.257-2.23,0.77s-0.707,1.345-0.707,2.496v4.688h-0.773v-8.492h0.656l0.148,1.164h0.047
		c0.552-0.886,1.534-1.328,2.945-1.328c1.927,0,2.891,1.034,2.891,3.102v5.555H357.711z"/>
	<path fill="#2F2E72" d="M366.492,158.289c0,0.761-0.289,1.345-0.867,1.754s-1.398,0.613-2.461,0.613
		c-1.136,0-2.036-0.175-2.703-0.523v-0.836c0.854,0.427,1.755,0.641,2.703,0.641c0.839,0,1.476-0.14,1.91-0.418
		s0.652-0.649,0.652-1.113c0-0.427-0.173-0.786-0.52-1.078s-0.915-0.578-1.707-0.859c-0.849-0.308-1.445-0.571-1.789-0.793
		s-0.603-0.472-0.777-0.75s-0.262-0.618-0.262-1.02c0-0.636,0.267-1.138,0.801-1.508s1.28-0.555,2.238-0.555
		c0.917,0,1.786,0.172,2.609,0.516l-0.289,0.703c-0.833-0.344-1.606-0.516-2.32-0.516c-0.692,0-1.242,0.114-1.648,0.344
		s-0.609,0.547-0.609,0.953c0,0.442,0.157,0.797,0.473,1.062s0.931,0.562,1.848,0.891c0.766,0.276,1.323,0.524,1.672,0.746
		s0.61,0.473,0.785,0.754S366.492,157.909,366.492,158.289z"/>
	<path fill="#2F2E72" d="M8.445,182.656c-1.115,0-1.979-0.37-2.594-1.109c-0.615-0.739-0.922-1.808-0.922-3.203
		c0-1.433,0.307-2.54,0.922-3.324c0.614-0.784,1.495-1.176,2.641-1.176c1.229,0,2.148,0.453,2.758,1.359h0.047l0.141-1.195h0.656
		v12.336h-0.766v-3.234c0-0.636,0.016-1.281,0.047-1.938h-0.047C10.713,182.161,9.752,182.656,8.445,182.656z M8.461,181.969
		c1.031,0,1.767-0.284,2.207-0.852c0.44-0.567,0.66-1.521,0.66-2.859v-0.094c0-1.276-0.222-2.198-0.664-2.766
		c-0.443-0.567-1.148-0.852-2.117-0.852c-0.917,0-1.613,0.323-2.09,0.969s-0.715,1.594-0.715,2.844c0,1.192,0.233,2.093,0.699,2.699
		C6.907,181.665,7.581,181.969,8.461,181.969z"/>
	<path fill="#2F2E72" d="M15.617,174.008v5.5c0,0.854,0.18,1.476,0.539,1.863s0.917,0.582,1.672,0.582
		c1.01,0,1.754-0.255,2.23-0.766s0.715-1.341,0.715-2.492v-4.688h0.766v8.492h-0.656l-0.141-1.172h-0.047
		c-0.552,0.886-1.534,1.328-2.945,1.328c-1.933,0-2.898-1.034-2.898-3.102v-5.547H15.617z"/>
	<path fill="#2F2E72" d="M24.273,171.648c0-0.5,0.164-0.75,0.492-0.75c0.161,0,0.288,0.065,0.379,0.195
		c0.091,0.13,0.137,0.315,0.137,0.555c0,0.234-0.046,0.419-0.137,0.555c-0.091,0.136-0.218,0.203-0.379,0.203
		C24.438,172.406,24.273,172.153,24.273,171.648z M25.156,182.5h-0.773v-8.492h0.773V182.5z"/>
	<path fill="#2F2E72" d="M39.18,178.242c0,1.386-0.336,2.468-1.008,3.246s-1.599,1.168-2.781,1.168c-0.745,0-1.401-0.18-1.969-0.539
		c-0.568-0.359-1.003-0.875-1.305-1.547c-0.302-0.672-0.453-1.448-0.453-2.328c0-1.386,0.336-2.465,1.008-3.238
		s1.594-1.16,2.766-1.16c1.167,0,2.082,0.392,2.746,1.176S39.18,176.878,39.18,178.242z M32.477,178.242
		c0,1.167,0.256,2.077,0.77,2.73c0.513,0.653,1.238,0.98,2.176,0.98s1.663-0.327,2.176-0.98c0.513-0.653,0.77-1.563,0.77-2.73
		c0-1.172-0.259-2.081-0.777-2.727c-0.519-0.646-1.246-0.969-2.184-0.969s-1.66,0.321-2.168,0.965S32.477,177.065,32.477,178.242z"
		/>
	<path fill="#2F2E72" d="M47.453,182.5v-5.508c0-0.854-0.18-1.476-0.539-1.863s-0.917-0.582-1.672-0.582
		c-1.016,0-1.759,0.257-2.23,0.77c-0.472,0.513-0.707,1.345-0.707,2.496v4.688h-0.773v-8.492h0.656l0.148,1.164h0.047
		c0.552-0.886,1.534-1.328,2.945-1.328c1.927,0,2.891,1.034,2.891,3.102v5.555H47.453z"/>
	<path fill="#2F2E72" d="M53.211,181.969c0.489,0,0.917-0.042,1.281-0.125v0.625c-0.375,0.125-0.808,0.188-1.297,0.188
		c-0.75,0-1.304-0.2-1.66-0.602c-0.357-0.401-0.535-1.031-0.535-1.891v-5.484h-1.258v-0.453L51,173.875l0.391-1.922h0.398v2.055
		h2.492v0.672h-2.492v5.375c0,0.651,0.114,1.133,0.344,1.445C52.362,181.812,52.721,181.969,53.211,181.969z"/>
	<path fill="#2F2E72" d="M61.156,174.008v5.5c0,0.854,0.18,1.476,0.539,1.863s0.917,0.582,1.672,0.582
		c1.01,0,1.754-0.255,2.23-0.766s0.715-1.341,0.715-2.492v-4.688h0.766v8.492h-0.656l-0.141-1.172h-0.047
		c-0.552,0.886-1.534,1.328-2.945,1.328c-1.933,0-2.898-1.034-2.898-3.102v-5.547H61.156z"/>
	<path fill="#2F2E72" d="M75.844,182.5v-5.508c0-0.854-0.18-1.476-0.539-1.863s-0.917-0.582-1.672-0.582
		c-1.016,0-1.759,0.257-2.23,0.77c-0.472,0.513-0.707,1.345-0.707,2.496v4.688h-0.773v-8.492h0.656l0.148,1.164h0.047
		c0.552-0.886,1.534-1.328,2.945-1.328c1.927,0,2.891,1.034,2.891,3.102v5.555H75.844z"/>
	<path fill="#2F2E72" d="M82.789,182.656c-1.234,0-2.197-0.38-2.887-1.141c-0.69-0.761-1.035-1.825-1.035-3.195
		c0-1.354,0.333-2.438,1-3.254c0.667-0.815,1.565-1.223,2.695-1.223c1,0,1.789,0.349,2.367,1.047s0.867,1.646,0.867,2.844v0.625
		H79.68c0.01,1.167,0.282,2.058,0.816,2.672c0.534,0.614,1.298,0.922,2.293,0.922c0.484,0,0.91-0.034,1.277-0.102
		s0.832-0.214,1.395-0.438v0.703c-0.479,0.208-0.922,0.351-1.328,0.426S83.278,182.656,82.789,182.656z M82.562,174.531
		c-0.818,0-1.474,0.27-1.969,0.809c-0.495,0.539-0.784,1.316-0.867,2.332h5.25c0-0.984-0.214-1.754-0.641-2.309
		C83.909,174.809,83.317,174.531,82.562,174.531z"/>
	<path fill="#2F2E72" d="M102.906,182.5v-5.57c0-0.828-0.162-1.433-0.484-1.812c-0.323-0.38-0.818-0.57-1.484-0.57
		c-0.87,0-1.513,0.239-1.93,0.719c-0.417,0.479-0.625,1.231-0.625,2.258v4.977h-0.789v-5.805c0-1.433-0.656-2.148-1.969-2.148
		c-0.891,0-1.539,0.259-1.945,0.777s-0.609,1.348-0.609,2.488v4.688h-0.773v-8.492h0.641l0.164,1.164h0.047
		c0.234-0.422,0.567-0.749,1-0.98c0.432-0.231,0.909-0.348,1.43-0.348c1.338,0,2.198,0.503,2.578,1.508h0.031
		c0.276-0.484,0.647-0.856,1.113-1.117c0.466-0.261,0.996-0.391,1.59-0.391c0.927,0,1.622,0.247,2.086,0.742
		c0.463,0.495,0.695,1.281,0.695,2.359v5.555H102.906z"/>
	<path fill="#2F2E72" d="M105,174.008h0.797l1.797,4.766c0.547,1.464,0.893,2.45,1.039,2.961h0.047
		c0.219-0.672,0.575-1.675,1.07-3.008l1.797-4.719h0.797l-3.805,9.867c-0.308,0.802-0.565,1.344-0.773,1.625
		c-0.208,0.281-0.452,0.492-0.73,0.633c-0.279,0.141-0.616,0.211-1.012,0.211c-0.297,0-0.628-0.055-0.992-0.164v-0.672
		c0.302,0.083,0.627,0.125,0.977,0.125c0.266,0,0.5-0.062,0.703-0.188s0.387-0.319,0.551-0.582s0.354-0.68,0.57-1.25
		c0.216-0.57,0.355-0.941,0.418-1.113L105,174.008z"/>
	<path fill="#2F2E72" d="M117.156,182.656c-1.214,0-2.164-0.383-2.852-1.148s-1.031-1.833-1.031-3.203
		c0-1.406,0.356-2.501,1.07-3.285c0.713-0.784,1.69-1.176,2.93-1.176c0.734,0,1.438,0.128,2.109,0.383l-0.211,0.688
		c-0.734-0.245-1.373-0.367-1.914-0.367c-1.042,0-1.831,0.321-2.367,0.965c-0.537,0.644-0.805,1.569-0.805,2.777
		c0,1.146,0.268,2.043,0.805,2.691c0.536,0.648,1.286,0.973,2.25,0.973c0.771,0,1.487-0.138,2.148-0.414v0.719
		C118.747,182.523,118.036,182.656,117.156,182.656z"/>
	<path fill="#2F2E72" d="M128.391,178.242c0,1.386-0.336,2.468-1.008,3.246s-1.599,1.168-2.781,1.168
		c-0.745,0-1.401-0.18-1.969-0.539c-0.568-0.359-1.003-0.875-1.305-1.547c-0.302-0.672-0.453-1.448-0.453-2.328
		c0-1.386,0.336-2.465,1.008-3.238s1.594-1.16,2.766-1.16c1.167,0,2.082,0.392,2.746,1.176S128.391,176.878,128.391,178.242z
		 M121.688,178.242c0,1.167,0.256,2.077,0.77,2.73c0.513,0.653,1.238,0.98,2.176,0.98s1.663-0.327,2.176-0.98
		c0.513-0.653,0.77-1.563,0.77-2.73c0-1.172-0.259-2.081-0.777-2.727c-0.519-0.646-1.246-0.969-2.184-0.969s-1.66,0.321-2.168,0.965
		S121.688,177.065,121.688,178.242z"/>
	<path fill="#2F2E72" d="M136.008,180.289c0,0.761-0.289,1.345-0.867,1.754s-1.398,0.613-2.461,0.613
		c-1.136,0-2.037-0.175-2.703-0.523v-0.836c0.854,0.427,1.755,0.641,2.703,0.641c0.838,0,1.475-0.14,1.91-0.418
		c0.435-0.278,0.652-0.649,0.652-1.113c0-0.427-0.173-0.786-0.52-1.078c-0.347-0.292-0.916-0.578-1.707-0.859
		c-0.849-0.308-1.445-0.571-1.789-0.793s-0.603-0.472-0.777-0.75c-0.175-0.278-0.262-0.618-0.262-1.02
		c0-0.636,0.267-1.138,0.801-1.508c0.534-0.37,1.28-0.555,2.238-0.555c0.917,0,1.786,0.172,2.609,0.516l-0.289,0.703
		c-0.833-0.344-1.607-0.516-2.32-0.516c-0.693,0-1.242,0.114-1.648,0.344s-0.609,0.547-0.609,0.953c0,0.442,0.157,0.797,0.473,1.062
		c0.315,0.266,0.931,0.562,1.848,0.891c0.766,0.276,1.323,0.524,1.672,0.746c0.349,0.222,0.61,0.473,0.785,0.754
		C135.92,179.578,136.008,179.909,136.008,180.289z"/>
	<path fill="#2F2E72" d="M141.625,182.656c-1.234,0-2.197-0.38-2.887-1.141c-0.69-0.761-1.035-1.825-1.035-3.195
		c0-1.354,0.333-2.438,1-3.254c0.667-0.815,1.565-1.223,2.695-1.223c1,0,1.789,0.349,2.367,1.047s0.867,1.646,0.867,2.844v0.625
		h-6.117c0.01,1.167,0.282,2.058,0.816,2.672c0.534,0.614,1.298,0.922,2.293,0.922c0.484,0,0.91-0.034,1.277-0.102
		s0.832-0.214,1.395-0.438v0.703c-0.479,0.208-0.922,0.351-1.328,0.426S142.114,182.656,141.625,182.656z M141.398,174.531
		c-0.818,0-1.474,0.27-1.969,0.809c-0.495,0.539-0.784,1.316-0.867,2.332h5.25c0-0.984-0.214-1.754-0.641-2.309
		C142.745,174.809,142.153,174.531,141.398,174.531z"/>
	<path fill="#2F2E72" d="M158.156,178.242c0,1.386-0.336,2.468-1.008,3.246s-1.599,1.168-2.781,1.168
		c-0.745,0-1.401-0.18-1.969-0.539c-0.568-0.359-1.003-0.875-1.305-1.547c-0.302-0.672-0.453-1.448-0.453-2.328
		c0-1.386,0.336-2.465,1.008-3.238s1.594-1.16,2.766-1.16c1.167,0,2.082,0.392,2.746,1.176S158.156,176.878,158.156,178.242z
		 M151.453,178.242c0,1.167,0.256,2.077,0.77,2.73c0.513,0.653,1.238,0.98,2.176,0.98s1.663-0.327,2.176-0.98
		c0.513-0.653,0.77-1.563,0.77-2.73c0-1.172-0.259-2.081-0.777-2.727c-0.519-0.646-1.246-0.969-2.184-0.969s-1.66,0.321-2.168,0.965
		S151.453,177.065,151.453,178.242z"/>
	<path fill="#2F2E72" d="M161.18,174.008v5.5c0,0.854,0.18,1.476,0.539,1.863s0.917,0.582,1.672,0.582
		c1.01,0,1.754-0.255,2.23-0.766s0.715-1.341,0.715-2.492v-4.688h0.766v8.492h-0.656l-0.141-1.172h-0.047
		c-0.552,0.886-1.534,1.328-2.945,1.328c-1.933,0-2.898-1.034-2.898-3.102v-5.547H161.18z"/>
	<path fill="#2F2E72" d="M177.125,182.656c-1.115,0-1.979-0.37-2.594-1.109c-0.615-0.739-0.922-1.808-0.922-3.203
		c0-1.433,0.307-2.54,0.922-3.324c0.614-0.784,1.495-1.176,2.641-1.176c1.229,0,2.148,0.453,2.758,1.359h0.047l0.141-1.195h0.656
		v12.336h-0.766v-3.234c0-0.636,0.016-1.281,0.047-1.938h-0.047C179.393,182.161,178.432,182.656,177.125,182.656z M177.141,181.969
		c1.031,0,1.767-0.284,2.207-0.852c0.44-0.567,0.66-1.521,0.66-2.859v-0.094c0-1.276-0.222-2.198-0.664-2.766
		c-0.443-0.567-1.148-0.852-2.117-0.852c-0.917,0-1.613,0.323-2.09,0.969s-0.715,1.594-0.715,2.844c0,1.192,0.233,2.093,0.699,2.699
		C175.587,181.665,176.26,181.969,177.141,181.969z"/>
	<path fill="#2F2E72" d="M184.297,174.008v5.5c0,0.854,0.18,1.476,0.539,1.863s0.917,0.582,1.672,0.582
		c1.01,0,1.754-0.255,2.23-0.766s0.715-1.341,0.715-2.492v-4.688h0.766v8.492h-0.656l-0.141-1.172h-0.047
		c-0.552,0.886-1.534,1.328-2.945,1.328c-1.933,0-2.898-1.034-2.898-3.102v-5.547H184.297z"/>
	<path fill="#2F2E72" d="M192.953,171.648c0-0.5,0.164-0.75,0.492-0.75c0.161,0,0.288,0.065,0.379,0.195
		c0.091,0.13,0.137,0.315,0.137,0.555c0,0.234-0.046,0.419-0.137,0.555c-0.091,0.136-0.218,0.203-0.379,0.203
		C193.117,172.406,192.953,172.153,192.953,171.648z M193.836,182.5h-0.773v-8.492h0.773V182.5z"/>
	<path fill="#2F2E72" d="M204.266,182.656c-1.234,0-2.197-0.38-2.887-1.141c-0.69-0.761-1.035-1.825-1.035-3.195
		c0-1.354,0.333-2.438,1-3.254c0.667-0.815,1.565-1.223,2.695-1.223c1,0,1.789,0.349,2.367,1.047s0.867,1.646,0.867,2.844v0.625
		h-6.117c0.01,1.167,0.282,2.058,0.816,2.672c0.534,0.614,1.298,0.922,2.293,0.922c0.484,0,0.91-0.034,1.277-0.102
		s0.832-0.214,1.395-0.438v0.703c-0.479,0.208-0.922,0.351-1.328,0.426S204.755,182.656,204.266,182.656z M204.039,174.531
		c-0.818,0-1.474,0.27-1.969,0.809c-0.495,0.539-0.784,1.316-0.867,2.332h5.25c0-0.984-0.214-1.754-0.641-2.309
		C205.385,174.809,204.794,174.531,204.039,174.531z"/>
	<path fill="#2F2E72" d="M215.539,182.5v-5.508c0-0.854-0.18-1.476-0.539-1.863s-0.917-0.582-1.672-0.582
		c-1.016,0-1.759,0.257-2.23,0.77c-0.472,0.513-0.707,1.345-0.707,2.496v4.688h-0.773v-8.492h0.656l0.148,1.164h0.047
		c0.552-0.886,1.534-1.328,2.945-1.328c1.927,0,2.891,1.034,2.891,3.102v5.555H215.539z"/>
	<path fill="#2F2E72" d="M230.234,178.242c0,1.386-0.336,2.468-1.008,3.246s-1.599,1.168-2.781,1.168
		c-0.745,0-1.401-0.18-1.969-0.539c-0.568-0.359-1.003-0.875-1.305-1.547c-0.302-0.672-0.453-1.448-0.453-2.328
		c0-1.386,0.336-2.465,1.008-3.238s1.594-1.16,2.766-1.16c1.167,0,2.082,0.392,2.746,1.176S230.234,176.878,230.234,178.242z
		 M223.531,178.242c0,1.167,0.256,2.077,0.77,2.73c0.513,0.653,1.238,0.98,2.176,0.98s1.663-0.327,2.176-0.98
		c0.513-0.653,0.77-1.563,0.77-2.73c0-1.172-0.259-2.081-0.777-2.727c-0.519-0.646-1.246-0.969-2.184-0.969s-1.66,0.321-2.168,0.965
		S223.531,177.065,223.531,178.242z"/>
	<path fill="#2F2E72" d="M238.508,182.5v-5.508c0-0.854-0.18-1.476-0.539-1.863s-0.917-0.582-1.672-0.582
		c-1.016,0-1.76,0.257-2.23,0.77c-0.472,0.513-0.707,1.345-0.707,2.496v4.688h-0.773v-8.492h0.656l0.148,1.164h0.047
		c0.552-0.886,1.533-1.328,2.945-1.328c1.927,0,2.891,1.034,2.891,3.102v5.555H238.508z"/>
	<path fill="#2F2E72" d="M244.266,181.969c0.489,0,0.916-0.042,1.281-0.125v0.625c-0.375,0.125-0.808,0.188-1.297,0.188
		c-0.75,0-1.304-0.2-1.66-0.602c-0.357-0.401-0.535-1.031-0.535-1.891v-5.484h-1.258v-0.453l1.258-0.352l0.391-1.922h0.398v2.055
		h2.492v0.672h-2.492v5.375c0,0.651,0.114,1.133,0.344,1.445C243.416,181.812,243.775,181.969,244.266,181.969z"/>
	<path fill="#2F2E72" d="M254.648,173.844c0.614,0,1.146,0.112,1.594,0.336c0.447,0.224,0.849,0.606,1.203,1.148h0.047
		c-0.031-0.656-0.047-1.3-0.047-1.93v-3.055h0.766V182.5h-0.508l-0.195-1.297h-0.062c-0.646,0.969-1.573,1.453-2.781,1.453
		c-1.172,0-2.068-0.364-2.688-1.094c-0.62-0.729-0.93-1.792-0.93-3.188c0-1.469,0.307-2.591,0.922-3.367
		C252.583,174.231,253.477,173.844,254.648,173.844z M254.648,174.547c-0.928,0-1.624,0.325-2.09,0.977
		c-0.467,0.651-0.699,1.597-0.699,2.836c0,2.406,0.935,3.609,2.805,3.609c0.958,0,1.661-0.278,2.109-0.836
		c0.447-0.558,0.672-1.477,0.672-2.758v-0.133c0-1.312-0.221-2.257-0.66-2.832C256.345,174.835,255.633,174.547,254.648,174.547z"/>
	<path fill="#2F2E72" d="M264.492,182.656c-1.234,0-2.197-0.38-2.887-1.141c-0.69-0.761-1.035-1.825-1.035-3.195
		c0-1.354,0.333-2.438,1-3.254c0.666-0.815,1.564-1.223,2.695-1.223c1,0,1.789,0.349,2.367,1.047s0.867,1.646,0.867,2.844v0.625
		h-6.117c0.01,1.167,0.282,2.058,0.816,2.672c0.533,0.614,1.298,0.922,2.293,0.922c0.484,0,0.91-0.034,1.277-0.102
		s0.832-0.214,1.395-0.438v0.703c-0.479,0.208-0.922,0.351-1.328,0.426S264.981,182.656,264.492,182.656z M264.266,174.531
		c-0.818,0-1.475,0.27-1.969,0.809c-0.495,0.539-0.784,1.316-0.867,2.332h5.25c0-0.984-0.214-1.754-0.641-2.309
		C265.611,174.809,265.021,174.531,264.266,174.531z M263.172,172.68c0.38-0.411,0.756-0.858,1.129-1.34
		c0.372-0.481,0.626-0.848,0.762-1.098h1.102v0.133c-0.188,0.271-0.507,0.63-0.957,1.078c-0.451,0.448-0.947,0.898-1.488,1.352
		h-0.547V172.68z"/>
	<path fill="#2F2E72" d="M268.711,186.344c-0.416,0-0.768-0.065-1.055-0.195v-0.672c0.359,0.104,0.695,0.156,1.008,0.156
		c0.786,0,1.18-0.458,1.18-1.375v-10.25h0.773v10.141c0,0.703-0.166,1.245-0.496,1.625
		C269.79,186.153,269.32,186.344,268.711,186.344z M269.734,171.648c0-0.5,0.164-0.75,0.492-0.75c0.161,0,0.287,0.065,0.379,0.195
		c0.091,0.13,0.137,0.315,0.137,0.555c0,0.234-0.046,0.419-0.137,0.555c-0.092,0.136-0.218,0.203-0.379,0.203
		C269.898,172.406,269.734,172.153,269.734,171.648z"/>
	<path fill="#2F2E72" d="M278.617,182.5l-0.195-1.344h-0.062c-0.428,0.547-0.866,0.934-1.316,1.16
		c-0.451,0.227-0.983,0.34-1.598,0.34c-0.834,0-1.482-0.214-1.945-0.641c-0.464-0.427-0.695-1.019-0.695-1.773
		c0-0.828,0.345-1.472,1.035-1.93c0.689-0.458,1.688-0.7,2.996-0.727l1.617-0.047v-0.562c0-0.808-0.164-1.417-0.492-1.828
		s-0.857-0.617-1.586-0.617c-0.787,0-1.602,0.219-2.445,0.656l-0.289-0.672c0.932-0.438,1.854-0.656,2.766-0.656
		c0.932,0,1.629,0.242,2.09,0.727s0.691,1.239,0.691,2.266v5.648H278.617z M275.492,181.953c0.906,0,1.621-0.259,2.145-0.777
		s0.785-1.238,0.785-2.16v-0.836l-1.484,0.062c-1.193,0.058-2.043,0.243-2.551,0.559s-0.762,0.806-0.762,1.473
		c0,0.531,0.162,0.944,0.488,1.238C274.438,181.806,274.898,181.953,275.492,181.953z M277.023,172.805h-0.539
		c-0.5-0.411-0.991-0.858-1.473-1.34c-0.482-0.481-0.809-0.845-0.98-1.09v-0.133h1.109c0.135,0.25,0.392,0.62,0.77,1.109
		c0.377,0.489,0.748,0.933,1.113,1.328V172.805z"/>
	<path fill="#2F2E72" d="M289.523,182.656c-1.234,0-2.196-0.38-2.887-1.141s-1.035-1.825-1.035-3.195c0-1.354,0.333-2.438,1-3.254
		s1.565-1.223,2.695-1.223c1,0,1.789,0.349,2.367,1.047s0.867,1.646,0.867,2.844v0.625h-6.117c0.011,1.167,0.282,2.058,0.816,2.672
		s1.298,0.922,2.293,0.922c0.484,0,0.91-0.034,1.277-0.102s0.832-0.214,1.395-0.438v0.703c-0.479,0.208-0.922,0.351-1.328,0.426
		S290.013,182.656,289.523,182.656z M289.297,174.531c-0.817,0-1.474,0.27-1.969,0.809s-0.784,1.316-0.867,2.332h5.25
		c0-0.984-0.214-1.754-0.641-2.309S290.052,174.531,289.297,174.531z"/>
	<path fill="#2F2E72" d="M295.547,174.008v5.5c0,0.854,0.18,1.476,0.539,1.863s0.917,0.582,1.672,0.582
		c1.011,0,1.754-0.255,2.23-0.766s0.715-1.341,0.715-2.492v-4.688h0.766v8.492h-0.656l-0.141-1.172h-0.047
		c-0.552,0.886-1.534,1.328-2.945,1.328c-1.933,0-2.898-1.034-2.898-3.102v-5.547H295.547z"/>
	<path fill="#2F2E72" d="M313.734,180.289c0,0.761-0.289,1.345-0.867,1.754s-1.398,0.613-2.461,0.613
		c-1.136,0-2.036-0.175-2.703-0.523v-0.836c0.854,0.427,1.755,0.641,2.703,0.641c0.839,0,1.476-0.14,1.91-0.418
		s0.652-0.649,0.652-1.113c0-0.427-0.173-0.786-0.52-1.078s-0.915-0.578-1.707-0.859c-0.849-0.308-1.445-0.571-1.789-0.793
		s-0.603-0.472-0.777-0.75s-0.262-0.618-0.262-1.02c0-0.636,0.267-1.138,0.801-1.508s1.28-0.555,2.238-0.555
		c0.917,0,1.786,0.172,2.609,0.516l-0.289,0.703c-0.833-0.344-1.606-0.516-2.32-0.516c-0.692,0-1.242,0.114-1.648,0.344
		s-0.609,0.547-0.609,0.953c0,0.442,0.157,0.797,0.473,1.062s0.931,0.562,1.848,0.891c0.766,0.276,1.323,0.524,1.672,0.746
		s0.61,0.473,0.785,0.754S313.734,179.909,313.734,180.289z"/>
	<path fill="#2F2E72" d="M319.352,182.656c-1.234,0-2.196-0.38-2.887-1.141s-1.035-1.825-1.035-3.195c0-1.354,0.333-2.438,1-3.254
		s1.565-1.223,2.695-1.223c1,0,1.789,0.349,2.367,1.047s0.867,1.646,0.867,2.844v0.625h-6.117c0.011,1.167,0.282,2.058,0.816,2.672
		s1.298,0.922,2.293,0.922c0.484,0,0.91-0.034,1.277-0.102s0.832-0.214,1.395-0.438v0.703c-0.479,0.208-0.922,0.351-1.328,0.426
		S319.841,182.656,319.352,182.656z M319.125,174.531c-0.817,0-1.474,0.27-1.969,0.809s-0.784,1.316-0.867,2.332h5.25
		c0-0.984-0.214-1.754-0.641-2.309S319.88,174.531,319.125,174.531z"/>
	<path fill="#4591CE" d="M25.206,218.193c0,2.548-0.868,4.473-2.604,5.773c-1.736,1.303-4.228,1.953-7.475,1.953
		c-1.764,0-3.296-0.095-4.598-0.283c-1.302-0.189-2.632-0.535-3.989-1.039v-6.572c1.273,0.56,2.67,1.021,4.189,1.386
		c1.519,0.364,2.873,0.546,4.062,0.546c1.777,0,2.667-0.406,2.667-1.218c0-0.42-0.249-0.794-0.746-1.123
		c-0.497-0.329-1.942-0.97-4.335-1.921c-2.184-0.896-3.709-1.914-4.577-3.056c-0.868-1.141-1.302-2.586-1.302-4.335
		c0-2.212,0.854-3.934,2.562-5.166c1.708-1.231,4.122-1.848,7.244-1.848c1.567,0,3.041,0.172,4.42,0.515
		c1.378,0.344,2.81,0.844,4.293,1.501l-2.226,5.291c-1.092-0.489-2.247-0.905-3.464-1.249c-1.218-0.343-2.212-0.515-2.981-0.515
		c-1.344,0-2.016,0.329-2.016,0.987c0,0.406,0.234,0.753,0.703,1.039c0.469,0.287,1.823,0.872,4.063,1.753
		c1.666,0.687,2.908,1.358,3.727,2.016c0.818,0.658,1.42,1.432,1.806,2.32C25.014,215.839,25.206,216.92,25.206,218.193z"/>
	<path fill="#4591CE" d="M40.387,225.92c-3.961,0-7.037-1.053-9.228-3.16c-2.191-2.106-3.286-5.105-3.286-8.996
		c0-4.018,1.015-7.101,3.044-9.249c2.029-2.148,4.927-3.224,8.692-3.224c3.583,0,6.351,0.935,8.304,2.804
		c1.952,1.868,2.929,4.56,2.929,8.073v3.652H36.167c0.056,1.33,0.542,2.373,1.459,3.129c0.917,0.756,2.166,1.134,3.748,1.134
		c1.441,0,2.768-0.137,3.979-0.409c1.21-0.273,2.522-0.738,3.937-1.396v5.9c-1.288,0.657-2.618,1.112-3.989,1.364
		C43.928,225.794,42.291,225.92,40.387,225.92z M39.904,206.877c-0.966,0-1.774,0.304-2.425,0.913
		c-0.65,0.608-1.032,1.563-1.144,2.866h7.055c-0.028-1.148-0.354-2.065-0.976-2.751C41.791,207.22,40.954,206.877,39.904,206.877z"
		/>
	<path fill="#4591CE" d="M69.635,225.5v-12.976c0-1.582-0.228-2.774-0.683-3.58c-0.455-0.805-1.186-1.207-2.194-1.207
		c-1.386,0-2.387,0.553-3.002,1.659c-0.616,1.105-0.924,3.002-0.924,5.689V225.5h-8.209v-23.789h6.194l1.029,2.939h0.483
		c0.7-1.119,1.669-1.959,2.908-2.52c1.238-0.56,2.663-0.84,4.272-0.84c2.631,0,4.679,0.764,6.142,2.289
		c1.462,1.525,2.194,3.674,2.194,6.445V225.5H69.635z"/>
	<path fill="#4591CE" d="M94.223,219.432c1.105,0,2.428-0.272,3.968-0.818v5.984c-1.106,0.476-2.159,0.815-3.16,1.018
		c-1.001,0.203-2.173,0.305-3.517,0.305c-2.758,0-4.745-0.675-5.963-2.026c-1.218-1.351-1.827-3.426-1.827-6.226v-9.805h-2.876
		v-3.338l3.653-2.583l2.121-4.997h5.375v4.766h5.837v6.152h-5.837v9.26C91.997,218.662,92.739,219.432,94.223,219.432z"/>
	<path fill="#4591CE" d="M112.973,225.92c-3.961,0-7.037-1.053-9.228-3.16c-2.191-2.106-3.286-5.105-3.286-8.996
		c0-4.018,1.015-7.101,3.044-9.249c2.029-2.148,4.927-3.224,8.692-3.224c3.583,0,6.351,0.935,8.304,2.804
		c1.952,1.868,2.929,4.56,2.929,8.073v3.652h-14.676c0.056,1.33,0.542,2.373,1.459,3.129c0.917,0.756,2.166,1.134,3.748,1.134
		c1.441,0,2.768-0.137,3.979-0.409c1.21-0.273,2.522-0.738,3.937-1.396v5.9c-1.288,0.657-2.618,1.112-3.989,1.364
		C116.514,225.794,114.876,225.92,112.973,225.92z M112.49,206.877c-0.966,0-1.774,0.304-2.425,0.913
		c-0.65,0.608-1.032,1.563-1.144,2.866h7.055c-0.028-1.148-0.354-2.065-0.976-2.751C114.376,207.22,113.54,206.877,112.49,206.877z"
		/>
	<path fill="#4591CE" d="M142.222,225.5v-12.976c0-1.582-0.228-2.774-0.683-3.58c-0.455-0.805-1.186-1.207-2.194-1.207
		c-1.386,0-2.387,0.553-3.002,1.659c-0.616,1.105-0.924,3.002-0.924,5.689V225.5h-8.209v-23.789h6.194l1.029,2.939h0.483
		c0.7-1.119,1.669-1.959,2.908-2.52c1.238-0.56,2.663-0.84,4.272-0.84c2.631,0,4.679,0.764,6.142,2.289
		c1.462,1.525,2.194,3.674,2.194,6.445V225.5H142.222z"/>
	<path fill="#4591CE" d="M166.809,219.432c1.105,0,2.428-0.272,3.968-0.818v5.984c-1.106,0.476-2.159,0.815-3.16,1.018
		c-1.001,0.203-2.173,0.305-3.517,0.305c-2.758,0-4.745-0.675-5.963-2.026c-1.218-1.351-1.827-3.426-1.827-6.226v-9.805h-2.876
		v-3.338l3.653-2.583l2.121-4.997h5.375v4.766h5.837v6.152h-5.837v9.26C164.583,218.662,165.325,219.432,166.809,219.432z"/>
	<path fill="#4591CE" d="M195.869,225.92c-3.961,0-7.037-1.053-9.228-3.16c-2.191-2.106-3.286-5.105-3.286-8.996
		c0-4.018,1.015-7.101,3.044-9.249c2.029-2.148,4.927-3.224,8.692-3.224c3.583,0,6.351,0.935,8.304,2.804
		c1.952,1.868,2.929,4.56,2.929,8.073v3.652h-14.676c0.056,1.33,0.542,2.373,1.459,3.129c0.917,0.756,2.166,1.134,3.748,1.134
		c1.441,0,2.768-0.137,3.979-0.409c1.21-0.273,2.522-0.738,3.937-1.396v5.9c-1.288,0.657-2.618,1.112-3.989,1.364
		C199.41,225.794,197.772,225.92,195.869,225.92z M195.386,206.877c-0.966,0-1.774,0.304-2.425,0.913
		c-0.65,0.608-1.032,1.563-1.144,2.866h7.055c-0.028-1.148-0.354-2.065-0.976-2.751C197.272,207.22,196.436,206.877,195.386,206.877
		z"/>
	<path fill="#4591CE" d="M239.311,225.5v-12.934c0-1.609-0.221-2.816-0.661-3.622c-0.441-0.805-1.138-1.207-2.089-1.207
		c-1.26,0-2.184,0.539-2.771,1.616c-0.588,1.078-0.883,2.765-0.883,5.061V225.5h-8.23v-12.934c0-1.609-0.21-2.816-0.63-3.622
		c-0.42-0.805-1.099-1.207-2.037-1.207c-1.288,0-2.226,0.574-2.813,1.722s-0.882,3.023-0.882,5.627V225.5h-8.209v-23.789h6.194
		l1.029,2.939h0.483c0.63-1.092,1.543-1.924,2.74-2.498c1.196-0.574,2.558-0.861,4.083-0.861c3.429,0,5.837,1.043,7.223,3.129h0.651
		c0.672-0.979,1.606-1.746,2.803-2.299c1.197-0.553,2.516-0.83,3.958-0.83c2.813,0,4.892,0.722,6.235,2.163s2.016,3.632,2.016,6.571
		V225.5H239.311z"/>
	<path fill="#4591CE" d="M266.774,201.291c2.589,0,4.644,1.085,6.163,3.255c1.518,2.17,2.277,5.172,2.277,9.007
		c0,3.863-0.766,6.891-2.299,9.081c-1.533,2.191-3.664,3.286-6.394,3.286c-0.882,0-1.666-0.095-2.352-0.283
		c-0.687-0.189-1.298-0.451-1.837-0.787s-1.166-0.896-1.879-1.68h-0.504l-1.303,2.33h-6.403v-32.67h8.21v7.391
		c0,0.882-0.099,2.4-0.295,4.557h0.295c0.797-1.232,1.718-2.121,2.76-2.667C264.258,201.564,265.444,201.291,266.774,201.291z
		 M263.771,207.737c-1.147,0-1.987,0.399-2.52,1.196c-0.531,0.799-0.797,2.051-0.797,3.759v1.155c0,1.945,0.266,3.342,0.797,4.188
		c0.532,0.847,1.4,1.271,2.604,1.271c0.967,0,1.708-0.494,2.227-1.48c0.518-0.987,0.776-2.439,0.776-4.357
		C266.858,209.648,265.83,207.737,263.771,207.737z"/>
	<path fill="#4591CE" d="M294.553,225.5l-1.574-3.149h-0.168c-1.105,1.372-2.232,2.31-3.381,2.813
		c-1.146,0.504-2.631,0.756-4.451,0.756c-2.238,0-4.002-0.672-5.291-2.016c-1.287-1.344-1.932-3.233-1.932-5.669
		c0-2.533,0.883-4.42,2.646-5.658c1.764-1.239,4.318-1.936,7.664-2.089l3.967-0.127v-0.336c0-1.959-0.965-2.939-2.896-2.939
		c-1.736,0-3.941,0.588-6.613,1.764l-2.373-5.416c2.771-1.428,6.27-2.143,10.498-2.143c3.051,0,5.412,0.756,7.086,2.268
		c1.672,1.512,2.51,3.626,2.51,6.342v15.6H294.553z M288.465,220.125c0.994,0,1.844-0.314,2.551-0.945
		c0.707-0.629,1.061-1.448,1.061-2.456v-1.848l-1.891,0.084c-2.701,0.098-4.051,1.092-4.051,2.981
		C286.135,219.397,286.91,220.125,288.465,220.125z"/>
	<path fill="#4591CE" d="M319.329,201.291c0.715,0,1.394,0.057,2.037,0.168l0.462,0.084l-0.735,7.748
		c-0.672-0.168-1.603-0.252-2.792-0.252c-1.792,0-3.094,0.409-3.905,1.229c-0.812,0.818-1.218,1.998-1.218,3.537V225.5h-8.21
		v-23.789h6.11l1.28,3.801h0.399c0.686-1.26,1.641-2.278,2.866-3.055C316.849,201.68,318.084,201.291,319.329,201.291z"/>
	<path fill="#4591CE" d="M338.646,201.291c0.715,0,1.394,0.057,2.037,0.168l0.462,0.084l-0.735,7.748
		c-0.672-0.168-1.603-0.252-2.792-0.252c-1.792,0-3.094,0.409-3.905,1.229c-0.812,0.818-1.218,1.998-1.218,3.537V225.5h-8.21
		v-23.789h6.11l1.28,3.801h0.399c0.686-1.26,1.641-2.278,2.866-3.055C336.166,201.68,337.401,201.291,338.646,201.291z"/>
	<path fill="#4591CE" d="M359.119,225.5l-1.575-3.149h-0.168c-1.105,1.372-2.232,2.31-3.38,2.813s-2.632,0.756-4.451,0.756
		c-2.239,0-4.003-0.672-5.291-2.016s-1.932-3.233-1.932-5.669c0-2.533,0.882-4.42,2.646-5.658c1.764-1.239,4.318-1.936,7.664-2.089
		l3.968-0.127v-0.336c0-1.959-0.966-2.939-2.897-2.939c-1.735,0-3.94,0.588-6.613,1.764l-2.373-5.416
		c2.771-1.428,6.271-2.143,10.498-2.143c3.052,0,5.413,0.756,7.086,2.268s2.51,3.626,2.51,6.342v15.6H359.119z M353.03,220.125
		c0.994,0,1.844-0.314,2.551-0.945c0.707-0.629,1.061-1.448,1.061-2.456v-1.848l-1.89,0.084c-2.701,0.098-4.052,1.092-4.052,2.981
		C350.7,219.397,351.477,220.125,353.03,220.125z"/>
	<path fill="#4591CE" d="M387.905,218.193c0,2.548-0.868,4.473-2.604,5.773c-1.735,1.303-4.228,1.953-7.475,1.953
		c-1.764,0-3.296-0.095-4.599-0.283c-1.301-0.189-2.631-0.535-3.988-1.039v-6.572c1.273,0.56,2.669,1.021,4.188,1.386
		c1.519,0.364,2.873,0.546,4.062,0.546c1.777,0,2.667-0.406,2.667-1.218c0-0.42-0.249-0.794-0.746-1.123s-1.941-0.97-4.336-1.921
		c-2.184-0.896-3.709-1.914-4.576-3.056c-0.868-1.141-1.303-2.586-1.303-4.335c0-2.212,0.854-3.934,2.562-5.166
		c1.707-1.231,4.122-1.848,7.243-1.848c1.567,0,3.041,0.172,4.42,0.515c1.378,0.344,2.81,0.844,4.294,1.501l-2.227,5.291
		c-1.092-0.489-2.246-0.905-3.464-1.249c-1.218-0.343-2.212-0.515-2.981-0.515c-1.344,0-2.016,0.329-2.016,0.987
		c0,0.406,0.234,0.753,0.703,1.039c0.469,0.287,1.823,0.872,4.062,1.753c1.666,0.687,2.908,1.358,3.728,2.016
		c0.818,0.658,1.42,1.432,1.806,2.32C387.713,215.839,387.905,216.92,387.905,218.193z"/>
	<path fill="#4591CE" d="M409.973,218.193c0,2.548-0.868,4.473-2.604,5.773c-1.735,1.303-4.228,1.953-7.475,1.953
		c-1.764,0-3.296-0.095-4.599-0.283c-1.301-0.189-2.631-0.535-3.988-1.039v-6.572c1.273,0.56,2.669,1.021,4.188,1.386
		c1.519,0.364,2.873,0.546,4.062,0.546c1.777,0,2.667-0.406,2.667-1.218c0-0.42-0.249-0.794-0.746-1.123s-1.941-0.97-4.336-1.921
		c-2.184-0.896-3.709-1.914-4.576-3.056c-0.868-1.141-1.303-2.586-1.303-4.335c0-2.212,0.854-3.934,2.562-5.166
		c1.707-1.231,4.122-1.848,7.243-1.848c1.567,0,3.041,0.172,4.42,0.515c1.378,0.344,2.81,0.844,4.294,1.501l-2.227,5.291
		c-1.092-0.489-2.246-0.905-3.464-1.249c-1.218-0.343-2.212-0.515-2.981-0.515c-1.344,0-2.016,0.329-2.016,0.987
		c0,0.406,0.234,0.753,0.703,1.039c0.469,0.287,1.823,0.872,4.062,1.753c1.666,0.687,2.908,1.358,3.728,2.016
		c0.818,0.658,1.42,1.432,1.806,2.32C409.78,215.839,409.973,216.92,409.973,218.193z"/>
	<path fill="#4591CE" d="M425.154,225.92c-3.961,0-7.037-1.053-9.228-3.16c-2.191-2.106-3.286-5.105-3.286-8.996
		c0-4.018,1.015-7.101,3.044-9.249c2.03-2.148,4.928-3.224,8.693-3.224c3.583,0,6.351,0.935,8.304,2.804
		c1.952,1.868,2.929,4.56,2.929,8.073v3.652h-14.676c0.056,1.33,0.542,2.373,1.459,3.129c0.916,0.756,2.166,1.134,3.748,1.134
		c1.441,0,2.768-0.137,3.979-0.409c1.21-0.273,2.522-0.738,3.937-1.396v5.9c-1.288,0.657-2.617,1.112-3.989,1.364
		S427.058,225.92,425.154,225.92z M420.724,199.443v-0.608c2.156-2.31,3.524-3.8,4.105-4.472c0.58-0.672,1.061-1.274,1.438-1.807
		h8.986v0.441c-1.119,0.896-2.659,2.037-4.619,3.422c-1.959,1.387-3.443,2.395-4.451,3.023H420.724z M424.671,206.877
		c-0.965,0-1.773,0.304-2.425,0.913c-0.65,0.608-1.032,1.563-1.144,2.866h7.055c-0.028-1.148-0.354-2.065-0.977-2.751
		C426.558,207.22,425.722,206.877,424.671,206.877z"/>
	<path fill="#4591CE" d="M457.762,218.193c0,2.548-0.868,4.473-2.604,5.773c-1.735,1.303-4.228,1.953-7.475,1.953
		c-1.764,0-3.296-0.095-4.599-0.283c-1.301-0.189-2.631-0.535-3.988-1.039v-6.572c1.273,0.56,2.669,1.021,4.188,1.386
		c1.519,0.364,2.873,0.546,4.062,0.546c1.777,0,2.667-0.406,2.667-1.218c0-0.42-0.249-0.794-0.746-1.123s-1.941-0.97-4.336-1.921
		c-2.184-0.896-3.709-1.914-4.576-3.056c-0.868-1.141-1.303-2.586-1.303-4.335c0-2.212,0.854-3.934,2.562-5.166
		c1.707-1.231,4.122-1.848,7.243-1.848c1.567,0,3.041,0.172,4.42,0.515c1.378,0.344,2.81,0.844,4.294,1.501l-2.227,5.291
		c-1.092-0.489-2.246-0.905-3.464-1.249c-1.218-0.343-2.212-0.515-2.981-0.515c-1.344,0-2.016,0.329-2.016,0.987
		c0,0.406,0.234,0.753,0.703,1.039c0.469,0.287,1.823,0.872,4.062,1.753c1.666,0.687,2.908,1.358,3.728,2.016
		c0.818,0.658,1.42,1.432,1.806,2.32C457.569,215.839,457.762,216.92,457.762,218.193z"/>
	<path fill="#2F2E72" d="M8.531,238.844c0.614,0,1.146,0.112,1.594,0.336c0.448,0.224,0.849,0.606,1.203,1.148h0.047
		c-0.031-0.656-0.047-1.3-0.047-1.93v-3.055h0.766V247.5h-0.508l-0.195-1.297h-0.062c-0.646,0.969-1.573,1.453-2.781,1.453
		c-1.172,0-2.068-0.364-2.688-1.094c-0.62-0.729-0.93-1.792-0.93-3.188c0-1.469,0.307-2.591,0.922-3.367
		C6.466,239.231,7.359,238.844,8.531,238.844z M8.531,239.547c-0.927,0-1.624,0.325-2.09,0.977
		c-0.466,0.651-0.699,1.597-0.699,2.836c0,2.406,0.935,3.609,2.805,3.609c0.958,0,1.661-0.278,2.109-0.836
		c0.448-0.558,0.672-1.477,0.672-2.758v-0.133c0-1.312-0.22-2.257-0.66-2.832C10.228,239.835,9.516,239.547,8.531,239.547z"/>
	<path fill="#2F2E72" d="M18.375,247.656c-1.234,0-2.197-0.38-2.887-1.141c-0.69-0.761-1.035-1.825-1.035-3.195
		c0-1.354,0.333-2.438,1-3.254c0.667-0.815,1.565-1.223,2.695-1.223c1,0,1.789,0.349,2.367,1.047s0.867,1.646,0.867,2.844v0.625
		h-6.117c0.01,1.167,0.282,2.058,0.816,2.672c0.534,0.614,1.298,0.922,2.293,0.922c0.484,0,0.91-0.034,1.277-0.102
		s0.832-0.214,1.395-0.438v0.703c-0.479,0.208-0.922,0.351-1.328,0.426S18.864,247.656,18.375,247.656z M18.148,239.531
		c-0.818,0-1.474,0.27-1.969,0.809c-0.495,0.539-0.784,1.316-0.867,2.332h5.25c0-0.984-0.214-1.754-0.641-2.309
		C19.495,239.809,18.903,239.531,18.148,239.531z"/>
	<path fill="#2F2E72" d="M31.273,247.656c-1.214,0-2.164-0.383-2.852-1.148s-1.031-1.833-1.031-3.203
		c0-1.406,0.356-2.501,1.07-3.285c0.713-0.784,1.69-1.176,2.93-1.176c0.734,0,1.438,0.128,2.109,0.383l-0.211,0.688
		c-0.734-0.245-1.373-0.367-1.914-0.367c-1.042,0-1.831,0.321-2.367,0.965c-0.537,0.644-0.805,1.569-0.805,2.777
		c0,1.146,0.268,2.043,0.805,2.691c0.536,0.648,1.286,0.973,2.25,0.973c0.771,0,1.487-0.138,2.148-0.414v0.719
		C32.864,247.523,32.153,247.656,31.273,247.656z"/>
	<path fill="#2F2E72" d="M38.914,247.656c-1.234,0-2.197-0.38-2.887-1.141c-0.69-0.761-1.035-1.825-1.035-3.195
		c0-1.354,0.333-2.438,1-3.254c0.667-0.815,1.565-1.223,2.695-1.223c1,0,1.789,0.349,2.367,1.047s0.867,1.646,0.867,2.844v0.625
		h-6.117c0.01,1.167,0.282,2.058,0.816,2.672c0.534,0.614,1.298,0.922,2.293,0.922c0.484,0,0.91-0.034,1.277-0.102
		s0.832-0.214,1.395-0.438v0.703c-0.479,0.208-0.922,0.351-1.328,0.426S39.403,247.656,38.914,247.656z M38.688,239.531
		c-0.818,0-1.474,0.27-1.969,0.809c-0.495,0.539-0.784,1.316-0.867,2.332h5.25c0-0.984-0.214-1.754-0.641-2.309
		C40.034,239.809,39.442,239.531,38.688,239.531z"/>
	<path fill="#2F2E72" d="M46.508,246.969c0.489,0,0.917-0.042,1.281-0.125v0.625c-0.375,0.125-0.808,0.188-1.297,0.188
		c-0.75,0-1.304-0.2-1.66-0.602c-0.357-0.401-0.535-1.031-0.535-1.891v-5.484h-1.258v-0.453l1.258-0.352l0.391-1.922h0.398v2.055
		h2.492v0.672h-2.492v5.375c0,0.651,0.114,1.133,0.344,1.445C45.659,246.812,46.018,246.969,46.508,246.969z"/>
	<path fill="#2F2E72" d="M51.867,246.969c0.489,0,0.917-0.042,1.281-0.125v0.625c-0.375,0.125-0.808,0.188-1.297,0.188
		c-0.75,0-1.304-0.2-1.66-0.602c-0.357-0.401-0.535-1.031-0.535-1.891v-5.484h-1.258v-0.453l1.258-0.352l0.391-1.922h0.398v2.055
		h2.492v0.672h-2.492v5.375c0,0.651,0.114,1.133,0.344,1.445C51.018,246.812,51.377,246.969,51.867,246.969z"/>
	<path fill="#2F2E72" d="M58.414,247.656c-1.234,0-2.197-0.38-2.887-1.141c-0.69-0.761-1.035-1.825-1.035-3.195
		c0-1.354,0.333-2.438,1-3.254c0.667-0.815,1.565-1.223,2.695-1.223c1,0,1.789,0.349,2.367,1.047s0.867,1.646,0.867,2.844v0.625
		h-6.117c0.01,1.167,0.282,2.058,0.816,2.672c0.534,0.614,1.298,0.922,2.293,0.922c0.484,0,0.91-0.034,1.277-0.102
		s0.832-0.214,1.395-0.438v0.703c-0.479,0.208-0.922,0.351-1.328,0.426S58.903,247.656,58.414,247.656z M58.188,239.531
		c-0.818,0-1.474,0.27-1.969,0.809c-0.495,0.539-0.784,1.316-0.867,2.332h5.25c0-0.984-0.214-1.754-0.641-2.309
		C59.534,239.809,58.942,239.531,58.188,239.531z"/>
	<path fill="#2F2E72" d="M73.188,245.289c0,0.761-0.289,1.345-0.867,1.754s-1.398,0.613-2.461,0.613
		c-1.136,0-2.037-0.175-2.703-0.523v-0.836c0.854,0.427,1.755,0.641,2.703,0.641c0.838,0,1.475-0.14,1.91-0.418
		c0.435-0.278,0.652-0.649,0.652-1.113c0-0.427-0.173-0.786-0.52-1.078c-0.347-0.292-0.916-0.578-1.707-0.859
		c-0.849-0.308-1.445-0.571-1.789-0.793s-0.603-0.472-0.777-0.75c-0.175-0.278-0.262-0.618-0.262-1.02
		c0-0.636,0.267-1.138,0.801-1.508c0.534-0.37,1.28-0.555,2.238-0.555c0.917,0,1.786,0.172,2.609,0.516l-0.289,0.703
		c-0.833-0.344-1.607-0.516-2.32-0.516c-0.693,0-1.242,0.114-1.648,0.344s-0.609,0.547-0.609,0.953c0,0.442,0.157,0.797,0.473,1.062
		c0.315,0.266,0.931,0.562,1.848,0.891c0.766,0.276,1.323,0.524,1.672,0.746c0.349,0.222,0.61,0.473,0.785,0.754
		C73.1,244.578,73.188,244.909,73.188,245.289z"/>
	<path fill="#2F2E72" d="M75.266,236.648c0-0.5,0.164-0.75,0.492-0.75c0.161,0,0.288,0.065,0.379,0.195
		c0.091,0.13,0.137,0.315,0.137,0.555c0,0.234-0.046,0.419-0.137,0.555c-0.091,0.136-0.218,0.203-0.379,0.203
		C75.43,237.406,75.266,237.153,75.266,236.648z M76.148,247.5h-0.773v-8.492h0.773V247.5z"/>
	<path fill="#2F2E72" d="M81.234,246.969c0.489,0,0.917-0.042,1.281-0.125v0.625c-0.375,0.125-0.808,0.188-1.297,0.188
		c-0.75,0-1.304-0.2-1.66-0.602c-0.357-0.401-0.535-1.031-0.535-1.891v-5.484h-1.258v-0.453l1.258-0.352l0.391-1.922h0.398v2.055
		h2.492v0.672h-2.492v5.375c0,0.651,0.114,1.133,0.344,1.445C80.385,246.812,80.745,246.969,81.234,246.969z"/>
	<path fill="#2F2E72" d="M85.023,239.008v5.5c0,0.854,0.18,1.476,0.539,1.863s0.917,0.582,1.672,0.582
		c1.01,0,1.754-0.255,2.23-0.766s0.715-1.341,0.715-2.492v-4.688h0.766v8.492h-0.656l-0.141-1.172h-0.047
		c-0.552,0.886-1.534,1.328-2.945,1.328c-1.933,0-2.898-1.034-2.898-3.102v-5.547H85.023z"/>
	<path fill="#2F2E72" d="M98.945,247.5l-0.195-1.344h-0.062c-0.427,0.547-0.866,0.934-1.316,1.16
		c-0.451,0.227-0.983,0.34-1.598,0.34c-0.833,0-1.482-0.214-1.945-0.641c-0.464-0.427-0.695-1.019-0.695-1.773
		c0-0.828,0.345-1.472,1.035-1.93c0.69-0.458,1.688-0.7,2.996-0.727l1.617-0.047v-0.562c0-0.808-0.164-1.417-0.492-1.828
		s-0.857-0.617-1.586-0.617c-0.787,0-1.602,0.219-2.445,0.656l-0.289-0.672c0.932-0.438,1.854-0.656,2.766-0.656
		c0.932,0,1.629,0.242,2.09,0.727s0.691,1.239,0.691,2.266v5.648H98.945z M95.82,246.953c0.906,0,1.621-0.259,2.145-0.777
		s0.785-1.238,0.785-2.16v-0.836l-1.484,0.062c-1.193,0.058-2.043,0.243-2.551,0.559s-0.762,0.806-0.762,1.473
		c0,0.531,0.163,0.944,0.488,1.238C94.767,246.806,95.227,246.953,95.82,246.953z"/>
	<path fill="#2F2E72" d="M104.508,246.969c0.489,0,0.917-0.042,1.281-0.125v0.625c-0.375,0.125-0.808,0.188-1.297,0.188
		c-0.75,0-1.304-0.2-1.66-0.602c-0.357-0.401-0.535-1.031-0.535-1.891v-5.484h-1.258v-0.453l1.258-0.352l0.391-1.922h0.398v2.055
		h2.492v0.672h-2.492v5.375c0,0.651,0.114,1.133,0.344,1.445C103.659,246.812,104.018,246.969,104.508,246.969z"/>
	<path fill="#2F2E72" d="M107.516,236.648c0-0.5,0.164-0.75,0.492-0.75c0.161,0,0.288,0.065,0.379,0.195
		c0.091,0.13,0.137,0.315,0.137,0.555c0,0.234-0.046,0.419-0.137,0.555c-0.091,0.136-0.218,0.203-0.379,0.203
		C107.68,237.406,107.516,237.153,107.516,236.648z M108.398,247.5h-0.773v-8.492h0.773V247.5z"/>
	<path fill="#2F2E72" d="M118.266,243.242c0,1.386-0.336,2.468-1.008,3.246s-1.599,1.168-2.781,1.168
		c-0.745,0-1.401-0.18-1.969-0.539c-0.568-0.359-1.003-0.875-1.305-1.547c-0.302-0.672-0.453-1.448-0.453-2.328
		c0-1.386,0.336-2.465,1.008-3.238s1.594-1.16,2.766-1.16c1.167,0,2.082,0.392,2.746,1.176S118.266,241.878,118.266,243.242z
		 M111.562,243.242c0,1.167,0.256,2.077,0.77,2.73c0.513,0.653,1.238,0.98,2.176,0.98s1.663-0.327,2.176-0.98
		c0.513-0.653,0.77-1.563,0.77-2.73c0-1.172-0.259-2.081-0.777-2.727c-0.519-0.646-1.246-0.969-2.184-0.969s-1.66,0.321-2.168,0.965
		S111.562,242.065,111.562,243.242z"/>
	<path fill="#2F2E72" d="M126.539,247.5v-5.508c0-0.854-0.18-1.476-0.539-1.863s-0.917-0.582-1.672-0.582
		c-1.016,0-1.759,0.257-2.23,0.77c-0.472,0.513-0.707,1.345-0.707,2.496v4.688h-0.773v-8.492h0.656l0.148,1.164h0.047
		c0.552-0.886,1.534-1.328,2.945-1.328c1.927,0,2.891,1.034,2.891,3.102v5.555H126.539z"/>
	<path fill="#2F2E72" d="M130.938,245.641l0.094,0.164c-0.391,1.38-0.844,2.633-1.359,3.758h-0.508
		c0.401-1.433,0.688-2.739,0.859-3.922H130.938z"/>
</g>
</svg>
