<?xml version="1.0" encoding="utf-8"?>
<!DOCTYPE svg PUBLIC "-//W3C//DTD SVG 1.1//EN" "http://www.w3.org/Graphics/SVG/1.1/DTD/svg11.dtd">
<svg version="1.1" id="Layer_1" xmlns="http://www.w3.org/2000/svg" xmlns:xlink="http://www.w3.org/1999/xlink" x="0px" y="0px"
	 width="225.635px" height="79px" viewBox="0 0 225.635 79" enable-background="new 0 0 225.635 79" xml:space="preserve">
<g>
	<path fill="#522E91" d="M11.463,7.406c2.504,3.869,2.371,8.181-0.295,9.639C8.496,18.5,4.302,16.541,1.795,12.67
		c-2.507-3.865-2.37-8.181,0.3-9.634C4.763,1.582,8.956,3.541,11.463,7.406z"/>
	<path fill="#522E91" d="M19.822,4.058c1.227,2.714,0.676,5.443-1.231,6.102c-1.911,0.656-4.456-1.009-5.683-3.724
		c-1.228-2.717-0.676-5.451,1.235-6.107C16.052-0.328,18.594,1.339,19.822,4.058z"/>
	<path fill="#522E91" d="M27.966,4.232c0.465,2.481-0.614,4.611-2.405,4.758c-1.792,0.147-3.617-1.743-4.079-4.226
		c-0.462-2.481,0.615-4.611,2.406-4.757C25.679-0.139,27.504,1.752,27.966,4.232z"/>
	<path fill="#522E91" d="M35.182,6.804c-0.16,2.235-1.632,3.835-3.286,3.569c-1.655-0.263-2.864-2.293-2.702-4.527
		c0.162-2.239,1.632-3.833,3.286-3.57C34.135,2.541,35.341,4.568,35.182,6.804z"/>
	<path fill="#522E91" d="M41.268,10.777c-0.582,1.876-2.202,2.967-3.619,2.439c-1.419-0.525-2.095-2.474-1.515-4.35
		c0.579-1.875,2.202-2.966,3.621-2.441C41.17,6.953,41.85,8.901,41.268,10.777z"/>
</g>
<path fill="#522E91" d="M25.85,12.673c-4.402-0.628-21.543,6.345-7.345,22.144c9.071,10.093,3.177,22.721-5.649,29.374
	c-6.037,4.55-5.534,17.746,10.188,14.216c15.721-3.535,20.348-23.25,22.729-34.543C48.562,30.623,48.751,13.187,25.85,12.673z"/>
<g>
	<path fill="#522E91" d="M61.546,26.178c0,0.753-0.256,1.33-0.768,1.73c-0.511,0.402-1.236,0.604-2.174,0.604h-1.204v3.218h-0.543
		v-7.789h1.907C60.619,23.941,61.546,24.687,61.546,26.178z M57.401,28.043h1.071c0.876,0,1.511-0.145,1.901-0.434
		c0.392-0.291,0.586-0.76,0.586-1.409c0-0.601-0.185-1.046-0.554-1.334c-0.37-0.29-0.941-0.435-1.715-0.435h-1.29V28.043z"/>
	<path fill="#522E91" d="M64.699,28.335v3.395h-0.543v-7.789h1.854c0.966,0,1.679,0.179,2.141,0.535
		c0.461,0.358,0.693,0.895,0.693,1.611c0,0.522-0.138,0.964-0.413,1.321c-0.276,0.36-0.693,0.616-1.255,0.773l2.115,3.549h-0.65
		l-2.008-3.395H64.699z M64.699,27.866h1.487c0.658,0,1.167-0.145,1.529-0.439c0.362-0.292,0.543-0.725,0.543-1.298
		c0-0.592-0.178-1.024-0.533-1.293c-0.355-0.271-0.935-0.405-1.737-0.405h-1.29V27.866z"/>
	<path fill="#522E91" d="M78.103,27.823c0,1.236-0.309,2.214-0.926,2.935c-0.619,0.718-1.471,1.078-2.558,1.078
		c-1.083,0-1.935-0.359-2.552-1.078c-0.618-0.721-0.927-1.701-0.927-2.945c0-1.238,0.312-2.214,0.935-2.926
		c0.624-0.713,1.476-1.069,2.555-1.069c1.087,0,1.937,0.357,2.552,1.073C77.796,25.607,78.103,26.585,78.103,27.823z M71.731,27.823
		c0,1.117,0.248,1.978,0.746,2.587s1.211,0.914,2.142,0.914c0.937,0,1.653-0.302,2.15-0.905c0.494-0.606,0.742-1.469,0.742-2.597
		c0-1.121-0.249-1.981-0.742-2.58c-0.498-0.599-1.21-0.898-2.14-0.898c-0.927,0-1.641,0.301-2.144,0.906
		C71.983,25.855,71.731,26.713,71.731,27.823z"/>
	<path fill="#522E91" d="M83.873,27.801h2.871v3.555c-0.753,0.319-1.601,0.479-2.542,0.479c-1.229,0-2.171-0.348-2.825-1.042
		c-0.657-0.695-0.984-1.677-0.984-2.95c0-0.791,0.163-1.493,0.487-2.105c0.326-0.614,0.791-1.086,1.396-1.421
		c0.606-0.333,1.301-0.5,2.086-0.5c0.849,0,1.611,0.157,2.285,0.467l-0.218,0.491c-0.674-0.311-1.374-0.468-2.099-0.468
		c-1.026,0-1.841,0.317-2.442,0.953c-0.603,0.632-0.903,1.487-0.903,2.562c0,1.172,0.285,2.055,0.857,2.647
		c0.572,0.59,1.412,0.886,2.52,0.886c0.717,0,1.326-0.102,1.827-0.305v-2.737h-2.317V27.801z"/>
	<path fill="#522E91" d="M90.159,28.335v3.395h-0.543v-7.789h1.854c0.967,0,1.681,0.179,2.142,0.535
		c0.462,0.358,0.692,0.895,0.692,1.611c0,0.522-0.136,0.964-0.411,1.321c-0.277,0.36-0.695,0.616-1.255,0.773l2.114,3.549h-0.65
		l-2.008-3.395H90.159z M90.159,27.866h1.487c0.656,0,1.166-0.145,1.528-0.439c0.362-0.292,0.543-0.725,0.543-1.298
		c0-0.592-0.176-1.024-0.533-1.293c-0.354-0.271-0.933-0.405-1.736-0.405h-1.29V27.866z"/>
	<path fill="#522E91" d="M100.768,28.98h-3.166l-1.086,2.75h-0.604l3.132-7.821h0.347l3.069,7.821h-0.615L100.768,28.98z
		 M97.799,28.49h2.787l-1.061-2.808c-0.088-0.22-0.194-0.525-0.32-0.917c-0.096,0.341-0.2,0.649-0.312,0.928L97.799,28.49z"/>
	<path fill="#522E91" d="M107.905,31.73L105,24.538h-0.042c0.03,0.439,0.042,0.891,0.042,1.353v5.839h-0.522v-7.789h0.843
		l2.759,6.851h0.032l2.76-6.851h0.82v7.789h-0.547v-5.904c0-0.413,0.021-0.839,0.064-1.278h-0.043l-2.915,7.182H107.905z"/>
	<path fill="#522E91" d="M118.234,31.73l-2.903-7.192h-0.042c0.027,0.439,0.042,0.891,0.042,1.353v5.839h-0.521v-7.789h0.841
		l2.761,6.851h0.032l2.759-6.851h0.82v7.789h-0.55v-5.904c0-0.413,0.021-0.839,0.063-1.278h-0.042l-2.913,7.182H118.234z"/>
	<path fill="#522E91" d="M129.395,31.73h-4.257v-7.789h4.257v0.5h-3.713v2.945h3.505v0.501h-3.505v3.341h3.713V31.73z"/>
	<path fill="#522E91" d="M141.74,27.759c0,1.309-0.343,2.295-1.029,2.966c-0.684,0.67-1.691,1.004-3.02,1.004h-1.864v-7.789h2.102
		c1.246,0,2.189,0.324,2.837,0.974C141.416,25.564,141.74,26.514,141.74,27.759z M141.147,27.78c0-1.114-0.283-1.954-0.851-2.516
		c-0.565-0.563-1.397-0.844-2.496-0.844h-1.431v6.831h1.288C139.984,31.25,141.147,30.092,141.147,27.78z"/>
	<path fill="#522E91" d="M144.706,23.941l0.063,0.106c-0.266,0.94-0.574,1.794-0.927,2.561h-0.345
		c0.103-0.34,0.211-0.769,0.324-1.285c0.114-0.518,0.2-0.979,0.262-1.383H144.706z"/>
	<path fill="#522E91" d="M146.943,31.73v-7.789h0.542v7.789H146.943z"/>
	<path fill="#522E91" d="M156.272,31.73h-0.549l-4.613-6.916h-0.043c0.043,0.822,0.062,1.445,0.062,1.865v5.051h-0.521v-7.789h0.544
		l4.608,6.904h0.033c-0.033-0.64-0.05-1.247-0.05-1.822v-5.082h0.528V31.73z"/>
	<path fill="#522E91" d="M159.938,31.73h-0.542v-7.789h4.265v0.5h-3.723v3.303h3.517v0.506h-3.517V31.73z"/>
	<path fill="#522E91" d="M172.332,27.823c0,1.236-0.309,2.214-0.925,2.935c-0.618,0.718-1.471,1.078-2.559,1.078
		c-1.081,0-1.933-0.359-2.55-1.078c-0.618-0.721-0.927-1.701-0.927-2.945c0-1.238,0.31-2.214,0.934-2.926
		c0.623-0.713,1.476-1.069,2.554-1.069c1.087,0,1.938,0.357,2.554,1.073C172.026,25.607,172.332,26.585,172.332,27.823z
		 M165.963,27.823c0,1.117,0.248,1.978,0.745,2.587c0.498,0.609,1.213,0.914,2.141,0.914c0.938,0,1.654-0.302,2.151-0.905
		c0.493-0.606,0.743-1.469,0.743-2.597c0-1.121-0.25-1.981-0.743-2.58c-0.497-0.599-1.208-0.898-2.141-0.898
		c-0.927,0-1.641,0.301-2.143,0.906C166.213,25.855,165.963,26.713,165.963,27.823z"/>
	<path fill="#522E91" d="M175.586,28.335v3.395h-0.544v-7.789h1.854c0.966,0,1.68,0.179,2.142,0.535
		c0.461,0.358,0.692,0.895,0.692,1.611c0,0.522-0.138,0.964-0.413,1.321c-0.274,0.36-0.692,0.616-1.255,0.773l2.115,3.549h-0.649
		l-2.01-3.395H175.586z M175.586,27.866h1.484c0.658,0,1.169-0.145,1.529-0.439c0.363-0.292,0.545-0.725,0.545-1.298
		c0-0.592-0.18-1.024-0.533-1.293c-0.356-0.271-0.936-0.405-1.737-0.405h-1.288V27.866z"/>
	<path fill="#522E91" d="M185.866,31.73l-2.904-7.192h-0.042c0.029,0.439,0.042,0.891,0.042,1.353v5.839h-0.521v-7.789h0.842
		l2.759,6.851h0.032l2.759-6.851h0.822v7.789h-0.549v-5.904c0-0.413,0.021-0.839,0.064-1.278h-0.043l-2.915,7.182H185.866z"/>
	<path fill="#522E91" d="M196.521,28.98h-3.164l-1.087,2.75h-0.604l3.133-7.821h0.348l3.069,7.821h-0.614L196.521,28.98z
		 M193.554,28.49h2.787l-1.062-2.808c-0.089-0.22-0.195-0.525-0.32-0.917c-0.095,0.341-0.2,0.649-0.312,0.928L193.554,28.49z"/>
	<path fill="#522E91" d="M202.265,31.73h-0.55v-7.278h-2.53v-0.511h5.608v0.511h-2.528V31.73z"/>
	<path fill="#522E91" d="M206.866,31.73v-7.789h0.544v7.789H206.866z"/>
	<path fill="#522E91" d="M217.077,27.823c0,1.236-0.309,2.214-0.926,2.935c-0.618,0.718-1.471,1.078-2.558,1.078
		c-1.082,0-1.932-0.359-2.55-1.078c-0.618-0.721-0.927-1.701-0.927-2.945c0-1.238,0.311-2.214,0.933-2.926
		c0.624-0.713,1.477-1.069,2.555-1.069c1.087,0,1.937,0.357,2.554,1.073C216.771,25.607,217.077,26.585,217.077,27.823z
		 M210.707,27.823c0,1.117,0.249,1.978,0.746,2.587c0.498,0.609,1.211,0.914,2.141,0.914c0.938,0,1.654-0.302,2.15-0.905
		c0.494-0.606,0.744-1.469,0.744-2.597c0-1.121-0.25-1.981-0.744-2.58c-0.496-0.599-1.208-0.898-2.14-0.898
		c-0.928,0-1.641,0.301-2.144,0.906C210.958,25.855,210.707,26.713,210.707,27.823z"/>
	<path fill="#522E91" d="M225.448,31.73H224.9l-4.612-6.916h-0.043c0.043,0.822,0.063,1.445,0.063,1.865v5.051h-0.521v-7.789h0.543
		l4.607,6.904h0.032c-0.032-0.64-0.049-1.247-0.049-1.822v-5.082h0.527V31.73z"/>
	<path fill="#522E91" d="M61.856,51.307l-2.797-9.117h-0.071c0.101,1.854,0.152,3.09,0.152,3.711v5.406h-2.204V39.682h3.356
		l2.75,8.89h0.048l2.918-8.89h3.354v11.625h-2.297v-5.501c0-0.262,0.004-0.561,0.012-0.899c0.008-0.339,0.044-1.24,0.108-2.703
		h-0.072l-2.998,9.104H61.856z"/>
	<path fill="#522E91" d="M75.905,44.47l2.425-4.789h2.656l-3.856,7.101v4.524h-2.449v-4.443l-3.856-7.182h2.671L75.905,44.47z"/>
	<path fill="#522E91" d="M87.388,41.568c-0.929,0-1.647,0.349-2.156,1.045c-0.508,0.698-0.763,1.669-0.763,2.915
		c0,2.591,0.973,3.887,2.919,3.887c0.814,0,1.805-0.204,2.964-0.611v2.067c-0.954,0.396-2.019,0.597-3.196,0.597
		c-1.691,0-2.984-0.514-3.88-1.54c-0.896-1.026-1.344-2.497-1.344-4.415c0-1.21,0.22-2.267,0.661-3.177
		c0.44-0.909,1.071-1.607,1.896-2.091c0.823-0.486,1.79-0.727,2.899-0.727c1.128,0,2.262,0.271,3.402,0.818l-0.794,2.003
		c-0.437-0.208-0.874-0.388-1.313-0.541C88.242,41.644,87.81,41.568,87.388,41.568z"/>
	<path fill="#522E91" d="M103.373,45.479c0,1.925-0.478,3.403-1.431,4.438c-0.954,1.032-2.321,1.55-4.102,1.55
		c-1.782,0-3.149-0.518-4.103-1.55c-0.953-1.035-1.43-2.52-1.43-4.453c0-1.936,0.479-3.413,1.435-4.434
		c0.959-1.019,2.328-1.53,4.115-1.53c1.785,0,3.153,0.515,4.098,1.543C102.899,42.072,103.373,43.55,103.373,45.479z M94.891,45.479
		c0,1.299,0.246,2.278,0.74,2.935c0.492,0.658,1.229,0.986,2.209,0.986c1.967,0,2.95-1.307,2.95-3.921
		c0-2.617-0.979-3.926-2.934-3.926c-0.981,0-1.719,0.328-2.218,0.987C95.141,43.203,94.891,44.182,94.891,45.479z"/>
	<path fill="#522E91" d="M112.644,48.079c0,1.05-0.377,1.877-1.132,2.48c-0.756,0.604-1.806,0.908-3.152,0.908
		c-1.241,0-2.338-0.233-3.293-0.701v-2.288c0.785,0.349,1.448,0.595,1.994,0.738c0.542,0.143,1.039,0.215,1.49,0.215
		c0.541,0,0.955-0.104,1.245-0.31c0.288-0.207,0.433-0.516,0.433-0.922c0-0.229-0.064-0.433-0.19-0.609
		c-0.128-0.178-0.315-0.349-0.56-0.514c-0.248-0.164-0.751-0.426-1.508-0.786c-0.71-0.334-1.242-0.654-1.599-0.961
		c-0.354-0.309-0.639-0.666-0.85-1.073c-0.213-0.408-0.319-0.887-0.319-1.431c0-1.028,0.349-1.839,1.045-2.426
		c0.698-0.59,1.66-0.882,2.891-0.882c0.604,0,1.18,0.069,1.729,0.214c0.549,0.142,1.122,0.343,1.722,0.604l-0.795,1.917
		c-0.622-0.255-1.134-0.433-1.54-0.534c-0.404-0.1-0.802-0.15-1.195-0.15c-0.466,0-0.824,0.108-1.073,0.327
		c-0.25,0.215-0.374,0.5-0.374,0.849c0,0.219,0.05,0.408,0.152,0.569c0.1,0.16,0.26,0.317,0.479,0.468
		c0.219,0.152,0.741,0.425,1.562,0.816c1.087,0.52,1.831,1.039,2.234,1.562C112.443,46.681,112.644,47.322,112.644,48.079z"/>
	<path fill="#522E91" d="M121.445,51.307h-6.693V39.682h6.693v2.022h-4.23v2.553h3.938v2.019h-3.938v2.997h4.23V51.307z"/>
	<path fill="#522E91" d="M137.743,45.384c0,1.914-0.544,3.379-1.633,4.397c-1.091,1.017-2.664,1.525-4.721,1.525h-3.29V39.682h3.648
		c1.897,0,3.371,0.504,4.421,1.504C137.218,42.19,137.743,43.587,137.743,45.384z M135.184,45.449c0-2.496-1.103-3.745-3.309-3.745
		h-1.312v7.568h1.058C133.996,49.272,135.184,47.998,135.184,45.449z"/>
	<path fill="#522E91" d="M146.845,51.307h-6.692V39.682h6.692v2.022h-4.229v2.553h3.936v2.019h-3.936v2.997h4.229V51.307z"/>
	<path fill="#522E91" d="M156.132,48.079c0,1.05-0.377,1.877-1.132,2.48c-0.757,0.604-1.808,0.908-3.153,0.908
		c-1.24,0-2.336-0.233-3.29-0.701v-2.288c0.784,0.349,1.448,0.595,1.99,0.738c0.543,0.143,1.041,0.215,1.49,0.215
		c0.541,0,0.957-0.104,1.245-0.31c0.288-0.207,0.433-0.516,0.433-0.922c0-0.229-0.064-0.433-0.191-0.609
		c-0.127-0.178-0.313-0.349-0.561-0.514c-0.245-0.164-0.747-0.426-1.506-0.786c-0.711-0.334-1.243-0.654-1.597-0.961
		c-0.357-0.309-0.64-0.666-0.853-1.073c-0.212-0.408-0.317-0.887-0.317-1.431c0-1.028,0.349-1.839,1.047-2.426
		c0.695-0.59,1.66-0.882,2.891-0.882c0.604,0,1.18,0.069,1.727,0.214c0.549,0.142,1.124,0.343,1.722,0.604l-0.795,1.917
		c-0.619-0.255-1.132-0.433-1.537-0.534c-0.407-0.1-0.806-0.15-1.197-0.15c-0.467,0-0.825,0.108-1.073,0.327
		c-0.251,0.215-0.374,0.5-0.374,0.849c0,0.219,0.05,0.408,0.15,0.569c0.101,0.16,0.262,0.317,0.482,0.468
		c0.22,0.152,0.739,0.425,1.562,0.816c1.087,0.52,1.831,1.039,2.233,1.562C155.93,46.681,156.132,47.322,156.132,48.079z"/>
	<path fill="#522E91" d="M173.018,45.479c0,1.925-0.478,3.403-1.431,4.438c-0.954,1.032-2.321,1.55-4.103,1.55
		s-3.147-0.518-4.103-1.55c-0.955-1.035-1.431-2.52-1.431-4.453c0-1.936,0.479-3.413,1.435-4.434c0.959-1.019,2.328-1.53,4.115-1.53
		c1.785,0,3.153,0.515,4.099,1.543C172.544,42.072,173.018,43.55,173.018,45.479z M164.535,45.479c0,1.299,0.246,2.278,0.741,2.935
		c0.491,0.658,1.229,0.986,2.208,0.986c1.968,0,2.951-1.307,2.951-3.921c0-2.617-0.979-3.926-2.935-3.926
		c-0.981,0-1.719,0.328-2.217,0.987C164.786,43.203,164.535,44.182,164.535,45.479z"/>
	<path fill="#522E91" d="M185.74,51.307h-3.133l-5.058-8.793h-0.071c0.102,1.555,0.153,2.659,0.153,3.323v5.47h-2.203V39.682h3.107
		l5.049,8.709h0.056c-0.08-1.513-0.12-2.58-0.12-3.206v-5.503h2.22V51.307z"/>
	<path fill="#522E91" d="M193.078,44.78h4.611v6.027c-0.746,0.243-1.449,0.413-2.111,0.511c-0.66,0.1-1.334,0.149-2.023,0.149
		c-1.755,0-3.093-0.517-4.02-1.549c-0.924-1.03-1.387-2.51-1.387-4.439c0-1.876,0.537-3.339,1.609-4.388
		c1.075-1.05,2.562-1.573,4.465-1.573c1.194,0,2.343,0.236,3.451,0.714l-0.82,1.972c-0.848-0.423-1.729-0.636-2.646-0.636
		c-1.066,0-1.92,0.358-2.561,1.073c-0.643,0.716-0.963,1.679-0.963,2.887c0,1.262,0.259,2.225,0.776,2.89
		c0.517,0.664,1.267,0.997,2.253,0.997c0.514,0,1.037-0.053,1.567-0.159v-2.423h-2.203V44.78z"/>
	<path fill="#522E91" d="M200.456,51.307V39.682h2.464v9.59h4.715v2.035H200.456z"/>
	<path fill="#522E91" d="M216.348,51.307h-6.692V39.682h6.692v2.022h-4.229v2.553h3.938v2.019h-3.938v2.997h4.229V51.307z"/>
	<path fill="#522E91" d="M225.635,48.079c0,1.05-0.377,1.877-1.133,2.48c-0.757,0.604-1.807,0.908-3.152,0.908
		c-1.24,0-2.339-0.233-3.293-0.701v-2.288c0.785,0.349,1.449,0.595,1.993,0.738c0.543,0.143,1.039,0.215,1.49,0.215
		c0.541,0,0.955-0.104,1.246-0.31c0.286-0.207,0.432-0.516,0.432-0.922c0-0.229-0.063-0.433-0.191-0.609
		c-0.127-0.178-0.314-0.349-0.56-0.514c-0.248-0.164-0.751-0.426-1.507-0.786c-0.711-0.334-1.242-0.654-1.6-0.961
		c-0.354-0.309-0.638-0.666-0.85-1.073c-0.212-0.408-0.318-0.887-0.318-1.431c0-1.028,0.348-1.839,1.047-2.426
		c0.695-0.59,1.659-0.882,2.889-0.882c0.604,0,1.182,0.069,1.729,0.214c0.55,0.142,1.121,0.343,1.722,0.604l-0.795,1.917
		c-0.621-0.255-1.136-0.433-1.539-0.534c-0.405-0.1-0.805-0.15-1.196-0.15c-0.466,0-0.823,0.108-1.072,0.327
		c-0.25,0.215-0.376,0.5-0.376,0.849c0,0.219,0.053,0.408,0.152,0.569c0.101,0.16,0.261,0.317,0.48,0.468
		c0.221,0.152,0.741,0.425,1.562,0.816c1.087,0.52,1.832,1.039,2.234,1.562C225.434,46.681,225.635,47.322,225.635,48.079z"/>
	<path fill="#522E91" d="M136.472,64.364c0,1.05-0.377,1.877-1.132,2.48c-0.757,0.604-1.806,0.908-3.152,0.908
		c-1.24,0-2.339-0.233-3.293-0.701v-2.289c0.784,0.35,1.448,0.597,1.993,0.74c0.543,0.142,1.039,0.214,1.49,0.214
		c0.54,0,0.955-0.104,1.245-0.31c0.288-0.207,0.432-0.516,0.432-0.923c0-0.228-0.062-0.432-0.191-0.608
		c-0.126-0.178-0.313-0.349-0.559-0.514c-0.248-0.164-0.75-0.425-1.507-0.785c-0.711-0.335-1.242-0.655-1.6-0.963
		c-0.354-0.307-0.638-0.666-0.85-1.072c-0.212-0.409-0.318-0.887-0.318-1.431c0-1.028,0.348-1.839,1.046-2.426
		c0.696-0.59,1.659-0.882,2.89-0.882c0.604,0,1.182,0.069,1.729,0.215c0.55,0.142,1.121,0.343,1.722,0.604l-0.796,1.916
		c-0.62-0.254-1.134-0.433-1.538-0.534c-0.405-0.1-0.805-0.15-1.196-0.15c-0.467,0-0.823,0.108-1.072,0.327
		c-0.25,0.216-0.376,0.5-0.376,0.849c0,0.219,0.052,0.408,0.152,0.569c0.101,0.16,0.261,0.317,0.48,0.469s0.742,0.424,1.562,0.815
		c1.087,0.52,1.831,1.039,2.234,1.562C136.271,62.966,136.472,63.607,136.472,64.364z"/>
	<path fill="#522E91" d="M66.581,61.667c0,1.914-0.545,3.379-1.635,4.396c-1.089,1.018-2.662,1.527-4.718,1.527h-3.292V55.965h3.649
		c1.898,0,3.371,0.503,4.42,1.504C66.055,58.471,66.581,59.871,66.581,61.667z M64.02,61.73c0-2.496-1.103-3.744-3.308-3.744h-1.311
		v7.568h1.056C62.832,65.554,64.02,64.281,64.02,61.73z"/>
	<path fill="#522E91" d="M70.754,55.965l0.111,0.176c-0.265,1.044-0.731,2.313-1.399,3.809h-1.74
		c0.365-1.569,0.629-2.896,0.795-3.984H70.754z"/>
	<path fill="#522E91" d="M83.068,61.762c0,1.925-0.476,3.402-1.431,4.437c-0.954,1.032-2.321,1.551-4.103,1.551
		c-1.78,0-3.148-0.519-4.102-1.551c-0.954-1.034-1.431-2.519-1.431-4.453s0.479-3.412,1.435-4.431
		c0.957-1.021,2.327-1.532,4.115-1.532c1.785,0,3.152,0.516,4.098,1.543C82.596,58.354,83.068,59.833,83.068,61.762z M74.585,61.762
		c0,1.299,0.247,2.276,0.741,2.934c0.492,0.657,1.228,0.986,2.208,0.986c1.967,0,2.951-1.307,2.951-3.92
		c0-2.619-0.979-3.927-2.933-3.927c-0.982,0-1.721,0.328-2.219,0.987C74.835,59.485,74.585,60.464,74.585,61.762z"/>
	<path fill="#522E91" d="M87.943,63.128v4.462h-2.465V55.965h3.387c1.58,0,2.748,0.288,3.504,0.862
		c0.76,0.575,1.139,1.448,1.139,2.621c0,0.683-0.188,1.291-0.566,1.823c-0.375,0.534-0.907,0.952-1.596,1.253
		c1.75,2.614,2.887,4.301,3.418,5.065h-2.735l-2.775-4.462H87.943z M87.943,61.125h0.795c0.778,0,1.353-0.129,1.724-0.391
		c0.371-0.258,0.558-0.667,0.558-1.224c0-0.55-0.189-0.943-0.568-1.175c-0.379-0.233-0.967-0.351-1.761-0.351h-0.747V61.125z"/>
	<path fill="#522E91" d="M100.711,67.59h-2.464v-9.573H95.09v-2.052h8.777v2.052h-3.156V67.59z"/>
	<path fill="#522E91" d="M112.35,67.59h-6.693V55.965h6.693v2.021h-4.229v2.553h3.938v2.019h-3.938v2.997h4.229V67.59z"/>
	<path fill="#522E91" d="M114.774,67.59V55.965h2.463V67.59H114.774z"/>
	<path fill="#522E91" d="M120.166,67.59V55.965h2.464v9.589h4.716v2.036H120.166z"/>
</g>
<g>
	<rect x="56.88" y="35.472" fill="#00B4CA" width="168.568" height="0.593"/>
</g>
</svg>
