<?xml version="1.0" encoding="utf-8"?>
<!DOCTYPE svg PUBLIC "-//W3C//DTD SVG 1.1//EN" "http://www.w3.org/Graphics/SVG/1.1/DTD/svg11.dtd">
<svg version="1.1" id="Layer_1" xmlns="http://www.w3.org/2000/svg" xmlns:xlink="http://www.w3.org/1999/xlink" x="0px" y="0px"
	 width="198.176px" height="79px" viewBox="0 0 198.176 79" enable-background="new 0 0 198.176 79" xml:space="preserve">
<g>
	<g>
		<path fill="#2E2E71" d="M61.731,44.815h-2.478v-9.621h-3.172v-2.062h8.822v2.062h-3.173V44.815z"/>
	</g>
	<g>
		<path fill="#2E2E71" d="M77.306,38.958c0,1.935-0.479,3.42-1.438,4.46c-0.959,1.038-2.333,1.558-4.123,1.558
			s-3.165-0.52-4.124-1.558c-0.959-1.04-1.438-2.53-1.438-4.475s0.479-3.43,1.441-4.456c0.962-1.025,2.341-1.539,4.135-1.539
			c1.796,0,3.169,0.518,4.12,1.551C76.83,35.533,77.306,37.02,77.306,38.958z M68.779,38.958c0,1.307,0.248,2.289,0.743,2.95
			c0.496,0.66,1.236,0.99,2.223,0.99c1.975,0,2.964-1.312,2.964-3.94c0-2.63-0.982-3.946-2.949-3.946
			c-0.984,0-1.728,0.332-2.229,0.994C69.03,36.669,68.779,37.653,68.779,38.958z"/>
	</g>
	<g>
		<path fill="#2E2E71" d="M86.455,44.815h-6.729V33.133h6.729v2.03h-4.251v2.565h3.956v2.029h-3.956v3.013h4.251V44.815z"/>
	</g>
	<g>
		<path fill="#2E2E71" d="M99.257,44.815h-3.148l-5.083-8.838h-0.071c0.1,1.561,0.151,2.674,0.151,3.34v5.498h-2.214V33.133h3.125
			l5.074,8.75h0.056c-0.08-1.519-0.119-2.592-0.119-3.22v-5.53h2.229V44.815z"/>
	</g>
	<g>
		<path fill="#2E2E71" d="M109.349,44.815l-0.847-2.781h-4.259l-0.847,2.781h-2.669l4.123-11.73h3.028l4.141,11.73H109.349z
			 M107.91,39.958c-0.782-2.521-1.223-3.945-1.322-4.275c-0.1-0.331-0.17-0.592-0.212-0.784c-0.175,0.683-0.679,2.368-1.51,5.059
			H107.91z"/>
	</g>
	<g>
		<path fill="#2E2E71" d="M113.489,44.815V33.133h2.476v11.683H113.489z"/>
	</g>
	<g>
		<path fill="#2E2E71" d="M118.905,44.815V33.133h2.479v9.637h4.738v2.046H118.905z"/>
	</g>
	<g>
		<path fill="#2E2E71" d="M134.841,44.815h-2.438V33.133h6.696v2.03h-4.258v3.013h3.963v2.021h-3.963V44.815z"/>
	</g>
	<g>
		<path fill="#2E2E71" d="M150.894,33.133v7.56c0,0.862-0.192,1.619-0.579,2.27s-0.944,1.148-1.674,1.494
			c-0.73,0.347-1.593,0.52-2.589,0.52c-1.503,0-2.67-0.385-3.5-1.155c-0.831-0.77-1.247-1.823-1.247-3.16v-7.527h2.469v7.153
			c0,0.9,0.181,1.56,0.543,1.982c0.362,0.42,0.962,0.63,1.799,0.63c0.81,0,1.397-0.212,1.763-0.635
			c0.364-0.424,0.547-1.088,0.547-1.995v-7.135H150.894z"/>
	</g>
	<g>
		<path fill="#2E2E71" d="M164.119,44.815h-3.149l-5.082-8.838h-0.071c0.101,1.561,0.152,2.674,0.152,3.34v5.498h-2.214V33.133
			h3.124l5.074,8.75h0.057c-0.081-1.519-0.12-2.592-0.12-3.22v-5.53h2.229V44.815z"/>
	</g>
	<g>
		<path fill="#2E2E71" d="M171.495,38.254h4.634v6.058c-0.751,0.245-1.457,0.417-2.122,0.515c-0.663,0.099-1.34,0.148-2.033,0.148
			c-1.764,0-3.109-0.518-4.04-1.555c-0.929-1.035-1.394-2.523-1.394-4.463c0-1.886,0.539-3.356,1.617-4.411
			c1.081-1.055,2.575-1.581,4.488-1.581c1.198,0,2.354,0.238,3.468,0.718l-0.824,1.982c-0.852-0.425-1.738-0.64-2.66-0.64
			c-1.07,0-1.928,0.36-2.573,1.08c-0.644,0.719-0.967,1.687-0.967,2.901c0,1.268,0.26,2.235,0.779,2.904
			c0.521,0.668,1.274,1.002,2.266,1.002c0.517,0,1.042-0.053,1.574-0.159v-2.437h-2.213V38.254z"/>
	</g>
	<g>
		<path fill="#2E2E71" d="M188.419,33.133v7.56c0,0.862-0.192,1.619-0.579,2.27s-0.944,1.148-1.674,1.494
			c-0.73,0.347-1.594,0.52-2.589,0.52c-1.503,0-2.669-0.385-3.501-1.155c-0.83-0.77-1.246-1.823-1.246-3.16v-7.527h2.469v7.153
			c0,0.9,0.182,1.56,0.544,1.982c0.361,0.42,0.962,0.63,1.798,0.63c0.81,0,1.396-0.212,1.763-0.635
			c0.364-0.424,0.547-1.088,0.547-1.995v-7.135H188.419z"/>
	</g>
	<g>
		<path fill="#2E2E71" d="M198.176,41.571c0,1.055-0.38,1.886-1.139,2.493s-1.814,0.911-3.168,0.911
			c-1.246,0-2.35-0.234-3.309-0.703v-2.302c0.789,0.352,1.456,0.599,2.002,0.744c0.546,0.143,1.045,0.215,1.498,0.215
			c0.544,0,0.96-0.104,1.251-0.312c0.29-0.208,0.435-0.517,0.435-0.927c0-0.229-0.063-0.434-0.191-0.611
			c-0.128-0.18-0.315-0.351-0.562-0.516c-0.248-0.165-0.752-0.429-1.516-0.791c-0.714-0.337-1.248-0.659-1.605-0.968
			c-0.356-0.309-0.643-0.667-0.855-1.078c-0.213-0.41-0.319-0.89-0.319-1.438c0-1.033,0.351-1.846,1.052-2.438
			c0.7-0.591,1.668-0.886,2.904-0.886c0.607,0,1.187,0.071,1.737,0.215c0.553,0.144,1.128,0.346,1.73,0.607l-0.799,1.926
			c-0.623-0.256-1.139-0.435-1.546-0.536c-0.408-0.102-0.809-0.153-1.203-0.153c-0.469,0-0.829,0.11-1.078,0.328
			c-0.252,0.219-0.376,0.503-0.376,0.855c0,0.219,0.05,0.409,0.152,0.572c0.1,0.162,0.262,0.32,0.482,0.471
			c0.221,0.152,0.745,0.425,1.57,0.819c1.092,0.522,1.84,1.045,2.245,1.57C197.974,40.166,198.176,40.81,198.176,41.571z"/>
	</g>
	<g>
		<path fill="#2E2E71" d="M56.082,61.219v-7.826h0.546v7.826H56.082z"/>
	</g>
	<g>
		<path fill="#2E2E71" d="M65.522,61.219h-0.553l-4.635-6.948h-0.043c0.043,0.828,0.064,1.453,0.064,1.874v5.074h-0.524v-7.826
			h0.546l4.631,6.938h0.032c-0.032-0.642-0.049-1.252-0.049-1.83v-5.107h0.531V61.219z"/>
	</g>
	<g>
		<path fill="#2E2E71" d="M69.27,61.219h-0.546v-7.826h4.288v0.504H69.27v3.318h3.533v0.509H69.27V61.219z"/>
	</g>
	<g>
		<path fill="#2E2E71" d="M81.792,57.295c0,1.242-0.311,2.224-0.931,2.948c-0.621,0.721-1.478,1.083-2.57,1.083
			c-1.087,0-1.943-0.362-2.564-1.083c-0.621-0.725-0.931-1.709-0.931-2.958c0-1.246,0.313-2.227,0.938-2.941
			c0.627-0.717,1.482-1.073,2.567-1.073c1.092,0,1.947,0.359,2.564,1.077C81.484,55.067,81.792,56.05,81.792,57.295z M75.39,57.295
			c0,1.121,0.25,1.987,0.75,2.599c0.499,0.612,1.217,0.919,2.152,0.919c0.942,0,1.662-0.303,2.161-0.91
			c0.497-0.607,0.746-1.476,0.746-2.607c0-1.127-0.25-1.992-0.746-2.594c-0.499-0.601-1.214-0.901-2.15-0.901
			c-0.931,0-1.649,0.303-2.154,0.91C75.643,55.316,75.39,56.179,75.39,57.295z"/>
	</g>
	<g>
		<path fill="#2E2E71" d="M85.124,57.809v3.41h-0.546v-7.826h1.863c0.97,0,1.688,0.181,2.152,0.538
			c0.464,0.359,0.696,0.898,0.696,1.62c0,0.524-0.139,0.967-0.416,1.327s-0.697,0.619-1.261,0.776l2.126,3.564h-0.653l-2.019-3.41
			H85.124z M85.124,57.338h1.493c0.661,0,1.173-0.146,1.537-0.442c0.364-0.293,0.546-0.728,0.546-1.303
			c0-0.596-0.179-1.029-0.536-1.301c-0.357-0.271-0.939-0.406-1.745-0.406h-1.295V57.338z"/>
	</g>
	<g>
		<path fill="#2E2E71" d="M95.521,61.219l-2.917-7.227h-0.043c0.028,0.442,0.043,0.896,0.043,1.359v5.867h-0.525v-7.826h0.846
			l2.773,6.884h0.032l2.773-6.884h0.824v7.826h-0.551v-5.931c0-0.414,0.021-0.843,0.064-1.284h-0.042l-2.928,7.215H95.521z"/>
	</g>
	<g>
		<path fill="#2E2E71" d="M106.292,58.457h-3.18l-1.092,2.762h-0.604l3.147-7.857h0.348l3.083,7.857h-0.614L106.292,58.457z
			 M103.312,57.965h2.799l-1.064-2.821c-0.09-0.222-0.197-0.528-0.321-0.921c-0.097,0.343-0.202,0.653-0.316,0.932L103.312,57.965z"
			/>
	</g>
	<g>
		<path fill="#2E2E71" d="M112.129,61.219h-0.552v-7.312h-2.542v-0.515h5.637v0.515h-2.543V61.219z"/>
	</g>
	<g>
		<path fill="#2E2E71" d="M116.82,61.219v-7.826h0.546v7.826H116.82z"/>
	</g>
	<g>
		<path fill="#2E2E71" d="M127.146,57.295c0,1.242-0.31,2.224-0.931,2.948c-0.621,0.721-1.478,1.083-2.569,1.083
			c-1.088,0-1.942-0.362-2.563-1.083c-0.621-0.725-0.932-1.709-0.932-2.958c0-1.246,0.312-2.227,0.939-2.941
			c0.626-0.717,1.481-1.073,2.565-1.073c1.093,0,1.948,0.359,2.565,1.077C126.839,55.067,127.146,56.05,127.146,57.295z
			 M120.745,57.295c0,1.121,0.25,1.987,0.749,2.599c0.5,0.612,1.218,0.919,2.152,0.919c0.942,0,1.662-0.303,2.16-0.91
			s0.747-1.476,0.747-2.607c0-1.127-0.249-1.992-0.747-2.594c-0.498-0.601-1.214-0.901-2.15-0.901c-0.931,0-1.648,0.303-2.153,0.91
			C120.998,55.316,120.745,56.179,120.745,57.295z"/>
	</g>
	<g>
		<path fill="#2E2E71" d="M135.623,61.219h-0.552l-4.636-6.948h-0.042c0.042,0.828,0.063,1.453,0.063,1.874v5.074h-0.524v-7.826
			h0.546l4.631,6.938h0.031c-0.031-0.642-0.047-1.252-0.047-1.83v-5.107h0.529V61.219z"/>
	</g>
	<g>
		<path fill="#2E2E71" d="M147.371,55.642c0,0.757-0.257,1.336-0.771,1.74c-0.514,0.403-1.241,0.604-2.185,0.604h-1.209v3.233
			h-0.546v-7.826h1.916C146.439,53.393,147.371,54.143,147.371,55.642z M143.206,57.515h1.076c0.881,0,1.519-0.146,1.911-0.437
			c0.392-0.29,0.589-0.762,0.589-1.415c0-0.604-0.187-1.051-0.557-1.341c-0.371-0.291-0.947-0.437-1.724-0.437h-1.296V57.515z"/>
	</g>
	<g>
		<path fill="#2E2E71" d="M150.606,57.809v3.41h-0.546v-7.826h1.862c0.97,0,1.688,0.181,2.151,0.538
			c0.465,0.359,0.696,0.898,0.696,1.62c0,0.524-0.139,0.967-0.415,1.327c-0.277,0.36-0.696,0.619-1.261,0.776l2.125,3.564h-0.652
			l-2.019-3.41H150.606z M150.606,57.338h1.493c0.66,0,1.172-0.146,1.536-0.442c0.364-0.293,0.546-0.728,0.546-1.303
			c0-0.596-0.178-1.029-0.535-1.301c-0.357-0.271-0.938-0.406-1.745-0.406h-1.295V57.338z"/>
	</g>
	<g>
		<path fill="#2E2E71" d="M164.14,57.295c0,1.242-0.31,2.224-0.931,2.948c-0.621,0.721-1.478,1.083-2.569,1.083
			c-1.09,0-1.944-0.362-2.565-1.083c-0.621-0.725-0.932-1.709-0.932-2.958c0-1.246,0.313-2.227,0.94-2.941
			c0.627-0.717,1.481-1.073,2.566-1.073c1.093,0,1.947,0.359,2.563,1.077C163.831,55.067,164.14,56.05,164.14,57.295z
			 M157.738,57.295c0,1.121,0.249,1.987,0.75,2.599c0.498,0.612,1.216,0.919,2.151,0.919c0.942,0,1.661-0.303,2.159-0.91
			s0.746-1.476,0.746-2.607c0-1.127-0.248-1.992-0.746-2.594c-0.498-0.601-1.214-0.901-2.149-0.901c-0.931,0-1.65,0.303-2.154,0.91
			C157.991,55.316,157.738,56.179,157.738,57.295z"/>
	</g>
	<g>
		<path fill="#2E2E71" d="M170.003,57.274h2.886v3.57c-0.758,0.321-1.607,0.481-2.554,0.481c-1.235,0-2.182-0.349-2.839-1.047
			c-0.66-0.696-0.988-1.685-0.988-2.963c0-0.795,0.163-1.502,0.488-2.116c0.328-0.617,0.795-1.092,1.402-1.427
			c0.61-0.335,1.309-0.503,2.097-0.503c0.853,0,1.618,0.156,2.297,0.471l-0.22,0.492c-0.679-0.313-1.381-0.471-2.108-0.471
			c-1.032,0-1.851,0.317-2.454,0.955c-0.606,0.637-0.908,1.496-0.908,2.577c0,1.178,0.287,2.063,0.861,2.659
			c0.575,0.593,1.419,0.891,2.532,0.891c0.722,0,1.334-0.103,1.836-0.306v-2.751h-2.328V57.274z"/>
	</g>
	<g>
		<path fill="#2E2E71" d="M176.386,57.809v3.41h-0.546v-7.826h1.863c0.97,0,1.687,0.181,2.151,0.538
			c0.464,0.359,0.695,0.898,0.695,1.62c0,0.524-0.139,0.967-0.415,1.327s-0.696,0.619-1.261,0.776L181,61.219h-0.653l-2.019-3.41
			H176.386z M176.386,57.338h1.492c0.661,0,1.174-0.146,1.537-0.442c0.364-0.293,0.547-0.728,0.547-1.303
			c0-0.596-0.18-1.029-0.535-1.301c-0.357-0.271-0.939-0.406-1.746-0.406h-1.295V57.338z"/>
	</g>
	<g>
		<path fill="#2E2E71" d="M187.108,58.457h-3.18l-1.092,2.762h-0.604l3.147-7.857h0.348l3.084,7.857h-0.616L187.108,58.457z
			 M184.128,57.965h2.799l-1.065-2.821c-0.089-0.222-0.196-0.528-0.321-0.921c-0.097,0.343-0.202,0.653-0.315,0.932L184.128,57.965z
			"/>
	</g>
	<g>
		<path fill="#2E2E71" d="M194.348,61.219l-2.917-7.227h-0.043c0.029,0.442,0.043,0.896,0.043,1.359v5.867h-0.524v-7.826h0.846
			l2.773,6.884h0.031l2.772-6.884h0.825v7.826h-0.552v-5.931c0-0.414,0.021-0.843,0.064-1.284h-0.043l-2.929,7.215H194.348z"/>
	</g>
	<g>
		<g>
			<path fill="#2E2E71" d="M11.462,7.406c2.506,3.869,2.372,8.181-0.294,9.638c-2.672,1.457-6.866-0.503-9.374-4.374
				c-2.506-3.864-2.37-8.181,0.301-9.634C4.762,1.582,8.956,3.541,11.462,7.406z"/>
		</g>
		<g>
			<path fill="#2E2E71" d="M19.822,4.058c1.227,2.714,0.675,5.443-1.232,6.102c-1.911,0.655-4.456-1.009-5.683-3.724
				c-1.227-2.717-0.675-5.451,1.236-6.107C16.052-0.328,18.594,1.338,19.822,4.058z"/>
		</g>
		<g>
			<path fill="#2E2E71" d="M27.966,4.232c0.465,2.481-0.614,4.611-2.406,4.758s-3.616-1.743-4.079-4.226
				c-0.462-2.481,0.616-4.611,2.406-4.757C25.68-0.139,27.503,1.752,27.966,4.232z"/>
		</g>
		<g>
			<path fill="#2E2E71" d="M35.181,6.804c-0.16,2.236-1.632,3.836-3.286,3.569c-1.656-0.263-2.864-2.293-2.702-4.527
				c0.162-2.24,1.632-3.833,3.286-3.57C34.135,2.541,35.341,4.568,35.181,6.804z"/>
		</g>
		<g>
			<path fill="#2E2E71" d="M41.267,10.777c-0.582,1.876-2.201,2.966-3.619,2.439c-1.419-0.525-2.094-2.474-1.515-4.35
				c0.58-1.875,2.201-2.966,3.621-2.441C41.169,6.954,41.849,8.901,41.267,10.777z"/>
		</g>
	</g>
	<g>
		<path fill="#4690CD" d="M25.85,12.673c-5.375-0.039-21.544,6.345-7.345,22.145c9.071,10.092,3.177,22.721-5.649,29.373
			c-6.037,4.551-5.534,17.747,10.188,14.217c15.722-3.535,20.348-23.249,22.73-34.543c1.849-8.783,2.277-19.639-4.144-25.952
			C38.371,14.708,32.953,12.431,25.85,12.673z"/>
	</g>
	<g>
		<rect x="55.983" y="48.82" fill="#4690CD" width="142.171" height="0.546"/>
	</g>
</g>
</svg>
