<?xml version="1.0" encoding="utf-8"?>
<!DOCTYPE svg PUBLIC "-//W3C//DTD SVG 1.1//EN" "http://www.w3.org/Graphics/SVG/1.1/DTD/svg11.dtd">
<svg version="1.1" id="Layer_1" xmlns="http://www.w3.org/2000/svg" xmlns:xlink="http://www.w3.org/1999/xlink" x="0px" y="0px"
	 width="225.634px" height="79px" viewBox="120.112 68.668 225.634 79" enable-background="new 120.112 68.668 225.634 79"
	 xml:space="preserve">
<g>
	<path fill="#2E2E71" d="M131.575,76.075c2.505,3.869,2.372,8.181-0.294,9.638c-2.672,1.456-6.866-0.503-9.374-4.374
		c-2.506-3.865-2.37-8.181,0.301-9.634C124.875,70.25,129.068,72.209,131.575,76.075z"/>
	<path fill="#2E2E71" d="M139.934,72.726c1.228,2.714,0.675,5.443-1.231,6.102c-1.911,0.655-4.456-1.009-5.683-3.725
		c-1.228-2.717-0.675-5.451,1.236-6.107C136.164,68.341,138.707,70.007,139.934,72.726z"/>
	<path fill="#2E2E71" d="M148.078,72.901c0.465,2.481-0.614,4.611-2.405,4.758c-1.792,0.147-3.617-1.743-4.078-4.225
		c-0.463-2.481,0.615-4.611,2.406-4.757C145.792,68.529,147.616,70.42,148.078,72.901z"/>
	<path fill="#2E2E71" d="M155.294,75.473c-0.16,2.235-1.633,3.835-3.286,3.569c-1.656-0.263-2.864-2.293-2.702-4.527
		c0.162-2.24,1.633-3.833,3.286-3.571C154.247,71.209,155.453,73.237,155.294,75.473z"/>
	<path fill="#2E2E71" d="M161.38,79.446c-0.582,1.876-2.202,2.965-3.619,2.439c-1.419-0.526-2.094-2.475-1.515-4.351
		c0.58-1.875,2.202-2.966,3.621-2.441C161.281,75.622,161.961,77.57,161.38,79.446z"/>
</g>
<path fill="#4690CD" d="M145.962,81.341c-4.402-0.628-21.544,6.345-7.346,22.145c9.072,10.092,3.177,22.72-5.648,29.374
	c-6.037,4.55-5.534,17.746,10.188,14.216c15.721-3.535,20.348-23.249,22.73-34.542C168.674,99.292,168.863,81.855,145.962,81.341z"
	/>
<g>
	<path fill="#2E2E71" d="M181.657,94.847c0,0.752-0.256,1.329-0.767,1.73c-0.512,0.402-1.236,0.604-2.174,0.604h-1.204v3.218h-0.544
		V92.61h1.908C180.731,92.61,181.657,93.355,181.657,94.847z M177.513,96.711h1.071c0.877,0,1.511-0.146,1.901-0.435
		c0.391-0.29,0.587-0.759,0.587-1.409c0-0.601-0.185-1.046-0.555-1.333c-0.369-0.29-0.94-0.435-1.715-0.435h-1.289L177.513,96.711
		L177.513,96.711z"/>
	<path fill="#2E2E71" d="M184.811,97.004v3.395h-0.543V92.61h1.854c0.966,0,1.68,0.179,2.141,0.535
		c0.461,0.358,0.693,0.895,0.693,1.611c0,0.522-0.138,0.964-0.413,1.321c-0.276,0.36-0.694,0.616-1.255,0.773l2.115,3.548h-0.65
		l-2.008-3.395H184.811z M184.811,96.535h1.487c0.657,0,1.166-0.145,1.529-0.438c0.362-0.292,0.543-0.725,0.543-1.298
		c0-0.592-0.178-1.024-0.533-1.293c-0.355-0.271-0.935-0.405-1.736-0.405h-1.29L184.811,96.535L184.811,96.535z"/>
	<path fill="#2E2E71" d="M198.215,96.491c0,1.236-0.309,2.214-0.927,2.936c-0.618,0.717-1.47,1.077-2.558,1.077
		c-1.083,0-1.934-0.359-2.552-1.077c-0.618-0.722-0.927-1.702-0.927-2.945c0-1.239,0.312-2.214,0.935-2.926
		c0.624-0.714,1.476-1.069,2.555-1.069c1.086,0,1.937,0.358,2.552,1.074C197.908,94.275,198.215,95.253,198.215,96.491z
		 M191.843,96.491c0,1.117,0.248,1.978,0.746,2.588c0.498,0.609,1.211,0.914,2.142,0.914c0.938,0,1.654-0.303,2.15-0.905
		c0.494-0.606,0.743-1.469,0.743-2.597c0-1.12-0.249-1.981-0.743-2.58c-0.497-0.599-1.209-0.897-2.14-0.897
		c-0.927,0-1.642,0.3-2.144,0.906C192.095,94.523,191.843,95.382,191.843,96.491z"/>
	<path fill="#2E2E71" d="M203.985,96.471h2.871v3.555c-0.753,0.319-1.6,0.479-2.541,0.479c-1.229,0-2.171-0.347-2.825-1.042
		c-0.657-0.695-0.984-1.677-0.984-2.95c0-0.79,0.164-1.493,0.487-2.105c0.326-0.613,0.791-1.086,1.396-1.421
		c0.606-0.332,1.301-0.5,2.086-0.5c0.849,0,1.611,0.157,2.285,0.468l-0.218,0.491c-0.674-0.311-1.375-0.469-2.099-0.469
		c-1.026,0-1.841,0.318-2.442,0.952c-0.603,0.633-0.903,1.488-0.903,2.563c0,1.172,0.285,2.055,0.857,2.647
		c0.572,0.59,1.412,0.887,2.52,0.887c0.717,0,1.326-0.102,1.827-0.306v-2.737h-2.317L203.985,96.471L203.985,96.471z"/>
	<path fill="#2E2E71" d="M210.271,97.004v3.395h-0.543V92.61h1.854c0.967,0,1.681,0.179,2.141,0.535
		c0.462,0.358,0.693,0.895,0.693,1.611c0,0.522-0.136,0.964-0.412,1.321c-0.277,0.36-0.694,0.616-1.254,0.773l2.114,3.548h-0.649
		l-2.007-3.395H210.271z M210.271,96.535h1.487c0.657,0,1.166-0.145,1.528-0.438c0.362-0.292,0.543-0.725,0.543-1.298
		c0-0.592-0.177-1.024-0.533-1.293c-0.354-0.271-0.933-0.405-1.736-0.405h-1.29L210.271,96.535L210.271,96.535z"/>
	<path fill="#2E2E71" d="M220.879,97.649h-3.165l-1.086,2.75h-0.603l3.133-7.821h0.347l3.069,7.821h-0.614L220.879,97.649z
		 M217.911,97.159h2.787l-1.061-2.809c-0.088-0.218-0.195-0.524-0.32-0.916c-0.096,0.341-0.2,0.649-0.313,0.927L217.911,97.159z"/>
	<path fill="#2E2E71" d="M228.018,100.398l-2.905-7.192h-0.042c0.03,0.439,0.042,0.891,0.042,1.353v5.839h-0.522V92.61h0.842
		l2.759,6.851h0.032l2.76-6.851h0.82v7.789h-0.548v-5.903c0-0.414,0.021-0.839,0.064-1.278h-0.042l-2.915,7.182L228.018,100.398
		L228.018,100.398z"/>
	<path fill="#2E2E71" d="M238.346,100.398l-2.902-7.192h-0.042c0.027,0.439,0.042,0.891,0.042,1.353v5.839h-0.521V92.61h0.841
		l2.761,6.851h0.031l2.76-6.851h0.82v7.789h-0.55v-5.903c0-0.414,0.021-0.839,0.064-1.278h-0.043l-2.913,7.182L238.346,100.398
		L238.346,100.398z"/>
	<path fill="#2E2E71" d="M249.507,100.398h-4.257V92.61h4.257v0.5h-3.714v2.946h3.506v0.5h-3.506v3.342h3.714V100.398z"/>
	<path fill="#2E2E71" d="M261.852,96.428c0,1.309-0.343,2.295-1.028,2.966c-0.685,0.67-1.692,1.004-3.02,1.004h-1.866V92.61h2.104
		c1.244,0,2.188,0.324,2.836,0.973C261.529,94.233,261.852,95.182,261.852,96.428z M261.259,96.449c0-1.114-0.282-1.954-0.85-2.517
		c-0.565-0.563-1.397-0.844-2.495-0.844h-1.432v6.83h1.288C260.096,99.919,261.259,98.761,261.259,96.449z"/>
	<path fill="#2E2E71" d="M264.818,92.61l0.063,0.106c-0.266,0.94-0.574,1.794-0.928,2.562h-0.344c0.102-0.34,0.21-0.77,0.323-1.285
		c0.115-0.518,0.2-0.979,0.263-1.383H264.818z"/>
	<path fill="#2E2E71" d="M267.056,100.398V92.61h0.542v7.789H267.056z"/>
	<path fill="#2E2E71" d="M276.384,100.398h-0.549l-4.613-6.916h-0.043c0.043,0.823,0.063,1.445,0.063,1.865v5.051h-0.521V92.61
		h0.543l4.609,6.903h0.033c-0.033-0.639-0.05-1.246-0.05-1.822v-5.082h0.527V100.398z"/>
	<path fill="#2E2E71" d="M280.049,100.398h-0.542V92.61h4.265v0.5h-3.723v3.303h3.517v0.505h-3.517V100.398L280.049,100.398z"/>
	<path fill="#2E2E71" d="M292.444,96.491c0,1.236-0.309,2.214-0.926,2.936c-0.618,0.717-1.471,1.077-2.559,1.077
		c-1.082,0-1.933-0.359-2.55-1.077c-0.618-0.722-0.927-1.702-0.927-2.945c0-1.239,0.311-2.214,0.934-2.926
		c0.623-0.714,1.475-1.069,2.554-1.069c1.087,0,1.937,0.358,2.554,1.074C292.138,94.275,292.444,95.253,292.444,96.491z
		 M286.074,96.491c0,1.117,0.248,1.978,0.746,2.588c0.498,0.609,1.213,0.914,2.141,0.914c0.938,0,1.654-0.303,2.15-0.905
		c0.494-0.606,0.744-1.469,0.744-2.597c0-1.12-0.25-1.981-0.744-2.58c-0.496-0.599-1.208-0.897-2.14-0.897
		c-0.927,0-1.641,0.3-2.143,0.906C286.325,94.523,286.074,95.382,286.074,96.491z"/>
	<path fill="#2E2E71" d="M295.697,97.004v3.395h-0.544V92.61h1.854c0.967,0,1.68,0.179,2.142,0.535
		c0.46,0.358,0.692,0.895,0.692,1.611c0,0.522-0.138,0.964-0.414,1.321c-0.274,0.36-0.691,0.616-1.255,0.773l2.115,3.548h-0.649
		l-2.009-3.395H295.697z M295.697,96.535h1.485c0.658,0,1.168-0.145,1.529-0.438c0.363-0.292,0.544-0.725,0.544-1.298
		c0-0.592-0.179-1.024-0.531-1.293c-0.356-0.271-0.936-0.405-1.738-0.405h-1.288L295.697,96.535L295.697,96.535z"/>
	<path fill="#2E2E71" d="M305.979,100.398l-2.904-7.192h-0.043c0.03,0.439,0.043,0.891,0.043,1.353v5.839h-0.522V92.61h0.842
		l2.76,6.851h0.032l2.759-6.851h0.821v7.789h-0.549v-5.903c0-0.414,0.021-0.839,0.064-1.278h-0.043l-2.915,7.182L305.979,100.398
		L305.979,100.398z"/>
	<path fill="#2E2E71" d="M316.633,97.649h-3.165l-1.086,2.75h-0.604l3.133-7.821h0.347l3.069,7.821h-0.614L316.633,97.649z
		 M313.665,97.159h2.787l-1.062-2.809c-0.088-0.218-0.194-0.524-0.32-0.916c-0.095,0.341-0.2,0.649-0.312,0.927L313.665,97.159z"/>
	<path fill="#2E2E71" d="M322.376,100.398h-0.549v-7.277h-2.53V92.61h5.608v0.511h-2.529V100.398L322.376,100.398z"/>
	<path fill="#2E2E71" d="M326.979,100.398V92.61h0.543v7.789H326.979z"/>
	<path fill="#2E2E71" d="M337.189,96.491c0,1.236-0.309,2.214-0.927,2.936c-0.618,0.717-1.47,1.077-2.557,1.077
		c-1.083,0-1.933-0.359-2.551-1.077c-0.618-0.722-0.928-1.702-0.928-2.945c0-1.239,0.312-2.214,0.934-2.926
		c0.624-0.714,1.477-1.069,2.555-1.069c1.087,0,1.937,0.358,2.553,1.074C336.883,94.275,337.189,95.253,337.189,96.491z
		 M330.818,96.491c0,1.117,0.249,1.978,0.746,2.588c0.498,0.609,1.212,0.914,2.142,0.914c0.938,0,1.653-0.303,2.149-0.905
		c0.495-0.606,0.744-1.469,0.744-2.597c0-1.12-0.249-1.981-0.744-2.58c-0.496-0.599-1.208-0.897-2.139-0.897
		c-0.928,0-1.642,0.3-2.144,0.906C331.07,94.523,330.818,95.382,330.818,96.491z"/>
	<path fill="#2E2E71" d="M345.56,100.398h-0.548l-4.612-6.916h-0.043c0.043,0.823,0.062,1.445,0.062,1.865v5.051h-0.521V92.61h0.544
		l4.607,6.903h0.031c-0.031-0.639-0.048-1.246-0.048-1.822v-5.082h0.526L345.56,100.398L345.56,100.398z"/>
	<path fill="#2E2E71" d="M181.969,119.975l-2.798-9.117H179.1c0.101,1.854,0.151,3.091,0.151,3.712v5.405h-2.203V108.35h3.355
		l2.751,8.89h0.048l2.918-8.89h3.354v11.625h-2.296v-5.5c0-0.262,0.004-0.561,0.011-0.9c0.008-0.339,0.044-1.239,0.108-2.702h-0.072
		l-2.998,9.103H181.969L181.969,119.975z"/>
	<path fill="#2E2E71" d="M196.017,113.139l2.424-4.788h2.656l-3.856,7.101v4.523h-2.448v-4.442l-3.856-7.182h2.671L196.017,113.139z
		"/>
	<path fill="#2E2E71" d="M207.499,110.236c-0.928,0-1.646,0.349-2.156,1.045c-0.508,0.699-0.763,1.669-0.763,2.916
		c0,2.59,0.972,3.886,2.919,3.886c0.815,0,1.805-0.204,2.965-0.61v2.066c-0.955,0.396-2.019,0.597-3.196,0.597
		c-1.69,0-2.984-0.514-3.88-1.54c-0.895-1.025-1.344-2.496-1.344-4.415c0-1.209,0.221-2.267,0.661-3.177
		c0.44-0.909,1.072-1.606,1.896-2.091c0.823-0.486,1.79-0.727,2.899-0.727c1.127,0,2.262,0.271,3.402,0.817l-0.794,2.004
		c-0.437-0.209-0.874-0.389-1.312-0.541C208.354,110.312,207.921,110.236,207.499,110.236z"/>
	<path fill="#2E2E71" d="M223.484,114.148c0,1.925-0.477,3.402-1.43,4.437c-0.955,1.033-2.322,1.551-4.103,1.551
		c-1.782,0-3.149-0.518-4.103-1.551c-0.954-1.034-1.431-2.518-1.431-4.451c0-1.937,0.479-3.413,1.435-4.434
		c0.958-1.02,2.328-1.53,4.115-1.53c1.786,0,3.153,0.515,4.099,1.543C223.012,110.74,223.484,112.219,223.484,114.148z
		 M215.002,114.148c0,1.299,0.246,2.277,0.74,2.934c0.491,0.658,1.229,0.987,2.209,0.987c1.967,0,2.951-1.308,2.951-3.921
		c0-2.618-0.98-3.927-2.935-3.927c-0.981,0-1.719,0.329-2.217,0.987C215.252,111.871,215.002,112.851,215.002,114.148z"/>
	<path fill="#2E2E71" d="M232.756,116.747c0,1.05-0.377,1.877-1.132,2.48c-0.757,0.604-1.807,0.908-3.153,0.908
		c-1.241,0-2.338-0.234-3.293-0.701v-2.289c0.785,0.35,1.448,0.596,1.994,0.739c0.542,0.143,1.039,0.214,1.49,0.214
		c0.542,0,0.954-0.103,1.245-0.309c0.288-0.208,0.433-0.516,0.433-0.923c0-0.229-0.064-0.433-0.191-0.608
		c-0.127-0.179-0.314-0.349-0.56-0.514c-0.248-0.164-0.751-0.425-1.508-0.786c-0.71-0.335-1.241-0.655-1.598-0.962
		c-0.354-0.308-0.639-0.665-0.85-1.073c-0.213-0.409-0.318-0.886-0.318-1.431c0-1.027,0.348-1.839,1.045-2.426
		c0.698-0.589,1.66-0.881,2.89-0.881c0.604,0,1.181,0.069,1.73,0.214c0.548,0.142,1.121,0.343,1.722,0.604l-0.795,1.916
		c-0.621-0.254-1.134-0.433-1.54-0.534c-0.404-0.1-0.802-0.15-1.195-0.15c-0.466,0-0.824,0.108-1.072,0.327
		c-0.25,0.216-0.375,0.5-0.375,0.849c0,0.219,0.051,0.408,0.153,0.57c0.1,0.16,0.26,0.316,0.479,0.468
		c0.219,0.151,0.741,0.425,1.562,0.816c1.088,0.52,1.831,1.039,2.234,1.562C232.555,115.351,232.756,115.99,232.756,116.747z"/>
	<path fill="#2E2E71" d="M241.557,119.975h-6.693v-11.624h6.693v2.021h-4.229v2.553h3.938v2.019h-3.938v2.998h4.229V119.975z"/>
	<path fill="#2E2E71" d="M257.855,114.053c0,1.913-0.544,3.38-1.634,4.397c-1.091,1.018-2.664,1.526-4.72,1.526h-3.291v-11.625
		h3.649c1.897,0,3.371,0.504,4.42,1.503C257.33,110.858,257.855,112.257,257.855,114.053z M255.295,114.117
		c0-2.496-1.103-3.745-3.308-3.745h-1.312v7.569h1.057C254.107,117.941,255.295,116.666,255.295,114.117z"/>
	<path fill="#2E2E71" d="M266.957,119.975h-6.692v-11.624h6.692v2.021h-4.229v2.553h3.937v2.019h-3.937v2.998h4.229V119.975z"/>
	<path fill="#2E2E71" d="M276.243,116.747c0,1.05-0.377,1.877-1.132,2.48c-0.755,0.604-1.807,0.908-3.153,0.908
		c-1.24,0-2.336-0.234-3.289-0.701v-2.289c0.783,0.35,1.447,0.596,1.99,0.739c0.543,0.143,1.041,0.214,1.489,0.214
		c0.542,0,0.957-0.103,1.245-0.309c0.288-0.208,0.433-0.516,0.433-0.923c0-0.229-0.063-0.433-0.191-0.608
		c-0.125-0.179-0.312-0.349-0.56-0.514c-0.245-0.164-0.747-0.425-1.506-0.786c-0.711-0.335-1.243-0.655-1.598-0.962
		c-0.356-0.308-0.64-0.665-0.853-1.073c-0.212-0.409-0.317-0.886-0.317-1.431c0-1.027,0.35-1.839,1.047-2.426
		c0.695-0.589,1.661-0.881,2.891-0.881c0.604,0,1.181,0.069,1.727,0.214c0.549,0.142,1.125,0.343,1.722,0.604l-0.794,1.916
		c-0.619-0.254-1.132-0.433-1.537-0.534c-0.407-0.1-0.806-0.15-1.197-0.15c-0.468,0-0.825,0.108-1.073,0.327
		c-0.251,0.216-0.374,0.5-0.374,0.849c0,0.219,0.05,0.408,0.151,0.57c0.1,0.16,0.261,0.316,0.48,0.468
		c0.221,0.151,0.74,0.425,1.562,0.816c1.086,0.52,1.83,1.039,2.232,1.562C276.041,115.351,276.243,115.99,276.243,116.747z"/>
	<path fill="#2E2E71" d="M293.129,114.148c0,1.925-0.478,3.402-1.431,4.437c-0.954,1.033-2.32,1.551-4.103,1.551
		c-1.78,0-3.147-0.518-4.103-1.551c-0.954-1.034-1.431-2.518-1.431-4.451c0-1.937,0.479-3.413,1.435-4.434
		c0.959-1.02,2.328-1.53,4.115-1.53c1.785,0,3.153,0.515,4.099,1.543C292.656,110.74,293.129,112.219,293.129,114.148z
		 M284.647,114.148c0,1.299,0.245,2.277,0.741,2.934c0.491,0.658,1.228,0.987,2.207,0.987c1.968,0,2.951-1.308,2.951-3.921
		c0-2.618-0.979-3.927-2.934-3.927c-0.981,0-1.719,0.329-2.218,0.987C284.897,111.871,284.647,112.851,284.647,114.148z"/>
	<path fill="#2E2E71" d="M305.853,119.975h-3.134l-5.057-8.792h-0.072c0.102,1.555,0.153,2.659,0.153,3.323v5.469h-2.203v-11.624
		h3.107l5.049,8.708h0.056c-0.08-1.511-0.121-2.579-0.121-3.206v-5.502h2.221L305.853,119.975L305.853,119.975z"/>
	<path fill="#2E2E71" d="M313.189,113.448h4.612v6.027c-0.747,0.244-1.45,0.414-2.112,0.511c-0.66,0.1-1.334,0.149-2.023,0.149
		c-1.755,0-3.094-0.516-4.019-1.549c-0.925-1.03-1.387-2.51-1.387-4.439c0-1.876,0.537-3.34,1.608-4.388
		c1.075-1.05,2.562-1.573,4.465-1.573c1.194,0,2.343,0.236,3.451,0.714l-0.819,1.972c-0.848-0.423-1.73-0.636-2.646-0.636
		c-1.066,0-1.92,0.358-2.561,1.073c-0.643,0.716-0.963,1.679-0.963,2.887c0,1.262,0.259,2.225,0.776,2.89
		c0.518,0.664,1.267,0.996,2.253,0.996c0.513,0,1.037-0.053,1.566-0.158V115.5h-2.203L313.189,113.448L313.189,113.448z"/>
	<path fill="#2E2E71" d="M320.567,119.975v-11.624h2.464v9.591h4.715v2.033H320.567z"/>
	<path fill="#2E2E71" d="M336.46,119.975h-6.693v-11.624h6.693v2.021h-4.229v2.553h3.938v2.019h-3.938v2.998h4.229V119.975z"/>
	<path fill="#2E2E71" d="M345.746,116.747c0,1.05-0.377,1.877-1.133,2.48c-0.757,0.604-1.806,0.908-3.152,0.908
		c-1.24,0-2.338-0.234-3.293-0.701v-2.289c0.785,0.35,1.449,0.596,1.993,0.739c0.544,0.143,1.04,0.214,1.491,0.214
		c0.54,0,0.954-0.103,1.244-0.309c0.287-0.208,0.433-0.516,0.433-0.923c0-0.229-0.063-0.433-0.191-0.608
		c-0.126-0.179-0.313-0.349-0.56-0.514c-0.248-0.164-0.75-0.425-1.507-0.786c-0.711-0.335-1.242-0.655-1.6-0.962
		c-0.354-0.308-0.638-0.665-0.851-1.073c-0.211-0.409-0.317-0.886-0.317-1.431c0-1.027,0.348-1.839,1.046-2.426
		c0.696-0.589,1.659-0.881,2.89-0.881c0.604,0,1.182,0.069,1.729,0.214c0.55,0.142,1.12,0.343,1.722,0.604l-0.795,1.916
		c-0.621-0.254-1.135-0.433-1.539-0.534c-0.405-0.1-0.804-0.15-1.196-0.15c-0.466,0-0.823,0.108-1.072,0.327
		c-0.249,0.216-0.375,0.5-0.375,0.849c0,0.219,0.051,0.408,0.151,0.57c0.102,0.16,0.261,0.316,0.48,0.468
		c0.221,0.151,0.742,0.425,1.562,0.816c1.088,0.52,1.832,1.039,2.234,1.562C345.545,115.351,345.746,115.99,345.746,116.747z"/>
	<path fill="#2E2E71" d="M186.692,130.334c0,1.915-0.544,3.38-1.634,4.397c-1.089,1.019-2.662,1.527-4.718,1.527h-3.292v-11.625
		h3.649c1.897,0,3.371,0.503,4.42,1.504C186.167,127.14,186.692,128.54,186.692,130.334z M184.131,130.398
		c0-2.495-1.102-3.744-3.307-3.744h-1.312v7.568h1.057C182.944,134.223,184.131,132.949,184.131,130.398z"/>
	<path fill="#2E2E71" d="M190.866,124.634l0.112,0.176c-0.265,1.043-0.731,2.313-1.399,3.809h-1.741
		c0.365-1.569,0.629-2.896,0.795-3.984H190.866z"/>
	<path fill="#2E2E71" d="M203.18,130.431c0,1.924-0.477,3.402-1.431,4.437c-0.954,1.032-2.322,1.551-4.103,1.551
		s-3.149-0.519-4.103-1.551c-0.954-1.034-1.431-2.518-1.431-4.452c0-1.937,0.479-3.413,1.435-4.432
		c0.958-1.021,2.328-1.531,4.116-1.531c1.785,0,3.151,0.515,4.098,1.543C202.708,127.023,203.18,128.501,203.18,130.431z
		 M194.698,130.431c0,1.299,0.246,2.276,0.74,2.934c0.492,0.658,1.228,0.986,2.209,0.986c1.966,0,2.95-1.307,2.95-3.92
		c0-2.618-0.979-3.926-2.933-3.926c-0.982,0-1.72,0.327-2.219,0.987C194.947,128.153,194.698,129.133,194.698,130.431z"/>
	<path fill="#2E2E71" d="M208.055,131.797v4.462h-2.465v-11.625h3.387c1.58,0,2.748,0.288,3.504,0.863
		c0.759,0.573,1.139,1.446,1.139,2.621c0,0.682-0.188,1.29-0.566,1.823c-0.375,0.533-0.907,0.951-1.596,1.253
		c1.749,2.613,2.887,4.301,3.417,5.064h-2.735l-2.775-4.462H208.055z M208.055,129.795h0.795c0.779,0,1.353-0.13,1.724-0.391
		c0.371-0.258,0.558-0.668,0.558-1.225c0-0.55-0.189-0.942-0.568-1.175c-0.379-0.233-0.967-0.35-1.762-0.35h-0.747V129.795z"/>
	<path fill="#2E2E71" d="M220.822,136.259h-2.463v-9.572h-3.157v-2.052h8.776v2.052h-3.156V136.259z"/>
	<path fill="#2E2E71" d="M232.461,136.259h-6.693v-11.625h6.693v2.021h-4.229v2.553h3.938v2.02h-3.938v2.996h4.229V136.259z"/>
	<path fill="#2E2E71" d="M234.887,136.259v-11.625h2.463v11.625H234.887z"/>
	<path fill="#2E2E71" d="M240.278,136.259v-11.625h2.464v9.589h4.715v2.036H240.278L240.278,136.259z"/>
</g>
<g>
	<rect x="176.992" y="104.14" fill="#4690CD" width="168.568" height="0.594"/>
</g>
</svg>
