<?xml version="1.0" encoding="utf-8"?>
<!DOCTYPE svg PUBLIC "-//W3C//DTD SVG 1.1//EN" "http://www.w3.org/Graphics/SVG/1.1/DTD/svg11.dtd">
<svg version="1.1" id="Layer_1" xmlns="http://www.w3.org/2000/svg" xmlns:xlink="http://www.w3.org/1999/xlink" x="0px" y="0px"
	 width="198px" height="78.933px" viewBox="0 0 198 78.933" enable-background="new 0 0 198 78.933" xml:space="preserve">
<g>
	<g>
		<path fill="#522E91" d="M61.678,44.776h-2.476v-9.613h-3.17v-2.06h8.814v2.06h-3.169V44.776z"/>
	</g>
	<g>
		<path fill="#522E91" d="M77.237,38.923c0,1.934-0.478,3.417-1.437,4.457c-0.958,1.037-2.331,1.556-4.119,1.556
			c-1.789,0-3.161-0.519-4.12-1.556c-0.959-1.039-1.438-2.528-1.438-4.471c0-1.944,0.479-3.427,1.439-4.452
			c0.963-1.025,2.339-1.537,4.134-1.537c1.794,0,3.165,0.517,4.114,1.549C76.763,35.502,77.237,36.987,77.237,38.923z M68.72,38.923
			c0,1.306,0.247,2.287,0.741,2.948c0.496,0.659,1.233,0.99,2.221,0.99c1.974,0,2.962-1.312,2.962-3.938
			c0-2.628-0.981-3.943-2.946-3.943c-0.984,0-1.728,0.333-2.228,0.994C68.968,36.637,68.72,37.62,68.72,38.923z"/>
	</g>
	<g>
		<path fill="#522E91" d="M86.379,44.776h-6.722V33.104h6.722v2.028h-4.246v2.562h3.951v2.027h-3.951v3.01h4.246V44.776z"/>
	</g>
	<g>
		<path fill="#522E91" d="M99.17,44.776h-3.146l-5.077-8.83h-0.073c0.103,1.56,0.152,2.672,0.152,3.337v5.493h-2.211V33.104h3.122
			l5.068,8.743h0.058c-0.081-1.518-0.121-2.589-0.121-3.217v-5.525h2.229V44.776z"/>
	</g>
	<g>
		<path fill="#522E91" d="M109.253,44.776l-0.847-2.778h-4.255l-0.846,2.778h-2.666l4.119-11.72h3.025l4.136,11.72H109.253z
			 M107.815,39.922c-0.78-2.518-1.221-3.941-1.321-4.272c-0.099-0.329-0.17-0.591-0.213-0.782c-0.174,0.682-0.677,2.366-1.507,5.054
			H107.815z"/>
	</g>
	<g>
		<path fill="#522E91" d="M113.39,44.776V33.104h2.474v11.672H113.39z"/>
	</g>
	<g>
		<path fill="#522E91" d="M118.802,44.776V33.104h2.476v9.628h4.732v2.044H118.802z"/>
	</g>
	<g>
		<path fill="#522E91" d="M134.723,44.776h-2.437V33.104h6.69v2.028h-4.254v3.01h3.96v2.019h-3.96V44.776z"/>
	</g>
	<g>
		<path fill="#522E91" d="M150.761,33.104v7.553c0,0.862-0.192,1.617-0.579,2.268c-0.387,0.648-0.942,1.147-1.671,1.492
			c-0.73,0.347-1.593,0.519-2.588,0.519c-1.502,0-2.667-0.384-3.496-1.154c-0.83-0.769-1.246-1.821-1.246-3.157v-7.521h2.466v7.146
			c0,0.899,0.181,1.559,0.543,1.979c0.363,0.42,0.962,0.631,1.798,0.631c0.808,0,1.396-0.212,1.76-0.634
			c0.364-0.424,0.547-1.088,0.547-1.993v-7.129H150.761z"/>
	</g>
	<g>
		<path fill="#522E91" d="M163.974,44.776h-3.146l-5.077-8.83h-0.07c0.1,1.56,0.15,2.672,0.15,3.337v5.493h-2.211V33.104h3.12
			l5.07,8.743h0.057c-0.081-1.518-0.119-2.589-0.119-3.217v-5.525h2.226V44.776z"/>
	</g>
	<g>
		<path fill="#522E91" d="M171.344,38.221h4.631v6.053c-0.751,0.245-1.456,0.417-2.121,0.514c-0.661,0.099-1.339,0.148-2.031,0.148
			c-1.762,0-3.106-0.517-4.036-1.553c-0.928-1.034-1.391-2.52-1.391-4.459c0-1.884,0.537-3.354,1.614-4.406
			c1.079-1.055,2.573-1.58,4.482-1.58c1.199,0,2.354,0.239,3.466,0.718l-0.823,1.98c-0.851-0.426-1.736-0.639-2.656-0.639
			c-1.07,0-1.929,0.359-2.571,1.079c-0.644,0.718-0.967,1.685-0.967,2.898c0,1.267,0.26,2.233,0.778,2.902
			c0.52,0.667,1.273,1,2.265,1c0.516,0,1.04-0.052,1.571-0.159v-2.435h-2.211V38.221z"/>
	</g>
	<g>
		<path fill="#522E91" d="M188.254,33.104v7.553c0,0.862-0.192,1.617-0.579,2.268c-0.388,0.648-0.942,1.147-1.673,1.492
			c-0.729,0.347-1.591,0.519-2.586,0.519c-1.502,0-2.668-0.384-3.497-1.154c-0.831-0.769-1.247-1.821-1.247-3.157v-7.521h2.468
			v7.146c0,0.899,0.182,1.559,0.542,1.979c0.362,0.42,0.962,0.631,1.798,0.631c0.808,0,1.396-0.212,1.762-0.634
			c0.362-0.424,0.545-1.088,0.545-1.993v-7.129H188.254z"/>
	</g>
	<g>
		<path fill="#522E91" d="M198,41.535c0,1.054-0.378,1.884-1.136,2.491c-0.759,0.606-1.812,0.91-3.165,0.91
			c-1.245,0-2.347-0.234-3.306-0.702v-2.299c0.788,0.351,1.454,0.598,1.999,0.743c0.546,0.142,1.046,0.214,1.497,0.214
			c0.545,0,0.961-0.104,1.25-0.311c0.29-0.208,0.435-0.517,0.435-0.926c0-0.229-0.064-0.434-0.192-0.611
			c-0.127-0.179-0.314-0.35-0.561-0.515c-0.247-0.165-0.752-0.429-1.514-0.79c-0.714-0.336-1.248-0.659-1.605-0.967
			c-0.355-0.309-0.641-0.667-0.854-1.078c-0.213-0.409-0.319-0.889-0.319-1.437c0-1.032,0.351-1.845,1.052-2.436
			c0.699-0.591,1.666-0.885,2.899-0.885c0.608,0,1.187,0.071,1.737,0.215c0.552,0.143,1.128,0.346,1.729,0.606l-0.799,1.925
			c-0.622-0.257-1.137-0.434-1.545-0.536c-0.407-0.101-0.807-0.153-1.201-0.153c-0.469,0-0.829,0.11-1.078,0.328
			c-0.251,0.218-0.375,0.503-0.375,0.854c0,0.22,0.05,0.409,0.152,0.571c0.101,0.162,0.26,0.32,0.481,0.471
			c0.221,0.152,0.745,0.424,1.569,0.819c1.091,0.521,1.84,1.043,2.242,1.569C197.799,40.131,198,40.773,198,41.535z"/>
	</g>
	<g>
		<path fill="#522E91" d="M56.032,61.165v-7.819h0.547v7.819H56.032z"/>
	</g>
	<g>
		<path fill="#522E91" d="M65.464,61.165h-0.551l-4.631-6.942h-0.045c0.045,0.827,0.065,1.451,0.065,1.872v5.07h-0.525v-7.819h0.546
			l4.628,6.931h0.031c-0.031-0.643-0.048-1.251-0.048-1.829v-5.102h0.529V61.165z"/>
	</g>
	<g>
		<path fill="#522E91" d="M69.208,61.165h-0.544v-7.819h4.283v0.503h-3.739v3.315h3.531v0.508h-3.531V61.165z"/>
	</g>
	<g>
		<path fill="#522E91" d="M81.721,57.245c0,1.241-0.311,2.222-0.931,2.945c-0.621,0.721-1.476,1.083-2.568,1.083
			c-1.085,0-1.941-0.362-2.56-1.083c-0.622-0.723-0.932-1.708-0.932-2.955c0-1.244,0.313-2.224,0.938-2.938
			c0.626-0.717,1.481-1.074,2.565-1.074c1.091,0,1.944,0.36,2.562,1.078C81.412,55.019,81.721,56,81.721,57.245z M75.323,57.245
			c0,1.121,0.251,1.986,0.75,2.597c0.499,0.611,1.215,0.917,2.148,0.917c0.943,0,1.662-0.303,2.159-0.909
			c0.497-0.605,0.746-1.474,0.746-2.604c0-1.126-0.249-1.99-0.746-2.591c-0.497-0.601-1.212-0.901-2.147-0.901
			c-0.931,0-1.647,0.302-2.151,0.909C75.576,55.268,75.323,56.13,75.323,57.245z"/>
	</g>
	<g>
		<path fill="#522E91" d="M85.049,57.758v3.407h-0.544v-7.819h1.861c0.969,0,1.685,0.18,2.148,0.537
			c0.464,0.359,0.696,0.898,0.696,1.619c0,0.523-0.141,0.965-0.416,1.326c-0.275,0.36-0.696,0.618-1.26,0.775l2.124,3.562h-0.651
			l-2.018-3.407H85.049z M85.049,57.288h1.491c0.66,0,1.172-0.147,1.536-0.442c0.365-0.293,0.545-0.727,0.545-1.301
			c0-0.595-0.177-1.029-0.534-1.299c-0.355-0.271-0.938-0.407-1.742-0.407h-1.296V57.288z"/>
	</g>
	<g>
		<path fill="#522E91" d="M95.438,61.165l-2.916-7.22h-0.042c0.027,0.442,0.042,0.896,0.042,1.359v5.861h-0.524v-7.819h0.847
			l2.771,6.877h0.03l2.771-6.877h0.823v7.819H98.69V55.24c0-0.414,0.02-0.842,0.062-1.283H98.71l-2.925,7.208H95.438z"/>
	</g>
	<g>
		<path fill="#522E91" d="M106.198,58.405h-3.177l-1.09,2.76h-0.604l3.146-7.851h0.346l3.081,7.851h-0.612L106.198,58.405z
			 M103.221,57.914h2.797l-1.063-2.819c-0.09-0.221-0.197-0.527-0.321-0.919c-0.096,0.342-0.203,0.652-0.316,0.93L103.221,57.914z"
			/>
	</g>
	<g>
		<path fill="#522E91" d="M112.03,61.165h-0.551v-7.306h-2.54v-0.513h5.632v0.513h-2.541V61.165z"/>
	</g>
	<g>
		<path fill="#522E91" d="M116.717,61.165v-7.819h0.546v7.819H116.717z"/>
	</g>
	<g>
		<path fill="#522E91" d="M127.034,57.245c0,1.241-0.31,2.222-0.931,2.945c-0.62,0.721-1.475,1.083-2.567,1.083
			c-1.085,0-1.938-0.362-2.56-1.083c-0.619-0.723-0.932-1.708-0.932-2.955c0-1.244,0.314-2.224,0.939-2.938
			c0.625-0.717,1.481-1.074,2.562-1.074c1.092,0,1.946,0.36,2.563,1.078C126.727,55.019,127.034,56,127.034,57.245z M120.639,57.245
			c0,1.121,0.251,1.986,0.748,2.597c0.5,0.611,1.218,0.917,2.149,0.917c0.942,0,1.664-0.303,2.161-0.909
			c0.496-0.605,0.746-1.474,0.746-2.604c0-1.126-0.25-1.99-0.746-2.591c-0.497-0.601-1.214-0.901-2.15-0.901
			c-0.93,0-1.646,0.302-2.15,0.909C120.892,55.268,120.639,56.13,120.639,57.245z"/>
	</g>
	<g>
		<path fill="#522E91" d="M135.503,61.165h-0.551l-4.631-6.942h-0.043c0.043,0.827,0.064,1.451,0.064,1.872v5.07h-0.523v-7.819
			h0.545l4.627,6.931h0.031c-0.031-0.643-0.048-1.251-0.048-1.829v-5.102h0.528V61.165z"/>
	</g>
	<g>
		<path fill="#522E91" d="M147.241,55.592c0,0.756-0.257,1.335-0.77,1.739c-0.514,0.402-1.241,0.604-2.183,0.604h-1.21v3.23h-0.544
			v-7.819h1.914C146.312,53.346,147.241,54.095,147.241,55.592z M143.079,57.464h1.075c0.881,0,1.52-0.146,1.909-0.437
			c0.393-0.29,0.59-0.762,0.59-1.414c0-0.603-0.187-1.049-0.557-1.339c-0.37-0.291-0.945-0.437-1.723-0.437h-1.295V57.464z"/>
	</g>
	<g>
		<path fill="#522E91" d="M150.474,57.758v3.407h-0.546v-7.819h1.862c0.967,0,1.686,0.18,2.147,0.537
			c0.466,0.359,0.696,0.898,0.696,1.619c0,0.523-0.14,0.965-0.414,1.326c-0.277,0.36-0.697,0.618-1.259,0.775l2.123,3.562h-0.653
			l-2.016-3.407H150.474z M150.474,57.288h1.492c0.659,0,1.172-0.147,1.533-0.442c0.365-0.293,0.547-0.727,0.547-1.301
			c0-0.595-0.178-1.029-0.536-1.299c-0.356-0.271-0.936-0.407-1.742-0.407h-1.294V57.288z"/>
	</g>
	<g>
		<path fill="#522E91" d="M163.995,57.245c0,1.241-0.309,2.222-0.929,2.945c-0.621,0.721-1.477,1.083-2.569,1.083
			c-1.087,0-1.94-0.362-2.562-1.083c-0.62-0.723-0.931-1.708-0.931-2.955c0-1.244,0.314-2.224,0.938-2.938
			c0.626-0.717,1.481-1.074,2.564-1.074c1.091,0,1.946,0.36,2.562,1.078C163.688,55.019,163.995,56,163.995,57.245z M157.6,57.245
			c0,1.121,0.25,1.986,0.749,2.597c0.499,0.611,1.215,0.917,2.148,0.917c0.942,0,1.661-0.303,2.159-0.909
			c0.496-0.605,0.746-1.474,0.746-2.604c0-1.126-0.25-1.99-0.746-2.591c-0.498-0.601-1.213-0.901-2.148-0.901
			c-0.93,0-1.648,0.302-2.152,0.909C157.853,55.268,157.6,56.13,157.6,57.245z"/>
	</g>
	<g>
		<path fill="#522E91" d="M169.854,57.224h2.883v3.567c-0.756,0.321-1.605,0.481-2.551,0.481c-1.234,0-2.181-0.349-2.837-1.046
			c-0.658-0.696-0.988-1.683-0.988-2.96c0-0.795,0.164-1.5,0.489-2.114c0.328-0.617,0.794-1.091,1.401-1.426
			c0.609-0.334,1.307-0.503,2.095-0.503c0.852,0,1.617,0.158,2.293,0.471l-0.218,0.493c-0.679-0.314-1.379-0.472-2.108-0.472
			c-1.03,0-1.848,0.318-2.451,0.956c-0.605,0.635-0.907,1.495-0.907,2.574c0,1.177,0.287,2.062,0.861,2.656
			c0.573,0.593,1.418,0.89,2.53,0.89c0.72,0,1.332-0.102,1.834-0.305v-2.75h-2.326V57.224z"/>
	</g>
	<g>
		<path fill="#522E91" d="M176.23,57.758v3.407h-0.544v-7.819h1.86c0.969,0,1.686,0.18,2.149,0.537
			c0.463,0.359,0.695,0.898,0.695,1.619c0,0.523-0.14,0.965-0.416,1.326c-0.275,0.36-0.696,0.618-1.259,0.775l2.124,3.562h-0.653
			l-2.017-3.407H176.23z M176.23,57.288h1.49c0.661,0,1.174-0.147,1.538-0.442c0.362-0.293,0.544-0.727,0.544-1.301
			c0-0.595-0.179-1.029-0.534-1.299c-0.358-0.271-0.938-0.407-1.743-0.407h-1.295V57.288z"/>
	</g>
	<g>
		<path fill="#522E91" d="M186.944,58.405h-3.178l-1.09,2.76h-0.604l3.143-7.851h0.349l3.08,7.851h-0.615L186.944,58.405z
			 M183.966,57.914h2.796l-1.062-2.819c-0.091-0.221-0.197-0.527-0.32-0.919c-0.098,0.342-0.205,0.652-0.317,0.93L183.966,57.914z"
			/>
	</g>
	<g>
		<path fill="#522E91" d="M194.178,61.165l-2.916-7.22h-0.043c0.028,0.442,0.043,0.896,0.043,1.359v5.861h-0.523v-7.819h0.846
			l2.77,6.877h0.032l2.771-6.877h0.821v7.819h-0.549V55.24c0-0.414,0.021-0.842,0.063-1.283h-0.042l-2.926,7.208H194.178z"/>
	</g>
	<g>
		<g>
			<path fill="#522E91" d="M11.453,7.399c2.504,3.866,2.368,8.174-0.295,9.63c-2.669,1.455-6.86-0.502-9.365-4.37
				c-2.504-3.861-2.368-8.173,0.301-9.626C4.758,1.58,8.947,3.537,11.453,7.399z"/>
		</g>
		<g>
			<path fill="#522E91" d="M19.804,4.054c1.227,2.711,0.676,5.438-1.229,6.096c-1.91,0.654-4.451-1.008-5.679-3.721
				c-1.227-2.714-0.675-5.445,1.236-6.101C16.037-0.328,18.578,1.337,19.804,4.054z"/>
		</g>
		<g>
			<path fill="#522E91" d="M27.941,4.228c0.464,2.479-0.613,4.608-2.402,4.754c-1.793,0.147-3.614-1.741-4.075-4.221
				c-0.462-2.481,0.614-4.608,2.402-4.753C25.657-0.14,27.479,1.751,27.941,4.228z"/>
		</g>
		<g>
			<path fill="#522E91" d="M35.15,6.798c-0.16,2.234-1.631,3.832-3.282,3.566c-1.656-0.262-2.862-2.291-2.7-4.522
				c0.162-2.238,1.632-3.83,3.283-3.568C34.104,2.538,35.31,4.564,35.15,6.798z"/>
		</g>
		<g>
			<path fill="#522E91" d="M41.23,10.769c-0.581,1.874-2.198,2.962-3.615,2.436c-1.418-0.524-2.092-2.471-1.513-4.346
				c0.578-1.874,2.198-2.964,3.617-2.439C41.132,6.948,41.812,8.893,41.23,10.769z"/>
		</g>
	</g>
	<g>
		<path fill="#522E91" d="M25.828,12.662c-5.369-0.04-21.526,6.339-7.339,22.125c9.062,10.083,3.175,22.702-5.645,29.349
			c-6.031,4.547-5.529,17.732,10.18,14.204c15.708-3.531,20.331-23.23,22.711-34.514c1.849-8.774,2.274-19.621-4.14-25.929
			C38.338,14.695,32.926,12.42,25.828,12.662z"/>
	</g>
	<g>
		<rect x="55.935" y="48.777" fill="#00B4CA" width="142.043" height="0.545"/>
	</g>
</g>
</svg>
