<?xml version="1.0" encoding="utf-8"?>
<!DOCTYPE svg PUBLIC "-//W3C//DTD SVG 1.1//EN" "http://www.w3.org/Graphics/SVG/1.1/DTD/svg11.dtd">
<svg version="1.1" id="Layer_1" xmlns="http://www.w3.org/2000/svg" xmlns:xlink="http://www.w3.org/1999/xlink" x="0px" y="0px"
	 width="456px" height="258px" viewBox="0 0 456 258" enable-background="new 0 0 456 258" xml:space="preserve">
<g>
	<path fill="#2D2E71" d="M296,79.25c-7.75-13-14.5-22.75-22.25-28.25s-21.25-12.5-34.5-3s-17.25,23.5-16,33.25s11,19.5,39,33.25
		c-0.5-8-3-21.25-5.75-27.25s-5.75-11.5-8.25-14.25s-2-6-0.75-7.75s5-2,12.75,2.75S282,77.5,296,79.25z"/>
	<path fill="#2D2E71" d="M305.5,90c8.25,7.5,20.75,17.25,26.75,22.5s16.5,17.25,7,30.5s-21.25,12-29.75,7.5s-28.25-24.5-37-29.25
		c0.25-9.5-2-31.75-9.25-41C268.5,82.25,281.25,88.25,305.5,90z"/>
	<path fill="#2D2E71" d="M351.289,99.928c-14.807-3.14-26.212-6.382-33.919-11.942c-7.707-5.561-18.688-16.079-13.974-31.686
		c4.715-15.607,16.676-23.911,26.308-25.875c9.632-1.964,22.006,4.118,44.058,26.183c-7.734,2.108-21.082,4.019-27.646,3.352
		c-6.566-0.667-12.74-1.731-16.149-3.21s-6.323,0.043-7.577,1.792c-1.254,1.748-0.279,5.378,6.719,11.18
		C336.102,75.524,345.115,87.241,351.289,99.928z"/>
	<path fill="#2D2E71" d="M364.529,105.45c9.762,5.388,23.022,14.073,29.93,18.057c6.905,3.985,21.652,10.05,31.127-3.218
		c9.477-13.268,4.5-23.985-2.502-30.578c-7.003-6.593-32.307-18.832-39.626-25.581c-8.911,3.303-30.696,8.354-41.792,4.477
		C345.254,72.931,355.048,83.062,364.529,105.45z"/>
</g>
<g enable-background="new    ">
	<path fill="#2F2E72" d="M30.078,150.5l-0.195-1.344H29.82c-0.427,0.547-0.866,0.934-1.316,1.16c-0.451,0.227-0.983,0.34-1.598,0.34
		c-0.833,0-1.482-0.214-1.945-0.641c-0.464-0.427-0.695-1.019-0.695-1.773c0-0.828,0.345-1.472,1.035-1.93
		c0.69-0.458,1.688-0.7,2.996-0.727l1.617-0.047v-0.562c0-0.808-0.164-1.417-0.492-1.828s-0.857-0.617-1.586-0.617
		c-0.787,0-1.602,0.219-2.445,0.656l-0.289-0.672c0.932-0.438,1.854-0.656,2.766-0.656c0.932,0,1.629,0.242,2.09,0.727
		s0.691,1.239,0.691,2.266v5.648H30.078z M26.953,149.953c0.906,0,1.621-0.259,2.145-0.777s0.785-1.238,0.785-2.16v-0.836
		l-1.484,0.062c-1.193,0.058-2.043,0.243-2.551,0.559s-0.762,0.806-0.762,1.473c0,0.531,0.163,0.944,0.488,1.238
		C25.899,149.806,26.359,149.953,26.953,149.953z"/>
	<path fill="#2F2E72" d="M39.32,150.5v-5.508c0-0.854-0.18-1.476-0.539-1.863s-0.917-0.582-1.672-0.582
		c-1.016,0-1.759,0.257-2.23,0.77c-0.472,0.513-0.707,1.345-0.707,2.496v4.688h-0.773v-8.492h0.656l0.148,1.164h0.047
		c0.552-0.886,1.534-1.328,2.945-1.328c1.927,0,2.891,1.034,2.891,3.102v5.555H39.32z"/>
	<path fill="#2F2E72" d="M45.945,141.844c0.614,0,1.146,0.112,1.594,0.336c0.448,0.224,0.849,0.606,1.203,1.148h0.047
		c-0.031-0.656-0.047-1.3-0.047-1.93v-3.055h0.766V150.5H49l-0.195-1.297h-0.062c-0.646,0.969-1.573,1.453-2.781,1.453
		c-1.172,0-2.068-0.364-2.688-1.094c-0.62-0.729-0.93-1.792-0.93-3.188c0-1.469,0.307-2.591,0.922-3.367
		C43.88,142.231,44.773,141.844,45.945,141.844z M45.945,142.547c-0.927,0-1.624,0.325-2.09,0.977
		c-0.466,0.651-0.699,1.597-0.699,2.836c0,2.406,0.935,3.609,2.805,3.609c0.958,0,1.661-0.278,2.109-0.836
		c0.448-0.558,0.672-1.477,0.672-2.758v-0.133c0-1.312-0.22-2.257-0.66-2.832C47.642,142.835,46.93,142.547,45.945,142.547z"/>
</g>
<g enable-background="new    ">
	<path fill="#2F2E72" d="M74.164,128.982c1.887,0,3.59,0.438,5.11,1.314c1.52,0.875,2.703,2.114,3.549,3.717
		c0.846,1.603,1.269,3.451,1.269,5.548c0,3.669-1.104,6.483-3.313,8.445c-2.209,1.962-5.552,2.942-10.029,2.942
		c-3.833,0-6.963-0.592-9.389-1.774v-7.277c1.303,0.599,2.774,1.093,4.414,1.482s3.051,0.584,4.234,0.584
		c1.647,0,2.912-0.349,3.796-1.044c0.883-0.697,1.325-1.727,1.325-3.089c0-1.258-0.449-2.238-1.348-2.942s-2.261-1.056-4.088-1.056
		c-1.393,0-2.897,0.262-4.515,0.786l-3.257-1.617l1.235-17.34h18.732v7.39H70.705l-0.404,4.335c1.168-0.225,1.999-0.348,2.493-0.371
		C73.288,128.994,73.745,128.982,74.164,128.982z"/>
	<path fill="#2F2E72" d="M111.539,134.126c0,5.81-0.974,10.066-2.92,12.769c-1.947,2.703-4.927,4.055-8.939,4.055
		c-3.923,0-6.881-1.411-8.872-4.234c-1.992-2.822-2.987-7.019-2.987-12.589c0-5.84,0.973-10.122,2.92-12.848
		c1.946-2.726,4.926-4.088,8.939-4.088c3.908,0,6.862,1.419,8.861,4.257C110.54,124.284,111.539,128.511,111.539,134.126z
		 M96.647,134.126c0,3.714,0.232,6.267,0.696,7.659c0.464,1.393,1.243,2.089,2.336,2.089c1.108,0,1.89-0.719,2.347-2.156
		c0.457-1.438,0.685-3.968,0.685-7.592c0-3.639-0.232-6.188-0.696-7.647c-0.464-1.461-1.243-2.19-2.336-2.19
		c-1.093,0-1.872,0.704-2.336,2.111C96.879,127.807,96.647,130.383,96.647,134.126z"/>
	<path fill="#2F2E72" d="M130.923,127.455c0,3.294-0.741,5.844-2.224,7.648c-1.482,1.804-3.594,2.706-6.334,2.706
		c-2.576,0-4.616-0.933-6.121-2.796c-1.505-1.865-2.257-4.384-2.257-7.559c0-3.294,0.733-5.828,2.201-7.604
		c1.467-1.773,3.526-2.661,6.177-2.661c2.62,0,4.702,0.921,6.244,2.763C130.151,121.795,130.923,124.296,130.923,127.455z
		 M120.748,127.545c0,1.722,0.142,2.965,0.427,3.729c0.284,0.764,0.711,1.146,1.28,1.146c0.569,0,0.992-0.374,1.269-1.123
		c0.277-0.749,0.416-1.999,0.416-3.751c0-1.722-0.139-2.965-0.416-3.729c-0.277-0.764-0.7-1.146-1.269-1.146
		c-0.584,0-1.015,0.39-1.292,1.168C120.886,124.617,120.748,125.853,120.748,127.545z M147.297,117.662L129.081,150.5h-6.671
		l18.216-32.838H147.297z M155.899,140.527c0,3.279-0.745,5.821-2.235,7.625c-1.49,1.805-3.598,2.707-6.323,2.707
		c-2.576,0-4.616-0.932-6.121-2.797c-1.505-1.863-2.257-4.376-2.257-7.535c0-3.294,0.733-5.828,2.201-7.604
		c1.467-1.773,3.526-2.661,6.177-2.661c2.62,0,4.702,0.921,6.244,2.763C155.128,134.867,155.899,137.368,155.899,140.527z
		 M145.725,140.617c0,1.722,0.142,2.965,0.427,3.729c0.284,0.764,0.711,1.146,1.28,1.146c0.644,0,1.089-0.438,1.336-1.313
		c0.247-0.877,0.371-2.063,0.371-3.561s-0.124-2.684-0.371-3.561c-0.247-0.875-0.693-1.313-1.336-1.313
		c-0.584,0-1.015,0.39-1.292,1.168C145.863,137.689,145.725,138.925,145.725,140.617z"/>
</g>
<g enable-background="new    ">
	<path fill="#2F2E72" d="M167.509,150.5l-0.195-1.344h-0.062c-0.427,0.547-0.866,0.934-1.316,1.16
		c-0.451,0.227-0.983,0.34-1.598,0.34c-0.833,0-1.482-0.214-1.945-0.641c-0.464-0.427-0.695-1.019-0.695-1.773
		c0-0.828,0.345-1.472,1.035-1.93c0.69-0.458,1.688-0.7,2.996-0.727l1.617-0.047v-0.562c0-0.808-0.164-1.417-0.492-1.828
		s-0.857-0.617-1.586-0.617c-0.787,0-1.602,0.219-2.445,0.656l-0.289-0.672c0.932-0.438,1.854-0.656,2.766-0.656
		c0.932,0,1.629,0.242,2.09,0.727s0.691,1.239,0.691,2.266v5.648H167.509z M164.384,149.953c0.906,0,1.621-0.259,2.145-0.777
		s0.785-1.238,0.785-2.16v-0.836l-1.484,0.062c-1.193,0.058-2.043,0.243-2.551,0.559s-0.762,0.806-0.762,1.473
		c0,0.531,0.163,0.944,0.488,1.238C163.331,149.806,163.791,149.953,164.384,149.953z"/>
	<path fill="#2F2E72" d="M174.22,150.656c-1.214,0-2.164-0.383-2.852-1.148s-1.031-1.833-1.031-3.203
		c0-1.406,0.356-2.501,1.07-3.285c0.713-0.784,1.69-1.176,2.93-1.176c0.734,0,1.438,0.128,2.109,0.383l-0.211,0.688
		c-0.734-0.245-1.373-0.367-1.914-0.367c-1.042,0-1.831,0.321-2.367,0.965c-0.537,0.644-0.805,1.569-0.805,2.777
		c0,1.146,0.268,2.043,0.805,2.691c0.536,0.648,1.286,0.973,2.25,0.973c0.771,0,1.487-0.138,2.148-0.414v0.719
		C175.811,150.523,175.1,150.656,174.22,150.656z"/>
	<path fill="#2F2E72" d="M180.673,149.969c0.489,0,0.917-0.042,1.281-0.125v0.625c-0.375,0.125-0.808,0.188-1.297,0.188
		c-0.75,0-1.304-0.2-1.66-0.602c-0.357-0.401-0.535-1.031-0.535-1.891v-5.484h-1.258v-0.453l1.258-0.352l0.391-1.922h0.398v2.055
		h2.492v0.672h-2.492v5.375c0,0.651,0.114,1.133,0.344,1.445C179.824,149.812,180.184,149.969,180.673,149.969z"/>
	<path fill="#2F2E72" d="M184.462,142.008v5.5c0,0.854,0.18,1.476,0.539,1.863s0.917,0.582,1.672,0.582
		c1.01,0,1.754-0.255,2.23-0.766s0.715-1.341,0.715-2.492v-4.688h0.766v8.492h-0.656l-0.141-1.172h-0.047
		c-0.552,0.886-1.534,1.328-2.945,1.328c-1.933,0-2.898-1.034-2.898-3.102v-5.547H184.462z"/>
	<path fill="#2F2E72" d="M198.384,150.5l-0.195-1.344h-0.062c-0.427,0.547-0.866,0.934-1.316,1.16
		c-0.451,0.227-0.983,0.34-1.598,0.34c-0.833,0-1.482-0.214-1.945-0.641c-0.464-0.427-0.695-1.019-0.695-1.773
		c0-0.828,0.345-1.472,1.035-1.93c0.69-0.458,1.688-0.7,2.996-0.727l1.617-0.047v-0.562c0-0.808-0.164-1.417-0.492-1.828
		s-0.857-0.617-1.586-0.617c-0.787,0-1.602,0.219-2.445,0.656l-0.289-0.672c0.932-0.438,1.854-0.656,2.766-0.656
		c0.932,0,1.629,0.242,2.09,0.727s0.691,1.239,0.691,2.266v5.648H198.384z M195.259,149.953c0.906,0,1.621-0.259,2.145-0.777
		s0.785-1.238,0.785-2.16v-0.836l-1.484,0.062c-1.193,0.058-2.043,0.243-2.551,0.559s-0.762,0.806-0.762,1.473
		c0,0.531,0.163,0.944,0.488,1.238C194.206,149.806,194.666,149.953,195.259,149.953z"/>
	<path fill="#2F2E72" d="M202.478,150.5h-0.773v-12.156h0.773V150.5z"/>
	<path fill="#2F2E72" d="M206.095,150.5h-0.773v-12.156h0.773V150.5z"/>
	<path fill="#2F2E72" d="M207.517,142.008h0.797l1.797,4.766c0.547,1.464,0.893,2.45,1.039,2.961h0.047
		c0.219-0.672,0.575-1.675,1.07-3.008l1.797-4.719h0.797l-3.805,9.867c-0.308,0.802-0.565,1.344-0.773,1.625
		c-0.208,0.281-0.452,0.492-0.73,0.633c-0.279,0.141-0.616,0.211-1.012,0.211c-0.297,0-0.628-0.055-0.992-0.164v-0.672
		c0.302,0.083,0.627,0.125,0.977,0.125c0.266,0,0.5-0.062,0.703-0.188s0.387-0.319,0.551-0.582s0.354-0.68,0.57-1.25
		c0.216-0.57,0.355-0.941,0.418-1.113L207.517,142.008z"/>
</g>
<g enable-background="new    ">
	<path fill="#2F2E72" d="M30.078,187.5l-0.195-1.344H29.82c-0.427,0.547-0.866,0.934-1.316,1.16c-0.451,0.227-0.983,0.34-1.598,0.34
		c-0.833,0-1.482-0.214-1.945-0.641c-0.464-0.427-0.695-1.019-0.695-1.773c0-0.828,0.345-1.472,1.035-1.93
		c0.69-0.458,1.688-0.7,2.996-0.727l1.617-0.047v-0.562c0-0.808-0.164-1.417-0.492-1.828s-0.857-0.617-1.586-0.617
		c-0.787,0-1.602,0.219-2.445,0.656l-0.289-0.672c0.932-0.438,1.854-0.656,2.766-0.656c0.932,0,1.629,0.242,2.09,0.727
		s0.691,1.239,0.691,2.266v5.648H30.078z M26.953,186.953c0.906,0,1.621-0.259,2.145-0.777s0.785-1.238,0.785-2.16v-0.836
		l-1.484,0.062c-1.193,0.058-2.043,0.243-2.551,0.559s-0.762,0.806-0.762,1.473c0,0.531,0.163,0.944,0.488,1.238
		C25.899,186.806,26.359,186.953,26.953,186.953z"/>
	<path fill="#2F2E72" d="M35.258,187.5l-3.281-8.492h0.797l2.195,5.773c0.292,0.739,0.51,1.386,0.656,1.938h0.047
		c0.213-0.708,0.432-1.359,0.656-1.953l2.195-5.758h0.797l-3.281,8.492H35.258z"/>
	<path fill="#2F2E72" d="M47.766,183.242c0,1.386-0.336,2.468-1.008,3.246s-1.599,1.168-2.781,1.168
		c-0.745,0-1.401-0.18-1.969-0.539c-0.568-0.359-1.003-0.875-1.305-1.547c-0.302-0.672-0.453-1.448-0.453-2.328
		c0-1.386,0.336-2.465,1.008-3.238s1.594-1.16,2.766-1.16c1.167,0,2.082,0.392,2.746,1.176S47.766,181.878,47.766,183.242z
		 M41.062,183.242c0,1.167,0.256,2.077,0.77,2.73c0.513,0.653,1.238,0.98,2.176,0.98s1.663-0.327,2.176-0.98
		c0.513-0.653,0.77-1.563,0.77-2.73c0-1.172-0.259-2.081-0.777-2.727c-0.519-0.646-1.246-0.969-2.184-0.969s-1.66,0.321-2.168,0.965
		S41.062,182.065,41.062,183.242z"/>
	<path fill="#2F2E72" d="M50.008,176.648c0-0.5,0.164-0.75,0.492-0.75c0.161,0,0.288,0.065,0.379,0.195
		c0.091,0.13,0.137,0.315,0.137,0.555c0,0.234-0.046,0.419-0.137,0.555c-0.091,0.136-0.218,0.203-0.379,0.203
		C50.172,177.406,50.008,177.153,50.008,176.648z M50.891,187.5h-0.773v-8.492h0.773V187.5z"/>
	<path fill="#2F2E72" d="M56.844,178.844c0.614,0,1.146,0.112,1.594,0.336c0.448,0.224,0.849,0.606,1.203,1.148h0.047
		c-0.031-0.656-0.047-1.3-0.047-1.93v-3.055h0.766V187.5h-0.508l-0.195-1.297h-0.062c-0.646,0.969-1.573,1.453-2.781,1.453
		c-1.172,0-2.068-0.364-2.688-1.094c-0.62-0.729-0.93-1.792-0.93-3.188c0-1.469,0.307-2.591,0.922-3.367
		C54.778,179.231,55.672,178.844,56.844,178.844z M56.844,179.547c-0.927,0-1.624,0.325-2.09,0.977
		c-0.466,0.651-0.699,1.597-0.699,2.836c0,2.406,0.935,3.609,2.805,3.609c0.958,0,1.661-0.278,2.109-0.836
		c0.448-0.558,0.672-1.477,0.672-2.758v-0.133c0-1.312-0.22-2.257-0.66-2.832C58.54,179.835,57.828,179.547,56.844,179.547z"/>
</g>
<g enable-background="new    ">
	<path fill="#2F2E72" d="M72.123,187.5l-1.859-5.68c-0.12-0.386-0.273-0.95-0.461-1.695h-0.047l-0.164,0.578l-0.352,1.133
		L67.35,187.5h-0.766l-2.43-8.492h0.828l1.359,4.922c0.317,1.219,0.526,2.114,0.625,2.688h0.047c0.307-1.219,0.531-2.028,0.672-2.43
		l1.75-5.18h0.703l1.664,5.164c0.375,1.224,0.604,2.034,0.688,2.43h0.047c0.042-0.339,0.25-1.245,0.625-2.719l1.297-4.875h0.781
		l-2.305,8.492H72.123z"/>
	<path fill="#2F2E72" d="M80.334,187.656c-1.234,0-2.197-0.38-2.887-1.141c-0.69-0.761-1.035-1.825-1.035-3.195
		c0-1.354,0.333-2.438,1-3.254c0.667-0.815,1.565-1.223,2.695-1.223c1,0,1.789,0.349,2.367,1.047s0.867,1.646,0.867,2.844v0.625
		h-6.117c0.01,1.167,0.282,2.058,0.816,2.672c0.534,0.614,1.298,0.922,2.293,0.922c0.484,0,0.91-0.034,1.277-0.102
		s0.832-0.214,1.395-0.438v0.703c-0.479,0.208-0.922,0.351-1.328,0.426S80.823,187.656,80.334,187.656z M80.107,179.531
		c-0.818,0-1.474,0.27-1.969,0.809c-0.495,0.539-0.784,1.316-0.867,2.332h5.25c0-0.984-0.214-1.754-0.641-2.309
		C81.454,179.809,80.862,179.531,80.107,179.531z"/>
	<path fill="#2F2E72" d="M90.842,187.5l-0.195-1.344h-0.062c-0.427,0.547-0.866,0.934-1.316,1.16
		c-0.451,0.227-0.983,0.34-1.598,0.34c-0.833,0-1.482-0.214-1.945-0.641c-0.464-0.427-0.695-1.019-0.695-1.773
		c0-0.828,0.345-1.472,1.035-1.93c0.69-0.458,1.688-0.7,2.996-0.727l1.617-0.047v-0.562c0-0.808-0.164-1.417-0.492-1.828
		s-0.857-0.617-1.586-0.617c-0.787,0-1.602,0.219-2.445,0.656l-0.289-0.672c0.932-0.438,1.854-0.656,2.766-0.656
		c0.932,0,1.629,0.242,2.09,0.727s0.691,1.239,0.691,2.266v5.648H90.842z M87.717,186.953c0.906,0,1.621-0.259,2.145-0.777
		s0.785-1.238,0.785-2.16v-0.836l-1.484,0.062c-1.193,0.058-2.043,0.243-2.551,0.559s-0.762,0.806-0.762,1.473
		c0,0.531,0.163,0.944,0.488,1.238C86.663,186.806,87.123,186.953,87.717,186.953z"/>
	<path fill="#2F2E72" d="M97.506,178.844c0.359,0,0.745,0.036,1.156,0.109l-0.148,0.742c-0.354-0.089-0.722-0.133-1.102-0.133
		c-0.724,0-1.318,0.308-1.781,0.922c-0.464,0.614-0.695,1.391-0.695,2.328v4.688h-0.773v-8.492h0.656l0.078,1.531h0.055
		c0.349-0.625,0.721-1.063,1.117-1.316C96.464,178.97,96.943,178.844,97.506,178.844z"/>
	<path fill="#2F2E72" d="M100.279,176.648c0-0.5,0.164-0.75,0.492-0.75c0.161,0,0.288,0.065,0.379,0.195
		c0.091,0.13,0.137,0.315,0.137,0.555c0,0.234-0.046,0.419-0.137,0.555c-0.091,0.136-0.218,0.203-0.379,0.203
		C100.443,177.406,100.279,177.153,100.279,176.648z M101.162,187.5h-0.773v-8.492h0.773V187.5z"/>
	<path fill="#2F2E72" d="M109.928,187.5v-5.508c0-0.854-0.18-1.476-0.539-1.863s-0.917-0.582-1.672-0.582
		c-1.016,0-1.759,0.257-2.23,0.77c-0.472,0.513-0.707,1.345-0.707,2.496v4.688h-0.773v-8.492h0.656l0.148,1.164h0.047
		c0.552-0.886,1.534-1.328,2.945-1.328c1.927,0,2.891,1.034,2.891,3.102v5.555H109.928z"/>
	<path fill="#2F2E72" d="M120.068,179.008v0.539l-1.758,0.109c0.469,0.583,0.703,1.224,0.703,1.922c0,0.817-0.272,1.48-0.816,1.988
		c-0.544,0.508-1.275,0.762-2.191,0.762c-0.386,0-0.656-0.016-0.812-0.047c-0.308,0.161-0.542,0.352-0.703,0.57
		c-0.162,0.219-0.242,0.45-0.242,0.695c0,0.271,0.103,0.469,0.309,0.594c0.206,0.125,0.551,0.188,1.035,0.188h1.484
		c0.922,0,1.627,0.187,2.117,0.559c0.489,0.372,0.734,0.923,0.734,1.652c0,0.896-0.363,1.587-1.09,2.074s-1.762,0.73-3.105,0.73
		c-1.068,0-1.895-0.206-2.48-0.617s-0.879-0.984-0.879-1.719c0-0.583,0.181-1.067,0.543-1.453c0.362-0.386,0.853-0.648,1.473-0.789
		c-0.255-0.109-0.46-0.265-0.613-0.465c-0.154-0.2-0.23-0.431-0.23-0.691c0-0.567,0.362-1.067,1.086-1.5
		c-0.495-0.203-0.88-0.522-1.156-0.957c-0.276-0.435-0.414-0.934-0.414-1.496c0-0.849,0.27-1.53,0.809-2.043s1.267-0.77,2.184-0.77
		c0.557,0,0.989,0.055,1.297,0.164H120.068z M113.193,188.938c0,1.167,0.867,1.75,2.602,1.75c2.229,0,3.344-0.711,3.344-2.133
		c0-0.511-0.175-0.88-0.523-1.109c-0.349-0.229-0.914-0.344-1.695-0.344h-1.391C113.972,187.102,113.193,187.714,113.193,188.938z
		 M113.842,181.656c0,0.656,0.199,1.165,0.598,1.527s0.931,0.543,1.598,0.543c0.708,0,1.251-0.18,1.629-0.539
		c0.377-0.359,0.566-0.88,0.566-1.562c0-0.724-0.194-1.267-0.582-1.629c-0.388-0.362-0.931-0.543-1.629-0.543
		c-0.677,0-1.21,0.194-1.598,0.582C114.036,180.423,113.842,180.964,113.842,181.656z"/>
</g>
<g enable-background="new    ">
	<path fill="#4591CE" d="M144.271,180.703c0,2.37-0.808,4.16-2.422,5.371c-1.615,1.211-3.933,1.816-6.953,1.816
		c-1.641,0-3.066-0.088-4.277-0.264s-2.448-0.498-3.711-0.967v-6.113c1.185,0.521,2.483,0.95,3.896,1.289
		c1.413,0.339,2.672,0.508,3.779,0.508c1.653,0,2.48-0.378,2.48-1.133c0-0.391-0.231-0.739-0.693-1.045
		c-0.462-0.306-1.807-0.901-4.033-1.787c-2.031-0.833-3.451-1.78-4.258-2.842c-0.808-1.062-1.211-2.405-1.211-4.033
		c0-2.058,0.794-3.659,2.383-4.805c1.588-1.146,3.834-1.719,6.738-1.719c1.458,0,2.829,0.159,4.111,0.479
		c1.282,0.319,2.614,0.784,3.994,1.396l-2.07,4.922c-1.016-0.456-2.09-0.843-3.223-1.162s-2.058-0.479-2.773-0.479
		c-1.25,0-1.875,0.306-1.875,0.918c0,0.378,0.218,0.7,0.654,0.967c0.436,0.267,1.696,0.811,3.779,1.631
		c1.549,0.638,2.705,1.263,3.467,1.875s1.321,1.331,1.68,2.158C144.092,178.513,144.271,179.519,144.271,180.703z"/>
	<path fill="#4591CE" d="M162.943,187.5l-1.465-2.93h-0.156c-1.029,1.276-2.077,2.148-3.145,2.617
		c-1.068,0.469-2.448,0.703-4.141,0.703c-2.083,0-3.724-0.625-4.922-1.875c-1.198-1.25-1.797-3.008-1.797-5.273
		c0-2.356,0.82-4.111,2.461-5.264s4.017-1.8,7.129-1.943l3.691-0.117v-0.312c0-1.823-0.898-2.734-2.695-2.734
		c-1.615,0-3.666,0.547-6.152,1.641l-2.207-5.039c2.578-1.328,5.833-1.992,9.766-1.992c2.838,0,5.036,0.703,6.592,2.109
		c1.556,1.406,2.334,3.372,2.334,5.898V187.5H162.943z M157.279,182.5c0.924,0,1.715-0.293,2.373-0.879
		c0.657-0.586,0.986-1.348,0.986-2.285v-1.719l-1.758,0.078c-2.513,0.091-3.77,1.016-3.77,2.773
		C155.111,181.823,155.834,182.5,157.279,182.5z"/>
	<path fill="#4591CE" d="M187.396,187.5v-12.07c0-1.472-0.212-2.581-0.635-3.33c-0.423-0.749-1.104-1.123-2.041-1.123
		c-1.289,0-2.22,0.515-2.793,1.543c-0.573,1.028-0.859,2.793-0.859,5.293v9.688h-7.637v-22.129h5.762l0.957,2.734h0.449
		c0.651-1.042,1.553-1.823,2.705-2.344s2.477-0.781,3.975-0.781c2.448,0,4.352,0.71,5.713,2.129c1.36,1.419,2.041,3.418,2.041,5.996
		V187.5H187.396z"/>
	<path fill="#4591CE" d="M207.104,187.891c-1.576,0-2.953-0.449-4.131-1.348c-1.179-0.898-2.09-2.22-2.734-3.965
		s-0.967-3.782-0.967-6.113c0-3.594,0.723-6.406,2.168-8.438s3.431-3.047,5.957-3.047c1.237,0,2.321,0.247,3.252,0.742
		c0.931,0.495,1.78,1.328,2.549,2.5h0.156c-0.248-1.731-0.371-3.464-0.371-5.195v-5.918h7.695V187.5h-5.762l-1.641-2.793h-0.293
		C211.667,186.829,209.708,187.891,207.104,187.891z M210.229,181.855c1.224,0,2.086-0.384,2.588-1.152
		c0.501-0.769,0.771-1.953,0.811-3.555v-0.605c0-1.953-0.28-3.343-0.84-4.17c-0.56-0.827-1.439-1.24-2.637-1.24
		c-1.003,0-1.781,0.472-2.334,1.416c-0.554,0.944-0.83,2.288-0.83,4.033c0,1.719,0.28,3.027,0.84,3.926
		C208.386,181.406,209.187,181.855,210.229,181.855z"/>
	<path fill="#4591CE" d="M240.385,187.5l-1.465-2.93h-0.156c-1.029,1.276-2.077,2.148-3.145,2.617
		c-1.068,0.469-2.448,0.703-4.141,0.703c-2.084,0-3.724-0.625-4.922-1.875c-1.198-1.25-1.797-3.008-1.797-5.273
		c0-2.356,0.82-4.111,2.461-5.264s4.017-1.8,7.129-1.943l3.691-0.117v-0.312c0-1.823-0.898-2.734-2.695-2.734
		c-1.615,0-3.666,0.547-6.152,1.641l-2.207-5.039c2.578-1.328,5.833-1.992,9.766-1.992c2.838,0,5.035,0.703,6.592,2.109
		c1.556,1.406,2.334,3.372,2.334,5.898V187.5H240.385z M234.721,182.5c0.924,0,1.715-0.293,2.373-0.879
		c0.657-0.586,0.986-1.348,0.986-2.285v-1.719l-1.758,0.078c-2.514,0.091-3.77,1.016-3.77,2.773
		C232.553,181.823,233.275,182.5,234.721,182.5z"/>
	<path fill="#4591CE" d="M258.51,187.5h-7.637v-30.391h7.637V187.5z"/>
	<path fill="#4591CE" d="M280.893,180.703c0,2.37-0.808,4.16-2.422,5.371c-1.615,1.211-3.933,1.816-6.953,1.816
		c-1.641,0-3.066-0.088-4.277-0.264s-2.448-0.498-3.711-0.967v-6.113c1.185,0.521,2.483,0.95,3.896,1.289
		c1.412,0.339,2.672,0.508,3.779,0.508c1.653,0,2.48-0.378,2.48-1.133c0-0.391-0.231-0.739-0.693-1.045
		c-0.463-0.306-1.807-0.901-4.033-1.787c-2.031-0.833-3.451-1.78-4.258-2.842c-0.808-1.062-1.211-2.405-1.211-4.033
		c0-2.058,0.794-3.659,2.383-4.805c1.588-1.146,3.834-1.719,6.738-1.719c1.458,0,2.828,0.159,4.111,0.479
		c1.282,0.319,2.613,0.784,3.994,1.396l-2.07,4.922c-1.016-0.456-2.09-0.843-3.223-1.162s-2.058-0.479-2.773-0.479
		c-1.25,0-1.875,0.306-1.875,0.918c0,0.378,0.218,0.7,0.654,0.967c0.436,0.267,1.695,0.811,3.779,1.631
		c1.549,0.638,2.705,1.263,3.467,1.875s1.321,1.331,1.68,2.158C280.713,178.513,280.893,179.519,280.893,180.703z"/>
</g>
<g enable-background="new    ">
	<path fill="#2F2E72" d="M295.096,183.242c0,1.386-0.336,2.468-1.008,3.246s-1.6,1.168-2.781,1.168c-0.745,0-1.401-0.18-1.969-0.539
		c-0.568-0.359-1.003-0.875-1.305-1.547c-0.303-0.672-0.453-1.448-0.453-2.328c0-1.386,0.336-2.465,1.008-3.238
		s1.594-1.16,2.766-1.16c1.166,0,2.082,0.392,2.746,1.176S295.096,181.878,295.096,183.242z M288.393,183.242
		c0,1.167,0.256,2.077,0.77,2.73c0.513,0.653,1.238,0.98,2.176,0.98s1.662-0.327,2.176-0.98c0.513-0.653,0.77-1.563,0.77-2.73
		c0-1.172-0.26-2.081-0.777-2.727c-0.519-0.646-1.246-0.969-2.184-0.969s-1.66,0.321-2.168,0.965S288.393,182.065,288.393,183.242z"
		/>
	<path fill="#2F2E72" d="M300.791,178.844c0.359,0,0.744,0.036,1.156,0.109l-0.148,0.742c-0.354-0.089-0.722-0.133-1.102-0.133
		c-0.725,0-1.318,0.308-1.781,0.922c-0.464,0.614-0.695,1.391-0.695,2.328v4.688h-0.773v-8.492h0.656l0.078,1.531h0.055
		c0.349-0.625,0.721-1.063,1.117-1.316C299.749,178.97,300.229,178.844,300.791,178.844z"/>
	<path fill="#2F2E72" d="M314.455,179.008v0.539l-1.758,0.109c0.469,0.583,0.703,1.224,0.703,1.922c0,0.817-0.272,1.48-0.816,1.988
		c-0.545,0.508-1.275,0.762-2.191,0.762c-0.386,0-0.656-0.016-0.812-0.047c-0.308,0.161-0.542,0.352-0.703,0.57
		c-0.162,0.219-0.242,0.45-0.242,0.695c0,0.271,0.103,0.469,0.309,0.594c0.205,0.125,0.551,0.188,1.035,0.188h1.484
		c0.922,0,1.627,0.187,2.117,0.559c0.489,0.372,0.734,0.923,0.734,1.652c0,0.896-0.363,1.587-1.09,2.074s-1.762,0.73-3.105,0.73
		c-1.068,0-1.895-0.206-2.48-0.617s-0.879-0.984-0.879-1.719c0-0.583,0.181-1.067,0.543-1.453c0.361-0.386,0.853-0.648,1.473-0.789
		c-0.256-0.109-0.46-0.265-0.613-0.465c-0.154-0.2-0.23-0.431-0.23-0.691c0-0.567,0.361-1.067,1.086-1.5
		c-0.495-0.203-0.881-0.522-1.156-0.957c-0.276-0.435-0.414-0.934-0.414-1.496c0-0.849,0.27-1.53,0.809-2.043s1.267-0.77,2.184-0.77
		c0.557,0,0.989,0.055,1.297,0.164H314.455z M307.58,188.938c0,1.167,0.867,1.75,2.602,1.75c2.229,0,3.344-0.711,3.344-2.133
		c0-0.511-0.175-0.88-0.523-1.109c-0.35-0.229-0.914-0.344-1.695-0.344h-1.391C308.358,187.102,307.58,187.714,307.58,188.938z
		 M308.229,181.656c0,0.656,0.199,1.165,0.598,1.527s0.931,0.543,1.598,0.543c0.708,0,1.251-0.18,1.629-0.539
		c0.377-0.359,0.566-0.88,0.566-1.562c0-0.724-0.194-1.267-0.582-1.629c-0.389-0.362-0.932-0.543-1.629-0.543
		c-0.678,0-1.21,0.194-1.598,0.582C308.422,180.423,308.229,180.964,308.229,181.656z"/>
	<path fill="#2F2E72" d="M323.221,183.242c0,1.386-0.336,2.468-1.008,3.246s-1.6,1.168-2.781,1.168c-0.745,0-1.401-0.18-1.969-0.539
		c-0.568-0.359-1.003-0.875-1.305-1.547c-0.303-0.672-0.453-1.448-0.453-2.328c0-1.386,0.336-2.465,1.008-3.238
		s1.594-1.16,2.766-1.16c1.166,0,2.082,0.392,2.746,1.176S323.221,181.878,323.221,183.242z M316.518,183.242
		c0,1.167,0.256,2.077,0.77,2.73c0.513,0.653,1.238,0.98,2.176,0.98s1.662-0.327,2.176-0.98c0.513-0.653,0.77-1.563,0.77-2.73
		c0-1.172-0.26-2.081-0.777-2.727c-0.519-0.646-1.246-0.969-2.184-0.969s-1.66,0.321-2.168,0.965S316.518,182.065,316.518,183.242z"
		/>
	<path fill="#2F2E72" d="M325.463,176.648c0-0.5,0.164-0.75,0.492-0.75c0.161,0,0.287,0.065,0.379,0.195
		c0.091,0.13,0.137,0.315,0.137,0.555c0,0.234-0.046,0.419-0.137,0.555c-0.092,0.136-0.218,0.203-0.379,0.203
		C325.627,177.406,325.463,177.153,325.463,176.648z M326.346,187.5h-0.773v-8.492h0.773V187.5z"/>
	<path fill="#2F2E72" d="M335.111,187.5v-5.508c0-0.854-0.18-1.476-0.539-1.863s-0.917-0.582-1.672-0.582
		c-1.016,0-1.76,0.257-2.23,0.77c-0.472,0.513-0.707,1.345-0.707,2.496v4.688h-0.773v-8.492h0.656l0.148,1.164h0.047
		c0.552-0.886,1.533-1.328,2.945-1.328c1.927,0,2.891,1.034,2.891,3.102v5.555H335.111z"/>
	<path fill="#2F2E72" d="M345.252,179.008v0.539l-1.758,0.109c0.469,0.583,0.703,1.224,0.703,1.922c0,0.817-0.272,1.48-0.816,1.988
		c-0.545,0.508-1.275,0.762-2.191,0.762c-0.386,0-0.656-0.016-0.812-0.047c-0.308,0.161-0.542,0.352-0.703,0.57
		c-0.162,0.219-0.242,0.45-0.242,0.695c0,0.271,0.103,0.469,0.309,0.594c0.205,0.125,0.551,0.188,1.035,0.188h1.484
		c0.922,0,1.627,0.187,2.117,0.559c0.489,0.372,0.734,0.923,0.734,1.652c0,0.896-0.363,1.587-1.09,2.074s-1.762,0.73-3.105,0.73
		c-1.068,0-1.895-0.206-2.48-0.617s-0.879-0.984-0.879-1.719c0-0.583,0.181-1.067,0.543-1.453c0.361-0.386,0.853-0.648,1.473-0.789
		c-0.256-0.109-0.46-0.265-0.613-0.465c-0.154-0.2-0.23-0.431-0.23-0.691c0-0.567,0.361-1.067,1.086-1.5
		c-0.495-0.203-0.881-0.522-1.156-0.957c-0.276-0.435-0.414-0.934-0.414-1.496c0-0.849,0.27-1.53,0.809-2.043s1.267-0.77,2.184-0.77
		c0.557,0,0.989,0.055,1.297,0.164H345.252z M338.377,188.938c0,1.167,0.867,1.75,2.602,1.75c2.229,0,3.344-0.711,3.344-2.133
		c0-0.511-0.175-0.88-0.523-1.109c-0.35-0.229-0.914-0.344-1.695-0.344h-1.391C339.155,187.102,338.377,187.714,338.377,188.938z
		 M339.025,181.656c0,0.656,0.199,1.165,0.598,1.527s0.931,0.543,1.598,0.543c0.708,0,1.251-0.18,1.629-0.539
		c0.377-0.359,0.566-0.88,0.566-1.562c0-0.724-0.194-1.267-0.582-1.629c-0.389-0.362-0.932-0.543-1.629-0.543
		c-0.678,0-1.21,0.194-1.598,0.582C339.219,180.423,339.025,180.964,339.025,181.656z"/>
</g>
<g enable-background="new    ">
	<path fill="#4591CE" d="M39.652,205.98c2.409,0,4.319,1.009,5.732,3.027c1.413,2.019,2.119,4.812,2.119,8.379
		c0,3.594-0.713,6.409-2.139,8.447s-3.408,3.057-5.947,3.057c-0.82,0-1.55-0.088-2.188-0.264c-0.638-0.176-1.208-0.42-1.709-0.732
		c-0.501-0.312-1.084-0.833-1.748-1.562h-0.469l-1.211,2.168h-5.957v-30.391h7.637v6.875c0,0.82-0.091,2.233-0.273,4.238h0.273
		c0.742-1.146,1.598-1.973,2.568-2.48C37.312,206.234,38.415,205.98,39.652,205.98z M36.859,211.977
		c-1.068,0-1.849,0.371-2.344,1.113c-0.495,0.742-0.742,1.907-0.742,3.496v1.074c0,1.81,0.247,3.108,0.742,3.896
		c0.495,0.788,1.302,1.182,2.422,1.182c0.898,0,1.588-0.459,2.07-1.377c0.481-0.918,0.723-2.269,0.723-4.053
		C39.73,213.754,38.773,211.977,36.859,211.977z"/>
	<path fill="#4591CE" d="M66.293,228.5l-1.465-2.93h-0.156c-1.029,1.276-2.077,2.148-3.145,2.617
		c-1.068,0.469-2.448,0.703-4.141,0.703c-2.083,0-3.724-0.625-4.922-1.875c-1.198-1.25-1.797-3.008-1.797-5.273
		c0-2.356,0.82-4.111,2.461-5.264s4.017-1.8,7.129-1.943l3.691-0.117v-0.312c0-1.823-0.898-2.734-2.695-2.734
		c-1.615,0-3.666,0.547-6.152,1.641l-2.207-5.039c2.578-1.328,5.833-1.992,9.766-1.992c2.838,0,5.036,0.703,6.592,2.109
		c1.556,1.406,2.334,3.372,2.334,5.898V228.5H66.293z M60.629,223.5c0.924,0,1.715-0.293,2.373-0.879
		c0.657-0.586,0.986-1.348,0.986-2.285v-1.719l-1.758,0.078c-2.513,0.091-3.77,1.016-3.77,2.773
		C58.461,222.823,59.184,223.5,60.629,223.5z"/>
	<path fill="#4591CE" d="M90.141,205.98c0.664,0,1.295,0.052,1.895,0.156l0.43,0.078l-0.684,7.207
		c-0.625-0.156-1.491-0.234-2.598-0.234c-1.667,0-2.878,0.381-3.633,1.143c-0.755,0.762-1.133,1.858-1.133,3.291V228.5h-7.637
		v-22.129h5.684l1.191,3.535h0.371c0.638-1.172,1.526-2.119,2.666-2.842C87.833,206.342,88.981,205.98,90.141,205.98z"/>
	<path fill="#4591CE" d="M106.234,228.891c-3.685,0-6.546-0.979-8.584-2.939c-2.038-1.96-3.057-4.749-3.057-8.369
		c0-3.737,0.944-6.604,2.832-8.604c1.888-1.999,4.583-2.998,8.086-2.998c3.333,0,5.908,0.869,7.725,2.607s2.725,4.241,2.725,7.51
		v3.398h-13.652c0.052,1.237,0.504,2.207,1.357,2.91c0.853,0.703,2.015,1.055,3.486,1.055c1.341,0,2.575-0.127,3.701-0.381
		c1.126-0.254,2.347-0.687,3.662-1.299v5.488c-1.198,0.612-2.435,1.035-3.711,1.27C109.528,228.773,108.005,228.891,106.234,228.891
		z M105.785,211.176c-0.898,0-1.65,0.283-2.256,0.85s-0.96,1.455-1.064,2.666h6.562c-0.026-1.067-0.329-1.921-0.908-2.559
		C107.54,211.495,106.762,211.176,105.785,211.176z"/>
	<path fill="#4591CE" d="M133.793,212.094h-4.707V228.5h-7.637v-16.406h-2.93v-3.75l3.086-1.875v-0.371
		c0-2.917,0.596-5.013,1.787-6.289s3.102-1.914,5.732-1.914c1.016,0,1.976,0.078,2.881,0.234c0.905,0.156,1.956,0.43,3.154,0.82
		l-1.641,4.941c-0.938-0.261-1.855-0.391-2.754-0.391c-0.586,0-1.013,0.179-1.279,0.537c-0.267,0.358-0.4,0.94-0.4,1.748v0.586
		h4.707V212.094z"/>
	<path fill="#4591CE" d="M157.934,217.387c0,3.62-0.974,6.442-2.92,8.467c-1.947,2.024-4.671,3.037-8.174,3.037
		c-3.359,0-6.032-1.035-8.018-3.105c-1.986-2.07-2.979-4.87-2.979-8.398c0-3.606,0.973-6.409,2.92-8.408
		c1.946-1.999,4.678-2.998,8.193-2.998c2.174,0,4.095,0.462,5.762,1.387c1.667,0.925,2.952,2.249,3.857,3.975
		C157.481,213.067,157.934,215.082,157.934,217.387z M143.598,217.387c0,1.901,0.254,3.35,0.762,4.346s1.36,1.494,2.559,1.494
		c1.185,0,2.021-0.498,2.51-1.494s0.732-2.444,0.732-4.346c0-1.888-0.248-3.313-0.742-4.277c-0.495-0.964-1.341-1.445-2.539-1.445
		c-1.172,0-2.012,0.479-2.52,1.436S143.598,215.485,143.598,217.387z"/>
	<path fill="#4591CE" d="M183.422,217.387c0,3.62-0.974,6.442-2.92,8.467c-1.947,2.024-4.671,3.037-8.174,3.037
		c-3.359,0-6.032-1.035-8.018-3.105c-1.986-2.07-2.979-4.87-2.979-8.398c0-3.606,0.973-6.409,2.92-8.408
		c1.946-1.999,4.678-2.998,8.193-2.998c2.174,0,4.095,0.462,5.762,1.387c1.667,0.925,2.952,2.249,3.857,3.975
		C182.969,213.067,183.422,215.082,183.422,217.387z M169.086,217.387c0,1.901,0.254,3.35,0.762,4.346s1.36,1.494,2.559,1.494
		c1.185,0,2.021-0.498,2.51-1.494s0.732-2.444,0.732-4.346c0-1.888-0.248-3.313-0.742-4.277c-0.495-0.964-1.341-1.445-2.539-1.445
		c-1.172,0-2.012,0.479-2.52,1.436S169.086,215.485,169.086,217.387z"/>
	<path fill="#4591CE" d="M198.617,222.855c1.028,0,2.259-0.254,3.691-0.762v5.566c-1.029,0.442-2.009,0.759-2.939,0.947
		c-0.931,0.188-2.021,0.283-3.271,0.283c-2.565,0-4.414-0.628-5.547-1.885s-1.699-3.187-1.699-5.791v-9.121h-2.676v-3.105
		l3.398-2.402l1.973-4.648h5v4.434h5.43v5.723h-5.43v8.613C196.547,222.14,197.237,222.855,198.617,222.855z"/>
	<path fill="#4591CE" d="M205.219,225.258c0-1.198,0.354-2.122,1.064-2.773c0.709-0.651,1.741-0.977,3.096-0.977
		c1.289,0,2.278,0.325,2.969,0.977c0.69,0.651,1.035,1.575,1.035,2.773c0,1.172-0.355,2.087-1.064,2.744
		c-0.71,0.657-1.689,0.986-2.939,0.986c-1.289,0-2.305-0.325-3.047-0.977S205.219,226.442,205.219,225.258z"/>
</g>
</svg>
