<?xml version="1.0" encoding="utf-8"?>
<!DOCTYPE svg PUBLIC "-//W3C//DTD SVG 1.1//EN" "http://www.w3.org/Graphics/SVG/1.1/DTD/svg11.dtd">
<svg version="1.1" id="Layer_1" xmlns="http://www.w3.org/2000/svg" xmlns:xlink="http://www.w3.org/1999/xlink" x="0px" y="0px"
	 width="415px" height="217px" viewBox="0 0 415 217" enable-background="new 0 0 415 217" xml:space="preserve">
<g>
	<path fill="#2D2E71" d="M276,54.25c-7.75-13-14.5-22.75-22.25-28.25s-21.25-12.5-34.5-3s-17.25,23.5-16,33.25s11,19.5,39,33.25
		c-0.5-8-3-21.25-5.75-27.25s-5.75-11.5-8.25-14.25s-2-6-0.75-7.75s5-2,12.75,2.75S262,52.5,276,54.25z"/>
	<path fill="#2D2E71" d="M285.5,65c8.25,7.5,20.75,17.25,26.75,22.5s16.5,17.25,7,30.5s-21.25,12-29.75,7.5s-28.25-24.5-37-29.25
		c0.25-9.5-2-31.75-9.25-41C248.5,57.25,261.25,63.25,285.5,65z"/>
	<path fill="#2D2E71" d="M331.289,74.928c-14.807-3.14-26.212-6.382-33.919-11.942c-7.707-5.561-18.688-16.079-13.974-31.686
		c4.715-15.607,16.676-23.911,26.308-25.875c9.632-1.964,22.006,4.118,44.058,26.183c-7.734,2.108-21.082,4.019-27.646,3.352
		c-6.566-0.667-12.74-1.731-16.149-3.21s-6.323,0.043-7.577,1.792c-1.254,1.748-0.279,5.378,6.719,11.18
		C316.102,50.524,325.115,62.241,331.289,74.928z"/>
	<path fill="#2D2E71" d="M344.529,80.45c9.762,5.388,23.022,14.073,29.93,18.057c6.905,3.985,21.652,10.05,31.127-3.218
		c9.477-13.268,4.5-23.984-2.502-30.578c-7.003-6.593-32.307-18.832-39.626-25.581c-8.911,3.303-30.696,8.354-41.792,4.477
		C325.254,47.931,335.048,58.062,344.529,80.45z"/>
</g>
<g>
	<path fill="#2F2E72" d="M7.853,124.116c-1.234,0-2.197-0.38-2.887-1.141c-0.69-0.761-1.035-1.825-1.035-3.195
		c0-1.354,0.333-2.438,1-3.254c0.667-0.815,1.565-1.223,2.695-1.223c1,0,1.789,0.349,2.367,1.047s0.867,1.646,0.867,2.844v0.625
		H4.744c0.01,1.167,0.282,2.058,0.816,2.672c0.534,0.614,1.298,0.922,2.293,0.922c0.484,0,0.91-0.034,1.277-0.102
		s0.832-0.214,1.395-0.438v0.703c-0.479,0.208-0.922,0.351-1.328,0.426S8.342,124.116,7.853,124.116z M7.626,115.991
		c-0.818,0-1.474,0.27-1.969,0.809c-0.495,0.539-0.784,1.316-0.867,2.332h5.25c0-0.984-0.214-1.754-0.641-2.309
		C8.973,116.269,8.381,115.991,7.626,115.991z"/>
	<path fill="#2F2E72" d="M15.447,123.429c0.489,0,0.917-0.042,1.281-0.125v0.625c-0.375,0.125-0.808,0.188-1.297,0.188
		c-0.75,0-1.304-0.2-1.66-0.602c-0.357-0.401-0.535-1.031-0.535-1.891v-5.484h-1.258v-0.453l1.258-0.352l0.391-1.922h0.398v2.055
		h2.492v0.672h-2.492v5.375c0,0.651,0.114,1.133,0.344,1.445C14.598,123.272,14.957,123.429,15.447,123.429z"/>
	<path fill="#2F2E72" d="M36.212,102.442c1.887,0,3.59,0.438,5.11,1.314c1.52,0.876,2.703,2.115,3.549,3.717
		c0.846,1.603,1.269,3.452,1.269,5.548c0,3.669-1.104,6.483-3.313,8.445c-2.209,1.962-5.552,2.942-10.029,2.942
		c-3.833,0-6.963-0.592-9.389-1.774v-7.277c1.303,0.599,2.774,1.093,4.414,1.482s3.051,0.584,4.234,0.584
		c1.647,0,2.912-0.349,3.796-1.044c0.883-0.697,1.325-1.727,1.325-3.089c0-1.258-0.449-2.238-1.348-2.942s-2.261-1.056-4.088-1.056
		c-1.393,0-2.897,0.262-4.515,0.786l-3.257-1.617l1.235-17.34h18.732v7.39H32.753l-0.404,4.335c1.168-0.225,1.999-0.348,2.493-0.371
		S35.793,102.442,36.212,102.442z"/>
	<path fill="#2F2E72" d="M73.587,107.586c0,5.81-0.974,10.066-2.92,12.769c-1.947,2.703-4.927,4.055-8.939,4.055
		c-3.923,0-6.881-1.411-8.872-4.234c-1.992-2.822-2.987-7.019-2.987-12.589c0-5.84,0.973-10.122,2.92-12.848
		c1.946-2.725,4.926-4.088,8.939-4.088c3.908,0,6.862,1.419,8.861,4.256C72.588,97.745,73.587,101.971,73.587,107.586z
		 M58.696,107.586c0,3.714,0.232,6.267,0.696,7.659c0.464,1.393,1.243,2.089,2.336,2.089c1.108,0,1.89-0.719,2.347-2.156
		c0.457-1.438,0.685-3.968,0.685-7.592c0-3.639-0.232-6.188-0.696-7.648c-0.464-1.46-1.243-2.19-2.336-2.19
		c-1.093,0-1.872,0.704-2.336,2.111C58.928,101.267,58.696,103.843,58.696,107.586z"/>
	<path fill="#2F2E72" d="M92.971,100.915c0,3.294-0.741,5.844-2.224,7.648s-3.594,2.707-6.334,2.707
		c-2.576,0-4.616-0.932-6.121-2.796c-1.505-1.864-2.257-4.383-2.257-7.558c0-3.294,0.733-5.829,2.201-7.603
		c1.467-1.774,3.526-2.662,6.177-2.662c2.62,0,4.702,0.921,6.244,2.763C92.2,95.255,92.971,97.756,92.971,100.915z M82.796,101.005
		c0,1.722,0.142,2.965,0.427,3.729c0.284,0.764,0.711,1.146,1.28,1.146c0.569,0,0.992-0.374,1.269-1.123
		c0.277-0.749,0.416-1.999,0.416-3.751c0-1.722-0.139-2.965-0.416-3.729c-0.277-0.764-0.7-1.146-1.269-1.146
		c-0.584,0-1.015,0.39-1.292,1.168C82.935,98.078,82.796,99.313,82.796,101.005z M109.345,91.122L91.129,123.96h-6.671
		l18.216-32.838H109.345z M117.948,113.987c0,3.279-0.745,5.821-2.235,7.625c-1.49,1.805-3.598,2.707-6.323,2.707
		c-2.576,0-4.616-0.932-6.121-2.797c-1.505-1.863-2.257-4.376-2.257-7.535c0-3.294,0.733-5.829,2.201-7.603
		c1.467-1.774,3.526-2.662,6.177-2.662c2.62,0,4.702,0.921,6.244,2.763C117.176,108.327,117.948,110.828,117.948,113.987z
		 M107.773,114.077c0,1.722,0.142,2.965,0.427,3.729c0.284,0.764,0.711,1.146,1.28,1.146c0.644,0,1.089-0.438,1.336-1.313
		c0.247-0.877,0.371-2.063,0.371-3.561s-0.124-2.684-0.371-3.56c-0.247-0.877-0.693-1.314-1.336-1.314
		c-0.584,0-1.015,0.39-1.292,1.168C107.911,111.149,107.773,112.385,107.773,114.077z"/>
	<path fill="#2F2E72" d="M127.511,115.304c0.614,0,1.146,0.112,1.594,0.336c0.448,0.224,0.849,0.606,1.203,1.148h0.047
		c-0.031-0.656-0.047-1.3-0.047-1.93v-3.055h0.766v12.156h-0.508l-0.195-1.297h-0.062c-0.646,0.969-1.573,1.453-2.781,1.453
		c-1.172,0-2.068-0.364-2.688-1.094c-0.62-0.729-0.93-1.792-0.93-3.188c0-1.469,0.307-2.591,0.922-3.367
		C125.446,115.691,126.339,115.304,127.511,115.304z M127.511,116.007c-0.927,0-1.624,0.325-2.09,0.977
		c-0.466,0.651-0.699,1.597-0.699,2.836c0,2.406,0.935,3.609,2.805,3.609c0.958,0,1.661-0.278,2.109-0.836
		c0.448-0.558,0.672-1.477,0.672-2.758v-0.133c0-1.312-0.22-2.257-0.66-2.832C129.208,116.295,128.496,116.007,127.511,116.007z"/>
	<path fill="#2F2E72" d="M137.355,124.116c-1.234,0-2.197-0.38-2.887-1.141c-0.69-0.761-1.035-1.825-1.035-3.195
		c0-1.354,0.333-2.438,1-3.254c0.667-0.815,1.565-1.223,2.695-1.223c1,0,1.789,0.349,2.367,1.047s0.867,1.646,0.867,2.844v0.625
		h-6.117c0.01,1.167,0.282,2.058,0.816,2.672c0.534,0.614,1.298,0.922,2.293,0.922c0.484,0,0.91-0.034,1.277-0.102
		s0.832-0.214,1.395-0.438v0.703c-0.479,0.208-0.922,0.351-1.328,0.426S137.844,124.116,137.355,124.116z M137.128,115.991
		c-0.818,0-1.474,0.27-1.969,0.809c-0.495,0.539-0.784,1.316-0.867,2.332h5.25c0-0.984-0.214-1.754-0.641-2.309
		C138.475,116.269,137.883,115.991,137.128,115.991z"/>
	<path fill="#2F2E72" d="M150.253,124.116c-1.214,0-2.164-0.383-2.852-1.148s-1.031-1.833-1.031-3.203
		c0-1.406,0.356-2.501,1.07-3.285c0.713-0.784,1.69-1.176,2.93-1.176c0.734,0,1.438,0.128,2.109,0.383l-0.211,0.688
		c-0.734-0.245-1.373-0.367-1.914-0.367c-1.042,0-1.831,0.321-2.367,0.965c-0.537,0.644-0.805,1.569-0.805,2.777
		c0,1.146,0.268,2.043,0.805,2.691c0.536,0.648,1.286,0.973,2.25,0.973c0.771,0,1.487-0.138,2.148-0.414v0.719
		C151.844,123.983,151.133,124.116,150.253,124.116z"/>
	<path fill="#2F2E72" d="M157.894,124.116c-1.234,0-2.197-0.38-2.887-1.141c-0.69-0.761-1.035-1.825-1.035-3.195
		c0-1.354,0.333-2.438,1-3.254c0.667-0.815,1.565-1.223,2.695-1.223c1,0,1.789,0.349,2.367,1.047s0.867,1.646,0.867,2.844v0.625
		h-6.117c0.01,1.167,0.282,2.058,0.816,2.672c0.534,0.614,1.298,0.922,2.293,0.922c0.484,0,0.91-0.034,1.277-0.102
		s0.832-0.214,1.395-0.438v0.703c-0.479,0.208-0.922,0.351-1.328,0.426S158.383,124.116,157.894,124.116z M157.667,115.991
		c-0.818,0-1.474,0.27-1.969,0.809c-0.495,0.539-0.784,1.316-0.867,2.332h5.25c0-0.984-0.214-1.754-0.641-2.309
		C159.014,116.269,158.422,115.991,157.667,115.991z"/>
	<path fill="#2F2E72" d="M163.917,115.468v5.5c0,0.854,0.18,1.476,0.539,1.863s0.917,0.582,1.672,0.582
		c1.01,0,1.754-0.255,2.23-0.766s0.715-1.341,0.715-2.492v-4.688h0.766v8.492h-0.656l-0.141-1.172h-0.047
		c-0.552,0.886-1.534,1.328-2.945,1.328c-1.933,0-2.898-1.034-2.898-3.102v-5.547H163.917z"/>
	<path fill="#2F2E72" d="M174.769,119.593l-2.961-4.125h0.891l2.531,3.578l2.508-3.578h0.852l-2.914,4.125l3.125,4.367h-0.898
		l-2.672-3.789l-2.688,3.789h-0.852L174.769,119.593z"/>
	<path fill="#2F2E72" d="M179.949,119.96v-0.641h3.711v0.641H179.949z"/>
	<path fill="#2F2E72" d="M189.191,124.116c-1.214,0-2.164-0.383-2.852-1.148s-1.031-1.833-1.031-3.203
		c0-1.406,0.356-2.501,1.07-3.285c0.713-0.784,1.69-1.176,2.93-1.176c0.734,0,1.438,0.128,2.109,0.383l-0.211,0.688
		c-0.734-0.245-1.373-0.367-1.914-0.367c-1.042,0-1.831,0.321-2.367,0.965c-0.537,0.644-0.805,1.569-0.805,2.777
		c0,1.146,0.268,2.043,0.805,2.691c0.536,0.648,1.286,0.973,2.25,0.973c0.771,0,1.487-0.138,2.148-0.414v0.719
		C190.782,123.983,190.071,124.116,189.191,124.116z"/>
	<path fill="#2F2E72" d="M193.292,113.108c0-0.5,0.164-0.75,0.492-0.75c0.161,0,0.288,0.065,0.379,0.195
		c0.091,0.13,0.137,0.315,0.137,0.555c0,0.234-0.046,0.419-0.137,0.555c-0.091,0.136-0.218,0.203-0.379,0.203
		C193.457,113.866,193.292,113.613,193.292,113.108z M194.175,123.96h-0.773v-8.492h0.773V123.96z"/>
	<path fill="#2F2E72" d="M204.605,124.116c-1.234,0-2.197-0.38-2.887-1.141c-0.69-0.761-1.035-1.825-1.035-3.195
		c0-1.354,0.333-2.438,1-3.254c0.667-0.815,1.565-1.223,2.695-1.223c1,0,1.789,0.349,2.367,1.047s0.867,1.646,0.867,2.844v0.625
		h-6.117c0.01,1.167,0.282,2.058,0.816,2.672c0.534,0.614,1.298,0.922,2.293,0.922c0.484,0,0.91-0.034,1.277-0.102
		s0.832-0.214,1.395-0.438v0.703c-0.479,0.208-0.922,0.351-1.328,0.426S205.094,124.116,204.605,124.116z M204.378,115.991
		c-0.818,0-1.474,0.27-1.969,0.809c-0.495,0.539-0.784,1.316-0.867,2.332h5.25c0-0.984-0.214-1.754-0.641-2.309
		C205.725,116.269,205.133,115.991,204.378,115.991z M203.285,114.14c0.38-0.411,0.756-0.858,1.129-1.34
		c0.372-0.481,0.626-0.848,0.762-1.098h1.102v0.133c-0.188,0.271-0.507,0.63-0.957,1.078c-0.451,0.448-0.947,0.898-1.488,1.352
		h-0.547V114.14z"/>
	<path fill="#2F2E72" d="M211.816,123.96l-3.281-8.492h0.797l2.195,5.773c0.291,0.739,0.51,1.386,0.656,1.938h0.047
		c0.213-0.708,0.432-1.359,0.656-1.953l2.195-5.758h0.797l-3.281,8.492H211.816z"/>
	<path fill="#2F2E72" d="M217.191,113.108c0-0.5,0.164-0.75,0.492-0.75c0.161,0,0.287,0.065,0.379,0.195
		c0.091,0.13,0.137,0.315,0.137,0.555c0,0.234-0.046,0.419-0.137,0.555c-0.092,0.136-0.218,0.203-0.379,0.203
		C217.355,113.866,217.191,113.613,217.191,113.108z M218.074,123.96h-0.773v-8.492h0.773V123.96z"/>
	<path fill="#2F2E72" d="M223.16,123.429c0.489,0,0.916-0.042,1.281-0.125v0.625c-0.375,0.125-0.808,0.188-1.297,0.188
		c-0.75,0-1.304-0.2-1.66-0.602c-0.357-0.401-0.535-1.031-0.535-1.891v-5.484h-1.258v-0.453l1.258-0.352l0.391-1.922h0.398v2.055
		h2.492v0.672h-2.492v5.375c0,0.651,0.114,1.133,0.344,1.445C222.311,123.272,222.67,123.429,223.16,123.429z"/>
	<path fill="#2F2E72" d="M229.707,124.116c-1.234,0-2.196-0.38-2.887-1.141s-1.035-1.825-1.035-3.195c0-1.354,0.333-2.438,1-3.254
		s1.565-1.223,2.695-1.223c1,0,1.789,0.349,2.367,1.047s0.867,1.646,0.867,2.844v0.625h-6.117c0.01,1.167,0.282,2.058,0.816,2.672
		s1.298,0.922,2.293,0.922c0.484,0,0.91-0.034,1.277-0.102s0.832-0.214,1.395-0.438v0.703c-0.479,0.208-0.922,0.351-1.328,0.426
		S230.196,124.116,229.707,124.116z M229.48,115.991c-0.817,0-1.474,0.27-1.969,0.809s-0.784,1.316-0.867,2.332h5.25
		c0-0.984-0.214-1.754-0.641-2.309S230.235,115.991,229.48,115.991z"/>
	<path fill="#2F2E72" d="M240.98,123.96v-5.508c0-0.854-0.18-1.476-0.539-1.863s-0.917-0.582-1.672-0.582
		c-1.016,0-1.759,0.257-2.23,0.77s-0.707,1.345-0.707,2.496v4.688h-0.773v-8.492h0.656l0.148,1.164h0.047
		c0.552-0.886,1.534-1.328,2.945-1.328c1.927,0,2.891,1.034,2.891,3.102v5.555H240.98z"/>
	<path fill="#2F2E72" d="M246.738,123.429c0.489,0,0.917-0.042,1.281-0.125v0.625c-0.375,0.125-0.808,0.188-1.297,0.188
		c-0.75,0-1.304-0.2-1.66-0.602s-0.535-1.031-0.535-1.891v-5.484h-1.258v-0.453l1.258-0.352l0.391-1.922h0.398v2.055h2.492v0.672
		h-2.492v5.375c0,0.651,0.114,1.133,0.344,1.445S246.249,123.429,246.738,123.429z"/>
	<path fill="#2F2E72" d="M7.533,152.304c0.614,0,1.146,0.112,1.594,0.336c0.448,0.224,0.849,0.606,1.203,1.148h0.047
		c-0.031-0.656-0.047-1.3-0.047-1.93v-3.055h0.766v12.156h-0.508l-0.195-1.297H10.33c-0.646,0.969-1.573,1.453-2.781,1.453
		c-1.172,0-2.068-0.364-2.688-1.094c-0.62-0.729-0.93-1.792-0.93-3.188c0-1.469,0.307-2.591,0.922-3.367
		C5.467,152.691,6.361,152.304,7.533,152.304z M7.533,153.007c-0.927,0-1.624,0.325-2.09,0.977
		c-0.466,0.651-0.699,1.597-0.699,2.836c0,2.406,0.935,3.609,2.805,3.609c0.958,0,1.661-0.278,2.109-0.836
		c0.448-0.558,0.672-1.477,0.672-2.758v-0.133c0-1.312-0.22-2.257-0.66-2.832C9.229,153.295,8.517,153.007,7.533,153.007z"/>
	<path fill="#2F2E72" d="M17.376,161.116c-1.234,0-2.197-0.38-2.887-1.141c-0.69-0.761-1.035-1.825-1.035-3.195
		c0-1.354,0.333-2.438,1-3.254c0.667-0.815,1.565-1.223,2.695-1.223c1,0,1.789,0.349,2.367,1.047s0.867,1.646,0.867,2.844v0.625
		h-6.117c0.01,1.167,0.282,2.058,0.816,2.672c0.534,0.614,1.298,0.922,2.293,0.922c0.484,0,0.91-0.034,1.277-0.102
		s0.832-0.214,1.395-0.438v0.703c-0.479,0.208-0.922,0.351-1.328,0.426S17.866,161.116,17.376,161.116z M17.15,152.991
		c-0.818,0-1.474,0.27-1.969,0.809c-0.495,0.539-0.784,1.316-0.867,2.332h5.25c0-0.984-0.214-1.754-0.641-2.309
		C18.496,153.269,17.905,152.991,17.15,152.991z"/>
	<path fill="#2F2E72" d="M30.517,161.116c-1.308,0-2.261-0.489-2.859-1.469h-0.055l0.023,0.656c0.021,0.386,0.031,0.808,0.031,1.266
		v3.234h-0.773v-12.336h0.656l0.148,1.211h0.047c0.583-0.917,1.516-1.375,2.797-1.375c1.146,0,2.02,0.376,2.621,1.129
		s0.902,1.848,0.902,3.285c0,1.396-0.316,2.478-0.949,3.246S31.611,161.116,30.517,161.116z M30.501,160.429
		c0.87,0,1.543-0.323,2.02-0.969s0.715-1.55,0.715-2.711c0-2.495-0.901-3.742-2.703-3.742c-0.99,0-1.716,0.272-2.18,0.816
		c-0.464,0.544-0.695,1.431-0.695,2.66v0.25c0,1.328,0.223,2.276,0.668,2.844S29.496,160.429,30.501,160.429z"/>
	<path fill="#2F2E72" d="M43.431,156.702c0,1.386-0.336,2.468-1.008,3.246s-1.599,1.168-2.781,1.168
		c-0.745,0-1.401-0.18-1.969-0.539c-0.568-0.359-1.003-0.875-1.305-1.547c-0.302-0.672-0.453-1.448-0.453-2.328
		c0-1.386,0.336-2.465,1.008-3.238s1.594-1.16,2.766-1.16c1.167,0,2.082,0.392,2.746,1.176S43.431,155.338,43.431,156.702z
		 M36.728,156.702c0,1.167,0.256,2.077,0.77,2.73c0.513,0.653,1.238,0.98,2.176,0.98s1.663-0.327,2.176-0.98
		c0.513-0.653,0.77-1.563,0.77-2.73c0-1.172-0.259-2.081-0.777-2.727c-0.519-0.646-1.246-0.969-2.184-0.969s-1.66,0.321-2.168,0.965
		S36.728,155.525,36.728,156.702z"/>
	<path fill="#2F2E72" d="M49.126,152.304c0.359,0,0.745,0.036,1.156,0.109l-0.148,0.742c-0.354-0.089-0.722-0.133-1.102-0.133
		c-0.724,0-1.318,0.308-1.781,0.922c-0.464,0.614-0.695,1.391-0.695,2.328v4.688h-0.773v-8.492h0.656l0.078,1.531h0.055
		c0.349-0.625,0.721-1.063,1.117-1.316C48.084,152.43,48.564,152.304,49.126,152.304z"/>
	<path fill="#2F2E72" d="M54.251,160.429c0.489,0,0.917-0.042,1.281-0.125v0.625c-0.375,0.125-0.808,0.188-1.297,0.188
		c-0.75,0-1.304-0.2-1.66-0.602c-0.357-0.401-0.535-1.031-0.535-1.891v-5.484h-1.258v-0.453l1.258-0.352l0.391-1.922h0.398v2.055
		h2.492v0.672H52.83v5.375c0,0.651,0.114,1.133,0.344,1.445C53.402,160.272,53.762,160.429,54.251,160.429z"/>
	<path fill="#2F2E72" d="M60.798,161.116c-1.234,0-2.197-0.38-2.887-1.141c-0.69-0.761-1.035-1.825-1.035-3.195
		c0-1.354,0.333-2.438,1-3.254c0.667-0.815,1.565-1.223,2.695-1.223c1,0,1.789,0.349,2.367,1.047s0.867,1.646,0.867,2.844v0.625
		h-6.117c0.01,1.167,0.282,2.058,0.816,2.672c0.534,0.614,1.298,0.922,2.293,0.922c0.484,0,0.91-0.034,1.277-0.102
		s0.832-0.214,1.395-0.438v0.703c-0.479,0.208-0.922,0.351-1.328,0.426S61.288,161.116,60.798,161.116z M60.572,152.991
		c-0.818,0-1.474,0.27-1.969,0.809c-0.495,0.539-0.784,1.316-0.867,2.332h5.25c0-0.984-0.214-1.754-0.641-2.309
		C61.918,153.269,61.327,152.991,60.572,152.991z"/>
	<path fill="#2F2E72" d="M69.494,152.304c0.359,0,0.745,0.036,1.156,0.109l-0.148,0.742c-0.354-0.089-0.722-0.133-1.102-0.133
		c-0.724,0-1.318,0.308-1.781,0.922c-0.464,0.614-0.695,1.391-0.695,2.328v4.688H66.15v-8.492h0.656l0.078,1.531h0.055
		c0.349-0.625,0.721-1.063,1.117-1.316C68.452,152.43,68.931,152.304,69.494,152.304z"/>
	<path fill="#2F2E72" d="M79.642,152.304c0.614,0,1.146,0.112,1.594,0.336c0.448,0.224,0.849,0.606,1.203,1.148h0.047
		c-0.031-0.656-0.047-1.3-0.047-1.93v-3.055h0.766v12.156h-0.508l-0.195-1.297h-0.062c-0.646,0.969-1.573,1.453-2.781,1.453
		c-1.172,0-2.068-0.364-2.688-1.094c-0.62-0.729-0.93-1.792-0.93-3.188c0-1.469,0.307-2.591,0.922-3.367
		C77.577,152.691,78.47,152.304,79.642,152.304z M79.642,153.007c-0.927,0-1.624,0.325-2.09,0.977
		c-0.466,0.651-0.699,1.597-0.699,2.836c0,2.406,0.935,3.609,2.805,3.609c0.958,0,1.661-0.278,2.109-0.836
		c0.448-0.558,0.672-1.477,0.672-2.758v-0.133c0-1.312-0.22-2.257-0.66-2.832C81.338,153.295,80.626,153.007,79.642,153.007z"/>
	<path fill="#2F2E72" d="M89.486,161.116c-1.234,0-2.197-0.38-2.887-1.141c-0.69-0.761-1.035-1.825-1.035-3.195
		c0-1.354,0.333-2.438,1-3.254c0.667-0.815,1.565-1.223,2.695-1.223c1,0,1.789,0.349,2.367,1.047s0.867,1.646,0.867,2.844v0.625
		h-6.117c0.01,1.167,0.282,2.058,0.816,2.672c0.534,0.614,1.298,0.922,2.293,0.922c0.484,0,0.91-0.034,1.277-0.102
		s0.832-0.214,1.395-0.438v0.703c-0.479,0.208-0.922,0.351-1.328,0.426S89.975,161.116,89.486,161.116z M89.259,152.991
		c-0.818,0-1.474,0.27-1.969,0.809c-0.495,0.539-0.784,1.316-0.867,2.332h5.25c0-0.984-0.214-1.754-0.641-2.309
		C90.605,153.269,90.014,152.991,89.259,152.991z"/>
	<path fill="#2F2E72" d="M100.103,158.749c0,0.761-0.289,1.345-0.867,1.754s-1.398,0.613-2.461,0.613
		c-1.136,0-2.037-0.175-2.703-0.523v-0.836c0.854,0.427,1.755,0.641,2.703,0.641c0.838,0,1.475-0.14,1.91-0.418
		c0.435-0.278,0.652-0.649,0.652-1.113c0-0.427-0.173-0.786-0.52-1.078c-0.347-0.292-0.916-0.578-1.707-0.859
		c-0.849-0.308-1.445-0.571-1.789-0.793s-0.603-0.472-0.777-0.75c-0.175-0.278-0.262-0.618-0.262-1.02
		c0-0.636,0.267-1.138,0.801-1.508c0.534-0.37,1.28-0.555,2.238-0.555c0.917,0,1.786,0.172,2.609,0.516l-0.289,0.703
		c-0.833-0.344-1.607-0.516-2.32-0.516c-0.693,0-1.242,0.114-1.648,0.344s-0.609,0.547-0.609,0.953c0,0.442,0.157,0.797,0.473,1.062
		c0.315,0.266,0.931,0.562,1.848,0.891c0.766,0.276,1.323,0.524,1.672,0.746c0.349,0.222,0.61,0.473,0.785,0.754
		C100.016,158.038,100.103,158.369,100.103,158.749z"/>
	<path fill="#4591CE" d="M124.751,154.163c0,2.37-0.808,4.16-2.422,5.371c-1.615,1.211-3.933,1.816-6.953,1.816
		c-1.641,0-3.066-0.088-4.277-0.264s-2.448-0.498-3.711-0.967v-6.113c1.185,0.521,2.483,0.95,3.896,1.289
		c1.413,0.339,2.672,0.508,3.779,0.508c1.653,0,2.48-0.378,2.48-1.133c0-0.391-0.231-0.739-0.693-1.045
		c-0.462-0.306-1.807-0.901-4.033-1.787c-2.031-0.833-3.451-1.78-4.258-2.842c-0.808-1.062-1.211-2.405-1.211-4.033
		c0-2.058,0.794-3.659,2.383-4.805c1.588-1.146,3.834-1.719,6.738-1.719c1.458,0,2.829,0.159,4.111,0.479
		c1.282,0.319,2.614,0.784,3.994,1.396l-2.07,4.922c-1.016-0.456-2.09-0.843-3.223-1.162s-2.058-0.479-2.773-0.479
		c-1.25,0-1.875,0.306-1.875,0.918c0,0.378,0.218,0.7,0.654,0.967c0.436,0.267,1.696,0.811,3.779,1.631
		c1.549,0.638,2.705,1.263,3.467,1.875s1.321,1.331,1.68,2.158C124.572,151.973,124.751,152.979,124.751,154.163z"/>
	<path fill="#4591CE" d="M143.423,160.96l-1.465-2.93h-0.156c-1.029,1.276-2.077,2.148-3.145,2.617
		c-1.068,0.469-2.448,0.703-4.141,0.703c-2.083,0-3.724-0.625-4.922-1.875c-1.198-1.25-1.797-3.008-1.797-5.273
		c0-2.356,0.82-4.111,2.461-5.264s4.017-1.8,7.129-1.943l3.691-0.117v-0.312c0-1.823-0.898-2.734-2.695-2.734
		c-1.615,0-3.666,0.547-6.152,1.641l-2.207-5.039c2.578-1.328,5.833-1.992,9.766-1.992c2.838,0,5.036,0.703,6.592,2.109
		c1.556,1.406,2.334,3.372,2.334,5.898v14.512H143.423z M137.759,155.96c0.924,0,1.715-0.293,2.373-0.879
		c0.657-0.586,0.986-1.348,0.986-2.285v-1.719l-1.758,0.078c-2.513,0.091-3.77,1.016-3.77,2.773
		C135.591,155.283,136.314,155.96,137.759,155.96z"/>
	<path fill="#4591CE" d="M167.876,160.96v-12.07c0-1.472-0.212-2.581-0.635-3.33c-0.423-0.749-1.104-1.123-2.041-1.123
		c-1.289,0-2.22,0.515-2.793,1.543c-0.573,1.028-0.859,2.793-0.859,5.293v9.688h-7.637v-22.129h5.762l0.957,2.734h0.449
		c0.651-1.042,1.553-1.823,2.705-2.344s2.477-0.781,3.975-0.781c2.448,0,4.352,0.71,5.713,2.129c1.36,1.419,2.041,3.418,2.041,5.996
		v14.395H167.876z"/>
	<path fill="#4591CE" d="M187.583,161.351c-1.576,0-2.953-0.449-4.131-1.348c-1.179-0.898-2.09-2.22-2.734-3.965
		s-0.967-3.782-0.967-6.113c0-3.594,0.723-6.406,2.168-8.438s3.431-3.047,5.957-3.047c1.237,0,2.321,0.247,3.252,0.742
		c0.931,0.495,1.78,1.328,2.549,2.5h0.156c-0.248-1.731-0.371-3.464-0.371-5.195v-5.918h7.695v30.391h-5.762l-1.641-2.793h-0.293
		C192.147,160.289,190.188,161.351,187.583,161.351z M190.708,155.315c1.224,0,2.086-0.384,2.588-1.152
		c0.501-0.769,0.771-1.953,0.811-3.555v-0.605c0-1.953-0.28-3.343-0.84-4.17c-0.56-0.827-1.439-1.24-2.637-1.24
		c-1.003,0-1.781,0.472-2.334,1.416c-0.554,0.944-0.83,2.288-0.83,4.033c0,1.719,0.28,3.027,0.84,3.926
		C188.866,154.866,189.667,155.315,190.708,155.315z"/>
	<path fill="#4591CE" d="M220.865,160.96l-1.465-2.93h-0.156c-1.029,1.276-2.077,2.148-3.145,2.617
		c-1.068,0.469-2.448,0.703-4.141,0.703c-2.084,0-3.725-0.625-4.922-1.875c-1.198-1.25-1.797-3.008-1.797-5.273
		c0-2.356,0.82-4.111,2.461-5.264c1.641-1.152,4.017-1.8,7.129-1.943l3.691-0.117v-0.312c0-1.823-0.898-2.734-2.695-2.734
		c-1.615,0-3.666,0.547-6.152,1.641l-2.208-5.039c2.579-1.328,5.833-1.992,9.766-1.992c2.838,0,5.035,0.703,6.592,2.109
		c1.556,1.406,2.334,3.372,2.334,5.898v14.512H220.865z M215.201,155.96c0.924,0,1.715-0.293,2.373-0.879
		c0.657-0.586,0.986-1.348,0.986-2.285v-1.719l-1.758,0.078c-2.514,0.091-3.77,1.016-3.77,2.773
		C213.033,155.283,213.756,155.96,215.201,155.96z"/>
	<path fill="#4591CE" d="M238.99,160.96h-7.637v-30.391h7.637V160.96z"/>
	<path fill="#4591CE" d="M254.967,161.351c-3.685,0-6.546-0.979-8.584-2.939s-3.057-4.749-3.057-8.369
		c0-3.737,0.944-6.604,2.832-8.604s4.583-2.998,8.086-2.998c3.333,0,5.908,0.869,7.725,2.607s2.725,4.241,2.725,7.51v3.398h-13.652
		c0.052,1.237,0.505,2.207,1.357,2.91s2.015,1.055,3.486,1.055c1.341,0,2.575-0.127,3.701-0.381s2.347-0.687,3.662-1.299v5.488
		c-1.198,0.612-2.435,1.035-3.711,1.27S256.737,161.351,254.967,161.351z M254.518,143.636c-0.898,0-1.65,0.283-2.256,0.85
		s-0.96,1.455-1.064,2.666h6.562c-0.026-1.067-0.329-1.921-0.908-2.559S255.494,143.636,254.518,143.636z"/>
	<path fill="#4591CE" d="M286.1,154.163c0,2.37-0.808,4.16-2.422,5.371s-3.933,1.816-6.953,1.816c-1.641,0-3.066-0.088-4.277-0.264
		s-2.448-0.498-3.711-0.967v-6.113c1.185,0.521,2.483,0.95,3.896,1.289s2.673,0.508,3.779,0.508c1.653,0,2.48-0.378,2.48-1.133
		c0-0.391-0.231-0.739-0.693-1.045s-1.807-0.901-4.033-1.787c-2.031-0.833-3.45-1.78-4.258-2.842s-1.211-2.405-1.211-4.033
		c0-2.058,0.794-3.659,2.383-4.805s3.835-1.719,6.738-1.719c1.458,0,2.829,0.159,4.111,0.479s2.614,0.784,3.994,1.396l-2.07,4.922
		c-1.016-0.456-2.09-0.843-3.223-1.162s-2.058-0.479-2.773-0.479c-1.25,0-1.875,0.306-1.875,0.918c0,0.378,0.218,0.7,0.654,0.967
		s1.696,0.811,3.779,1.631c1.55,0.638,2.705,1.263,3.467,1.875s1.321,1.331,1.68,2.158S286.1,152.979,286.1,154.163z"/>
	<path fill="#2F2E72" d="M300.303,156.702c0,1.386-0.336,2.468-1.008,3.246s-1.599,1.168-2.781,1.168
		c-0.745,0-1.401-0.18-1.969-0.539s-1.003-0.875-1.305-1.547s-0.453-1.448-0.453-2.328c0-1.386,0.336-2.465,1.008-3.238
		s1.594-1.16,2.766-1.16c1.167,0,2.082,0.392,2.746,1.176S300.303,155.338,300.303,156.702z M293.6,156.702
		c0,1.167,0.257,2.077,0.77,2.73s1.238,0.98,2.176,0.98s1.663-0.327,2.176-0.98s0.77-1.563,0.77-2.73
		c0-1.172-0.259-2.081-0.777-2.727s-1.246-0.969-2.184-0.969s-1.66,0.321-2.168,0.965S293.6,155.525,293.6,156.702z"/>
	<path fill="#2F2E72" d="M303.326,152.468v5.5c0,0.854,0.18,1.476,0.539,1.863s0.917,0.582,1.672,0.582
		c1.011,0,1.754-0.255,2.23-0.766s0.715-1.341,0.715-2.492v-4.688h0.766v8.492h-0.656l-0.141-1.172h-0.047
		c-0.552,0.886-1.534,1.328-2.945,1.328c-1.933,0-2.898-1.034-2.898-3.102v-5.547H303.326z"/>
	<path fill="#2F2E72" d="M319.357,152.304c0.614,0,1.146,0.112,1.594,0.336s0.849,0.606,1.203,1.148h0.047
		c-0.031-0.656-0.047-1.3-0.047-1.93v-3.055h0.766v12.156h-0.508l-0.195-1.297h-0.062c-0.646,0.969-1.573,1.453-2.781,1.453
		c-1.172,0-2.067-0.364-2.688-1.094s-0.93-1.792-0.93-3.188c0-1.469,0.308-2.591,0.922-3.367S318.186,152.304,319.357,152.304z
		 M319.357,153.007c-0.927,0-1.624,0.325-2.09,0.977s-0.699,1.597-0.699,2.836c0,2.406,0.935,3.609,2.805,3.609
		c0.958,0,1.661-0.278,2.109-0.836s0.672-1.477,0.672-2.758v-0.133c0-1.312-0.22-2.257-0.66-2.832S320.342,153.007,319.357,153.007z
		"/>
	<path fill="#2F2E72" d="M329.201,161.116c-1.234,0-2.196-0.38-2.887-1.141s-1.035-1.825-1.035-3.195c0-1.354,0.333-2.438,1-3.254
		s1.565-1.223,2.695-1.223c1,0,1.789,0.349,2.367,1.047s0.867,1.646,0.867,2.844v0.625h-6.117c0.011,1.167,0.282,2.058,0.816,2.672
		s1.298,0.922,2.293,0.922c0.484,0,0.91-0.034,1.277-0.102s0.832-0.214,1.395-0.438v0.703c-0.479,0.208-0.922,0.351-1.328,0.426
		S329.69,161.116,329.201,161.116z M328.975,152.991c-0.817,0-1.474,0.27-1.969,0.809s-0.784,1.316-0.867,2.332h5.25
		c0-0.984-0.214-1.754-0.641-2.309S329.729,152.991,328.975,152.991z"/>
	<path fill="#2F2E72" d="M349.318,160.96v-5.57c0-0.828-0.161-1.433-0.484-1.812s-0.817-0.57-1.484-0.57
		c-0.87,0-1.513,0.239-1.93,0.719s-0.625,1.231-0.625,2.258v4.977h-0.789v-5.805c0-1.433-0.656-2.148-1.969-2.148
		c-0.891,0-1.539,0.259-1.945,0.777s-0.609,1.348-0.609,2.488v4.688h-0.773v-8.492h0.641l0.164,1.164h0.047
		c0.234-0.422,0.567-0.749,1-0.98s0.909-0.348,1.43-0.348c1.339,0,2.198,0.503,2.578,1.508h0.031
		c0.276-0.484,0.647-0.856,1.113-1.117s0.996-0.391,1.59-0.391c0.927,0,1.622,0.247,2.086,0.742s0.695,1.281,0.695,2.359v5.555
		H349.318z"/>
	<path fill="#2F2E72" d="M357.99,160.96l-0.195-1.344h-0.062c-0.427,0.547-0.866,0.934-1.316,1.16s-0.983,0.34-1.598,0.34
		c-0.833,0-1.481-0.214-1.945-0.641s-0.695-1.019-0.695-1.773c0-0.828,0.345-1.472,1.035-1.93s1.688-0.7,2.996-0.727l1.617-0.047
		v-0.562c0-0.808-0.164-1.417-0.492-1.828s-0.856-0.617-1.586-0.617c-0.786,0-1.602,0.219-2.445,0.656l-0.289-0.672
		c0.933-0.438,1.854-0.656,2.766-0.656c0.933,0,1.629,0.242,2.09,0.727s0.691,1.239,0.691,2.266v5.648H357.99z M354.865,160.413
		c0.906,0,1.621-0.259,2.145-0.777s0.785-1.238,0.785-2.16v-0.836l-1.484,0.062c-1.192,0.058-2.043,0.243-2.551,0.559
		s-0.762,0.806-0.762,1.473c0,0.531,0.163,0.944,0.488,1.238S354.271,160.413,354.865,160.413z"/>
	<path fill="#2F2E72" d="M364.654,152.304c0.359,0,0.745,0.036,1.156,0.109l-0.148,0.742c-0.354-0.089-0.722-0.133-1.102-0.133
		c-0.724,0-1.317,0.308-1.781,0.922s-0.695,1.391-0.695,2.328v4.688h-0.773v-8.492h0.656l0.078,1.531h0.055
		c0.349-0.625,0.722-1.063,1.117-1.316S364.092,152.304,364.654,152.304z"/>
	<path fill="#2F2E72" d="M370.928,161.116c-1.214,0-2.164-0.383-2.852-1.148s-1.031-1.833-1.031-3.203
		c0-1.406,0.356-2.501,1.07-3.285s1.69-1.176,2.93-1.176c0.734,0,1.438,0.128,2.109,0.383l-0.211,0.688
		c-0.734-0.245-1.372-0.367-1.914-0.367c-1.042,0-1.831,0.321-2.367,0.965s-0.805,1.569-0.805,2.777
		c0,1.146,0.269,2.043,0.805,2.691s1.286,0.973,2.25,0.973c0.771,0,1.487-0.138,2.148-0.414v0.719
		C372.519,160.983,371.808,161.116,370.928,161.116z"/>
	<path fill="#2F2E72" d="M381.061,160.96v-5.508c0-0.854-0.18-1.476-0.539-1.863s-0.917-0.582-1.672-0.582
		c-1.016,0-1.759,0.257-2.23,0.77s-0.707,1.345-0.707,2.496v4.688h-0.773v-12.156h0.773v3.867l-0.039,1.086h0.055
		c0.317-0.511,0.719-0.88,1.203-1.109s1.086-0.344,1.805-0.344c1.927,0,2.891,1.034,2.891,3.102v5.555H381.061z"/>
	<path fill="#2F2E72" d="M388.006,161.116c-1.234,0-2.196-0.38-2.887-1.141s-1.035-1.825-1.035-3.195c0-1.354,0.333-2.438,1-3.254
		s1.565-1.223,2.695-1.223c1,0,1.789,0.349,2.367,1.047s0.867,1.646,0.867,2.844v0.625h-6.117c0.011,1.167,0.282,2.058,0.816,2.672
		s1.298,0.922,2.293,0.922c0.484,0,0.91-0.034,1.277-0.102s0.832-0.214,1.395-0.438v0.703c-0.479,0.208-0.922,0.351-1.328,0.426
		S388.495,161.116,388.006,161.116z M387.779,152.991c-0.817,0-1.474,0.27-1.969,0.809s-0.784,1.316-0.867,2.332h5.25
		c0-0.984-0.214-1.754-0.641-2.309S388.534,152.991,387.779,152.991z"/>
	<path fill="#2F2E72" d="M396.701,152.304c0.359,0,0.745,0.036,1.156,0.109l-0.148,0.742c-0.354-0.089-0.722-0.133-1.102-0.133
		c-0.724,0-1.317,0.308-1.781,0.922s-0.695,1.391-0.695,2.328v4.688h-0.773v-8.492h0.656l0.078,1.531h0.055
		c0.349-0.625,0.722-1.063,1.117-1.316S396.139,152.304,396.701,152.304z"/>
	<path fill="#4591CE" d="M18.919,202.351c-1.12,0-2.123-0.186-3.008-0.557c-0.886-0.371-1.765-1.038-2.637-2.002h-0.352
		c0.234,1.55,0.352,2.513,0.352,2.891v8.887H5.638v-31.738h6.211l1.074,2.812h0.352c1.419-2.136,3.379-3.203,5.879-3.203
		c2.448,0,4.368,1.016,5.762,3.047c1.393,2.031,2.09,4.817,2.09,8.359c0,3.567-0.726,6.377-2.178,8.428
		C23.375,201.325,21.406,202.351,18.919,202.351z M16.361,185.437c-1.12,0-1.904,0.4-2.354,1.201s-0.693,1.989-0.732,3.564v0.605
		c0,1.901,0.254,3.274,0.762,4.121s1.309,1.27,2.402,1.27c0.977,0,1.686-0.42,2.129-1.26c0.442-0.84,0.664-2.229,0.664-4.17
		c0-1.901-0.222-3.265-0.664-4.092C18.125,185.85,17.389,185.437,16.361,185.437z"/>
	<path fill="#4591CE" d="M31.205,174.323c0-1.146,0.319-1.999,0.957-2.559c0.638-0.56,1.667-0.84,3.086-0.84
		c1.419,0,2.454,0.286,3.105,0.859c0.651,0.573,0.977,1.419,0.977,2.539c0,2.239-1.361,3.359-4.082,3.359
		C32.552,177.683,31.205,176.562,31.205,174.323z M39.037,201.96H31.4v-22.129h7.637V201.96z"/>
	<path fill="#4591CE" d="M55.052,202.351c-3.685,0-6.546-0.979-8.584-2.939c-2.038-1.96-3.057-4.749-3.057-8.369
		c0-3.737,0.944-6.604,2.832-8.604c1.888-1.999,4.583-2.998,8.086-2.998c3.333,0,5.908,0.869,7.725,2.607s2.725,4.241,2.725,7.51
		v3.398H51.126c0.052,1.237,0.504,2.207,1.357,2.91c0.853,0.703,2.015,1.055,3.486,1.055c1.341,0,2.575-0.127,3.701-0.381
		c1.126-0.254,2.347-0.687,3.662-1.299v5.488c-1.198,0.612-2.435,1.035-3.711,1.27C58.346,202.233,56.823,202.351,55.052,202.351z
		 M54.603,184.636c-0.898,0-1.65,0.283-2.256,0.85s-0.96,1.455-1.064,2.666h6.562c-0.026-1.067-0.329-1.921-0.908-2.559
		C56.357,184.955,55.58,184.636,54.603,184.636z"/>
	<path fill="#4591CE" d="M75.97,202.351c-1.576,0-2.953-0.449-4.131-1.348c-1.179-0.898-2.09-2.22-2.734-3.965
		s-0.967-3.782-0.967-6.113c0-3.594,0.723-6.406,2.168-8.438s3.431-3.047,5.957-3.047c1.237,0,2.321,0.247,3.252,0.742
		c0.931,0.495,1.78,1.328,2.549,2.5h0.156c-0.248-1.731-0.371-3.464-0.371-5.195v-5.918h7.695v30.391h-5.762l-1.641-2.793h-0.293
		C80.534,201.289,78.574,202.351,75.97,202.351z M79.095,196.315c1.224,0,2.086-0.384,2.588-1.152
		c0.501-0.769,0.771-1.953,0.811-3.555v-0.605c0-1.953-0.28-3.343-0.84-4.17c-0.56-0.827-1.439-1.24-2.637-1.24
		c-1.003,0-1.781,0.472-2.334,1.416c-0.554,0.944-0.83,2.288-0.83,4.033c0,1.719,0.28,3.027,0.84,3.926
		C77.252,195.866,78.053,196.315,79.095,196.315z"/>
	<path fill="#4591CE" d="M111.908,195.163c0,2.37-0.808,4.16-2.422,5.371c-1.615,1.211-3.933,1.816-6.953,1.816
		c-1.641,0-3.066-0.088-4.277-0.264s-2.448-0.498-3.711-0.967v-6.113c1.185,0.521,2.483,0.95,3.896,1.289
		c1.413,0.339,2.672,0.508,3.779,0.508c1.653,0,2.48-0.378,2.48-1.133c0-0.391-0.231-0.739-0.693-1.045
		c-0.462-0.306-1.807-0.901-4.033-1.787c-2.031-0.833-3.451-1.78-4.258-2.842c-0.808-1.062-1.211-2.405-1.211-4.033
		c0-2.058,0.794-3.659,2.383-4.805c1.588-1.146,3.834-1.719,6.738-1.719c1.458,0,2.829,0.159,4.111,0.479
		c1.282,0.319,2.614,0.784,3.994,1.396l-2.07,4.922c-1.016-0.456-2.09-0.843-3.223-1.162s-2.058-0.479-2.773-0.479
		c-1.25,0-1.875,0.306-1.875,0.918c0,0.378,0.218,0.7,0.654,0.967c0.436,0.267,1.696,0.811,3.779,1.631
		c1.549,0.638,2.705,1.263,3.467,1.875s1.321,1.331,1.68,2.158C111.729,192.973,111.908,193.979,111.908,195.163z"/>
	<path fill="#4591CE" d="M140.501,201.96v-12.07c0-1.472-0.212-2.581-0.635-3.33c-0.423-0.749-1.104-1.123-2.041-1.123
		c-1.289,0-2.22,0.515-2.793,1.543c-0.573,1.028-0.859,2.793-0.859,5.293v9.688h-7.637v-22.129h5.762l0.957,2.734h0.449
		c0.651-1.042,1.553-1.823,2.705-2.344s2.477-0.781,3.975-0.781c2.448,0,4.352,0.71,5.713,2.129c1.36,1.419,2.041,3.418,2.041,5.996
		v14.395H140.501z"/>
	<path fill="#4591CE" d="M169.095,201.96l-0.957-2.754h-0.449c-0.638,1.016-1.527,1.794-2.666,2.334
		c-1.14,0.54-2.478,0.811-4.014,0.811c-2.435,0-4.33-0.706-5.684-2.119c-1.354-1.413-2.031-3.408-2.031-5.986v-14.414h7.637v12.09
		c0,1.445,0.205,2.539,0.615,3.281s1.084,1.113,2.021,1.113c1.315,0,2.252-0.518,2.812-1.553c0.56-1.035,0.84-2.783,0.84-5.244
		v-9.688h7.637v22.129H169.095z"/>
	<path fill="#4591CE" d="M197.22,195.163c0,2.37-0.808,4.16-2.422,5.371c-1.615,1.211-3.933,1.816-6.953,1.816
		c-1.641,0-3.066-0.088-4.277-0.264s-2.448-0.498-3.711-0.967v-6.113c1.185,0.521,2.483,0.95,3.896,1.289
		c1.413,0.339,2.672,0.508,3.779,0.508c1.653,0,2.48-0.378,2.48-1.133c0-0.391-0.231-0.739-0.693-1.045
		c-0.462-0.306-1.807-0.901-4.033-1.787c-2.031-0.833-3.451-1.78-4.258-2.842c-0.808-1.062-1.211-2.405-1.211-4.033
		c0-2.058,0.794-3.659,2.383-4.805c1.588-1.146,3.834-1.719,6.738-1.719c1.458,0,2.829,0.159,4.111,0.479
		c1.282,0.319,2.614,0.784,3.994,1.396l-2.07,4.922c-1.016-0.456-2.09-0.843-3.223-1.162s-2.058-0.479-2.773-0.479
		c-1.25,0-1.875,0.306-1.875,0.918c0,0.378,0.218,0.7,0.654,0.967c0.436,0.267,1.696,0.811,3.779,1.631
		c1.549,0.638,2.705,1.263,3.467,1.875s1.321,1.331,1.68,2.158C197.041,192.973,197.22,193.979,197.22,195.163z"/>
	<path fill="#4591CE" d="M200.501,198.718c0-1.198,0.354-2.122,1.064-2.773c0.709-0.651,1.741-0.977,3.096-0.977
		c1.289,0,2.278,0.325,2.969,0.977c0.69,0.651,1.036,1.575,1.036,2.773c0,1.172-0.355,2.087-1.065,2.744
		c-0.71,0.657-1.689,0.986-2.939,0.986c-1.289,0-2.305-0.325-3.047-0.977S200.501,199.902,200.501,198.718z"/>
</g>
</svg>
